<svg version="1.1" xmlns="http://www.w3.org/2000/svg" xmlns:xlink="http://www.w3.org/1999/xlink" width="1500" height="1500" viewBox="0,0,1500,1500"><g fill="none" fill-rule="nonzero" stroke="none" stroke-width="1" stroke-linecap="butt" stroke-linejoin="miter" stroke-miterlimit="10" stroke-dasharray="" stroke-dashoffset="0" font-family="none" font-weight="none" font-size="none" text-anchor="none" style="mix-blend-mode: normal"><path d="M520.14675,736.70562c0,-7.79322 6.31765,-14.11088 14.11088,-14.11088c7.79322,0 14.11088,6.31765 14.11088,14.11088c0,7.79322 -6.31765,14.11088 -14.11088,14.11088c-7.79322,0 -14.11088,-6.31765 -14.11088,-14.11088zM453.83939,600.38984c0,-0.13036 0.00175,-0.26031 0.00522,-0.38984h17.22171l0,14.34487c-0.95604,0.20203 -1.94741,0.3083 -2.9636,0.3083c-7.87742,0 -14.26333,-6.38591 -14.26333,-14.26333zM257.75426,296.07121c0,6.57781 -5.33237,11.91018 -11.91018,11.91018c-5.20118,0 -9.62367,-3.33396 -11.24697,-7.98139h21.11238l0,-10.60371c1.29075,1.90398 2.04478,4.20139 2.04478,6.67492zM508.91763,386.71617c0,-3.74304 1.49227,-7.13755 3.91432,-9.62104v19.24208c-2.42206,-2.48349 -3.91432,-5.878 -3.91432,-9.62104zM479.3983,227.66092c0,-2.78961 2.26143,-5.05104 5.05104,-5.05104c2.78961,0 5.05104,2.26143 5.05104,5.05104c0,2.78961 -2.26143,5.05104 -5.05104,5.05104c-2.78961,0 -5.05104,-2.26143 -5.05104,-5.05104zM515.70568,262.71265c0,-3.73702 3.02945,-6.76647 6.76647,-6.76647c3.73702,0 6.76647,3.02945 6.76647,6.76647c0,3.73702 -3.02945,6.76647 -6.76647,6.76647c-3.73702,0 -6.76647,-3.02945 -6.76647,-6.76647zM364.02876,242.74756c0,-0.99914 0.2631,-1.93682 0.72379,-2.74756h9.69126c0.46069,0.81074 0.72379,1.74842 0.72379,2.74756c0,3.07591 -2.49351,5.56942 -5.56942,5.56942c-3.07591,0 -5.56942,-2.49351 -5.56942,-5.56942zM580.80222,795.54097c0,-5.03882 4.08477,-9.12359 9.12359,-9.12359c5.03882,0 9.12359,4.08477 9.12359,9.12359c0,5.03882 -4.08477,9.12359 -9.12359,9.12359c-5.03882,0 -9.12359,-4.08477 -9.12359,-9.12359zM358.46583,471.09802c0,-9.91778 8.03995,-17.95772 17.95772,-17.95772c9.91778,0 17.95772,8.03995 17.95772,17.95772c0,9.91778 -8.03995,17.95772 -17.95772,17.95772c-9.91778,0 -17.95772,-8.03995 -17.95772,-17.95772zM708.42532,592.29142c0,-3.10616 2.51804,-5.6242 5.6242,-5.6242c3.10616,0 5.6242,2.51804 5.6242,5.6242c0,3.10616 -2.51804,5.6242 -5.6242,5.6242c-3.10616,0 -5.6242,-2.51804 -5.6242,-5.6242zM452.21985,530.1464c0,-3.35496 2.71973,-6.07469 6.07469,-6.07469c3.35496,0 6.07469,2.71973 6.07469,6.07469c0,3.35496 -2.71973,6.07469 -6.07469,6.07469c-3.35496,0 -6.07469,-2.71973 -6.07469,-6.07469zM496.93526,449.68405c0,-2.84768 2.3085,-5.15619 5.15619,-5.15619c2.84768,0 5.15619,2.3085 5.15619,5.15619c0,2.84768 -2.3085,5.15619 -5.15619,5.15619c-2.84768,0 -5.15619,-2.3085 -5.15619,-5.15619zM757.42507,723.77312c0,-2.87732 2.33253,-5.20986 5.20986,-5.20986c2.87732,0 5.20986,2.33253 5.20986,5.20986c0,2.87732 -2.33253,5.20986 -5.20986,5.20986c-2.87732,0 -5.20986,-2.33253 -5.20986,-5.20986zM162.49311,304.7468c-2.70637,0 -4.92417,-2.09179 -5.12483,-4.7468h10.24966c-0.20066,2.65501 -2.41846,4.7468 -5.12483,4.7468zM203.81448,617.67965c0,-4.44457 3.60304,-8.04761 8.04761,-8.04761c4.44457,0 8.04761,3.60304 8.04761,8.04761c0,4.44457 -3.60304,8.04761 -8.04761,8.04761c-4.44457,0 -8.04761,-3.60304 -8.04761,-8.04761zM739.38948,689.47284c0,-2.84821 2.30893,-5.15714 5.15714,-5.15714c2.84821,0 5.15714,2.30893 5.15714,5.15714c0,2.84821 -2.30893,5.15714 -5.15714,5.15714c-2.84821,0 -5.15714,-2.30893 -5.15714,-5.15714zM285.92519,425.39519c0,-1.98229 0.56784,-3.83195 1.54974,-5.39519l17.2152,0c0.9819,1.56324 1.54974,3.41291 1.54974,5.39519c0,5.60975 -4.5476,10.15734 -10.15734,10.15734c-5.60975,0 -10.15734,-4.5476 -10.15734,-10.15734zM596.48196,704.21231c0,-2.99881 2.43101,-5.42982 5.42982,-5.42982c2.99881,0 5.42982,2.43101 5.42982,5.42982c0,2.99881 -2.43101,5.42982 -5.42982,5.42982c-2.99881,0 -5.42982,-2.43101 -5.42982,-5.42982zM502.95001,364.8714c0,-1.77999 0.4881,-3.44597 1.33776,-4.8714h8.54418v14.39285c-0.11748,0.00429 -0.23551,0.00646 -0.35404,0.00646c-5.26212,0 -9.5279,-4.26579 -9.5279,-9.5279zM694.42039,273.64093c0,-3.01212 2.42496,-5.45787 5.42912,-5.49148l0,10.98296c-3.00416,-0.03362 -5.42912,-2.47936 -5.42912,-5.49148zM459.49766,626.95086c0,-3.76592 3.05288,-6.81881 6.81881,-6.81881c1.84672,0 3.52197,0.73412 4.74985,1.92645v9.78471c-1.22788,1.19233 -2.90313,1.92645 -4.74985,1.92645c-3.76592,0 -6.81881,-3.05288 -6.81881,-6.81881zM467.13569,200.96296c0,-4.31481 3.49784,-7.81265 7.81265,-7.81265c4.31481,0 7.81265,3.49784 7.81265,7.81265c0,4.31481 -3.49784,7.81265 -7.81265,7.81265c-4.31481,0 -7.81265,-3.49784 -7.81265,-7.81265zM226.05872,633.25145c0,-3.91342 3.17245,-7.08587 7.08587,-7.08587c3.91342,0 7.08587,3.17245 7.08587,7.08587c0,3.91342 -3.17245,7.08587 -7.08587,7.08587c-3.91342,0 -7.08587,-3.17245 -7.08587,-7.08587zM489.91965,2.89586c0,3.98092 -1.55092,7.5996 -4.08151,10.28478v-13.18064l3.80218,0c0.18328,0.93699 0.27933,1.90521 0.27933,2.89586zM418.3916,494.3605c0,3.14325 -2.5481,5.69135 -5.69135,5.69135c-2.09844,0 -3.93163,-1.13567 -4.91847,-2.82592c-4.06784,-0.38348 -7.2507,-3.80824 -7.2507,-7.97641c0,-4.42497 3.58715,-8.01212 8.01212,-8.01212c4.42497,0 8.01212,3.58715 8.01212,8.01212c0,0.29757 -0.01622,0.59135 -0.04783,0.8805c1.1568,1.04174 1.88411,2.55118 1.88411,4.23048zM522.57791,547.21673c0,-5.5108 4.46739,-9.97818 9.97818,-9.97818c5.5108,0 9.97818,4.46739 9.97818,9.97818c0,5.5108 -4.46739,9.97818 -9.97818,9.97818c-5.5108,0 -9.97818,-4.46739 -9.97818,-9.97818zM593.15558,208.89843c0,-2.91029 2.35925,-5.26954 5.26954,-5.26954c2.91029,0 5.26954,2.35925 5.26954,5.26954c0,2.91029 -2.35925,5.26954 -5.26954,5.26954c-2.91029,0 -5.26954,-2.35925 -5.26954,-5.26954zM34.87895,343.51552c0,-3.75028 3.04021,-6.79049 6.79049,-6.79049c3.75028,0 6.79049,3.04021 6.79049,6.79049c0,3.75028 -3.04021,6.79049 -6.79049,6.79049c-3.75028,0 -6.79049,-3.04021 -6.79049,-6.79049zM264.68968,276.67661c0,-4.31449 3.49758,-7.81207 7.81207,-7.81207c4.31449,0 7.81207,3.49758 7.81207,7.81207c0,4.31449 -3.49758,7.81207 -7.81207,7.81207c-4.31449,0 -7.81207,-3.49758 -7.81207,-7.81207zM34.8302,304.03211c0,-1.50833 0.48927,-2.90238 1.31775,-4.03211h11.01508c0.82848,1.12973 1.31775,2.52378 1.31775,4.03211c0,3.7695 -3.05579,6.82529 -6.82529,6.82529c-3.7695,0 -6.82529,-3.05579 -6.82529,-6.82529zM537.10376,178.27186c0,-3.2593 2.64218,-5.90148 5.90148,-5.90148c3.2593,0 5.90148,2.64218 5.90148,5.90148c0,3.2593 -2.64218,5.90148 -5.90148,5.90148c-3.2593,0 -5.90148,-2.64218 -5.90148,-5.90148zM323.43352,474.18902c0,-4.00015 3.24277,-7.24292 7.24292,-7.24292c4.00015,0 7.24292,3.24277 7.24292,7.24292c0,4.00015 -3.24277,7.24292 -7.24292,7.24292c-4.00015,0 -7.24292,-3.24277 -7.24292,-7.24292zM525.29218,114.68789c0,-4.43811 3.5978,-8.0359 8.0359,-8.0359c4.43811,0 8.0359,3.5978 8.0359,8.0359c0,4.43811 -3.5978,8.0359 -8.0359,8.0359c-4.43811,0 -8.0359,-3.5978 -8.0359,-8.0359zM748.38366,781.46804c0,-7.2116 5.84615,-13.05775 13.05775,-13.05775c7.2116,0 13.05775,5.84615 13.05775,13.05775c0,7.2116 -5.84615,13.05775 -13.05775,13.05775c-7.2116,0 -13.05775,-5.84615 -13.05775,-13.05775zM434.19066,157.42837c0,-3.17703 2.57549,-5.75251 5.75251,-5.75251c3.17703,0 5.75251,2.57549 5.75251,5.75251c0,3.17703 -2.57549,5.75251 -5.75251,5.75251c-3.17703,0 -5.75251,-2.57549 -5.75251,-5.75251zM585.49402,684.91842c0,-7.12957 5.77966,-12.90923 12.90923,-12.90923c7.12957,0 12.90923,5.77966 12.90923,12.90923c0,7.12957 -5.77966,12.90923 -12.90923,12.90923c-7.12957,0 -12.90923,-5.77966 -12.90923,-12.90923zM690.05719,564.12978c0,-5.14156 4.16805,-9.30961 9.30961,-9.30961c5.14156,0 9.30961,4.16805 9.30961,9.30961c0,5.14156 -4.16805,9.30961 -9.30961,9.30961c-5.14156,0 -9.30961,-4.16805 -9.30961,-9.30961zM579.2382,43.21241c0,-2.91551 2.36349,-5.27899 5.27899,-5.27899c2.91551,0 5.27899,2.36349 5.27899,5.27899c0,2.91551 -2.36349,5.27899 -5.27899,5.27899c-2.91551,0 -5.27899,-2.36349 -5.27899,-5.27899zM596.74833,266.12383c0,-4.0562 3.2882,-7.34439 7.34439,-7.34439c4.0562,0 7.34439,3.2882 7.34439,7.34439c0,4.0562 -3.2882,7.34439 -7.34439,7.34439c-4.0562,0 -7.34439,-3.2882 -7.34439,-7.34439zM627.28605,186.87963c0,-3.9571 3.20786,-7.16496 7.16496,-7.16496c3.9571,0 7.16496,3.20786 7.16496,7.16496c0,3.9571 -3.20786,7.16496 -7.16496,7.16496c-3.9571,0 -7.16496,-3.20786 -7.16496,-7.16496zM633.70872,553.95992c0,-3.28959 2.66674,-5.95633 5.95633,-5.95633c3.28959,0 5.95633,2.66674 5.95633,5.95633c0,3.28959 -2.66674,5.95633 -5.95633,5.95633c-3.28959,0 -5.95633,-2.66674 -5.95633,-5.95633zM472.10029,514.51358c0,-3.17872 2.57686,-5.75558 5.75558,-5.75558c3.17872,0 5.75558,2.57686 5.75558,5.75558c0,3.17872 -2.57686,5.75558 -5.75558,5.75558c-3.17872,0 -5.75558,-2.57686 -5.75558,-5.75558zM586.61025,21.39533c0,-3.06681 2.48614,-5.55294 5.55294,-5.55294c3.06681,0 5.55294,2.48614 5.55294,5.55294c0,3.06681 -2.48614,5.55294 -5.55294,5.55294c-3.06681,0 -5.55294,-2.48614 -5.55294,-5.55294zM723.94443,172.05413c0,-5.90332 4.78558,-10.6889 10.6889,-10.6889c5.90332,0 10.6889,4.78558 10.6889,10.6889c0,3.15423 -1.36624,5.98935 -3.53923,7.94587l-14.29934,0c-2.17299,-1.95652 -3.53923,-4.79164 -3.53923,-7.94587zM280.07918,503.5198c0,-4.10407 3.32701,-7.43108 7.43108,-7.43108c4.10407,0 7.43108,3.32701 7.43108,7.43108c0,4.10407 -3.32701,7.43108 -7.43108,7.43108c-4.10407,0 -7.43108,-3.32701 -7.43108,-7.43108zM650.70425,153.53987c0,-5.93872 4.81428,-10.753 10.753,-10.753c5.93872,0 10.753,4.81428 10.753,10.753c0,5.93872 -4.81428,10.753 -10.753,10.753c-5.93872,0 -10.753,-4.81428 -10.753,-10.753z" stroke="#000000"/><path d="M470.2916,650.24631c-2.69339,-2.35163 -4.39641,-5.80906 -4.40114,-9.66436c-7.33473,-0.22506 -13.21162,-6.24176 -13.21162,-13.63109c0,-0.82682 0.07358,-1.63645 0.21455,-2.4227c-8.00224,-5.05273 -13.31734,-13.97482 -13.31734,-24.13832c0,-0.13015 0.00087,-0.2601 0.00261,-0.38984h31.48765v51.31187c-0.27824,-0.3392 -0.53704,-0.69496 -0.77472,-1.06556zM506.03587,736.70562c0,-15.58644 12.63531,-28.22175 28.22175,-28.22175c15.58644,0 28.22175,12.63531 28.22175,28.22175c0,15.58644 -12.63531,28.22175 -28.22175,28.22175c-15.58644,0 -28.22175,-12.63531 -28.22175,-28.22175zM504.9183,2.89586c0,12.71534 -7.91132,23.58288 -19.08016,27.94884v-30.8447l18.94218,0c0.09128,0.95297 0.13798,1.91896 0.13798,2.89586zM256.96636,275.0015c0.83579,-7.84128 7.47232,-13.94903 15.5354,-13.94903c8.62897,0 15.62414,6.99517 15.62414,15.62414c0,8.62897 -6.99517,15.62414 -15.62414,15.62414c-1.09253,0 -2.15887,-0.11214 -3.18813,-0.32553c0.23062,1.33073 0.35082,2.69932 0.35082,4.09598c0,13.15563 -10.66474,23.82037 -23.82037,23.82037c-11.81739,0 -21.62488,-8.60538 -23.49791,-19.89158h33.36331v-25.6166c0.42582,0.19401 0.84493,0.40019 1.25688,0.6181zM178.19106,608.40917c-2.79343,0 -5.48923,-0.41796 -8.0283,-1.19475c3.44289,4.75589 5.47242,10.60197 5.47242,16.92208c0,8.75767 -3.89694,16.60516 -10.05138,21.90303v-46.03953l32.36023,0c-4.98588,5.18358 -11.99274,8.40917 -19.75297,8.40917zM493.42211,364.8714c0,-1.68373 0.21837,-3.31646 0.62833,-4.8714h18.78151l0,52.45948c-10.34863,-3.96877 -17.69527,-13.99809 -17.69527,-25.7433c0,-3.70407 0.73068,-7.23749 2.05576,-10.46397c-2.36836,-3.17576 -3.77033,-7.11456 -3.77033,-11.3808zM634.92099,664.94365c-3.70549,0 -6.94806,-1.98198 -8.72543,-4.94365h17.45087c-1.77738,2.96167 -5.01995,4.94365 -8.72543,4.94365zM474.34726,227.66092c0,-5.57923 4.52286,-10.10208 10.10208,-10.10208c5.57923,0 10.10208,4.52286 10.10208,10.10208c0,5.57923 -4.52286,10.10208 -10.10208,10.10208c-5.57923,0 -10.10208,-4.52286 -10.10208,-10.10208zM55.30607,304.03211c0,7.53901 -6.11157,13.65058 -13.65058,13.65058c-7.53901,0 -13.65058,-6.11157 -13.65058,-13.65058c0,-1.40359 0.21184,-2.7577 0.60529,-4.03211h26.09059c0.39345,1.27441 0.60529,2.62852 0.60529,4.03211zM11.13122,302.94004c-2.4951,0 -4.78308,-0.88677 -6.56598,-2.36233v-0.57771h13.77359c-1.85823,1.81882 -4.40199,2.94004 -7.20761,2.94004zM508.93921,262.71265c0,-7.47403 6.0589,-13.53294 13.53294,-13.53294c7.47403,0 13.53294,6.0589 13.53294,13.53294c0,7.47403 -6.0589,13.53294 -13.53294,13.53294c-7.47403,0 -13.53294,-6.0589 -13.53294,-13.53294zM358.45935,242.74756c0,-0.94819 0.11847,-1.86871 0.34143,-2.74756l21.59482,0c0.22295,0.87885 0.34143,1.79937 0.34143,2.74756c0,6.15181 -4.98703,11.13884 -11.13884,11.13884c-6.15181,0 -11.13884,-4.98703 -11.13884,-11.13884zM252.22179,489.96956c0,4.7887 -1.61117,9.20109 -4.321,12.72467v-22.69423h1.7933c1.61193,2.96288 2.5277,6.35928 2.5277,9.96956zM571.67863,795.54097c0,-10.07764 8.16954,-18.24718 18.24718,-18.24718c10.07764,0 18.24718,8.16954 18.24718,18.24718c0,10.07764 -8.16954,18.24718 -18.24718,18.24718c-10.07764,0 -18.24718,-8.16954 -18.24718,-18.24718zM376.42355,435.18258c19.83555,0 35.91544,16.07989 35.91544,35.91544c0,0.86006 -0.03023,1.71306 -0.08969,2.558c7.06304,1.67237 12.31812,8.01924 12.31812,15.5935c0,1.41659 -0.18382,2.79025 -0.5289,4.09843c0.02941,0.33359 0.04442,0.67132 0.04442,1.01255c0,6.28649 -5.09621,11.3827 -11.3827,11.3827c-1.15404,0 -2.26796,-0.17174 -3.31761,-0.49105c-0.278,0.01435 -0.55787,0.02161 -0.83944,0.02161c-4.48196,0 -8.53415,-1.84007 -11.44233,-4.80598c-5.84643,4.12364 -12.97902,6.54569 -20.67731,6.54569c-15.78394,0 -29.18978,-10.18182 -34.00781,-24.33571c-2.632,3.63354 -6.90963,5.99711 -11.73931,5.99711c-8.00031,0 -14.48584,-6.48553 -14.48584,-14.48584c0,-8.00031 6.48553,-14.48584 14.48584,-14.48584c4.1289,0 7.85434,1.72743 10.49302,4.49901c3.21583,-16.53644 17.77716,-29.01962 35.25409,-29.01962zM702.80113,592.29142c0,-6.21232 5.03608,-11.2484 11.2484,-11.2484c6.21232,0 11.2484,5.03608 11.2484,11.2484c0,2.98326 -1.16136,5.69527 -3.05664,7.70858h-16.38352c-1.89528,-2.01331 -3.05664,-4.72532 -3.05664,-7.70858zM446.14516,530.1464c0,-6.70991 5.43946,-12.14937 12.14937,-12.14937c6.70991,0 12.14937,5.43946 12.14937,12.14937c0,4.05543 -1.98699,7.64678 -5.04055,9.8536h-14.21765c-3.05355,-2.20682 -5.04055,-5.79817 -5.04055,-9.8536zM491.77907,449.68405c0,-5.69537 4.61701,-10.31237 10.31237,-10.31237c5.69537,0 10.31237,4.61701 10.31237,10.31237c0,5.69537 -4.61701,10.31237 -10.31237,10.31237c-5.69537,0 -10.31237,-4.61701 -10.31237,-10.31237zM752.21521,723.77312c0,-5.75465 4.66506,-10.41971 10.41971,-10.41971c5.75465,0 10.41971,4.66506 10.41971,10.41971c0,5.75465 -4.66506,10.41971 -10.41971,10.41971c-5.75465,0 -10.41971,-4.66506 -10.41971,-10.41971zM471.3102,718.33394c2.40053,0 4.66019,0.60311 6.63573,1.66606h-13.27146c1.97554,-1.06295 4.23521,-1.66606 6.63573,-1.66606zM485.33495,732.35869c0,1.29571 -0.17571,2.55038 -0.5046,3.74148l0,-7.48297c0.32889,1.1911 0.5046,2.44577 0.5046,3.74148zM162.49311,309.88641c-5.54553,0 -10.0654,-4.39139 -10.27186,-9.88641l20.54373,0c-0.20646,5.49503 -4.72633,9.88641 -10.27186,9.88641zM195.76686,617.67965c0,-8.88915 7.20608,-16.09522 16.09522,-16.09522c8.88915,0 16.09522,7.20608 16.09522,16.09522c0,0.8344 -0.06349,1.65398 -0.18591,2.45415c1.65706,-0.67947 3.47138,-1.05409 5.3732,-1.05409c7.82684,0 14.17174,6.3449 14.17174,14.17174c0,7.82684 -6.3449,14.17174 -14.17174,14.17174c-7.82684,0 -14.17174,-6.3449 -14.17174,-14.17174c0,-0.38761 0.01556,-0.77158 0.04609,-1.15133c-2.15575,1.07196 -4.58591,1.67475 -7.15686,1.67475c-8.88915,0 -16.09522,-7.20608 -16.09522,-16.09522zM734.23234,689.47284c0,-5.69642 4.61786,-10.31429 10.31429,-10.31429c5.69642,0 10.31429,4.61786 10.31429,10.31429c0,5.69642 -4.61786,10.31429 -10.31429,10.31429c-5.69642,0 -10.31429,-4.61786 -10.31429,-10.31429zM275.76785,425.39519c0,-1.86801 0.25213,-3.67713 0.72422,-5.39519h36.70292v-5.55709c2.02688,3.16035 3.20224,6.91906 3.20224,10.95228c0,11.21949 -9.0952,20.31469 -20.31469,20.31469c-11.21949,0 -20.31469,-9.0952 -20.31469,-20.31469zM601.91178,715.07195c-3.81564,0 -7.17166,-1.96786 -9.10853,-4.94406c-11.56672,-2.55794 -20.21846,-12.87335 -20.21846,-25.20947c0,-11.91207 8.06715,-21.93996 19.0362,-24.91842h13.5645c10.96906,2.97846 19.0362,13.00635 19.0362,24.91842c0,9.04829 -4.65456,17.00945 -11.69993,21.61973c-1.06482,4.87998 -5.41071,8.5338 -10.60999,8.5338zM688.92856,273.64093c0,-6.04519 4.8837,-10.94974 10.92095,-10.98349v21.96698c-6.03725,-0.03376 -10.92095,-4.9383 -10.92095,-10.98349zM459.32304,200.96296c0,-8.62961 6.99568,-15.6253 15.6253,-15.6253c8.62961,0 15.6253,6.99568 15.6253,15.6253c0,8.62961 -6.99568,15.6253 -15.6253,15.6253c-8.62961,0 -15.6253,-6.99568 -15.6253,-15.6253zM512.59973,547.21673c0,-11.0216 8.93477,-19.95637 19.95637,-19.95637c11.0216,0 19.95637,8.93477 19.95637,19.95637c0,11.0216 -8.93477,19.95637 -19.95637,19.95637c-11.0216,0 -19.95637,-8.93477 -19.95637,-19.95637zM587.88604,208.89843c0,-5.82058 4.71851,-10.53909 10.53909,-10.53909c5.82058,0 10.53909,4.71851 10.53909,10.53909c0,5.82058 -4.71851,10.53909 -10.53909,10.53909c-5.82058,0 -10.53909,-4.71851 -10.53909,-10.53909zM28.08846,343.51552c0,-7.50057 6.08041,-13.58098 13.58098,-13.58098c7.50057,0 13.58098,6.08041 13.58098,13.58098c0,7.50057 -6.08041,13.58098 -13.58098,13.58098c-7.50057,0 -13.58098,-6.08041 -13.58098,-13.58098zM531.20227,178.27186c0,-6.5186 5.28437,-11.80297 11.80297,-11.80297c6.5186,0 11.80297,5.28437 11.80297,11.80297c0,6.5186 -5.28437,11.80297 -11.80297,11.80297c-6.5186,0 -11.80297,-5.28437 -11.80297,-11.80297zM517.25628,114.68789c0,-8.87621 7.19559,-16.07181 16.07181,-16.07181c8.87621,0 16.07181,7.19559 16.07181,16.07181c0,8.87621 -7.19559,16.07181 -16.07181,16.07181c-8.87621,0 -16.07181,-7.19559 -16.07181,-16.07181zM735.32591,781.46804c0,-14.42319 11.69231,-26.1155 26.1155,-26.1155c14.42319,0 26.1155,11.69231 26.1155,26.1155c0,14.42319 -11.69231,26.1155 -26.1155,26.1155c-14.42319,0 -26.1155,-11.69231 -26.1155,-26.1155zM428.43815,157.42837c0,-6.35405 5.15098,-11.50503 11.50503,-11.50503c6.35405,0 11.50503,5.15098 11.50503,11.50503c0,6.35405 -5.15098,11.50503 -11.50503,11.50503c-6.35405,0 -11.50503,-5.15098 -11.50503,-11.50503zM680.74758,564.12978c0,-10.28311 8.33611,-18.61922 18.61922,-18.61922c10.28311,0 18.61922,8.33611 18.61922,18.61922c0,10.28311 -8.33611,18.61922 -18.61922,18.61922c-10.28311,0 -18.61922,-8.33611 -18.61922,-18.61922zM573.95921,43.21241c0,-5.83101 4.72697,-10.55798 10.55798,-10.55798c5.83101,0 10.55798,4.72697 10.55798,10.55798c0,5.83101 -4.72697,10.55798 -10.55798,10.55798c-5.83101,0 -10.55798,-4.72697 -10.55798,-10.55798zM589.40394,266.12383c0,-8.11239 6.57639,-14.68879 14.68879,-14.68879c8.11239,0 14.68879,6.57639 14.68879,14.68879c0,8.11239 -6.57639,14.68879 -14.68879,14.68879c-8.11239,0 -14.68879,-6.57639 -14.68879,-14.68879zM289.02656,656.64442c3.2445,0 6.19077,1.2769 8.36369,3.35558h-16.72738c2.17292,-2.07868 5.11918,-3.35558 8.36369,-3.35558zM620.12109,186.87963c0,-7.9142 6.41573,-14.32993 14.32993,-14.32993c7.9142,0 14.32993,6.41573 14.32993,14.32993c0,7.9142 -6.41573,14.32993 -14.32993,14.32993c-7.9142,0 -14.32993,-6.41573 -14.32993,-14.32993zM627.75239,553.95992c0,-6.57918 5.33348,-11.91266 11.91266,-11.91266c6.57918,0 11.91266,5.33348 11.91266,11.91266c0,6.57918 -5.33348,11.91266 -11.91266,11.91266c-6.57918,0 -11.91266,-5.33348 -11.91266,-11.91266zM466.3447,514.51358c0,-6.35744 5.15372,-11.51116 11.51116,-11.51116c6.35744,0 11.51116,5.15372 11.51116,11.51116c0,6.35744 -5.15372,11.51116 -11.51116,11.51116c-6.35744,0 -11.51116,-5.15372 -11.51116,-11.51116zM581.0573,21.39533c0,-6.13361 4.97228,-11.10589 11.10589,-11.10589c6.13361,0 11.10589,4.97228 11.10589,11.10589c0,6.13361 -4.97228,11.10589 -11.10589,11.10589c-6.13361,0 -11.10589,-4.97228 -11.10589,-11.10589zM713.25553,172.05413c0,-11.80664 9.57117,-21.37781 21.37781,-21.37781c11.80664,0 21.37781,9.57117 21.37781,21.37781c0,2.80796 -0.54137,5.48948 -1.52543,7.94587h-39.70475c-0.98406,-2.45639 -1.52543,-5.13791 -1.52543,-7.94587zM481.50594,539.26454c1.66798,0 3.27577,0.2577 4.78573,0.73546h-9.57145c1.50996,-0.47776 3.11775,-0.73546 4.78573,-0.73546zM272.6481,503.5198c0,-8.20814 6.65401,-14.86216 14.86216,-14.86216c8.20814,0 14.86216,6.65401 14.86216,14.86216c0,8.20814 -6.65401,14.86216 -14.86216,14.86216c-8.20814,0 -14.86216,-6.65401 -14.86216,-14.86216zM639.95125,153.53987c0,-11.87743 9.62856,-21.50599 21.50599,-21.50599c11.87743,0 21.50599,9.62856 21.50599,21.50599c0,11.87743 -9.62856,21.50599 -21.50599,21.50599c-11.87743,0 -21.50599,-9.62856 -21.50599,-21.50599zM528.72468,420l0,4.01506c-1.33305,-1.12648 -2.46306,-2.48574 -3.3273,-4.01506zM335.62815,720v-10.30566c2.37709,2.86534 3.96028,6.413 4.41228,10.30566z" stroke="#000000"/><path d="M479.77305,661.06163c-2.07751,0 -4.06738,-0.37524 -5.90553,-1.06163h11.81105c-1.83815,0.6864 -3.82802,1.06163 -5.90553,1.06163zM469.08089,657.2451c-4.06467,-2.35817 -7.18804,-6.15953 -8.66881,-10.7028c-4.27253,-1.28586 -7.95624,-3.93114 -10.54845,-7.43317c-14.5102,-6.84714 -24.55091,-21.61064 -24.55091,-38.71929c0,-0.13008 0.00058,-0.26003 0.00174,-0.38984h45.75186v58.64635c-0.69615,-0.41984 -1.35954,-0.88851 -1.98543,-1.40126zM440.07047,530.1464c0,-10.06487 8.15919,-18.22406 18.22406,-18.22406c0.83556,0 1.65798,0.05623 2.4637,0.16512c1.17942,-8.38746 8.38492,-14.84062 17.09764,-14.84062c9.53616,0 17.26675,7.73059 17.26675,17.26675c0,8.20148 -5.71808,15.06744 -13.38506,16.8287c9.19032,0.08773 17.13332,5.391 21.01156,13.09236c1.40341,-15.22806 14.21265,-27.15246 29.80698,-27.15246c16.5324,0 29.93455,13.40216 29.93455,29.93455c0,16.5324 -13.40216,29.93455 -29.93455,29.93455c-12.3948,0 -23.03012,-7.53325 -27.5772,-18.27099c-0.73509,4.61415 -2.79799,8.78559 -5.78471,12.11034c7.16882,7.57883 11.59656,17.77743 11.6968,29.00938h-13.12012l0,-60l-54.80941,0c-1.8295,-2.84099 -2.89097,-6.22334 -2.89097,-9.8536zM491.925,736.70562c0,-0.04438 0.00007,-0.08875 0.0002,-0.1331c-0.96427,4.74276 -3.52418,8.90573 -7.09485,11.90406l0,-28.47658h-30.54619c3.82418,-5.25933 10.02582,-8.67843 17.02604,-8.67843c11.16557,0 20.29947,8.69865 20.99461,19.68886c2.78171,-20.68645 20.50448,-36.63743 41.95281,-36.63743c23.37967,0 42.33263,18.95296 42.33263,42.33263c0,23.37967 -18.95296,42.33263 -42.33263,42.33263c-23.37967,0 -42.33263,-18.95296 -42.33263,-42.33263zM10.43067,356.11131c5.62474,0 10.92081,1.40718 15.55539,3.88869h-21.42082l0,-3.36901c1.90352,-0.34145 3.86366,-0.51968 5.86543,-0.51968zM519.91696,2.89586c0,21.08564 -14.5036,38.78378 -34.07882,43.66245v-46.55831l33.98713,0c0.06082,0.95746 0.09169,1.92305 0.09169,2.89586zM272.50175,253.2404c12.94346,0 23.43621,10.49275 23.43621,23.43621c0,9.7534 -5.958,18.11524 -14.43302,21.64452c-1.161,18.68526 -16.68311,33.48062 -35.66086,33.48062c-18.40568,0 -33.56092,-13.91682 -35.51702,-31.80176h45.38242l0,-39.67197c4.25735,-4.37217 10.2077,-7.08763 16.79227,-7.08763zM235.35878,612.10776c10.69974,1.10736 19.04342,10.15114 19.04342,21.14369c0,11.74025 -9.51736,21.25761 -21.25761,21.25761c-8.71609,0 -16.20698,-5.24572 -19.48779,-12.75228c-0.59255,0.04354 -1.19105,0.0657 -1.79471,0.0657c-9.72665,0 -18.10986,-5.75194 -21.93374,-14.03991c-1.11611,13.39729 -8.327,25.0633 -18.85208,32.21743h-5.49246v-60h62.71943c3.43659,3.19729 5.93973,7.3845 7.05555,12.10776zM522.29529,428.05709c-22.64729,-0.21642 -40.93955,-18.64248 -40.93955,-41.34092c0,-5.62784 1.1245,-10.99305 3.16107,-15.88318c-0.40797,-1.92286 -0.6226,-3.91716 -0.6226,-5.96159c0,-1.66069 0.14162,-3.28829 0.41345,-4.8714h28.5243l0,60h15.89272v12.70295c-2.41869,-1.15388 -4.59438,-2.73505 -6.42939,-4.64586zM634.92099,670.02803c-0.25619,0 -0.5109,-0.00632 -0.76398,-0.0188c1.91584,4.58905 2.97392,9.62556 2.97392,14.90919c0,21.38871 -17.33897,38.72768 -38.72768,38.72768c-21.38871,0 -38.72768,-17.33897 -38.72768,-38.72768c0,-9.49043 3.4137,-18.18354 9.08019,-24.91842h80.49992c-2.13315,5.85065 -7.74607,10.02803 -14.33468,10.02803zM469.29622,227.66092c0,-1.32338 0.16965,-2.60713 0.48838,-3.83071c-10.46008,-2.35189 -18.2742,-11.69703 -18.2742,-22.86726c0,-12.94442 10.49353,-23.43795 23.43795,-23.43795c12.94442,0 23.43795,10.49353 23.43795,23.43795c0,5.45802 -1.86563,10.4803 -4.99399,14.46392c3.7651,2.75693 6.21016,7.20995 6.21016,12.23405c0,8.36884 -6.78428,15.15312 -15.15312,15.15312c-8.36884,0 -15.15312,-6.78428 -15.15312,-15.15312zM62.07927,302.56021c0.03453,0.48614 0.05209,0.97697 0.05209,1.4719c0,9.48997 -6.45599,17.47206 -15.21558,19.79388c8.70838,2.31438 15.12513,10.2526 15.12513,19.68954c0,6.77699 -3.30924,12.78108 -8.39994,16.48448l-23.94305,0c-5.09071,-3.7034 -8.39994,-9.70749 -8.39994,-16.48448c0,-9.43191 6.40992,-17.3667 15.11122,-19.68583c-8.21751,-2.17187 -14.4108,-9.32429 -15.15451,-18.03192c-0.35663,-0.20788 -0.70937,-0.42171 -1.05806,-0.64137c-2.54668,1.84701 -5.67886,2.93608 -9.0654,2.93608c-2.34768,0 -4.57311,-0.52338 -6.56598,-1.45983v-6.63264l60.32862,0c-0.89217,0.90171 -1.83171,1.75646 -2.81459,2.56021zM502.17275,262.71265c0,-11.21105 9.08835,-20.2994 20.2994,-20.2994c11.21105,0 20.2994,9.08835 20.2994,20.2994c0,11.21105 -9.08835,20.2994 -20.2994,20.2994c-11.21105,0 -20.2994,-9.08835 -20.2994,-20.2994zM352.88993,242.74756c0,-0.93582 0.07694,-1.85366 0.22483,-2.74756l32.96686,0c0.14789,0.8939 0.22483,1.81174 0.22483,2.74756c0,9.22772 -7.48054,16.70826 -16.70826,16.70826c-9.22772,0 -16.70826,-7.48054 -16.70826,-16.70826zM262.66756,489.96956c0,11.2229 -5.89963,21.06788 -14.76676,26.6028l0,-36.57235h9.03243l0,-8.10462c3.61201,5.10726 5.73434,11.34287 5.73434,18.07418zM562.55504,795.54097c0,-15.11646 12.25431,-27.37077 27.37077,-27.37077c15.11646,0 27.37077,12.25431 27.37077,27.37077c0,15.11646 -12.25431,27.37077 -27.37077,27.37077c-15.11646,0 -27.37077,-12.25431 -27.37077,-27.37077zM237.90301,357.84882c3.04443,0 5.90667,0.78005 8.39776,2.15118h-16.79552c2.49109,-1.37114 5.35333,-2.15118 8.39776,-2.15118zM376.42355,417.22485c29.75333,0 53.87317,24.11984 53.87317,53.87317c0,2.3746 -0.15363,4.71331 -0.4515,7.00675c1.74641,3.33123 2.73433,7.12262 2.73433,11.14475c0,12.79116 -9.99141,23.24869 -22.59551,23.99388c-9.20604,7.34049 -20.87091,11.72779 -33.56049,11.72779c-20.84401,0 -38.92318,-11.83765 -47.88146,-29.1569c-10.99871,-1.07231 -19.59441,-10.34497 -19.59441,-21.62526c0,-10.27023 7.12527,-18.87627 16.70212,-21.14441c7.42259,-20.8742 27.35282,-35.81976 50.77376,-35.81976zM697.17693,592.29142c0,-0.10595 0.00098,-0.21168 0.00292,-0.31717c-14.40251,-1.11555 -25.74188,-13.15578 -25.74188,-27.84447c0,-10.29306 5.56816,-19.2856 13.85664,-24.12978l28.14438,0c8.28848,4.84418 13.85664,13.83672 13.85664,24.12978c0,5.16353 -1.40125,9.99977 -3.84423,14.14922c4.50597,3.02933 7.47072,8.17465 7.47072,14.01242c0,2.77736 -0.67105,5.39798 -1.85987,7.70858h-30.02545c-1.18882,-2.3106 -1.85987,-4.93122 -1.85987,-7.70858zM476.45125,531.72402c-0.00454,0.053 -0.00932,0.10594 -0.01431,0.15881c0.19821,-0.04305 0.39733,-0.08363 0.59735,-0.1217c-0.19521,-0.00914 -0.38957,-0.02153 -0.58304,-0.03711zM486.62289,449.68405c0,-8.54305 6.92551,-15.46856 15.46856,-15.46856c8.54305,0 15.46856,6.92551 15.46856,15.46856c0,8.54305 -6.92551,15.46856 -15.46856,15.46856c-8.54305,0 -15.46856,-6.92551 -15.46856,-15.46856zM747.00536,723.77312c0,-8.63197 6.99759,-15.62957 15.62957,-15.62957c8.63197,0 15.62957,6.99759 15.62957,15.62957c0,8.63197 -6.99759,15.62957 -15.62957,15.62957c-8.63197,0 -15.62957,-6.99759 -15.62957,-15.62957zM682.07184,480.15184c-0.74244,0 -1.47279,-0.05175 -2.18764,-0.15184h4.37529c-0.71485,0.10009 -1.4452,0.15184 -2.18764,0.15184zM162.49311,315.02603c-8.38426,0 -15.20554,-6.69197 -15.41394,-15.02603l30.82788,0c-0.2084,8.33406 -7.02967,15.02603 -15.41394,15.02603zM729.07519,689.47284c0,-8.54464 6.9268,-15.47143 15.47143,-15.47143c8.54464,0 15.47143,6.9268 15.47143,15.47143c0,8.54464 -6.9268,15.47143 -15.47143,15.47143c-8.54464,0 -15.47143,-6.9268 -15.47143,-15.47143zM265.6105,425.39519c0,-1.8411 0.16328,-3.64406 0.47614,-5.39519h47.10833l0,-19.8217c8.06333,5.48251 13.35959,14.7312 13.35959,25.21689c0,16.82924 -13.64279,30.47203 -30.47203,30.47203c-16.82924,0 -30.47203,-13.64279 -30.47203,-30.47203zM683.43672,273.64093c0,-9.07825 7.34246,-16.44158 16.41278,-16.47538l0,32.95076c-9.07032,-0.0338 -16.41278,-7.39713 -16.41278,-16.47538zM582.6165,208.89843c0,-8.73086 7.07776,-15.80863 15.80863,-15.80863c8.73086,0 15.80863,7.07776 15.80863,15.80863c0,8.73086 -7.07776,15.80863 -15.80863,15.80863c-8.73086,0 -15.80863,-7.07776 -15.80863,-15.80863zM525.30079,178.27186c0,-9.7779 7.92655,-17.70445 17.70445,-17.70445c9.7779,0 17.70445,7.92655 17.70445,17.70445c0,9.7779 -7.92655,17.70445 -17.70445,17.70445c-9.7779,0 -17.70445,-7.92655 -17.70445,-17.70445zM509.22037,114.68789c0,-13.31432 10.79339,-24.10771 24.10771,-24.10771c13.31432,0 24.10771,10.79339 24.10771,24.10771c0,13.31432 -10.79339,24.10771 -24.10771,24.10771c-13.31432,0 -24.10771,-10.79339 -24.10771,-24.10771zM441.51156,364.87597c-4.91253,0 -9.39454,-1.84329 -12.79211,-4.87597h25.58422c-3.39757,3.03267 -7.87958,4.87597 -12.79211,4.87597zM722.26816,781.46804c0,-21.63479 17.53846,-39.17326 39.17326,-39.17326c21.63479,0 39.17326,17.53846 39.17326,39.17326c0,21.63479 -17.53846,39.17326 -39.17326,39.17326c-21.63479,0 -39.17326,-17.53846 -39.17326,-39.17326zM422.68564,157.42837c0,-9.53108 7.72646,-17.25754 17.25754,-17.25754c9.53108,0 17.25754,7.72646 17.25754,17.25754c0,9.53108 -7.72646,17.25754 -17.25754,17.25754c-9.53108,0 -17.25754,-7.72646 -17.25754,-17.25754zM568.68022,43.21241c0,-6.17708 3.53647,-11.52817 8.69517,-14.13904c-1.1954,-2.29764 -1.87103,-4.90894 -1.87103,-7.67804c0,-9.20042 7.45841,-16.65883 16.65883,-16.65883c9.20042,0 16.65883,7.45841 16.65883,16.65883c0,6.79366 -4.06667,12.6375 -9.8985,15.23001c0.91861,2.00579 1.43064,4.23663 1.43064,6.58707c0,8.74652 -7.09046,15.83698 -15.83698,15.83698c-8.74652,0 -15.83698,-7.09046 -15.83698,-15.83698zM582.05954,266.12383c0,-12.16859 9.86459,-22.03318 22.03318,-22.03318c12.16859,0 22.03318,9.86459 22.03318,22.03318c0,12.16859 -9.86459,22.03318 -22.03318,22.03318c-12.16859,0 -22.03318,-9.86459 -22.03318,-22.03318zM289.02656,650.59399c6.85402,0 12.82076,3.79891 15.90949,9.40601l-31.81899,0c3.08873,-5.6071 9.05547,-9.40601 15.90949,-9.40601zM612.95612,186.87963c0,-10.87751 8.07979,-19.86789 18.56512,-21.29689c-1.49831,-3.72099 -2.32299,-7.78562 -2.32299,-12.04286c0,-17.81615 14.44284,-32.25899 32.25899,-32.25899c17.81615,0 32.25899,14.44284 32.25899,32.25899c0,10.9518 -5.45753,20.62893 -13.80134,26.46013h-16.00449v5.70698c-0.80975,0.06089 -1.62783,0.09188 -2.45315,0.09188c-1.89845,0 -3.75859,-0.16399 -5.56704,-0.47858c0.03692,0.51497 0.0557,1.03497 0.0557,1.55935c0,11.8713 -9.62359,21.49489 -21.49489,21.49489c-11.8713,0 -21.49489,-9.62359 -21.49489,-21.49489zM621.79606,553.95992c0,-9.86877 8.00022,-17.86899 17.86899,-17.86899c9.86877,0 17.86899,8.00022 17.86899,17.86899c0,9.86877 -8.00022,17.86899 -17.86899,17.86899c-9.86877,0 -17.86899,-8.00022 -17.86899,-17.86899zM702.56663,172.05413c0,-17.70995 14.35675,-32.06671 32.06671,-32.06671c13.05215,0 24.28297,7.79804 29.28765,18.98931v21.02326l-60.36226,0c-0.64778,-2.54095 -0.9921,-5.2032 -0.9921,-7.94587zM265.21702,503.5198c0,-12.31221 9.98102,-22.29324 22.29324,-22.29324c12.31221,0 22.29324,9.98102 22.29324,22.29324c0,12.31221 -9.98102,22.29324 -22.29324,22.29324c-12.31221,0 -22.29324,-9.98102 -22.29324,-22.29324zM335.62815,720v-23.14029c8.02186,4.80771 13.58149,13.30149 14.33784,23.14029z" stroke="#000000"/><path d="M458.72096,656.6755c-27.04602,-4.47448 -47.67157,-27.9714 -47.67157,-56.28567c0,-0.13005 0.00044,-0.25999 0.0013,-0.38984h60.01562v60l24.71991,0c-4.08101,4.13011 -9.74822,6.68939 -16.01318,6.68939c-2.51419,0 -4.93212,-0.41217 -7.1899,-1.17263c-5.54801,-1.36367 -10.38746,-4.52948 -13.86219,-8.84125zM433.99579,530.1464c0,-12.81409 9.91899,-23.31148 22.49784,-24.23302c3.40702,-8.45476 11.68775,-14.42213 21.36224,-14.42213c12.71488,0 23.02233,10.30745 23.02233,23.02233c0,4.78102 -1.45736,9.22165 -3.95208,12.90189c0.24547,0.13696 0.48892,0.27709 0.73032,0.42033c6.81548,-12.24657 19.89001,-20.53182 34.89966,-20.53182c22.0432,0 39.91274,17.86954 39.91274,39.91274c0,22.0432 -17.86954,39.91274 -39.91274,39.91274c-3.17149,0 -6.25659,-0.36991 -9.2145,-1.06893c0.76496,2.95735 1.29871,6.00775 1.58079,9.13074c3.82704,0.68312 7.30215,2.38237 10.13631,4.80873h-37.28784l0,-60h-61.69412c-1.33766,-3.01166 -2.08095,-6.34583 -2.08095,-9.8536zM534.25763,680.26212c4.33443,0 8.55474,0.48857 12.60888,1.41364c0.48486,-7.82491 2.71242,-15.17797 6.29927,-21.67575l101.41526,0c-1.09161,4.11806 -3.44274,7.72351 -6.61603,10.37901c1.35068,4.61172 2.07517,9.49096 2.07517,14.53941c0,28.51828 -23.11863,51.63691 -51.63691,51.63691c-2.61899,0 -5.19244,-0.19498 -7.70663,-0.57121c0.00301,0.24014 0.00452,0.48065 0.00452,0.7215c0,8.016 -1.671,15.64171 -4.68367,22.54781c1.28406,-0.13671 2.58802,-0.20683 3.90835,-0.20683c20.15528,0 36.49436,16.33908 36.49436,36.49436c0,20.15528 -16.33908,36.49436 -36.49436,36.49436c-20.15528,0 -36.49436,-16.33908 -36.49436,-36.49436c0,-2.01083 0.16263,-3.98367 0.47545,-5.90609c-6.11909,2.27252 -12.73917,3.51426 -19.64928,3.51426c-21.28005,0 -39.80961,-11.77625 -49.42728,-29.16736l0,-43.98177h-38.70725c4.56908,-9.29423 14.13109,-15.69081 25.1871,-15.69081c5.19434,0 10.05891,1.41193 14.23086,3.87292c9.80157,-16.70446 27.9493,-27.92 48.71657,-27.92zM448.95081,782.46504c-4.24707,0 -8.28884,-0.87901 -11.9533,-2.46504h23.90661c-3.66446,1.58602 -7.70623,2.46504 -11.9533,2.46504zM10.43067,345.11085c1.39432,0 2.77348,0.06485 4.13465,0.19171c-0.03837,-0.59073 -0.05785,-1.18661 -0.05785,-1.78704c0,-7.72317 3.22334,-14.69349 8.39811,-19.63905c-1.92556,-1.82 -3.58634,-3.91722 -4.9185,-6.2278c-2.52929,-1.25997 -4.93156,-2.73686 -7.18244,-4.40631c-2.17855,-0.03384 -4.27507,-0.40571 -6.23941,-1.06546v-12.17691h75.50448c-3.35111,5.38691 -7.74102,10.06042 -12.88966,13.74048c-1.4742,3.87368 -3.80488,7.32505 -6.76066,10.12273c5.18289,4.94636 8.412,11.92224 8.412,19.65232c0,6.19911 -2.0767,11.91319 -5.57236,16.48448h-58.6938l0,-14.50163c1.91881,-0.25559 3.87672,-0.38752 5.86543,-0.38752zM256.74813,249.68412c4.62535,-2.70532 10.00842,-4.25578 15.75363,-4.25578c17.25795,0 31.24828,13.99033 31.24828,31.24828c0,9.25793 -4.02603,17.57553 -10.42279,23.29749c-1.98538,24.48568 -22.48598,43.73784 -47.48317,43.73784c-24.98837,0 -45.48333,-19.23859 -47.48106,-43.71195h57.34646v-50.54681c0.34763,0.0732 0.69386,0.15019 1.03865,0.23092zM241.98906,606.31517c11.32257,3.7155 19.49902,14.37103 19.49902,26.93628c0,12.35987 -7.91135,22.87195 -18.94637,26.74855h-18.79422c-5.51026,-1.93575 -10.24165,-5.52602 -13.59807,-10.17469c-3.71023,-0.1945 -7.25404,-1.01723 -10.52706,-2.36382c-1.9933,4.51206 -4.5472,8.72099 -7.5734,12.53851h-26.46515v-60h73.18343c1.29411,1.96542 2.37866,4.08108 3.22183,6.31517zM271.50954,478.46523c4.6191,-2.95606 10.10978,-4.66975 16.00072,-4.66975c5.21689,0 10.11988,1.34396 14.38163,3.70455c-0.12362,-1.08657 -0.18713,-2.19137 -0.18713,-3.31101c0,-3.05336 0.47234,-5.99641 1.34795,-8.76004c-2.26469,0.39154 -4.59361,0.59559 -6.97018,0.59559c-18.66145,0 -34.38438,-12.58133 -39.14931,-29.72453v-16.30004h56.26176l0,-31.46537c10.09839,4.6961 17.94475,13.41988 21.47504,24.10728c11.76666,-8.4196 26.18142,-13.37478 41.75353,-13.37478c39.6711,0 71.83089,32.15978 71.83089,71.83089c0,32.59594 -21.71159,60.12087 -51.46196,68.90198h-40.73786c-16.44642,-4.85432 -30.43616,-15.43682 -39.65932,-29.43757c-3.16265,13.01694 -14.89518,22.68169 -28.88504,22.68169c-10.9465,0 -20.51097,-5.91718 -25.66934,-14.72746c-3.89556,4.16179 -8.63274,7.52603 -13.94012,9.82129v-48.33794h9.03243v-23.05281c6.91968,5.37276 12.10552,12.87251 14.57632,21.51804zM527.90596,441.59722c-1.71419,0.16062 -3.45119,0.24275 -5.20738,0.24275c-0.51335,0 -1.02507,-0.00702 -1.53506,-0.02096c1.00062,2.42378 1.55266,5.07994 1.55266,7.86504c0,11.39073 -9.23401,20.62474 -20.62474,20.62474c-11.39073,0 -20.62474,-9.23401 -20.62474,-20.62474c0,-7.45862 3.95917,-13.99252 9.89055,-17.61476c-14.36991,-9.94915 -23.78246,-26.55192 -23.78246,-45.35312c0,-9.69327 2.50194,-18.80217 6.89527,-26.71617h38.3619l0,60h15.89272v21.82387c-0.27389,-0.07316 -0.5468,-0.14872 -0.81872,-0.22665zM504.65351,227.66092c0,11.15845 -9.04571,20.20416 -20.20416,20.20416c-10.22981,0 -18.6839,-7.60273 -20.0202,-17.46612c-12.08417,-4.31881 -20.7314,-15.86757 -20.7314,-29.43601c0,-17.25923 13.99137,-31.2506 31.2506,-31.2506c17.25923,0 31.2506,13.99137 31.2506,31.2506c0,5.91788 -1.64494,11.45156 -4.50253,16.16877c1.8759,3.06621 2.9571,6.67144 2.9571,10.5292zM495.40628,262.71265c0,-14.94807 12.1178,-27.06587 27.06587,-27.06587c14.94807,0 27.06587,12.1178 27.06587,27.06587c0,14.94807 -12.1178,27.06587 -27.06587,27.06587c-14.94807,0 -27.06587,-12.1178 -27.06587,-27.06587zM347.32051,242.74756c0,-0.93027 0.05702,-1.84723 0.16776,-2.74756l44.21984,0c0.11074,0.90033 0.16776,1.81729 0.16776,2.74756c0,12.30362 -9.97405,22.27768 -22.27768,22.27768c-12.30362,0 -22.27768,-9.97405 -22.27768,-22.27768zM237.90301,352.03522c6.98955,0 13.25886,3.08368 17.52169,7.96478h-35.04338c4.26283,-4.8811 10.53214,-7.96478 17.52169,-7.96478zM736.54631,592.29142c0,2.70791 -0.47844,5.30408 -1.35539,7.70858l-45.8608,0c-15.69099,-4.38122 -27.20176,-18.78148 -27.20176,-35.87022c0,-0.81806 0.02638,-1.62995 0.07833,-2.43488c-3.21161,9.36156 -12.09083,16.09034 -22.54164,16.09034c-13.15836,0 -23.82533,-10.66696 -23.82533,-23.82533c0,-13.15836 10.66696,-23.82533 23.82533,-23.82533c13.15836,0 23.82533,10.66696 23.82533,23.82533c0,0.05246 -0.00017,0.10487 -0.00051,0.15725c3.06891,-11.0198 11.07863,-19.98078 21.49199,-24.34574v10.22857h42.74882c5.53442,6.49923 8.87456,14.92444 8.87456,24.12978c0,5.73553 -1.29668,11.16821 -3.61287,16.02087c2.24934,3.50231 3.55394,7.66919 3.55394,12.14077zM741.7955,723.77312c0,-5.30248 1.98038,-10.14243 5.24186,-13.82054c-0.81652,0.09827 -1.64772,0.14884 -2.49074,0.14884c-11.39285,0 -20.62858,-9.23573 -20.62858,-20.62858c0,-11.39285 9.23573,-20.62858 20.62858,-20.62858c11.39285,0 20.62858,9.23573 20.62858,20.62858c0,5.22017 -1.93899,9.98746 -5.13603,13.62094c0.85042,-0.10566 1.71673,-0.16009 2.59576,-0.16009c11.50929,0 20.83942,9.33013 20.83942,20.83942c0,3.36429 -0.79722,6.54237 -2.21304,9.35565c19.0179,7.80592 32.41112,26.50852 32.41112,48.33927c0,28.84639 -23.38462,52.23101 -52.23101,52.23101c-28.84639,0 -52.23101,-23.38462 -52.23101,-52.23101c0,-22.59411 14.34623,-41.83747 34.4264,-49.11781c-1.18285,-2.61587 -1.84131,-5.51959 -1.84131,-8.57711zM682.07184,485.36325c-5.3687,0 -10.26337,-2.02954 -13.95864,-5.36325h16.86866v5.16175c-0.95096,0.13283 -1.92247,0.2015 -2.91002,0.2015zM162.49311,320.16565c-11.2229,0 -20.34541,-8.9928 -20.55478,-20.16565h41.10957c-0.20937,11.17284 -9.33189,20.16565 -20.55478,20.16565zM677.94489,273.64093c0,-12.11131 9.80123,-21.93342 21.90462,-21.96724l0,43.93449c-12.10338,-0.03383 -21.90462,-9.85593 -21.90462,-21.96724zM131.62003,354.94398c7.50326,0 14.5802,1.82528 20.81103,5.05602h-41.62205c6.23082,-3.23075 13.30777,-5.05602 20.81103,-5.05602zM534.91561,2.89586c0,33.13412 -26.86051,59.99462 -59.99462,59.99462c-6.43721,0 -12.63762,-1.01381 -18.45029,-2.89048h29.36744v-60l49.00881,0c0.0456,0.95956 0.06866,1.92502 0.06866,2.89586zM661.45724,196.55186c-0.00651,0 -0.01301,0 -0.01951,0c-3.96778,11.06924 -14.55253,18.98763 -26.98671,18.98763c-5.53212,0 -10.69814,-1.56742 -15.07821,-4.28238c-1.17259,10.53095 -10.10386,18.7195 -20.94768,18.7195c-11.64115,0 -21.07817,-9.43702 -21.07817,-21.07817c0,-11.64115 9.43702,-21.07817 21.07817,-21.07817c2.62536,0 5.13861,0.47998 7.45679,1.35696c-0.06012,-0.75795 -0.09076,-1.5242 -0.09076,-2.2976c0,-10.29908 5.43249,-19.32933 13.58828,-24.38159c-0.61215,-2.88956 -0.93419,-5.88626 -0.93419,-8.95817c0,-23.75486 19.25712,-43.01198 43.01198,-43.01198c20.14833,0 37.06096,13.85365 41.73199,32.55505c7.81271,-8.47529 19.0084,-13.78442 31.4441,-13.78442c11.33308,0 21.63629,4.40939 29.28765,11.60619v39.09529h-100.01059v16.48307c-0.81191,0.04565 -1.62983,0.06878 -2.45315,0.06878zM408.5235,152.83234c0,3.85255 -1.00003,7.47154 -2.75467,10.61153v-21.22305c1.75464,3.13999 2.75467,6.75897 2.75467,10.61153zM519.3993,178.27186c0,-13.0372 10.56874,-23.60594 23.60594,-23.60594c13.0372,0 23.60594,10.56874 23.60594,23.60594c0,13.0372 -10.56874,23.60594 -23.60594,23.60594c-13.0372,0 -23.60594,-10.56874 -23.60594,-23.60594zM501.18447,114.68789c0,-17.75243 14.39119,-32.14362 32.14362,-32.14362c17.75243,0 32.14362,14.39119 32.14362,32.14362c0,17.75243 -14.39119,32.14362 -32.14362,32.14362c-17.75243,0 -32.14362,-14.39119 -32.14362,-32.14362zM441.51156,371.28173c-8.83793,0 -16.63077,-4.47451 -21.23674,-11.28173h42.47349c-4.60597,6.80722 -12.39882,11.28173 -21.23674,11.28173zM289.02656,644.54356c10.28244,0 19.06718,6.41242 22.57341,15.45644l-45.14681,0c3.50623,-9.04402 12.29097,-15.45644 22.57341,-15.45644zM416.93312,157.42837c0,-12.7081 10.30195,-23.01005 23.01005,-23.01005c12.7081,0 23.01005,10.30195 23.01005,23.01005c0,12.59135 -10.11353,22.82056 -22.66042,23.00745v-0.43582h-4.84258c-10.55718,-2.08963 -18.5171,-11.40106 -18.5171,-22.57163zM563.40123,43.21241c0,-6.38982 2.83819,-12.11674 7.3227,-15.98889c-0.50372,-1.85737 -0.77251,-3.81139 -0.77251,-5.82819c0,-10.19256 6.86529,-18.78164 16.22394,-21.39533l11.97568,0c9.35865,2.61369 16.22394,11.20277 16.22394,21.39533c0,7.36259 -3.58223,13.8885 -9.09885,17.9299c0.23446,1.25997 0.35703,2.55926 0.35703,3.88718c0,11.66203 -9.45394,21.11597 -21.11597,21.11597c-11.66203,0 -21.11597,-9.45394 -21.11597,-21.11597zM574.71515,266.12383c0,-16.22479 13.15279,-29.37758 29.37758,-29.37758c16.22479,0 29.37758,13.15279 29.37758,29.37758c0,16.22479 -13.15279,29.37758 -29.37758,29.37758c-16.22479,0 -29.37758,-13.15279 -29.37758,-29.37758zM335.62815,720l0,-34.18415c13.60311,5.6795 23.35343,18.74422 24.24092,34.18415z" stroke="#000000"/><path d="M478.73671,672.68149c-2.78453,0 -5.48629,-0.35437 -8.06264,-1.02048c-0.85338,0.03024 -1.71058,0.04549 -2.57135,0.04549c-39.3871,0 -71.31666,-31.92956 -71.31666,-71.31666c0,-0.13003 0.00035,-0.25997 0.00104,-0.38984h74.27922v60h36.2006c-1.99849,1.31568 -4.06709,2.53356 -6.19897,3.64683c-5.77949,5.59291 -13.65344,9.03466 -22.33124,9.03466zM310.8483,532.43265c-4.62985,3.74184 -10.17664,6.39422 -16.25055,7.56735l-14.17498,0c-6.57899,-1.27068 -12.53954,-4.27687 -17.3863,-8.5232c-4.521,3.45871 -9.62362,6.1955 -15.13567,8.03819v-59.51499h9.03243v-60h56.26176l0,-42.43639c8.17461,2.9249 15.38068,7.88589 21.0072,14.27197c12.58545,-6.718 26.95869,-10.52617 42.22138,-10.52617c49.58888,0 89.78861,40.19973 89.78861,89.78861c0,6.15169 -0.61865,12.15888 -1.79712,17.96277c4.01185,-2.12293 8.58594,-3.32512 13.44082,-3.32512c12.74289,0 23.55134,8.28233 27.33585,19.75749c7.85701,-5.16347 17.2599,-8.16735 27.36438,-8.16735c27.55399,0 49.89092,22.33693 49.89092,49.89092c0,25.25034 -18.7581,46.11949 -43.09936,49.43253c1.10791,1.02839 2.12863,2.14941 3.04985,3.35074h-44.62665l0,-60h-178.92249c-2.8188,-2.35794 -5.49073,-4.88563 -8.00007,-7.56735zM248.66883,601.39543c11.7861,5.75441 19.90512,17.85706 19.90512,31.85602c0,10.67812 -4.72392,20.25291 -12.19593,26.74855l-46.46684,0c-0.10316,-0.08968 -0.2058,-0.17995 -0.3079,-0.27079c-0.05129,0.09039 -0.10277,0.18065 -0.15444,0.27079h-43.86502v-60h82.43435c0.22549,0.46027 0.44245,0.92549 0.65067,1.39543zM289.02656,638.49313c13.66707,0 25.21737,9.06297 28.96888,21.50687l-57.93777,0c3.75151,-12.44391 15.30181,-21.50687 28.96888,-21.50687zM131.62003,343.62552c15.52503,0 29.58994,6.25148 39.81477,16.37448h-79.62953c10.22483,-10.123 24.28974,-16.37448 39.81477,-16.37448zM222.2748,350.77599c-18.05968,-7.79137 -31.49591,-24.26399 -35.05096,-44.16015c-3.05076,10.78616 -12.96779,18.68943 -24.73072,18.68943c-14.06149,0 -25.48518,-11.29373 -25.69514,-25.30526h118.9115v-60l30.25953,0c14.93692,5.48636 25.5931,19.83705 25.5931,36.67661c0,7.77762 -2.27318,15.02432 -6.19139,21.11194c-0.79092,27.92971 -20.81263,51.04599 -47.29174,56.57548c1.73988,1.67794 3.27104,3.57085 4.55071,5.63596h-49.45334c2.30198,-3.71492 5.41779,-6.87258 9.09846,-9.22401zM534.25763,666.15124c0.78926,0 1.57549,0.01296 2.35849,0.03868c0.63904,-2.11105 1.38331,-4.17639 2.2267,-6.18992h120.96255c-0.19829,0.94916 -0.44952,1.87888 -0.75046,2.78594c2.51971,6.90319 3.89447,14.35729 3.89447,22.13248c0,33.86441 -26.0791,61.63772 -59.24928,64.33192c-0.15818,0.88147 -0.33273,1.75725 -0.52333,2.62703c18.73167,5.67718 32.36699,23.07804 32.36699,43.6636c0,25.1941 -20.42385,45.61795 -45.61795,45.61795c-21.46872,0 -39.47361,-14.83037 -44.32887,-34.80531c-3.69168,0.59642 -7.4793,0.9064 -11.33931,0.9064c-22.6481,0 -42.8038,-10.67125 -55.71334,-27.26001h6.28606l0,-60h-55.1618c3.30806,-1.97635 6.94473,-3.4596 10.80852,-4.34827c5.93644,-10.93274 17.51802,-18.35491 30.83314,-18.35491c1.43702,0 2.85385,0.08645 4.24556,0.25443c12.65299,-18.9322 34.22142,-31.40002 58.70186,-31.40002zM448.95081,789.99512c-9.86108,0 -18.83672,-3.79101 -25.549,-9.99512h51.09801c-6.71228,6.2041 -15.68792,9.99512 -25.549,9.99512zM11.55365,327.82216c-2.43268,-1.27512 -4.76694,-2.71247 -6.98841,-4.2977v-23.52446l89.11235,0c-4.98677,10.69856 -13.03987,19.68 -23.02938,25.8144c3.15508,5.15421 4.97368,11.21529 4.97368,17.70112c0,5.98229 -1.54718,11.60322 -4.26322,16.48448h-66.79343l0,-25.58055c1.47219,-0.15606 2.96172,-0.25405 4.46625,-0.29161c0.63214,-2.20178 1.48106,-4.31186 2.52216,-6.30568zM527.21942,455.47498c-2.62796,11.44997 -12.88065,19.99 -25.12798,19.99c-14.23841,0 -25.78093,-11.54251 -25.78093,-25.78093c0,-3.61809 0.74531,-7.0621 2.09077,-10.18689c-15.04478,-12.63981 -24.60745,-31.59366 -24.60745,-52.78099c0,-4.06381 0.3518,-8.04545 1.0266,-11.91614c-4.0532,1.85411 -8.56036,2.88746 -13.30887,2.88746c-17.68903,0 -32.02883,-14.33979 -32.02883,-32.02883c0,-7.02271 2.26019,-13.51753 6.09283,-18.79671v33.13804h97.25639l0,60h15.89272v35.36105c-0.50024,0.04334 -1.00201,0.08134 -1.50526,0.11393zM509.70455,227.66092c0,1.30224 -0.09856,2.58147 -0.28863,3.83062c4.01746,-1.68202 8.42833,-2.61123 13.05624,-2.61123c18.68508,0 33.83234,15.14725 33.83234,33.83234c0,18.68508 -15.14725,33.83234 -33.83234,33.83234c-18.68508,0 -33.83234,-15.14725 -33.83234,-33.83234c0,-3.65648 0.58006,-7.17747 1.65317,-10.47599c-1.87563,0.44431 -3.83217,0.67947 -5.84363,0.67947c-10.44327,0 -19.40606,-6.33866 -23.25093,-15.37854c-9.03756,-3.39923 -16.4819,-10.05217 -20.90561,-18.5314l0,-39.00619h-18.17865c-5.15282,-4.07568 -8.87703,-9.87827 -10.29879,-16.53392c-1.4193,3.34287 -3.4875,6.34363 -6.04654,8.84424v-38.95595c3.65165,3.56827 6.30385,8.15498 7.49733,13.30087c4.26364,-10.54767 14.60127,-17.98943 26.67702,-17.98943c15.88513,0 28.76257,12.87744 28.76257,28.76257c0,1.71967 -0.15092,3.40409 -0.44023,5.04075c2.17152,-0.37434 4.4044,-0.56941 6.68283,-0.56941c21.57403,0 39.06325,17.48921 39.06325,39.06325c0,7.16824 -1.93078,13.88552 -5.30064,19.66015c0.64689,2.23394 0.9936,4.59539 0.9936,7.03781zM341.75109,242.74756c0,-0.92713 0.04531,-1.84368 0.13383,-2.74756l55.42652,0c0.08852,0.90387 0.13383,1.82043 0.13383,2.74756c0,15.37953 -12.46757,27.84709 -27.84709,27.84709c-15.37953,0 -27.84709,-12.46757 -27.84709,-27.84709zM742.17051,592.29142c0,2.67303 -0.37295,5.25896 -1.06966,7.70858h-71.40163c-6.52044,-5.39901 -11.54442,-12.54183 -14.35721,-20.71373c-4.55334,2.82449 -9.9247,4.45531 -15.67696,4.45531c-16.44796,0 -29.78166,-13.3337 -29.78166,-29.78166c0,-16.44796 13.3337,-29.78166 29.78166,-29.78166c9.36671,0 17.72346,4.32415 23.1829,11.08511c5.63438,-7.11838 13.3058,-12.55062 22.13391,-15.41637l0,20.153h54.19837c4.2737,7.03639 6.73462,15.2957 6.73462,24.12978c0,7.38496 -1.71977,14.36825 -4.78067,20.57123c0.67527,2.41456 1.03633,4.96032 1.03633,7.59041zM738.28701,714.49353c-11.21622,-2.79699 -19.52611,-12.9384 -19.52611,-25.02069c0,-14.24106 11.54466,-25.78572 25.78572,-25.78572c14.24106,0 25.78572,11.54466 25.78572,25.78572c0,3.15358 -0.56611,6.17493 -1.60226,8.96799c10.92044,2.61801 19.16621,12.11416 19.90079,23.65192c22.4836,10.31266 38.0993,33.02036 38.0993,59.3753c0,36.05799 -29.23077,65.28876 -65.28876,65.28876c-36.05799,0 -65.28876,-29.23077 -65.28876,-65.28876c0,-27.31256 16.77113,-50.70802 40.57695,-60.44993c0.23913,-2.27488 0.77106,-4.46253 1.55741,-6.52458zM682.07184,490.57467c-8.5929,0 -16.21433,-4.1594 -20.96075,-10.57467h23.87077v10.41399c-0.95537,0.10616 -1.92633,0.16067 -2.91002,0.16067zM672.45306,273.64093c0,-15.14437 12.26001,-27.42526 27.39645,-27.4591v53.81817h-7.65725c-11.407,-3.33533 -19.7392,-13.87415 -19.7392,-26.35907zM549.91427,2.89586c0,41.41764 -33.57563,74.99328 -74.99328,74.99328c-14.11539,0 -27.31993,-3.89977 -38.59499,-10.68066v-7.20848h49.51214v-60l64.02125,0c0.03648,0.96077 0.05488,1.92617 0.05488,2.89586zM634.45101,222.70444c-4.34736,0 -8.51386,-0.77436 -12.36909,-2.19267c-1.99529,4.05679 -5.00336,7.52563 -8.69435,10.07662c15.78038,4.11617 27.42712,18.46568 27.42712,35.53544c0,15.24723 -9.29248,28.32408 -22.52305,33.87617l-28.39785,0c-13.23057,-5.55209 -22.52305,-18.62894 -22.52305,-33.87617c0,-14.5103 8.41594,-27.05495 20.63287,-33.01901c-9.36827,-4.03869 -15.92621,-13.35669 -15.92621,-24.20639c0,-14.55144 11.79627,-26.34771 26.34771,-26.34771c0.15347,0 0.30663,0.00131 0.45948,0.00393c0.93917,-7.80481 4.38787,-14.83741 9.51567,-20.26736c-0.4658,-2.84682 -0.70801,-5.76883 -0.70801,-8.74741c0,-29.69358 24.0714,-53.76498 53.76498,-53.76498c19.60206,0 36.75402,10.4901 46.14832,26.16273c7.21205,-4.23594 15.50574,-6.8284 24.36658,-7.26291l0,1.32528l14.82513,0c6.19013,1.44081 11.96728,3.9573 17.12372,7.34175l0,52.65825h-100.01059l0,27.27064c-6.46766,9.32637 -17.25029,15.4338 -29.45938,15.4338zM513.49782,178.27186c0,-9.94138 4.91629,-18.7345 12.45026,-24.08073c-18.66565,-3.46523 -32.79951,-19.83366 -32.79951,-39.50323c0,-22.19054 17.98898,-40.17952 40.17952,-40.17952c22.19054,0 40.17952,17.98898 40.17952,40.17952c0,15.39603 -8.65941,28.76955 -21.37349,35.51579c11.82838,3.84441 20.37855,14.95779 20.37855,28.06817c0,16.2965 -13.21092,29.50742 -29.50742,29.50742c-16.2965,0 -29.50742,-13.21092 -29.50742,-29.50742zM558.12223,43.21241c0,-6.70215 2.49795,-12.82088 6.61362,-17.47596c-0.22209,-1.41444 -0.33739,-2.86432 -0.33739,-4.34112c0,-8.60888 3.9181,-16.30263 10.06836,-21.39533l35.39273,0c6.15026,5.09269 10.06836,12.78645 10.06836,21.39533c0,8.12253 -3.48791,15.43041 -9.04768,20.50761c0.02119,0.43382 0.03192,0.87039 0.03192,1.30947c0,14.57753 -11.81743,26.39496 -26.39496,26.39496c-14.57753,0 -26.39496,-11.81743 -26.39496,-26.39496zM335.62815,720l0,-44.71278c19.14233,6.19076 33.17264,23.74697 34.13508,44.71278z" stroke="#000000"/><path d="M644.66735,795.54097c0,30.23292 -24.50862,54.74154 -54.74154,54.74154c-21.01474,0 -39.26374,-11.8415 -48.4385,-29.21598c-2.38314,0.20153 -4.79441,0.30435 -7.22968,0.30435c-25.5412,0 -48.44087,-11.30976 -63.96419,-29.19445c-6.35603,3.41284 -13.62325,5.34876 -21.34263,5.34876c-13.36959,0 -25.38285,-5.80712 -33.65504,-15.03663v-2.48857h69.53458l0,-60h-67.42468c5.24016,-5.11142 11.71776,-8.96008 18.94107,-11.05426c6.0579,-9.02861 15.52033,-15.58121 26.54927,-17.81979c1.1327,-1.76973 2.32943,-3.49453 3.58692,-5.17114c-46.51704,-0.86347 -83.96021,-38.84156 -83.96021,-85.56497c0,-0.13001 0.00029,-0.25996 0.00087,-0.38984h88.54272v60l200.6968,0c2.65536,7.81982 4.0955,16.20094 4.0955,24.91842c0,32.20985 -19.66083,59.82767 -47.63622,71.5072c10.14783,9.93673 16.44496,23.79065 16.44496,39.11535zM275.65981,633.25145c0,0.58457 -0.0118,1.16638 -0.03517,1.74521c4.14641,-1.648 8.66836,-2.55396 13.40192,-2.55396c17.0343,0 31.32836,11.7324 35.24227,27.5573h-158.68502v-60h94.05649c9.76337,7.78999 16.01952,19.79012 16.01952,33.25145zM81.10829,333.25044c0.85116,3.27944 1.30409,6.71937 1.30409,10.26508c0,4.09943 -0.60544,8.05745 -1.73178,11.78953c12.44386,-14.10281 30.65285,-22.99799 50.93943,-22.99799c22.45439,0 42.36345,10.89782 54.72667,27.69294h-181.78146v-60l102.10613,0c-5.06035,13.46879 -14.0459,25.01679 -25.56308,33.25044zM208.27493,356.87138c-12.26665,-7.59583 -22.0636,-18.80025 -27.90877,-32.13119c-5.04195,3.59198 -11.21077,5.70469 -17.87304,5.70469c-16.90006,0 -30.62489,-13.59472 -30.83524,-30.44488h124.05161v-60l45.98162,0c10.77645,8.58788 17.68307,21.82568 17.68307,36.67661c0,5.01183 -0.78659,9.83994 -2.24306,14.36761c0.11541,1.66068 0.17407,3.33698 0.17407,5.02699c0,27.97512 -16.07497,52.19574 -39.49185,63.92879l-71.27117,0c0.5251,-1.07503 1.10385,-2.11907 1.73277,-3.12862zM329.19879,374.22516c14.26014,-6.96473 30.28598,-10.87347 47.22476,-10.87347c12.08868,0 23.71238,1.99082 34.56113,5.66247c-4.96014,-6.47339 -7.90771,-14.57022 -7.90771,-23.35549c0,-11.23128 4.81739,-21.3374 12.49859,-28.36477l0,42.7061h97.25639l0,60h15.89272l0,49.18563c-0.90931,0.06549 -1.82269,0.11628 -2.7399,0.15213c-5.67413,6.89016 -14.27068,11.2834 -23.89333,11.2834c-6.70812,0 -12.91759,-2.135 -17.98596,-5.76256c-0.06475,1.88786 -0.17808,3.76339 -0.33875,5.62537c8.84999,1.52642 16.54712,6.42114 21.7237,13.31648c8.12852,-4.12684 17.32546,-6.45284 27.06566,-6.45284c33.06479,0 59.8691,26.80431 59.8691,59.8691c0,22.83718 -12.78668,42.68787 -31.59126,52.78327h-63.06308l0,-60h-249.87006v-60h9.03243v-60h56.26176l0,-53.11358c5.7288,1.67275 11.10845,4.16404 16.00381,7.33874zM666.96122,273.64093c0,-18.17742 14.71878,-32.91709 32.88828,-32.95094v59.31001h-19.71339c-8.00031,-6.01188 -13.17489,-15.58118 -13.17489,-26.35907zM682.07184,495.78608c-11.40284,0 -21.38008,-6.10373 -26.84273,-15.22221c-1.05886,-0.15508 -2.10691,-0.3434 -3.14308,-0.56386h32.89583l0,15.65246c-0.95814,0.08842 -1.9288,0.13362 -2.91002,0.13362zM439.9501,384.06212c0.0341,0.02493 0.06818,0.04988 0.10225,0.07485c0.00072,-0.02361 0.00146,-0.04721 0.0022,-0.07081c-0.03483,-0.0013 -0.06964,-0.00264 -0.10445,-0.00403zM522.47215,222.11384c19.14711,0 35.19842,13.25467 39.47888,31.08895c2.62136,-8.55996 7.77922,-16.01139 14.5971,-21.47782c-6.00289,-5.75471 -9.74026,-13.85417 -9.74026,-22.82654c0,-1.60947 0.12026,-3.19084 0.35228,-4.73564c-6.32623,5.90459 -14.81859,9.51797 -24.15491,9.51797c-8.08351,0 -15.53436,-2.70871 -21.49441,-7.26799c-0.66668,5.75812 -2.37682,11.19823 -4.93643,16.12634c1.92541,-0.2802 3.89464,-0.42527 5.89775,-0.42527zM481.87334,262.71265c0,-1.63464 0.09661,-3.24671 0.28442,-4.83082c-9.18873,-0.68696 -17.23555,-5.4712 -22.3192,-12.53149c-7.57217,-2.57686 -14.27346,-7.0369 -19.54576,-12.82201l0,-52.52833h-26.4619c-1.25741,-1.45337 -2.39552,-3.0128 -3.39911,-4.66306c-1.42118,1.49577 -2.98252,2.85711 -4.66296,4.06296l0,-53.13511c3.20841,2.30228 5.98263,5.17135 8.17618,8.46073c6.3269,-7.23927 15.6285,-11.81222 25.99816,-11.81222c17.93645,0 32.67737,13.6817 34.35585,31.17818c0.21609,-0.00293 0.43253,-0.00441 0.64932,-0.00441c13.36786,0 25.42879,5.59564 33.96828,14.57242c1.01258,-3.59822 2.57954,-6.96425 4.60286,-10.00009c-16.74924,-7.55712 -28.40682,-24.40292 -28.40682,-43.9715c0,-8.4288 2.16282,-16.35245 5.96377,-23.24623c-5.24115,0.95002 -10.64036,1.44613 -16.15544,1.44613c-13.81279,0 -26.89875,-3.11197 -38.59499,-8.67304v-24.21476h49.51214v-60l79.02907,0c0.02337,0.73911 0.03782,1.48046 0.04325,2.22396c0.53964,-0.76571 1.11073,-1.50765 1.7114,-2.22396l51.08265,0c4.85373,5.78816 7.77634,13.25044 7.77634,21.39533c0,8.97294 -3.54708,17.11742 -9.31554,23.10773c-0.67709,16.89462 -14.58739,30.3833 -31.64813,30.3833c-16.05455,0 -29.31931,-11.94456 -31.39232,-27.43173c-4.04515,7.08425 -9.02516,13.56577 -14.77199,19.27652c24.2673,2.5129 43.19063,23.02493 43.19063,47.95675c0,14.35751 -6.2755,27.2493 -16.23317,36.08205c7.99493,6.49216 13.10381,16.40041 13.10381,27.50191c0,2.28158 -0.21579,4.51277 -0.62808,6.67425c4.09436,-3.53118 9.10386,-6.03036 14.62452,-7.09357c1.03862,-4.86044 2.89878,-9.41645 5.42812,-13.51569c-0.59151,-3.51082 -0.89945,-7.11794 -0.89945,-10.79697c0,-35.63229 28.88568,-64.51798 64.51798,-64.51798c19.97965,0 37.83813,9.08177 49.67252,23.34238c6.49602,-2.55994 13.51052,-4.0901 20.84238,-4.38936v12.02507h31.94885v60h-100.01059v38.18899c-7.69442,7.24252 -18.05864,11.68041 -29.45938,11.68041c-1.99812,0 -3.9644,-0.13632 -5.89004,-0.40016c11.81698,7.90394 19.59812,21.37057 19.59812,36.65459c0,13.61783 -6.17709,25.79292 -15.88218,33.87617h-56.36837c-7.41652,-6.17713 -12.77275,-14.74384 -14.88645,-24.51789c-3.64921,11.02249 -11.8938,19.95171 -22.46398,24.51789l-32.17191,0c-14.4207,-6.22956 -24.51285,-20.57988 -24.51285,-37.28735zM403.0147,242.74756c0,18.45543 -14.96108,33.41651 -33.41651,33.41651c-18.45543,0 -33.41651,-14.96108 -33.41651,-33.41651c0,-0.92511 0.03759,-1.84145 0.11133,-2.74756h66.61036c0.07374,0.90611 0.11133,1.82244 0.11133,2.74756zM747.79471,592.29142c0,2.65211 -0.30595,5.23276 -0.88447,7.70858l-90.36344,0c-2.9431,-3.50961 -5.46271,-7.38635 -7.4802,-11.5516c-2.99566,0.81469 -6.14782,1.24951 -9.40154,1.24951c-19.73755,0 -35.73799,-16.00044 -35.73799,-35.73799c0,-19.73755 16.00044,-35.73799 35.73799,-35.73799c7.53834,0 14.53155,2.33398 20.29642,6.31873c6.83403,-6.8025 15.41926,-11.8472 25.02039,-14.39878l0,29.85812h64.77617c3.50382,7.30394 5.46643,15.48767 5.46643,24.12978c0,10.14435 -2.70422,19.6571 -7.4311,27.85669c0.0009,0.10154 0.00135,0.20319 0.00135,0.30494zM713.60376,689.47284c0,-13.79304 9.02476,-25.47824 21.49151,-29.47284h18.9027c12.46676,3.9946 21.49151,15.67979 21.49151,29.47284c0,1.90405 -0.17198,3.76793 -0.50125,5.57696c6.30992,2.71738 11.54611,7.45315 14.8955,13.39423c3.54926,1.38342 6.97282,3.01813 10.24884,4.88228v6.67369h9.89229c18.13065,14.34967 29.76306,36.55041 29.76306,61.46804c0,43.26958 -35.07693,78.34651 -78.34651,78.34651c-43.26958,0 -78.34651,-35.07693 -78.34651,-78.34651c0,-29.71431 16.54198,-55.56503 40.91936,-68.8456c-6.38621,-5.66836 -10.4105,-13.93902 -10.4105,-23.1496zM335.62815,720v-55.01047c24.65717,6.52918 43.01358,28.54747 44.02481,55.01047z" stroke="#000000"/><path d="M653.79094,795.54097c0,35.27174 -28.59339,63.86513 -63.86513,63.86513c-20.23136,0 -38.26554,-9.40724 -49.96696,-24.08613c-1.88672,0.10737 -3.78762,0.16179 -5.70122,0.16179c-28.77421,0 -54.67478,-12.30356 -72.7278,-31.93678c-4.03095,0.98695 -8.24386,1.5103 -12.57901,1.5103c-12.79506,0 -24.52533,-4.55893 -33.65504,-12.14104v-12.91424h69.53458l0,-60h-77.50257c6.38084,-8.19942 15.13126,-14.46376 25.22279,-17.76453c1.80881,-2.32405 3.82205,-4.48114 6.01272,-6.44426c-40.72093,-12.59431 -70.30389,-50.54311 -70.30389,-95.40138c0,-0.13 0.00025,-0.25995 0.00074,-0.38984h102.80618v60h214.22216c2.26588,7.91533 3.47936,16.27517 3.47936,24.91842c0,33.01185 -17.70179,61.88922 -44.13103,77.65778c5.81066,9.62317 9.15413,20.90351 9.15413,32.96477zM271.77118,602.13192c5.61443,6.96003 9.38614,15.46862 10.57374,24.78441c2.17648,-0.34493 4.40814,-0.52406 6.68165,-0.52406c18.06091,0 33.48139,11.305 39.57125,27.22479c33.59381,3.96128 59.81695,31.99794 60.94235,66.38295h-53.91201l0,-60h-170.04434v-60h106.64107c-0.14335,0.71354 -0.29461,1.42421 -0.4537,2.13192zM106.43624,325.07493c7.9116,-2.65041 16.38001,-4.08632 25.18379,-4.08632c0.65296,0 1.30408,0.0079 1.95327,0.02361c-4.36208,-5.88378 -6.97123,-13.14521 -7.05539,-21.01221h129.19157v-60l57.35416,0c8.77691,9.70067 14.12261,22.56436 14.12261,36.67661c0,0.33116 -0.00294,0.66163 -0.00881,0.99138c1.33392,5.92057 2.03793,12.07968 2.03793,18.40321c0,22.93137 -9.25804,43.70041 -24.2403,58.77328c5.33912,0.66615 10.49438,1.92428 15.39801,3.70662c16.87499,-8.42035 35.90956,-13.15715 56.05047,-13.15715c6.89993,0 13.67001,0.55592 20.26791,1.62543c-0.01347,-0.45193 -0.02025,-0.90553 -0.02025,-1.36072c0,-15.10043 7.46423,-28.45749 18.90436,-36.58284v50.92417h97.25639l0,60h15.89272v60l22.88546,0c26.08048,7.37852 45.95882,29.52691 50.02735,56.83748c6.53347,-14.4877 21.10288,-24.57188 38.02757,-24.57188c5.76807,0 11.26257,1.17128 16.25864,3.28897c7.67758,-6.87113 16.99386,-11.94884 27.29031,-14.57462c-0.37929,0.01167 -0.76005,0.01754 -1.14217,0.01754c-10.76055,0 -20.43293,-4.65898 -27.11,-12.0698c-8.84173,-1.1467 -17.06126,-4.27612 -24.19803,-8.92769h54.21805l0,60h74.93896c2.97646,7.46288 4.61325,15.60518 4.61325,24.12978c0,13.25291 -3.95611,25.58182 -10.75183,35.87022h-108.83089c-0.94889,-1.43658 -1.84242,-2.91294 -2.67755,-4.42604c-0.86275,0.05326 -1.73259,0.08029 -2.60875,0.08029c-18.76991,0 -34.64298,-12.40291 -39.87059,-29.46013c-3.19575,11.3456 -9.18579,21.52035 -17.18028,29.73439c5.12698,-0.90346 10.40299,-1.37468 15.78907,-1.37468c10.87901,0 21.309,1.92245 30.96879,5.44617h-131.60118l0,-60h-249.87006v-60h9.03243v-60h56.26176l0,-60h-308.62974v-60h114.78485c-2.88336,9.13236 -7.28694,17.58964 -12.91384,25.07493zM489.05393,296.27889c-8.61496,-8.57721 -13.94706,-20.44903 -13.94706,-33.56623c0,-0.31384 0.00305,-0.62696 0.00913,-0.93935c-5.49473,-1.4999 -10.45621,-4.29193 -14.5377,-8.02931c-9.15431,-2.48643 -17.35429,-7.29083 -23.93072,-13.74399h3.64522l0,-60h-34.52398v-60l0.35848,0c2.99129,1.7703 5.71975,3.93775 8.11276,6.42975c3.22199,-2.67455 6.86771,-4.85634 10.82155,-6.42975h11.26438v-2.67896c1.19155,-0.10608 2.39804,-0.16026 3.61718,-0.16026c18.41508,0 33.94301,12.3614 38.73866,29.23907c3.13752,0.21153 6.2025,0.68767 9.17281,1.4063c-6.77801,-9.2907 -10.77789,-20.73737 -10.77789,-33.11826c0,-2.31265 0.13956,-4.5927 0.41072,-6.8322c-0.85301,0.02046 -1.70855,0.03075 -2.56649,0.03075c-13.62726,0 -26.64814,-2.59623 -38.59499,-7.32103l0,-40.56542h49.51214v-60l138.7827,0c4.05333,6.1367 6.41297,13.49045 6.41297,21.39533c0,9.88809 -3.69215,18.91382 -9.77302,25.7738c-1.9744,18.54803 -17.67172,32.99622 -36.74359,32.99622c-2.51786,0 -4.97691,-0.25182 -7.35333,-0.73165c7.76677,9.64508 12.41555,21.90675 12.41555,35.25419c0,14.4676 -5.4618,27.65953 -14.43596,37.62633c5.06708,6.26573 8.33902,14.04308 9.03363,22.54985c0.57256,-0.23998 1.15245,-0.46593 1.73925,-0.67742c0.49191,-1.88618 1.09087,-3.72913 1.78999,-5.52196c-0.99671,-4.88605 -1.52006,-9.94432 -1.52006,-15.12482c0,-41.57101 33.69996,-75.27097 75.27097,-75.27097c20.62848,0 39.31882,8.29818 52.91502,21.73854c5.62633,-1.57901 11.52091,-2.51668 17.59988,-2.72918v22.72175h31.94885v60h-100.01059v48.77162c-0.64062,0.02051 -1.28326,0.03302 -1.92783,0.03742c-4.92326,3.23924 -10.45105,5.6347 -16.37762,6.98059c6.22393,8.50295 9.89854,18.98945 9.89854,30.33419c0,12.97622 -4.80749,24.82959 -12.73852,33.87617l-77.34449,0c-2.15701,-2.46041 -4.08298,-5.12844 -5.74404,-7.9702c-1.14109,1.44609 -2.36469,2.82405 -3.66369,4.12679c3.07601,1.13194 6.07842,2.41612 8.99808,3.84341h-84.62452c2.81502,-1.37614 5.70695,-2.61924 8.66761,-3.72111zM408.58411,242.74756c0,21.53134 -17.4546,38.98593 -38.98593,38.98593c-21.53134,0 -38.98593,-17.4546 -38.98593,-38.98593c0,-0.92371 0.03212,-1.83991 0.09532,-2.74756h77.78123c0.06319,0.90765 0.09532,1.82385 0.09532,2.74756zM669.2229,296.79657c-4.86701,-6.44037 -7.75351,-14.46092 -7.75351,-23.15564c0,-14.47639 8.00168,-27.08389 19.82346,-33.64093h18.55665v60h-35.68281c1.6261,-1.1506 3.31345,-2.22037 5.05621,-3.20343zM562.0322,214.94922c-5.69453,2.96015 -12.16538,4.63303 -19.02696,4.63303c-0.31828,0 -0.63572,-0.0036 -0.95228,-0.01076c8.14228,3.7015 15.05211,9.64033 19.94435,17.03133c1.7588,-2.50333 3.73523,-4.84265 5.9018,-6.99048c-2.93716,-4.32007 -4.98127,-9.29626 -5.86691,-14.66312zM708.44662,689.47284c0,-12.16991 6.02203,-22.9333 15.24878,-29.47284h41.70246c9.22674,6.53954 15.24878,17.30293 15.24878,29.47284c0,0.85145 -0.02948,1.69602 -0.08747,2.53275c0.05696,0.03221 0.11382,0.06456 0.17059,0.09707c6.7771,1.45577 13.2752,3.66291 19.40283,6.52995l0,21.3674l28.95894,0c14.4529,15.89709 23.37901,36.909 23.7426,60h-5.64031v33.18245c-12.89298,34.84864 -46.4217,59.68985 -85.75241,59.68985c-50.48118,0 -91.40426,-40.92308 -91.40426,-91.40426c0,-32.18229 16.63195,-60.47998 41.76928,-76.7665c-2.15594,-4.62717 -3.35982,-9.78735 -3.35982,-15.22871z" stroke="#000000"/><path d="M703.58962,694.47485c-0.19816,-1.63964 -0.30015,-3.30892 -0.30015,-5.00201c0,-11.54604 4.74289,-21.98432 12.38666,-29.47284h57.74099c5.38731,5.27789 9.33364,12.02105 11.1941,19.58459c5.34062,1.20941 10.52597,2.82798 15.52137,4.82101l0,35.59441h45.78084c12.30372,16.87929 19.67117,37.58679 19.9799,60h-18.6995l0,60h0.78371c-18.78351,27.71615 -50.53277,45.93006 -86.53611,45.93006c-47.39221,0 -87.41328,-31.55958 -100.19342,-74.80895c-7.13723,32.82489 -36.35879,57.40859 -71.32219,57.40859c-18.97857,0 -36.26533,-7.24347 -49.24651,-19.11664c-2.12538,0.11919 -4.26648,0.17959 -6.42167,0.17959c-5.73927,0 -11.3785,-0.4283 -16.88749,-1.25467v-8.33797h-28.72108c-14.53356,-6.42656 -27.45626,-15.83043 -37.99475,-27.43827c-0.56592,0.01571 -1.13378,0.02362 -1.7035,0.02362c-12.46497,0 -24.0457,-3.7859 -33.65504,-10.27055v-22.3148h69.53458l0,-60h-149.2022l0,-60h-170.04434v-60h120.58399c-0.51604,2.95378 -1.15032,5.86691 -1.89779,8.73434c1.76264,3.66896 3.14197,7.55694 4.08608,11.61204c0.22313,-0.00303 0.44663,-0.00455 0.67048,-0.00455c17.65104,0 33.09537,9.448 41.5517,23.56268c16.04915,2.0607 30.59197,8.93444 42.13462,19.12741c-9.62992,-14.63456 -15.98261,-31.61732 -18.0138,-49.90401c-14.7854,-2.24275 -28.83088,-6.73915 -41.77517,-13.12791h158.14241v60h227.58449c1.97713,7.98035 3.02626,16.32687 3.02626,24.91842c0,3.81561 -0.20693,7.58289 -0.61017,11.29122c0.83197,-0.59022 1.67296,-1.16857 2.52271,-1.7348zM636.58675,21.39533c0,10.85936 -3.89647,20.80866 -10.36757,28.52605c-2.90994,18.23002 -17.48623,32.56793 -35.83367,35.11852c2.17295,4.17331 3.90147,8.61496 5.12282,13.26219c15.78013,-18.82011 39.46711,-30.78619 65.94892,-30.78619c21.40097,0 40.97668,7.8149 56.02906,20.74664c4.69996,-0.95667 9.54005,-1.52783 14.48584,-1.67902l0,33.41647h31.94885v60h-100.01059v59.52953c-0.81493,0.02282 -1.6327,0.03431 -2.45315,0.03431c-1.39438,0 -2.78101,-0.03318 -4.15915,-0.09878c-0.22728,0.09888 -0.45532,0.19634 -0.68411,0.29235c2.04014,4.05595 3.62427,8.38073 4.68509,12.90701c2.63794,-4.84561 6.16142,-9.13953 10.35309,-12.66441h28.19734v60h-281.63099c6.98858,-3.5724 14.90549,-5.58745 23.29305,-5.58745c5.87877,0 11.52634,0.98989 16.78512,2.81209c5.05768,-3.64612 10.43688,-6.87406 16.08694,-9.63314c-3.56836,-6.88332 -5.70221,-14.63012 -6.0057,-22.84455c-1.51969,-0.65947 -2.99092,-1.40962 -4.40684,-2.24361c-15.23005,-2.6983 -28.55483,-10.91199 -37.83663,-22.50333h14.15835l0,-60h-34.52398v-60h30.55717v-60h49.51214v-60l145.26638,0c3.49425,6.34632 5.48223,13.63866 5.48223,21.39533zM773.84368,564.12978c0,13.00442 -3.33301,25.23037 -9.19138,35.87022h-266.88145l0,-60h-249.87006v-60h9.03243v-60h56.26176l0,-60h-308.62974v-60h251.14424v-60h67.40063c0.66915,0.92173 1.31373,1.86244 1.93278,2.82119c-0.00004,-0.02454 -0.00006,-0.04908 -0.00006,-0.07363c0,-0.92267 0.02805,-1.83879 0.08333,-2.74756h88.94404c0.05529,0.90876 0.08333,1.82489 0.08333,2.74756c0,24.60724 -19.94811,44.55535 -44.55535,44.55535c-11.96357,0 -22.82585,-4.71517 -30.82984,-12.38851c1.54272,6.80453 2.35721,13.88555 2.35721,21.15681c0,13.4925 -2.80448,26.32999 -7.86232,37.96132c13.62331,-4.28564 28.12197,-6.59629 43.16031,-6.59629c5.68898,0 11.30073,0.33068 16.81708,0.97386c4.06978,-11.38834 12.05532,-20.91532 22.33493,-26.95923v58.54913h97.25639l0,60h15.89272v60h56.11437c-1.76483,0.92455 -3.56243,1.79505 -5.39061,2.60931c12.50122,9.08912 22.26268,21.71812 27.81183,36.41447c8.50264,-7.89024 19.89033,-12.7145 32.40479,-12.7145c3.84982,0 7.593,0.45655 11.17836,1.31846c3.11211,-2.67511 6.44772,-5.09751 9.97498,-7.23538c-1.49311,-0.88648 -2.92615,-1.86352 -4.29154,-2.92356c-15.09553,-1.34854 -28.74052,-7.73616 -39.24091,-17.46879h67.69591l0,60h84.866c2.59015,7.56748 3.99583,15.68447 3.99583,24.12978zM658.49943,288.34765c-1.33068,3.2543 -2.94485,6.36261 -4.81182,9.29423c2.07383,-1.83036 4.26199,-3.53418 6.5524,-5.09937c-0.64964,-1.36108 -1.2313,-2.76082 -1.74058,-4.19485zM415.97696,701.92165c-10.12384,-5.20799 -19.36775,-11.88569 -27.44983,-19.75119c6.28491,10.64393 10.14609,22.88923 10.82415,35.97652c4.43715,-6.42332 10.08984,-11.94256 16.62568,-16.22533z" stroke="#000000"/><path d="M589.92581,877.65328c-17.1759,0 -33.12008,-5.27359 -46.30171,-14.28993c-3.09273,0.22546 -6.21621,0.34016 -9.36647,0.34016c-5.72556,0 -11.36262,-0.37889 -16.88749,-1.11297l0,-22.59055h-57.01251c-8.37577,-6.00295 -15.99121,-12.99936 -22.67402,-20.81692c-8.02881,-1.34352 -15.57938,-4.09865 -22.38784,-8.00154v-31.18154h69.53458l0,-60h-149.2022l0,-60h-170.04434v-60h305.48251v60l309.33783,0c1.61163,1.95849 3.06594,4.05132 4.34358,6.25916c5.2641,1.05911 10.40091,2.46997 15.38485,4.20701v49.53383h61.49105c10.75675,17.49429 17.0595,38.02086 17.32856,60h-31.75838l0,60h16.17681c-20.28708,35.25239 -58.3363,58.98781 -101.92922,58.98781c-43.77601,0 -81.96164,-23.9352 -102.18389,-59.43258c-14.56998,22.90292 -40.17634,38.09806 -69.33171,38.09806zM642.1397,21.39533c0,11.88292 -4.14722,22.79721 -11.0732,31.37442c-0.71189,3.4857 -1.80546,6.83248 -3.23517,9.99476c10.47373,-3.88123 21.8022,-6.0016 33.62591,-6.0016c22.24223,0 42.73193,7.50344 59.07591,20.11711c3.74711,-0.55036 7.56446,-0.88468 11.43899,-0.98991l0,44.1099h31.94885v60h-100.01059v60h35.93911v60h-284.27394v60h97.25639l0,60h15.89272v60h156.25718l0,60h94.6447c2.29407,7.64118 3.52673,15.74153 3.52673,24.12978c0,12.83536 -2.88614,24.99662 -8.04485,35.87022h-277.33758l0,-60h-249.87006v-60h9.03243v-60h56.26176l0,-60h-308.62974v-60h251.14424v-60h184.58333l0,-60h-34.52398v-60h30.55717v-60h49.51214v-60l151.50317,0c3.07694,6.48574 4.79839,13.7395 4.79839,21.39533zM606.07499,480.37867c-2.53866,1.96373 -5.16847,3.81532 -7.88199,5.54734c5.9446,6.36343 10.9747,13.59207 14.88083,21.47645c6.40508,-3.66615 13.63924,-6.04861 21.3518,-6.79674c-10.98817,-4.45118 -20.67968,-11.43483 -28.35064,-20.22705zM342.99109,629.25545c-10.69199,-2.24888 -20.99483,-5.55459 -30.79417,-9.80279c7.2782,3.42714 13.67437,8.41877 18.75494,14.54133c4.80124,0.56698 9.48534,1.51645 14.02098,2.8171c-0.73477,-2.48792 -1.39618,-5.0073 -1.98174,-7.55565zM297.53301,612.18846c-0.23162,0.88891 -0.47291,1.77392 -0.72375,2.6549c4.57112,0.65416 8.95908,1.87602 13.09016,3.59188c-4.22195,-1.90925 -8.34721,-3.99464 -12.36641,-6.24679zM369.59818,292.87233c-5.86694,0 -11.49845,-1.00797 -16.73081,-2.86017c0.11175,2.00547 0.16837,4.02565 0.16837,6.05905c0,5.17616 -0.36688,10.26662 -1.07607,15.24681c7.97802,-1.21138 16.1476,-1.8395 24.46388,-1.8395c6.53189,0 12.97327,0.38749 19.30242,1.14073c10.53694,-13.74775 27.12603,-22.61247 45.78559,-22.61247c1.92817,0 3.83423,0.09466 5.71379,0.27958c5.10589,-3.92093 10.52558,-7.4535 16.21492,-10.55356c-0.63161,-2.48994 -1.10982,-5.04105 -1.424,-7.64269c-17.07625,-3.17455 -31.98397,-12.52042 -42.32182,-25.63626c-0.89958,26.89315 -22.98417,48.41848 -50.09627,48.41848z" stroke="#000000"/><path d="M589.92581,886.77687c-14.74939,0 -28.68133,-3.49992 -41.01062,-9.71456c-4.81807,0.49725 -9.70806,0.75208 -14.65757,0.75208c-5.71488,0 -11.3504,-0.33973 -16.88749,-1.0001v-36.81429h-79.24844c-5.6603,-5.27038 -10.88688,-11.00043 -15.62028,-17.13073c-2.46591,-0.92524 -4.87039,-1.9761 -7.20565,-3.1448v-39.72448h69.53458l0,-60h-149.2022l0,-60h-170.04434v-60h305.48251v60h329.06626l0,60h76.54288c9.57603,17.9147 15.09661,38.32348 15.33539,60h-44.81703l0,60h31.00345c-13.22837,26.3356 -35.10495,47.57791 -61.90279,60h-109.70614c-20.19722,-9.36238 -37.59892,-23.73505 -50.60952,-41.5224c-16.61711,17.43468 -40.06628,28.29927 -66.05301,28.29927zM647.69264,21.39533c0,9.62523 -2.44892,18.67849 -6.75768,26.57069c6.64313,-1.28377 13.50419,-1.9561 20.52228,-1.9561c23.12677,0 44.54832,7.3009 62.08556,19.7236c2.77957,-0.28654 5.59073,-0.46656 8.42934,-0.53593l0,54.80242h31.94885v60h-100.01059v60h35.93911v60h-284.27394v60h97.25639l0,60h15.89272v60h156.25718l0,60h104.32348c2.05951,7.69573 3.15756,15.78453 3.15756,24.12978c0,12.71287 -2.54819,24.83057 -7.16166,35.87022h-287.53038l0,-60h-249.87006v-60h9.03243v-60h56.26176l0,-60h-308.62974v-60h251.14424v-60h184.58333l0,-60h-34.52398v-60h30.55717v-60h49.51214v-60l157.5829,0c2.75173,6.58478 4.27161,13.81256 4.27161,21.39533zM394.76291,292.44576c3.14261,0.31877 6.26127,0.71857 9.35386,1.19728c8.32181,-5.99322 18.13997,-10.03865 28.78681,-11.46863c3.78061,-3.2503 7.7395,-6.29903 11.86,-9.12954c-8.09264,-3.39286 -15.49325,-8.1088 -21.93125,-13.87725c-4.47356,14.52026 -14.72467,26.50761 -28.06942,33.27813z" stroke="#000000"/><path d="" stroke="none"/></g></svg>