<svg version="1.1" xmlns="http://www.w3.org/2000/svg" xmlns:xlink="http://www.w3.org/1999/xlink" width="1500" height="1500" viewBox="0,0,1500,1500"><g fill="none" fill-rule="nonzero" stroke="none" stroke-width="1" stroke-linecap="butt" stroke-linejoin="miter" stroke-miterlimit="10" stroke-dasharray="" stroke-dashoffset="0" font-family="none" font-weight="none" font-size="none" text-anchor="none" style="mix-blend-mode: normal"><path d="M0,200c0,-110.45695 89.54305,-200 200,-200c110.45695,0 200,89.54305 200,200c0,110.45695 -89.54305,200 -200,200c-110.45695,0 -200,-89.54305 -200,-200z" stroke="none"/><path d="M0,200c0,-110.45695 89.54305,-200 200,-200c110.45695,0 200,89.54305 200,200c0,110.45695 -89.54305,200 -200,200c-110.45695,0 -200,-89.54305 -200,-200z" stroke="none"/><path d="M100,500c0,-165.68542 134.31458,-300 300,-300c165.68542,0 300,134.31458 300,300c0,165.68542 -134.31458,300 -300,300c-165.68542,0 -300,-134.31458 -300,-300z" stroke="none"/><path d="M0,200c0,-110.45695 89.54305,-200 200,-200c110.45695,0 200,89.54305 200,200c165.68542,0 300,134.31458 300,300c0,165.68542 -134.31458,300 -300,300c-165.68542,0 -300,-134.31458 -300,-300c0,-40.88082 8.177,-79.85181 22.98465,-115.36661c-72.2264,-30.16251 -122.98465,-101.47034 -122.98465,-184.63339z" stroke="none"/><path d="M628.07299,408.62178c-0.91278,0 -1.81989,-0.02428 -2.72072,-0.07223c-5.26939,2.85961 -11.04737,4.90106 -17.1635,5.95389c3.96167,4.41962 6.37116,10.25932 6.37116,16.66179c0,4.40359 -1.13984,8.54095 -3.14057,12.13314c24.75518,4.13372 43.62341,25.65562 43.62341,51.58444c0,1.81489 -0.09244,3.60819 -0.27287,5.37544c1.69364,0.96379 2.83581,2.78504 2.83581,4.87305c0,0.11586 -0.00352,0.23089 -0.01045,0.34501c13.30722,6.67559 22.44073,20.44423 22.44073,36.34611c0,9.19514 -3.05392,17.67701 -8.20281,24.48664c1.05577,3.87819 1.61928,7.95926 1.61928,12.17195c0,14.20497 -6.40721,26.91346 -16.48929,35.39311c-1.705,16.45375 -9.15863,31.20045 -20.31782,42.19704c0.43449,-0.02704 0.87258,-0.04076 1.31388,-0.04076c5.68102,0 10.83095,2.27384 14.58934,5.96105c-7.46387,11.61228 -15.70676,22.67625 -24.65484,33.11809c-6.4205,-3.54959 -10.76829,-10.38973 -10.76829,-18.24535c0,-2.83916 0.56792,-5.54567 1.59635,-8.01213c-9.27712,4.59944 -19.72977,7.18497 -30.7863,7.18497c-20.03099,0 -38.0799,-8.48629 -50.74758,-22.05971c-13.70359,-3.56146 -24.82903,-13.51625 -30.00151,-26.48956c-7.52086,-7.42793 -12.94945,-16.96942 -15.32218,-27.66086c-6.53732,7.08696 -15.9024,11.52593 -26.30425,11.52593c-2.7185,0 -5.36619,-0.30319 -7.91109,-0.87761c0.01411,0.28457 0.02125,0.57097 0.02125,0.85904c0,9.42517 -7.64061,17.06579 -17.06579,17.06579c-9.42517,0 -17.06579,-7.64061 -17.06579,-17.06579c0,-7.65892 5.04528,-14.13946 11.99359,-16.29936c-3.63737,-5.60116 -5.75009,-12.28385 -5.75009,-19.45999c0,-8.84222 3.20763,-16.93527 8.52275,-23.179c-11.16137,-4.24235 -19.1492,-14.92571 -19.42306,-27.50967c-5.82761,-7.6653 -9.2868,-17.22929 -9.2868,-27.60121c0,-14.21349 6.49616,-26.90973 16.68143,-35.28165c-0.42464,-1.49442 -0.65194,-3.07189 -0.65194,-4.70244c0,-9.48228 7.68691,-17.16919 17.16919,-17.16919c7.55629,0 13.97247,4.88138 16.26717,11.66279c2.62659,0.2175 5.19009,0.65737 7.67161,1.30076c-3.23658,-5.73546 -5.20794,-12.27972 -5.53525,-19.25396c-1.28461,-1.05559 -2.10397,-2.65667 -2.10397,-4.44912c0,-2.03648 1.05765,-3.82593 2.65362,-4.84903c0.5326,-3.18191 1.41097,-6.24667 2.59517,-9.15432c-2.18703,0.47145 -4.45707,0.71969 -6.78509,0.71969c-17.69865,0 -32.04624,-14.34759 -32.04624,-32.04624c0,-6.43704 1.89789,-12.43081 5.16463,-17.45226c-0.12852,-0.78182 -0.19536,-1.58441 -0.19536,-2.40262c0,-2.85745 0.8152,-5.5245 2.22573,-7.78126c-2.36264,0.6703 -4.85628,1.02906 -7.43372,1.02906c-2.62193,0 -5.15715,-0.37125 -7.55596,-1.06405c3.58525,5.25049 5.68175,11.5984 5.68175,18.43597c0,18.07788 -14.65502,32.7329 -32.7329,32.7329c-10.4017,0 -19.67021,-4.85177 -25.66592,-12.41569c1.19138,2.16139 1.86928,4.64554 1.86928,7.28802c0,4.61614 -2.06872,8.74911 -5.32964,11.52238c0.86836,2.56374 1.33923,5.31083 1.33923,8.16789c0,2.27683 -0.29903,4.48382 -0.85997,6.58384c17.74072,1.28073 31.73565,16.07929 31.73565,34.14654c0,8.30491 -2.95704,15.91917 -7.87567,21.84734c1.71458,1.10424 2.85005,3.03003 2.85005,5.22103c0,3.42726 -2.77834,6.2056 -6.2056,6.2056c-2.54766,0 -4.73675,-1.53524 -5.69259,-3.73104c-4.95404,2.90942 -10.70469,4.60834 -16.84566,4.69044c1.4597,3.57904 2.26408,7.49501 2.26408,11.59885c0,3.63667 -0.63166,7.1258 -1.79126,10.36367c12.61808,7.43188 21.08533,21.15782 21.08533,36.86139c0,0.76589 -0.02014,1.52707 -0.05992,2.28305c0.29929,0.65604 0.46604,1.38526 0.46604,2.15342c0,1.1947 -0.40335,2.29518 -1.08131,3.17271c-3.58944,19.97965 -21.06136,35.14024 -42.07423,35.14024c-1.93811,0 -3.8461,-0.12897 -5.71585,-0.37881c-0.8848,4.43202 -4.79699,7.7717 -9.4892,7.7717c-5.34427,0 -9.67665,-4.33238 -9.67665,-9.67665c0,-1.75312 0.4662,-3.39734 1.28139,-4.81547c-11.54047,-7.6551 -19.14911,-20.7641 -19.14911,-35.65019c0,-2.10423 0.15203,-4.17295 0.44571,-6.19578c-3.40844,-2.2479 -6.38731,-5.09429 -8.78697,-8.38954c-0.98941,4.49025 -4.99235,7.84981 -9.77995,7.84981c-5.53087,0 -10.01453,-4.48366 -10.01453,-10.01453c0,-5.53087 4.48366,-10.01453 10.01453,-10.01453c1.59991,0 3.11219,0.37518 4.45367,1.04235c-0.75331,-2.80893 -1.155,-5.76175 -1.155,-8.8084c0,-16.53971 11.83876,-30.31434 27.50462,-33.31222c2.67811,-2.95849 5.92424,-5.39313 9.56633,-7.13188c-5.42744,-2.38331 -9.59624,-7.10334 -11.2331,-12.88678c-9.69722,7.01924 -21.61696,11.15691 -34.5031,11.15691c-25.56035,0 -47.31839,-16.2796 -55.47114,-39.03582c-2.43276,3.72112 -6.6361,6.17983 -11.4137,6.17983c-7.52576,0 -13.62659,-6.10083 -13.62659,-13.62659c0,-3.7926 1.5494,-7.22332 4.04975,-9.69371c-8.75279,-3.05247 -16.53088,-8.18401 -22.74263,-14.803c-2.41383,-1.83016 -4.7137,-3.80278 -6.88708,-5.90535c-1.07263,0.14863 -2.16822,0.22546 -3.28175,0.22546c-13.0844,0 -23.6914,-10.607 -23.6914,-23.6914c0,-1.88896 0.22107,-3.72628 0.63875,-5.48751c-13.12204,-6.43512 -22.15599,-19.9261 -22.15599,-35.52706c0,-21.84058 17.70529,-39.54587 39.54587,-39.54587c1.62933,0 3.23565,0.09854 4.81332,0.28997c9.82273,-11.13538 22.89218,-19.33868 37.7273,-23.12886c-0.02416,-0.20904 -0.03657,-0.42165 -0.03657,-0.63717c0,-3.03229 2.45815,-5.49044 5.49044,-5.49044c2.58771,0 4.75729,1.79019 5.33785,4.19966c2.58728,-0.26925 5.21356,-0.40726 7.87208,-0.40726c6.99863,0 13.77387,0.95645 20.20214,2.74576c2.8496,-1.21115 5.98466,-1.8812 9.27622,-1.8812c8.49577,0 15.94895,4.46388 20.14204,11.17417c4.90011,-1.61238 10.01568,-2.75018 15.29232,-3.35903c3.92507,-3.06094 8.8623,-4.88453 14.22545,-4.88453c6.82818,0 12.96596,2.95595 17.20351,7.65801c10.50559,3.16472 20.07279,8.49487 28.1828,15.47164c3.24984,-4.30551 8.40986,-7.08837 14.21986,-7.08837c7.56103,0 14.02127,4.71304 16.60318,11.3616c5.20036,-4.48032 11.97041,-7.18901 19.37312,-7.18901c5.1362,0 9.96784,1.30395 14.18195,3.59887c1.33165,-8.23656 8.47508,-14.52621 17.08753,-14.52621c9.56017,0 17.31023,7.75005 17.31023,17.31023c0,1.67918 -0.23909,3.30251 -0.68509,4.83781c6.73849,4.94656 11.11277,12.92486 11.11277,21.92482c0,7.52017 -3.05408,14.32702 -7.98959,19.2479c0.23827,-0.01148 0.47804,-0.01728 0.71915,-0.01728c3.1868,0 6.13677,1.01395 8.54491,2.73685c1.25594,-0.1496 2.53418,-0.22655 3.83039,-0.22655c17.69865,0 32.04624,14.34759 32.04624,32.04624c0,0.51879 -0.01233,1.03471 -0.03671,1.54747c1.13781,-2.87044 3.93912,-4.90036 7.21455,-4.90036c4.23343,0 7.67485,3.39099 7.75623,7.60495c0.0223,-0.00003 0.0446,-0.00005 0.0669,-0.00005c23.99978,0 43.45545,19.45567 43.45545,43.45545c0,23.99978 -19.45567,43.45545 -43.45545,43.45545c-3.46205,0 -6.82954,-0.40485 -10.05771,-1.1698c4.03068,6.80506 6.34434,14.74714 6.34434,23.22961c0,9.14609 -2.68983,17.66393 -7.32159,24.8056c0.33858,-0.01845 0.67958,-0.02779 1.02277,-0.02779c10.21729,0 18.50003,8.28275 18.50003,18.50003c0,0.7625 -0.04613,1.51422 -0.13575,2.25254c7.6732,-5.75832 16.87332,-9.5923 26.88407,-10.78567c-11.05472,-7.93881 -18.25524,-20.9057 -18.25524,-35.55437c0,-24.15857 19.58439,-43.74297 43.74297,-43.74297c0.79571,0 1.58647,0.02125 2.37172,0.0632c1.5616,-1.23382 3.26335,-2.2981 5.07744,-3.16505c-5.01373,-4.56725 -8.1603,-11.14883 -8.1603,-18.46533c0,-8.63067 4.37844,-16.23869 11.03525,-20.72402c-19.60001,-8.77449 -33.25536,-28.44903 -33.25536,-51.31295c0,-21.9178 12.5486,-40.90472 30.85327,-50.16823c-1.31653,-5.54057 -2.01343,-11.32117 -2.01343,-17.26454c0,-10.46585 2.16098,-20.42697 6.06108,-29.46152c-3.4637,5.23049 -9.40123,8.67983 -16.14439,8.67983c-8.59507,0 -15.88122,-5.60411 -18.40383,-13.3577c-6.16073,5.18976 -14.11622,8.31684 -22.80208,8.31684c-14.7553,0 -27.40289,-9.02421 -32.72471,-21.85459c-1.79495,1.84152 -4.30258,2.98507 -7.0773,2.98507c-5.45784,0 -9.88229,-4.42445 -9.88229,-9.88229c0,-5.45784 4.42445,-9.88229 9.88229,-9.88229c1.60232,0 3.11558,0.38135 4.45396,1.05823c0.32412,-5.37978 1.84928,-10.43563 4.31091,-14.903c82.95687,25.70608 150.51198,86.43798 185.38009,164.91045c-7.74953,17.84043 -25.52637,30.31724 -46.21733,30.31724zM371.15869,161.71462c-3.01375,0 -5.96884,-0.25119 -8.84545,-0.73379c-7.48436,5.85276 -16.43498,9.91696 -26.20892,11.54966c0.9909,3.66717 1.51953,7.52419 1.51953,11.50468c0,5.83829 -1.13725,11.41095 -3.2023,16.50856c2.57335,-1.61481 5.61748,-2.54856 8.8797,-2.54856c9.23919,0 16.72903,7.48984 16.72903,16.72903c0,9.23919 -7.48984,16.72903 -16.72903,16.72903c-9.23919,0 -16.72903,-7.48984 -16.72903,-16.72903c0,-0.54519 0.02608,-1.08429 0.07706,-1.61612c-8.06184,9.14905 -19.86651,14.92094 -33.01928,14.92094c-1.18627,0 -2.36158,-0.04695 -3.52416,-0.1391c2.00373,2.55565 3.1984,5.77595 3.1984,9.27527c0,8.30919 -6.73593,15.04512 -15.04512,15.04512c-7.4045,0 -13.55968,-5.34899 -14.81223,-12.39366c-2.12674,-2.60474 -3.40229,-5.93175 -3.40229,-9.55669c0,-4.89375 2.32477,-9.24451 5.93017,-12.00817c-8.80699,-7.12703 -14.80733,-17.58533 -16.08427,-29.45814c-2.76905,-0.64007 -5.44015,-1.53601 -7.98706,-2.66157c-9.03232,11.11024 -22.80897,18.20858 -38.24354,18.20858c-25.53848,0 -46.53795,-19.43382 -49.01674,-44.31979c-1.02989,0.86881 -2.08309,1.71086 -3.15853,2.52507c-3.96015,15.90781 -13.05928,29.78357 -25.43261,39.76249c0.09046,1.17938 0.13652,2.37118 0.13652,3.57374c0,25.45163 -20.63262,46.08425 -46.08425,46.08425c-13.70981,0 -26.02136,-5.98668 -34.46304,-15.48845c2.95331,5.30694 4.84825,11.2837 5.39952,17.64498c0.88529,-0.03711 1.77532,-0.05584 2.66974,-0.05584c34.60808,0 62.66348,28.05539 62.66348,62.66348c0,20.83798 -10.1712,39.30034 -25.81979,50.69327c-54.49706,-35.69753 -90.50734,-97.28549 -90.55415,-167.2872c1.35065,-0.28942 2.75215,-0.44177 4.18923,-0.44177c10.13545,0 18.50096,7.57803 19.7397,17.37726c6.14879,2.56368 11.59638,6.47259 15.97516,11.35912c-3.74701,-6.66579 -5.88408,-14.35786 -5.88408,-22.54908c0,-0.9224 0.0271,-1.83846 0.08055,-2.74745c-5.85946,-4.55515 -11.01705,-9.97046 -15.2832,-16.05636c-2.30423,0.30836 -4.65566,0.46755 -7.04429,0.46755c-3.88368,0 -7.66906,-0.42084 -11.31303,-1.21941c4.67456,-69.23474 44.58319,-128.80849 101.94241,-160.93775c1.01297,-0.03986 2.03101,-0.05997 3.05375,-0.05997c22.00706,0 41.83877,9.31379 55.76838,24.21463c5.91071,0.52951 11.26072,3.00578 15.40416,6.78296c0.30093,-0.11317 0.60345,-0.22308 0.90752,-0.32971c-8.52051,-7.46491 -13.90074,-18.42637 -13.90074,-30.64446c0,-8.64481 2.69343,-16.66054 7.28688,-23.25379c9.49262,-1.38262 19.2015,-2.09845 29.07756,-2.09845c13.31593,0 26.32792,1.30133 38.91573,3.78376c3.91233,6.25442 6.17367,13.64737 6.17367,21.56847c0,17.24541 -10.71868,31.98734 -25.8574,37.92714c9.7633,7.94822 15.99973,20.06259 15.99973,33.63357c0,2.53074 -0.21688,5.01083 -0.63305,7.42269c1.01905,0.50507 1.9816,1.10695 2.87564,1.79362c6.63502,-3.86244 14.34897,-6.07477 22.57964,-6.07477c3.34434,0 6.60337,0.36526 9.73937,1.05806c6.2389,-25.48271 29.22824,-44.39114 56.63387,-44.39114c2.95364,0 5.85598,0.21963 8.69158,0.64345c0.5492,-1.0884 1.12765,-2.15952 1.73432,-3.21232c28.652,26.89566 49.37611,62.13808 58.29095,101.84589c-7.20388,3.6558 -15.354,5.7162 -23.98535,5.7162zM135.25456,425.62772c7.53575,2.53841 12.96272,9.66257 12.96272,18.05427c0,9.94926 -7.62851,18.11679 -17.35551,18.97256c-2.611,5.90768 -6.095,11.34319 -10.28845,16.14297c3.93772,-1.75107 8.03804,-3.2027 12.27205,-4.32598c5.5669,-9.3095 15.26064,-15.86691 26.55444,-17.14542c4.35923,-2.89459 9.59025,-4.58085 15.21512,-4.58085c10.62965,0 19.8528,6.02198 24.44393,14.84044c6.32621,1.27969 11.08889,6.8709 11.08889,13.57449c0,3.61685 -1.38643,6.90989 -3.65682,9.37664c14.50335,11.96202 24.84858,28.78478 28.54219,47.97477c2.92285,2.47235 4.77867,6.16695 4.77867,10.29499c0,3.41515 -1.27018,6.53363 -3.3639,8.9088c-0.43452,10.33656 -2.77162,20.18118 -6.67017,29.19274c19.78545,1.98161 35.2331,18.68105 35.2331,38.98847c0,21.64145 -17.54386,39.18531 -39.18531,39.18531c-20.29439,0 -36.98542,-15.42781 -38.98464,-35.195c-6.51639,2.82672 -13.46932,4.83662 -20.7296,5.90052c-2.03356,12.35605 -6.83183,23.78056 -13.7384,33.61709c-33.04161,-48.20586 -52.37286,-106.54767 -52.37286,-169.40454c0,-37.40204 6.84455,-73.20544 19.34943,-106.226c8.06083,8.71039 13.7148,19.68056 15.90512,31.85371zM698.68549,478.66521c-19.26722,0 -34.88639,-15.61917 -34.88639,-34.88639c0,-15.01561 9.48649,-27.81553 22.79308,-32.73337c6.69569,21.59596 11.01756,44.23604 12.66059,67.61524c-0.18874,0.00301 -0.37783,0.00452 -0.56729,0.00452zM475.78247,538.06196c-0.49506,0.95547 -1.03977,1.88106 -1.6307,2.77336c0.65998,0.16268 1.31274,0.34367 1.95773,0.54241c-0.01171,-0.27015 -0.01762,-0.5418 -0.01762,-0.81483c0,-0.9396 0.07005,-1.86284 0.2052,-2.76479c-0.1709,0.089 -0.34244,0.17695 -0.51461,0.26384zM497.79698,560.03713c0.27031,-0.47633 0.5474,-0.9483 0.83114,-1.41579c-0.46584,0.10366 -0.93831,0.18976 -1.41665,0.25756c0.20194,0.38203 0.39716,0.76816 0.58551,1.15823zM488.78635,391.28291c0.22224,-0.08689 0.44537,-0.17201 0.66937,-0.25533c-0.153,-0.43776 -0.26787,-0.89343 -0.34063,-1.36301c-0.09597,0.54431 -0.20567,1.08388 -0.32875,1.61834zM436.75841,683.9308c11.63843,0 21.07325,9.43481 21.07325,21.07325c0,4.37758 -1.33479,8.44341 -3.61957,11.81268c0.61568,2.84257 0.93994,5.79371 0.93994,8.8206c0,22.9052 -18.56834,41.47354 -41.47354,41.47354c-22.9052,0 -41.47354,-18.56834 -41.47354,-41.47354c0,-1.59899 0.09049,-3.17685 0.26663,-4.72873c-1.48741,0.27243 -3.02029,0.41476 -4.58641,0.41476c-5.73793,0 -11.02963,-1.91053 -15.27367,-5.13014c-8.23946,8.97414 -19.41793,15.20658 -32.00988,17.17178c3.64469,1.85174 6.14195,5.63655 6.14195,10.00463c0,0.63147 -0.05219,1.25074 -0.15249,1.85375c15.39322,5.27642 26.45837,19.87431 26.45837,37.05661c0,4.80888 -0.86673,9.41532 -2.45249,13.67163c-57.87426,-9.58911 -110.15453,-35.74371 -151.80567,-73.42867c11.59222,-6.33536 24.89258,-9.93656 39.03404,-9.93656c0.6088,0 1.21605,0.00667 1.82167,0.01995c2.34892,-1.27806 4.85943,-2.29664 7.49306,-3.01723c2.79111,-5.51015 7.28295,-10.01286 12.785,-12.81762c-1.90764,-5.58515 -2.94275,-11.57464 -2.94275,-17.80588c0,-30.40913 24.65147,-55.06061 55.06061,-55.06061c27.62445,0 50.49746,20.34333 54.45495,46.86591c0.45929,-0.02483 0.92183,-0.0374 1.38731,-0.0374c11.89152,0 21.86649,8.20573 24.57145,19.26373c1.04644,-0.62445 2.1227,-1.20412 3.22614,-1.73636c-3.31741,-2.25361 -5.49669,-6.05736 -5.49669,-10.37011c0,-6.91886 5.60884,-12.5277 12.5277,-12.5277c6.91886,0 12.5277,5.60884 12.5277,12.5277c0,2.28569 -0.61212,4.42842 -1.68139,6.27318c0.03946,-0.00011 0.07893,-0.00017 0.11841,-0.00017c4.64788,0 9.11719,0.76456 13.28901,2.17479c2.92541,-1.53768 6.25655,-2.40777 9.79091,-2.40777zM300.45664,732.80504c-0.75795,2.05473 -1.74104,4.00047 -2.91933,5.80729c1.81739,1.95494 3.53994,3.99926 5.16032,6.12563c0.54613,-0.16252 1.09724,-0.31344 1.65307,-0.45249c-0.02441,-0.30207 -0.03686,-0.60751 -0.03686,-0.91587c0,-3.93943 2.03118,-7.40445 5.10339,-9.40491c-3.05878,-0.1436 -6.05227,-0.53679 -8.96059,-1.15966zM363.75455,327.42511c-0.03695,0.01395 -0.07397,0.02778 -0.11104,0.04149c0.03976,0.08958 0.07935,0.17926 0.11878,0.26902c-0.00311,-0.10337 -0.00569,-0.20687 -0.00775,-0.3105zM363.00357,392.3364c-0.04777,-0.07531 -0.09525,-0.15083 -0.14242,-0.22656c-0.00732,0.01546 -0.01464,0.03092 -0.02196,0.04637c0.05527,0.05962 0.11006,0.11969 0.16438,0.18019zM372.33021,347.70709c-1.34818,-1.36313 -2.56531,-2.85614 -3.63094,-4.45858c0.43216,2.10667 0.77901,4.24444 1.03677,6.40956c0.83093,-0.6917 1.69666,-1.34303 2.59416,-1.95098zM468.73199,773.50634c0,-3.4135 2.76719,-6.1807 6.1807,-6.1807c0.09946,0 0.19836,0.00235 0.29667,0.00699c0.88423,-7.5144 4.31696,-14.24899 9.41032,-19.31589c-1.92103,-5.87876 -2.95978,-12.15659 -2.95978,-18.67702c0,-33.18059 26.89818,-60.07877 60.07877,-60.07877c30.81193,0 56.2064,23.1949 59.67504,53.07634c-34.13085,30.93771 -75.41661,54.12545 -121.0797,66.78565c-1.90155,-2.89404 -3.35599,-6.10808 -4.26507,-9.54389c-0.37456,0.07088 -0.76108,0.10797 -1.15625,0.10797c-3.4135,0 -6.1807,-2.76719 -6.1807,-6.1807zM388.48703,196.81958c8.68152,0 15.98141,5.9155 18.08878,13.93562c1.10494,-0.12945 2.22909,-0.19601 3.3688,-0.19601c15.81931,0 28.64339,12.82408 28.64339,28.64339c0,15.81931 -12.82408,28.64339 -28.64339,28.64339c-15.81931,0 -28.64339,-12.82408 -28.64339,-28.64339c0,-0.81736 0.03424,-1.62672 0.10135,-2.42673c-9.40394,-1.38172 -16.62283,-9.48333 -16.62283,-19.27101c0,-9.75374 7.16891,-17.83308 16.52508,-19.2564c2.21137,-0.92057 4.63744,-1.42885 7.18222,-1.42885zM160.24477,435.69023c0,-8.59475 6.96742,-15.56217 15.56217,-15.56217c8.59475,0 15.56217,6.96742 15.56217,15.56217c0,8.59475 -6.96742,15.56217 -15.56217,15.56217c-8.59475,0 -15.56217,-6.96742 -15.56217,-15.56217zM490.85331,288.72657c0,2.74098 -1.61023,5.10587 -3.93634,6.20033c-2.06066,5.06523 -7.03207,8.6362 -12.83751,8.6362c-7.65111,0 -13.85357,-6.20245 -13.85357,-13.85357c0,-7.65111 6.20245,-13.85357 13.85357,-13.85357c4.82974,0 9.08223,2.47151 11.56173,6.21878c2.99217,0.73361 5.21213,3.43348 5.21213,6.65184zM190.79148,259.03357c0,-1.11081 0.18283,-2.17891 0.52004,-3.17587c-0.93983,-2.333 -1.50534,-4.85701 -1.62214,-7.49763c-3.1695,2.70657 -7.28241,4.34072 -11.77701,4.34072c-10.02135,0 -18.14527,-8.12391 -18.14527,-18.14527c0,-10.02135 8.12391,-18.14527 18.14527,-18.14527c9.0588,0 16.56715,6.63825 17.92594,15.31564c4.16395,-4.44041 10.08369,-7.21454 16.65135,-7.21454c12.60475,0 22.82293,10.21817 22.82293,22.82293c0,12.60475 -10.21817,22.82293 -22.82293,22.82293c-3.07695,0 -6.01169,-0.6089 -8.69028,-1.71278c-0.9757,0.3214 -2.01841,0.49529 -3.10174,0.49529c-5.47102,0 -9.90616,-4.43514 -9.90616,-9.90616zM341.92967,266.57962c0,-2.91314 2.36157,-5.27471 5.27471,-5.27471c2.91314,0 5.27471,2.36157 5.27471,5.27471c0,2.91314 -2.36157,5.27471 -5.27471,5.27471c-2.91314,0 -5.27471,-2.36157 -5.27471,-5.27471zM107.02272,277.25559c0,-11.32397 9.1799,-20.50387 20.50387,-20.50387c11.32397,0 20.50387,9.1799 20.50387,20.50387c0,11.32397 -9.1799,20.50387 -20.50387,20.50387c-11.32397,0 -20.50387,-9.1799 -20.50387,-20.50387zM542.30291,283.52292c0,-4.60047 3.72942,-8.32988 8.32988,-8.32988c4.60047,0 8.32988,3.72942 8.32988,8.32988c0,4.60047 -3.72942,8.32988 -8.32988,8.32988c-4.60047,0 -8.32988,-3.72942 -8.32988,-8.32988z" stroke="#000000"/><path d="M100,500c0,-165.68542 134.31458,-300 300,-300c165.68542,0 300,134.31458 300,300c0,165.68542 -134.31458,300 -300,300c-165.68542,0 -300,-134.31458 -300,-300z" stroke="none"/><path d="M0,200c0,-110.45695 89.54305,-200 200,-200c110.45695,0 200,89.54305 200,200c165.68542,0 300,134.31458 300,300c0,165.68542 -134.31458,300 -300,300c-165.68542,0 -300,-134.31458 -300,-300c0,-40.88082 8.177,-79.85181 22.98465,-115.36661c-72.2264,-30.16251 -122.98465,-101.47034 -122.98465,-184.63339z" stroke="none"/><path d="M53.88128,283.86166c3.89245,0 7.49274,1.25091 10.42079,3.37265c12.09198,4.34259 20.74018,15.9095 20.74018,29.4963c0,13.79033 -8.90924,25.4998 -21.28589,29.68657c-14.4029,-13.40812 -26.82495,-28.91589 -36.77886,-46.03601c3.81943,-6.23185 9.75681,-11.02528 16.81039,-13.37854c2.86718,-1.98083 6.3448,-3.14098 10.09339,-3.14098zM520.41932,703.96597c0,-5.07251 4.11208,-9.18458 9.18458,-9.18458c3.48135,0 6.51031,1.93692 8.06802,4.7919c1.32992,-0.17999 2.68748,-0.27295 4.06674,-0.27295c16.59029,0 30.03938,13.44909 30.03938,30.03938c0,6.90672 -2.33092,13.26902 -6.24903,18.34316c0.6791,0.38288 1.34013,0.79404 1.98151,1.23188c-13.45402,9.07188 -27.68333,17.08174 -42.56774,23.90937c-0.02292,-0.45832 -0.03451,-0.91962 -0.03451,-1.38363c0,-2.8263 0.4302,-5.55212 1.22869,-8.11555c-1.71196,-1.1646 -3.26873,-2.54035 -4.63285,-4.08979c0.28542,1.08368 0.43744,2.22149 0.43744,3.3948c0,0.18671 -0.00385,0.37252 -0.01147,0.55735c1.33208,2.36635 2.09195,5.09784 2.09195,8.00681c0,0.71564 -0.04599,1.42053 -0.13517,2.11189c-8.63874,3.92209 -17.49628,7.44663 -26.54927,10.55028c-3.66697,-2.99756 -6.00778,-7.5565 -6.00778,-12.66217c0,-4.23267 1.60875,-8.08959 4.24816,-10.99267c1.1412,-6.18153 6.55934,-10.86395 13.07113,-10.86395c3.30575,0 6.32965,1.20673 8.65523,3.20372c-1.13435,-2.69748 -1.79984,-5.64066 -1.89443,-8.72753c-2.365,-4.29289 -3.71061,-9.22629 -3.71061,-14.47397c0,-8.60775 3.62046,-16.36989 9.42166,-21.84671c-0.45204,-1.08597 -0.70162,-2.27736 -0.70162,-3.52704zM298.17955,521.37972c0,-9.3661 7.59272,-16.95882 16.95882,-16.95882c0.53603,0 1.06626,0.02487 1.58958,0.07352c1.82421,-6.44957 7.7541,-11.17532 14.78774,-11.17532c8.48651,0 15.36618,6.87967 15.36618,15.36618c0,8.36184 -6.67903,15.16371 -14.99324,15.36174c-0.73405,4.64648 -3.35505,8.66551 -7.05356,11.24765c-1.69535,4.40061 -5.96419,7.52301 -10.96231,7.52301c-6.05814,0 -11.04486,-4.58728 -11.67612,-10.47779c-2.50581,-2.95589 -4.01709,-6.78154 -4.01709,-10.96017zM374.15721,560.34681c0,-1.43429 1.16272,-2.59701 2.59701,-2.59701c1.43429,0 2.59701,1.16272 2.59701,2.59701c0,1.43429 -1.16272,2.59701 -2.59701,2.59701c-1.43429,0 -2.59701,-1.16272 -2.59701,-2.59701zM426.22178,705.00405c0,-5.81922 4.71741,-10.53662 10.53662,-10.53662c5.81922,0 10.53662,4.71741 10.53662,10.53662c0,5.81922 -4.71741,10.53662 -10.53662,10.53662c-2.3624,0 -4.54321,-0.77746 -6.30053,-2.09049c2.48907,3.42108 3.95738,7.63264 3.95738,12.18714c0,11.4526 -9.28417,20.73677 -20.73677,20.73677c-11.4526,0 -20.73677,-9.28417 -20.73677,-20.73677c0,-11.4526 9.28417,-20.73677 20.73677,-20.73677c5.38794,0 10.29595,2.05485 13.98309,5.42363c-0.91516,-1.56145 -1.43979,-3.37952 -1.43979,-5.32013zM432.07145,611.33429c0,-4.71259 3.82031,-8.53289 8.53289,-8.53289c4.71259,0 8.53289,3.82031 8.53289,8.53289c0,4.71259 -3.82031,8.53289 -8.53289,8.53289c-4.71259,0 -8.53289,-3.82031 -8.53289,-8.53289zM186.39245,369.31776c0,-0.5916 0.01807,-1.17898 0.05368,-1.76162c-3.37003,-5.63391 -5.30685,-12.22382 -5.30685,-19.26609c0,-20.75746 16.82725,-37.58471 37.58471,-37.58471c19.81111,0 36.0422,15.32789 37.481,34.77139c5.47295,-14.80918 19.71813,-25.36694 36.42921,-25.36694c10.62078,0 20.24552,4.26457 27.25526,11.17477c1.67958,-0.79455 3.55718,-1.23894 5.53857,-1.23894c7.16169,0 12.96738,5.80569 12.96738,12.96738c0,5.07927 -2.92029,9.47646 -7.17345,11.60418c0.15685,1.41764 0.23738,2.85828 0.23738,4.31774c0,18.35864 -12.74218,33.74118 -29.86503,37.78611c6.32375,4.85168 10.40075,12.48584 10.40075,21.07223c0,13.05641 -9.42686,23.91106 -21.84558,26.12897c-4.90917,3.66216 -10.99841,5.8301 -17.594,5.8301c-16.26667,0 -29.45341,-13.18674 -29.45341,-29.45341c0,-3.00775 0.45084,-5.9102 1.28863,-8.64346c-4.63083,-3.12768 -7.67559,-8.42521 -7.67559,-14.43388c0,-9.61262 7.79257,-17.40519 17.40519,-17.40519c2.35827,0 4.60699,0.46901 6.65798,1.31884c-3.92223,-5.61763 -6.39645,-12.32115 -6.88147,-19.56935c-2.43807,6.45608 -6.60268,12.06474 -11.93066,16.26279c-3.61731,11.5463 -14.39984,19.92373 -27.13902,19.92373c-8.03243,0 -15.28696,-3.3306 -20.45792,-8.68611c-1.09242,1.22478 -2.6826,1.99599 -4.45291,1.99599c-0.86566,0 -1.68825,-0.1844 -2.43063,-0.51607c-5.16033,-0.59135 -9.16811,-4.97398 -9.16811,-10.29268c0,-4.9408 3.4585,-9.07383 8.08666,-10.11024c-0.00782,-0.27423 -0.01175,-0.54943 -0.01175,-0.82555zM241.94159,753.5473c-1.95279,-2.83618 -3.09599,-6.27297 -3.09599,-9.97677c0,-9.72774 7.88589,-17.61364 17.61364,-17.61364c0.85345,0 1.69273,0.0607 2.51375,0.17802c-0.26198,-1.09276 -0.40073,-2.23344 -0.40073,-3.40653c0,-8.04038 6.51802,-14.55839 14.55839,-14.55839c8.04038,0 14.55839,6.51802 14.55839,14.55839c0,8.04038 -6.51802,14.55839 -14.55839,14.55839c-0.07088,0 -0.14164,-0.00051 -0.21229,-0.00152c0.74591,1.95213 1.1545,4.07099 1.1545,6.28527c0,8.14806 -5.53268,15.0039 -13.04619,17.01566c4.11691,2.85569 7.68233,6.45053 10.50422,10.59249c-11.14174,-5.28768 -21.90578,-11.24179 -32.24063,-17.81084c0.89135,0.03149 1.77542,0.09161 2.65131,0.17946zM318.74932,596.376c0,-2.67213 2.16619,-4.83832 4.83832,-4.83832c2.67213,0 4.83832,2.16619 4.83832,4.83832c0,2.67213 -2.16619,4.83832 -4.83832,4.83832c-2.67213,0 -4.83832,-2.16619 -4.83832,-4.83832zM42.49353,144.58115c0,-16.45817 10.72807,-30.41067 25.57272,-35.246c-0.50691,-2.48092 -0.77309,-5.04947 -0.77309,-7.6802c0,-21.07688 17.08619,-38.16307 38.16307,-38.16307c21.07688,0 38.16307,17.08619 38.16307,38.16307c0,17.38708 -11.62749,32.05842 -27.53085,36.6624c0.3466,2.03615 0.52712,4.1289 0.52712,6.2638c0,20.46824 -16.59278,37.06102 -37.06102,37.06102c-20.46824,0 -37.06102,-16.59278 -37.06102,-37.06102zM411.68189,330.27519c0,-7.50557 6.08447,-13.59004 13.59004,-13.59004c7.50557,0 13.59004,6.08447 13.59004,13.59004c0,7.50557 -6.08447,13.59004 -13.59004,13.59004c-7.50557,0 -13.59004,-6.08447 -13.59004,-13.59004zM267.60507,230.25997c0,-4.17553 3.38494,-7.56047 7.56047,-7.56047c4.17553,0 7.56047,3.38494 7.56047,7.56047c0,0.27695 -0.01489,0.55043 -0.04392,0.81967c1.87856,1.36769 3.09958,3.58403 3.09958,6.08557c0,4.15459 -3.36796,7.52256 -7.52256,7.52256c-4.15459,0 -7.52256,-3.36796 -7.52256,-7.52256c0,-0.25331 0.01252,-0.50369 0.03698,-0.75057c-1.91818,-1.37127 -3.16847,-3.61696 -3.16847,-6.15467zM182.68417,66.05456c0,-2.71519 2.20109,-4.91628 4.91628,-4.91628c2.71519,0 4.91628,2.20109 4.91628,4.91628c0,2.71519 -2.20109,4.91628 -4.91628,4.91628c-2.71519,0 -4.91628,-2.20109 -4.91628,-4.91628zM543.45651,496.47539c0,-12.07929 9.7922,-21.87148 21.87148,-21.87148c1.95727,0 3.85449,0.2571 5.65974,0.73937c-0.04989,-0.47091 -0.07548,-0.94906 -0.07548,-1.4332c0,-7.42668 6.02051,-13.44719 13.44719,-13.44719c5.82994,0 10.79336,3.70999 12.65815,8.89784c1.84227,-0.41139 3.75788,-0.6284 5.72418,-0.6284c14.44252,0 26.1505,11.70798 26.1505,26.1505c0,14.44252 -11.70798,26.1505 -26.1505,26.1505c-8.49084,0 -16.03653,-4.04666 -20.81368,-10.3166c-4.01118,4.67122 -9.96009,7.63014 -16.60009,7.63014c-12.07929,0 -21.87148,-9.7922 -21.87148,-21.87148zM141.41838,126.85459c0,-1.23464 0.20326,-2.42181 0.57813,-3.52986c-0.01815,-0.28398 -0.02736,-0.57038 -0.02736,-0.85894c0,-2.99706 0.99388,-5.76199 2.67003,-7.98317c1.42,-4.78462 5.85039,-8.27456 11.09589,-8.27456c6.0903,0 11.08179,4.70458 11.53856,10.67784c0.7875,1.69619 1.22709,3.58671 1.22709,5.57989c0,1.52562 -0.25753,2.99108 -0.7315,4.3553c1.61409,1.03314 2.68398,2.84188 2.68398,4.90051c0,3.21109 -2.6031,5.81419 -5.81419,5.81419c-1.99623,0 -3.75749,-1.00602 -4.80444,-2.53872c-1.95564,1.7803 -4.55513,2.86563 -7.40811,2.86563c-6.0796,0 -11.00809,-4.92849 -11.00809,-11.00809zM471.82233,773.50634c0,-1.70675 1.3836,-3.09035 3.09035,-3.09035c1.70675,0 3.09035,1.3836 3.09035,3.09035c0,1.70675 -1.3836,3.09035 -3.09035,3.09035c-1.70675,0 -3.09035,-1.3836 -3.09035,-3.09035zM371.15869,135.17764c-7.17899,0 -13.69216,-2.85069 -18.46928,-7.48185c-4.71438,9.75386 -14.70257,16.48198 -26.26221,16.48198c-9.91606,0 -18.67578,-4.9509 -23.9421,-12.51565c-1.68853,1.48619 -3.90423,2.3876 -6.33046,2.3876c-5.29398,0 -9.58559,-4.29162 -9.58559,-9.58559c0,-5.29398 4.29162,-9.58559 9.58559,-9.58559c0.37906,0 0.75298,0.022 1.12056,0.0648c0.00512,-1.85241 0.18301,-3.66419 0.51841,-5.42007c-0.37615,-1.54758 -0.57552,-3.16431 -0.57552,-4.82761c0,-11.24907 9.11917,-20.36825 20.36825,-20.36825c2.77787,0 5.42586,0.55609 7.83872,1.56303c0.33267,-0.01124 0.66675,-0.0169 1.00215,-0.0169c8.59778,0 16.32623,3.72201 21.66198,9.64266c2.94167,-5.15959 7.56435,-9.23656 13.12242,-11.48527c0.06336,-0.69779 0.14844,-1.3893 0.25457,-2.07385c10.65339,14.54761 19.38825,30.58852 25.83201,47.75015c-4.47181,3.43109 -10.0675,5.47042 -16.13949,5.47042zM170.21083,96.91295c0,-11.97002 9.70362,-21.67363 21.67363,-21.67363c5.21762,0 10.00463,1.8437 13.74507,4.91514c1.65081,-1.9041 4.08743,-3.10841 6.80533,-3.10841c4.97241,0 9.00334,4.03093 9.00334,9.00334c0,4.62087 -3.48113,8.42868 -7.96395,8.94399c0.0555,0.63246 0.08384,1.2727 0.08384,1.91957c0,11.97002 -9.70362,21.67363 -21.67363,21.67363c-11.97002,0 -21.67363,-9.70362 -21.67363,-21.67363zM342.39872,462.85306c0,-9.45414 7.6641,-17.11824 17.11824,-17.11824c9.45414,0 17.11824,7.6641 17.11824,17.11824c0,9.45414 -7.6641,17.11824 -17.11824,17.11824c-9.45414,0 -17.11824,-7.6641 -17.11824,-17.11824zM115.97161,517.73316c5.0072,0 9.77155,1.03976 14.08892,2.91516c6.75858,-4.84227 15.04128,-7.6926 23.98971,-7.6926c22.7739,0 41.23579,18.46189 41.23579,41.23579c0,22.7739 -18.46189,41.23579 -41.23579,41.23579c-5.43248,0 -10.6196,-1.0505 -15.3693,-2.95945c-0.54499,0.09228 -1.10503,0.14033 -1.67629,0.14033c-4.13918,0 -7.68916,-2.52268 -9.19632,-6.11444c-3.7011,1.31302 -7.68545,2.02769 -11.83672,2.02769c-0.91848,0 -1.82879,-0.03499 -2.72967,-0.1037c-6.61716,-21.486 -10.88587,-44.00137 -12.50647,-67.24646c4.61454,-2.20409 9.78123,-3.43811 15.23614,-3.43811zM126.27307,615.49791c0,1.0963 -0.06508,2.17741 -0.19158,3.23966c0.10597,1.20128 0.16008,2.41746 0.16008,3.64627c0,0.16528 -0.00098,0.33033 -0.00293,0.49515c-4.3085,-9.58407 -8.1285,-19.43528 -11.4283,-29.52192c6.9354,4.91004 11.46272,12.99673 11.46272,22.14084zM572.56041,709.98418c0,-4.19354 3.39954,-7.59307 7.59307,-7.59307c4.19354,0 7.59307,3.39954 7.59307,7.59307c0,2.54633 -1.25339,4.79991 -3.17687,6.17744c1.94431,1.49918 3.19685,3.85168 3.19685,6.49672c0,4.52807 -3.67073,8.1988 -8.1988,8.1988c-4.52807,0 -8.1988,-3.67073 -8.1988,-8.1988c0,-2.91674 1.52307,-5.47775 3.81728,-6.93108c-1.60833,-1.39229 -2.62582,-3.44886 -2.62582,-5.74308zM324.70883,422.12268c0,-7.02671 5.69627,-12.72298 12.72298,-12.72298c7.02671,0 12.72298,5.69627 12.72298,12.72298c0,6.94772 -5.56892,12.59474 -12.48652,12.72082c0.11922,0.56794 0.18192,1.15668 0.18192,1.76006c0,4.70776 -3.81639,8.52415 -8.52415,8.52415c-4.70776,0 -8.52415,-3.81639 -8.52415,-8.52415c0,-3.70315 2.36139,-6.85477 5.66053,-8.03121c-1.11435,-1.89117 -1.75359,-4.09577 -1.75359,-6.44967zM388.48703,206.17032c5.16428,0 9.35075,4.18647 9.35075,9.35075c0,4.29165 -2.8912,7.90802 -6.8321,9.00763c-1.75036,1.68179 -4.12797,2.71558 -6.74703,2.71558c-5.37895,0 -9.73946,-4.3605 -9.73946,-9.73946c0,-5.01248 3.78657,-9.14056 8.65527,-9.67979c1.50876,-1.04347 3.33928,-1.65471 5.31257,-1.65471zM379.41942,489.92142c0,-1.71363 1.38917,-3.1028 3.1028,-3.1028c1.71363,0 3.1028,1.38917 3.1028,3.1028c0,1.71363 -1.38917,3.1028 -3.1028,3.1028c-1.71363,0 -3.1028,-1.38917 -3.1028,-3.1028zM570.49274,359.12826c0,-15.51699 12.57901,-28.096 28.096,-28.096c2.32941,0 4.59261,0.28348 6.75698,0.81782c0.81342,-3.73886 2.45904,-7.1671 4.73309,-10.08096c-4.13663,-4.30474 -6.67946,-10.15242 -6.67946,-16.594c0,-5.55105 1.88835,-10.66106 5.05771,-14.72268c0.06267,-1.9089 0.26917,-3.7814 0.60899,-5.60704c17.3825,16.89363 32.72474,35.87547 45.62179,56.54062c-0.49449,2.9619 -1.50702,5.74842 -2.94131,8.26326c0.14462,0.3977 0.27951,0.80007 0.40438,1.20683c2.94456,1.40409 4.97933,4.4084 4.97933,7.88796c0,3.62836 -2.21252,6.73996 -5.362,8.05923c-3.49983,9.70103 -12.7877,16.63572 -23.69525,16.63572c-4.12854,0 -8.02504,-0.9935 -11.46346,-2.75445c-4.878,4.08231 -11.16242,6.53969 -18.02079,6.53969c-15.51699,0 -28.096,-12.57901 -28.096,-28.096zM348.56594,310.76184c0,-4.91665 3.98573,-8.90238 8.90238,-8.90238c4.91665,0 8.90238,3.98573 8.90238,8.90238c0,4.91665 -3.98573,8.90238 -8.90238,8.90238c-4.91665,0 -8.90238,-3.98573 -8.90238,-8.90238zM502.24086,230.45994c0,-4.21648 1.47382,-8.08874 3.9344,-11.12971c10.72649,4.05989 21.15945,8.71703 31.25828,13.93085c-1.34268,8.44798 -8.66033,14.90536 -17.48618,14.90536c-9.77903,0 -17.7065,-7.92747 -17.7065,-17.7065zM57.06217,205.8822c0,-12.72581 10.31631,-23.04212 23.04212,-23.04212c12.72581,0 23.04212,10.31631 23.04212,23.04212c0,12.72581 -10.31631,23.04212 -23.04212,23.04212c-12.72581,0 -23.04212,-10.31631 -23.04212,-23.04212zM518.53708,587.63885c0,-15.46554 12.5373,-28.00284 28.00284,-28.00284c11.24802,0 20.94712,6.63172 25.4006,16.19845c4.78638,-2.49056 10.22629,-3.89821 15.99497,-3.89821c2.02732,0 4.01403,0.17385 5.94604,0.50747c-0.67951,-1.86167 -1.05025,-3.87191 -1.05025,-5.96874c0,-9.61377 7.7935,-17.40727 17.40727,-17.40727c5.50567,0 10.41435,2.55603 13.60412,6.54617c0.1871,-0.02745 0.37494,-0.05265 0.56347,-0.07559c-3.30874,-3.6145 -5.32756,-8.42942 -5.32756,-13.71587c0,-11.22195 9.09719,-20.31914 20.31914,-20.31914c11.22195,0 20.31914,9.09719 20.31914,20.31914c0,9.91923 -7.10765,18.17837 -16.50778,19.96226c4.39409,4.20743 7.13034,10.13234 7.13034,16.69633c0,12.76499 -10.34807,23.11305 -23.11305,23.11305c-1.73069,0 -3.41696,-0.19022 -5.03903,-0.5509c0.29507,1.82084 0.44844,3.68917 0.44844,5.59333c0,5.70148 -1.37505,11.0818 -3.81161,15.82743c0.87702,0.71343 1.4373,1.80124 1.4373,3.01991c0,2.14888 -1.74201,3.8909 -3.8909,3.8909c-0.66231,0 -1.28598,-0.16548 -1.8319,-0.45736c-6.36537,7.59215 -15.92053,12.41938 -26.60315,12.41938c-10.6427,0 -20.16635,-4.79123 -26.53166,-12.33439c-3.65811,2.66597 -8.1637,4.239 -13.03669,4.239c-11.00353,0 -20.13373,-8.02063 -21.86319,-18.53447c-1.04554,-1.30637 -1.67079,-2.96373 -1.67079,-4.76712c0,-1.29136 0.3206,-2.50784 0.88656,-3.57419c-4.46521,-4.96114 -7.18264,-11.52661 -7.18264,-18.72677zM168.02585,435.69023c0,-4.29737 3.48371,-7.78108 7.78108,-7.78108c4.29737,0 7.78108,3.48371 7.78108,7.78108c0,4.29737 -3.48371,7.78108 -7.78108,7.78108c-4.29737,0 -7.78108,-3.48371 -7.78108,-7.78108zM461.97101,429.39224c0,-1.58938 1.28845,-2.87783 2.87783,-2.87783c1.58938,0 2.87783,1.28845 2.87783,2.87783c0,1.58938 -1.28845,2.87783 -2.87783,2.87783c-1.58938,0 -2.87783,-1.28845 -2.87783,-2.87783zM344.1892,402.4324c0,-4.17508 3.38458,-7.55966 7.55966,-7.55966c4.17508,0 7.55966,3.38458 7.55966,7.55966c0,4.17508 -3.38458,7.55966 -7.55966,7.55966c-4.17508,0 -7.55966,-3.38458 -7.55966,-7.55966zM441.53376,384.06234c0,-8.84932 7.17379,-16.02312 16.02312,-16.02312c8.84932,0 16.02312,7.17379 16.02312,16.02312c0,8.84932 -7.17379,16.02312 -16.02312,16.02312c-8.84932,0 -16.02312,-7.17379 -16.02312,-16.02312zM378.59662,326.82567c0,-8.20032 6.64767,-14.848 14.848,-14.848c8.20032,0 14.848,6.64767 14.848,14.848c0,8.20032 -6.64767,14.848 -14.848,14.848c-8.20032,0 -14.848,-6.64767 -14.848,-14.848zM294.76477,778.03886c1.93775,-8.77574 9.76283,-15.34062 19.12121,-15.34062c10.81469,0 19.58173,8.76704 19.58173,19.58173c0,3.5377 -0.93814,6.85628 -2.57921,9.72055c-12.86904,-3.0343 -25.41814,-6.89734 -37.58786,-11.52968c0.40557,-0.86287 0.89731,-1.67723 1.46412,-2.43198zM92.04486,295.66647c0,-1.96964 1.59671,-3.56635 3.56635,-3.56635c1.96964,0 3.56635,1.59671 3.56635,3.56635c0,1.96964 -1.59671,3.56635 -3.56635,3.56635c-1.96964,0 -3.56635,-1.59671 -3.56635,-3.56635zM355.2377,696.02843c0,-6.985 5.66246,-12.64746 12.64746,-12.64746c6.985,0 12.64746,5.66246 12.64746,12.64746c0,6.985 -5.66246,12.64746 -12.64746,12.64746c-6.985,0 -12.64746,-5.66246 -12.64746,-12.64746zM119.64737,443.68199c0,-5.25958 4.26373,-9.5233 9.5233,-9.5233c5.25958,0 9.5233,4.26373 9.5233,9.5233c0,5.25958 -4.26373,9.5233 -9.5233,9.5233c-5.25958,0 -9.5233,-4.26373 -9.5233,-9.5233zM44.57665,108.92501c0,6.3186 -3.90087,11.72611 -9.42574,13.94564c1.86969,3.61451 2.92572,7.71804 2.92572,12.06823c0,14.52704 -11.77649,26.30353 -26.30353,26.30353c-2.71091,0 -5.32604,-0.4101 -7.78673,-1.17165c4.83524,-23.86457 13.91943,-46.18732 26.42878,-66.14445c7.8961,0.44642 14.16149,6.99088 14.16149,14.9987zM577.10262,431.16524c0,-6.8957 5.59007,-12.48577 12.48577,-12.48577c6.8957,0 12.48577,5.59007 12.48577,12.48577c0,6.8957 -5.59007,12.48577 -12.48577,12.48577c-6.8957,0 -12.48577,-5.59007 -12.48577,-12.48577zM484.00474,285.30229c1.89118,0 3.42429,1.53311 3.42429,3.42429c0,1.89118 -1.53311,3.42429 -3.42429,3.42429c-1.31148,0 -2.45077,-0.73728 -3.02598,-1.81997c-0.31422,3.53444 -3.28316,6.30542 -6.89929,6.30542c-3.82556,0 -6.92678,-3.10123 -6.92678,-6.92678c0,-3.82556 3.10123,-6.92678 6.92678,-6.92678c3.14286,0 5.79685,2.09312 6.644,4.96141c0.42226,-1.41239 1.73154,-2.44187 3.28128,-2.44187zM475.20422,237.12114c0,-2.72892 2.21223,-4.94114 4.94114,-4.94114c2.72892,0 4.94114,2.21223 4.94114,4.94114c0,2.72892 -2.21223,4.94114 -4.94114,4.94114c-2.72892,0 -4.94114,-2.21223 -4.94114,-4.94114zM627.54234,676.86421c0,-5.75309 4.6638,-10.4169 10.4169,-10.4169c3.56451,0 6.71086,1.79035 8.58887,4.52085c-3.7546,5.40422 -7.68232,10.6791 -11.77514,15.81662c-4.19461,-1.34614 -7.23063,-5.27881 -7.23063,-9.92058zM145.63442,492.73478c0,-9.31857 7.15332,-16.96638 16.26833,-17.75182c2.07682,-4.97273 6.98639,-8.46736 12.71218,-8.46736c7.60515,0 13.77034,6.16519 13.77034,13.77034c0,5.19266 -2.87416,9.71403 -7.11841,12.06002c0.00277,0.12927 0.00416,0.25888 0.00416,0.38881c0,9.84077 -7.97752,17.8183 -17.8183,17.8183c-9.84077,0 -17.8183,-7.97752 -17.8183,-17.8183zM416.05898,303.51256c0,-4.78009 3.87503,-8.65511 8.65511,-8.65511c4.78009,0 8.65511,3.87503 8.65511,8.65511c0,4.78009 -3.87503,8.65511 -8.65511,8.65511c-4.78009,0 -8.65511,-3.87503 -8.65511,-8.65511zM575.55472,322.77371c0,-3.44561 2.79322,-6.23883 6.23883,-6.23883c3.44561,0 6.23883,2.79322 6.23883,6.23883c0,3.44561 -2.79322,6.23883 -6.23883,6.23883c-3.44561,0 -6.23883,-2.79322 -6.23883,-6.23883zM286.28614,300.06783c0,-6.39326 5.18276,-11.57601 11.57601,-11.57601c6.39326,0 11.57601,5.18276 11.57601,11.57601c0,6.39326 -5.18276,11.57601 -11.57601,11.57601c-6.39326,0 -11.57601,-5.18276 -11.57601,-11.57601zM182.09552,498.316c0,-2.02321 1.64013,-3.66334 3.66334,-3.66334c2.02321,0 3.66334,1.64013 3.66334,3.66334c0,2.02321 -1.64013,3.66334 -3.66334,3.66334c-2.02321,0 -3.66334,-1.64013 -3.66334,-3.66334zM195.74456,259.03357c0,-2.73551 2.21757,-4.95308 4.95308,-4.95308c2.73551,0 4.95308,2.21757 4.95308,4.95308c0,2.73551 -2.21757,4.95308 -4.95308,4.95308c-2.73551,0 -4.95308,-2.21757 -4.95308,-4.95308zM179.02915,155.07916c0,-13.60319 11.02757,-24.63076 24.63076,-24.63076c13.60319,0 24.63076,11.02757 24.63076,24.63076c0,13.60319 -11.02757,24.63076 -24.63076,24.63076c-13.60319,0 -24.63076,-11.02757 -24.63076,-24.63076zM151.33664,378.85516c0,-6.5422 5.3035,-11.8457 11.8457,-11.8457c6.5422,0 11.8457,5.3035 11.8457,11.8457c0,6.5422 -5.3035,11.8457 -11.8457,11.8457c-6.5422,0 -11.8457,-5.3035 -11.8457,-11.8457zM485.8632,449.10029c0,-1.68276 0.37991,-3.27678 1.05864,-4.70097c-2.54668,-3.55918 -4.04547,-7.91932 -4.04547,-12.62952c0,-11.99989 9.72783,-21.72772 21.72772,-21.72772c11.99989,0 21.72772,9.72783 21.72772,21.72772c0,11.23293 -8.52408,20.47495 -19.45662,21.61046c-1.66592,3.91526 -5.54816,6.66047 -10.07158,6.66047c-6.04223,0 -10.94043,-4.8982 -10.94043,-10.94043zM493.41801,392.68864c0,-0.59387 0.1898,-1.14341 0.51204,-1.59127c-0.63811,-0.69131 -1.02795,-1.61523 -1.02795,-2.63021c0,-2.14223 1.73662,-3.87885 3.87885,-3.87885c2.14223,0 3.87885,1.73662 3.87885,3.87885c0,1.43095 -0.77486,2.68093 -1.92788,3.35323c0.09152,0.27273 0.14111,0.5647 0.14111,0.86826c0,1.50636 -1.22115,2.72751 -2.72751,2.72751c-1.50636,0 -2.72751,-1.22115 -2.72751,-2.72751zM434.20903,457.30097c0,-4.74114 3.84345,-8.5846 8.5846,-8.5846c4.74114,0 8.5846,3.84345 8.5846,8.5846c0,4.74114 -3.84345,8.5846 -8.5846,8.5846c-4.74114,0 -8.5846,-3.84345 -8.5846,-8.5846zM272.91479,539.16029c0,-2.76544 2.24183,-5.00726 5.00726,-5.00726c2.76544,0 5.00726,2.24183 5.00726,5.00726c0,2.76544 -2.24183,5.00726 -5.00726,5.00726c-2.76544,0 -5.00726,-2.24183 -5.00726,-5.00726zM317.41799,555.91033c0,-11.80493 9.56978,-21.37471 21.37471,-21.37471c11.80493,0 21.37471,9.56978 21.37471,21.37471c0,11.80493 -9.56978,21.37471 -21.37471,21.37471c-11.80493,0 -21.37471,-9.56978 -21.37471,-21.37471zM649.20133,505.13132c0,-1.5472 1.25426,-2.80146 2.80146,-2.80146c1.5472,0 2.80146,1.25426 2.80146,2.80146c0,1.5472 -1.25426,2.80146 -2.80146,2.80146c-1.5472,0 -2.80146,-1.25426 -2.80146,-2.80146zM136.73029,482.09771c0,-2.15854 1.74985,-3.90839 3.90839,-3.90839c2.15854,0 3.90839,1.74985 3.90839,3.90839c0,2.15854 -1.74985,3.90839 -3.90839,3.90839c-2.15854,0 -3.90839,-1.74985 -3.90839,-3.90839zM576.27495,557.88067c0,-4.06015 3.2914,-7.35155 7.35155,-7.35155c4.06015,0 7.35155,3.2914 7.35155,7.35155c0,4.06015 -3.2914,7.35155 -7.35155,7.35155c-4.06015,0 -7.35155,-3.2914 -7.35155,-7.35155zM395.62291,239.20257c0,-7.90965 6.41204,-14.3217 14.3217,-14.3217c7.90965,0 14.3217,6.41204 14.3217,14.3217c0,7.90965 -6.41204,14.3217 -14.3217,14.3217c-7.90965,0 -14.3217,-6.41204 -14.3217,-14.3217zM183.99902,25.35224c0,-11.24643 9.11703,-20.36346 20.36346,-20.36346c11.24643,0 20.36346,9.11703 20.36346,20.36346c0,11.24643 -9.11703,20.36346 -20.36346,20.36346c-11.24643,0 -20.36346,-9.11703 -20.36346,-20.36346zM437.83075,364.20747c0,-4.05975 3.29108,-7.35083 7.35083,-7.35083c4.05975,0 7.35083,3.29108 7.35083,7.35083c0,4.05975 -3.29108,7.35083 -7.35083,7.35083c-4.05975,0 -7.35083,-3.29108 -7.35083,-7.35083zM307.75937,315.75695c0,-6.07582 4.92542,-11.00124 11.00124,-11.00124c6.07582,0 11.00124,4.92542 11.00124,11.00124c0,6.07582 -4.92542,11.00124 -11.00124,11.00124c-6.07582,0 -11.00124,-4.92542 -11.00124,-11.00124zM219.59463,548.80661c0,-3.72187 3.01718,-6.73905 6.73905,-6.73905c3.72187,0 6.73905,3.01718 6.73905,6.73905c0,3.72187 -3.01718,6.73905 -6.73905,6.73905c-3.72187,0 -6.73905,-3.01718 -6.73905,-6.73905zM483.84713,461.58615c0,-2.01269 1.6316,-3.64429 3.64429,-3.64429c2.01269,0 3.64429,1.6316 3.64429,3.64429c0,2.01269 -1.6316,3.64429 -3.64429,3.64429c-2.01269,0 -3.64429,-1.6316 -3.64429,-3.64429zM236.33541,297.71906c0,-6.55393 5.31301,-11.86693 11.86693,-11.86693c6.55393,0 11.86693,5.31301 11.86693,11.86693c0,6.55393 -5.31301,11.86693 -11.86693,11.86693c-6.55393,0 -11.86693,-5.31301 -11.86693,-11.86693zM168.83973,234.55553c0,-5.01068 4.06196,-9.07263 9.07263,-9.07263c5.01068,0 9.07263,4.06196 9.07263,9.07263c0,5.01068 -4.06196,9.07263 -9.07263,9.07263c-5.01068,0 -9.07263,-4.06196 -9.07263,-9.07263zM447.67101,575.57493c0,-9.8798 8.00916,-17.88896 17.88896,-17.88896c9.8798,0 17.88896,8.00916 17.88896,17.88896c0,9.8798 -8.00916,17.88896 -17.88896,17.88896c-9.8798,0 -17.88896,-8.00916 -17.88896,-17.88896zM374.29837,374.82718c0,-9.03894 7.32751,-16.36645 16.36645,-16.36645c9.03894,0 16.36645,7.32751 16.36645,16.36645c0,9.03894 -7.32751,16.36645 -16.36645,16.36645c-9.03894,0 -16.36645,-7.32751 -16.36645,-16.36645zM142.46414,146.37734c0,-1.57364 1.27569,-2.84932 2.84932,-2.84932c1.57364,0 2.84932,1.27569 2.84932,2.84932c0,1.57364 -1.27569,2.84932 -2.84932,2.84932c-1.57364,0 -2.84932,-1.27569 -2.84932,-2.84932zM479.95163,488.54044c2.07937,0 3.76504,1.68566 3.76504,3.76504c0,2.07937 -1.68566,3.76504 -3.76504,3.76504c-0.71451,0 -1.38252,-0.19903 -1.95164,-0.54467c0.04426,0.5806 0.06679,1.16728 0.06679,1.75922c0,9.86334 -6.25653,18.2654 -15.01743,21.45401c0.66311,1.69806 1.02706,3.54592 1.02706,5.47878c0,8.32145 -6.74586,15.06731 -15.06731,15.06731c-8.32145,0 -15.06731,-6.74586 -15.06731,-15.06731c0,-4.38814 1.87586,-8.33814 4.86942,-11.09186c-3.958,-4.10465 -6.39232,-9.68851 -6.39232,-15.84093c0,-12.60532 10.21863,-22.82395 22.82395,-22.82395c10.09047,0 18.65158,6.54799 21.66594,15.62659c0.68476,-0.93791 1.79265,-1.54726 3.04285,-1.54726zM137.74663,337.84059c0,-10.92029 8.85264,-19.77293 19.77293,-19.77293c10.92029,0 19.77293,8.85264 19.77293,19.77293c0,10.92029 -8.85264,19.77293 -19.77293,19.77293c-10.92029,0 -19.77293,-8.85264 -19.77293,-19.77293zM284.5126,678.9656c0,-15.20457 12.32574,-27.5303 27.5303,-27.5303c15.20457,0 27.5303,12.32574 27.5303,27.5303c0,15.20457 -12.32574,27.5303 -27.5303,27.5303c-15.20457,0 -27.5303,-12.32574 -27.5303,-27.5303zM218.16388,119.95229c0,-4.81015 3.89939,-8.70954 8.70954,-8.70954c4.81015,0 8.70954,3.89939 8.70954,8.70954c0,4.81015 -3.89939,8.70954 -8.70954,8.70954c-4.81015,0 -8.70954,-3.89939 -8.70954,-8.70954zM396.44991,677.89077c0,-3.45943 2.80442,-6.26385 6.26385,-6.26385c3.45943,0 6.26385,2.80442 6.26385,6.26385c0,3.45943 -2.80442,6.26385 -6.26385,6.26385c-3.45943,0 -6.26385,-2.80442 -6.26385,-6.26385zM344.56702,266.57962c0,-1.45657 1.18078,-2.63735 2.63735,-2.63735c1.45657,0 2.63735,1.18078 2.63735,2.63735c0,1.45657 -1.18078,2.63735 -2.63735,2.63735c-1.45657,0 -2.63735,-1.18078 -2.63735,-2.63735zM179.84559,133.90473c0,-1.79455 1.45477,-3.24931 3.24931,-3.24931c1.79455,0 3.24931,1.45477 3.24931,3.24931c0,1.79455 -1.45477,3.24931 -3.24931,3.24931c-1.79455,0 -3.24931,-1.45477 -3.24931,-3.24931zM4.18927,209.64382c5.49463,0 9.94891,4.45428 9.94891,9.94891c0,5.49463 -4.45428,9.94891 -9.94891,9.94891c-0.70414,0 -1.39119,-0.07315 -2.05398,-0.21227c-0.91202,-6.20622 -1.53899,-12.50514 -1.86717,-18.88302c1.20321,-0.51651 2.52878,-0.80254 3.92115,-0.80254zM201.0782,247.33429c0,-6.30238 5.10909,-11.41146 11.41146,-11.41146c6.30238,0 11.41146,5.10909 11.41146,11.41146c0,6.30238 -5.10909,11.41146 -11.41146,11.41146c-6.30238,0 -11.41146,-5.10909 -11.41146,-11.41146zM237.58068,145.00103c0,-12.41165 10.06163,-22.47327 22.47327,-22.47327c12.41165,0 22.47327,10.06163 22.47327,22.47327c0,12.41165 -10.06163,22.47327 -22.47327,22.47327c-12.41165,0 -22.47327,-10.06163 -22.47327,-22.47327zM334.93673,214.72421c0,-4.6196 3.74492,-8.36452 8.36452,-8.36452c4.6196,0 8.36452,3.74492 8.36452,8.36452c0,4.6196 -3.74492,8.36452 -8.36452,8.36452c-4.6196,0 -8.36452,-3.74492 -8.36452,-8.36452zM67.92353,63.09549c0,5.11552 -4.14695,9.26247 -9.26247,9.26247c-3.6143,0 -6.7451,-2.07013 -8.27138,-5.08938c3.87624,-4.36597 7.94068,-8.56108 12.18061,-12.57263c3.16185,1.47406 5.35324,4.68089 5.35324,8.39954zM189.37322,481.1602c0,-3.82448 3.10036,-6.92484 6.92484,-6.92484c3.82448,0 6.92484,3.10036 6.92484,6.92484c0,3.82448 -3.10036,6.92484 -6.92484,6.92484c-3.82448,0 -6.92484,-3.10036 -6.92484,-6.92484zM198.85734,432.72317c0,-3.76288 3.05042,-6.81329 6.81329,-6.81329c3.76288,0 6.81329,3.05042 6.81329,6.81329c0,3.76288 -3.05042,6.81329 -6.81329,6.81329c-3.76288,0 -6.81329,-3.05042 -6.81329,-6.81329zM206.23284,625.89662c0,-10.82072 8.77193,-19.59265 19.59265,-19.59265c10.82072,0 19.59265,8.77193 19.59265,19.59265c0,10.82072 -8.77193,19.59265 -19.59265,19.59265c-10.82072,0 -19.59265,-8.77193 -19.59265,-19.59265zM681.24229,443.77882c0,-6.9928 4.11484,-13.02454 10.05527,-15.80596c2.67376,10.84973 4.75718,21.93184 6.21426,33.21029c-9.08633,-0.60367 -16.26953,-8.16514 -16.26953,-17.40433zM125.68039,59.27118c0,-1.79882 1.45823,-3.25705 3.25705,-3.25705c1.79882,0 3.25705,1.45823 3.25705,3.25705c0,1.79882 -1.45823,3.25705 -3.25705,3.25705c-1.79882,0 -3.25705,-1.45823 -3.25705,-3.25705zM271.63307,184.03518c0,-12.14857 9.84836,-21.99693 21.99693,-21.99693c12.14857,0 21.99693,9.84836 21.99693,21.99693c0,12.14857 -9.84836,21.99693 -21.99693,21.99693c-12.14857,0 -21.99693,-9.84836 -21.99693,-21.99693zM145.6281,75.85467c0,-7.29504 5.9138,-13.20884 13.20884,-13.20884c7.29504,0 13.20884,5.9138 13.20884,13.20884c0,7.29504 -5.9138,13.20884 -13.20884,13.20884c-7.29504,0 -13.20884,-5.9138 -13.20884,-13.20884zM473.6066,413.99448c0,-3.97246 3.22031,-7.19277 7.19277,-7.19277c3.97246,0 7.19277,3.22031 7.19277,7.19277c0,3.97246 -3.22031,7.19277 -7.19277,7.19277c-3.97246,0 -7.19277,-3.22031 -7.19277,-7.19277zM485.34189,540.5629c0,-5.10864 4.14137,-9.25002 9.25002,-9.25002c5.10864,0 9.25002,4.14137 9.25002,9.25002c0,5.10864 -4.14137,9.25002 -9.25002,9.25002c-5.10864,0 -9.25002,-4.14137 -9.25002,-9.25002zM269.72806,687.79439c0,-2.51771 2.04101,-4.55872 4.55872,-4.55872c2.51771,0 4.55872,2.04101 4.55872,4.55872c0,2.51771 -2.04101,4.55872 -4.55872,4.55872c-2.51771,0 -4.55872,-2.04101 -4.55872,-4.55872zM6.88404,235.83828c12.23973,0 22.16199,9.92226 22.16199,22.16199c0,9.03322 -5.40446,16.80416 -13.15634,20.25579c-5.68501,-13.35798 -9.95875,-27.46112 -12.63401,-42.12222c1.18062,-0.19444 2.39268,-0.29557 3.62836,-0.29557zM551.47858,251.56441c0,-3.33903 1.69153,-6.28298 4.26441,-8.02169c5.08048,3.09192 10.06183,6.33055 14.93817,9.71001c-0.79869,4.53828 -4.76062,7.98637 -9.52789,7.98637c-5.34319,0 -9.67469,-4.33151 -9.67469,-9.67469zM309.92127,743.36961c0,-3.0969 2.51053,-5.60743 5.60743,-5.60743c3.0969,0 5.60743,2.51053 5.60743,5.60743c0,3.0969 -2.51053,5.60743 -5.60743,5.60743c-3.0969,0 -5.60743,-2.51053 -5.60743,-5.60743zM480.96201,767.92407c0,-1.95344 1.58357,-3.53701 3.53701,-3.53701c1.95344,0 3.53701,1.58357 3.53701,3.53701c0,1.95344 -1.58357,3.53701 -3.53701,3.53701c-1.95344,0 -3.53701,-1.58357 -3.53701,-3.53701zM117.27466,277.25559c0,-5.66199 4.58995,-10.25193 10.25193,-10.25193c5.66199,0 10.25193,4.58995 10.25193,10.25193c0,5.66199 -4.58995,10.25193 -10.25193,10.25193c-5.66199,0 -10.25193,-4.58995 -10.25193,-10.25193zM546.46785,283.52292c0,-2.30023 1.86471,-4.16494 4.16494,-4.16494c2.30023,0 4.16494,1.86471 4.16494,4.16494c0,2.30023 -1.86471,4.16494 -4.16494,4.16494c-2.30023,0 -4.16494,-1.86471 -4.16494,-4.16494zM316.32175,462.58092c0,-3.5118 1.80692,-6.60157 4.54176,-8.39032c0.24469,-0.19188 0.5153,-0.35219 0.80572,-0.47483c1.39465,-0.73634 2.98408,-1.15321 4.67087,-1.15321c5.53298,0 10.01835,4.48537 10.01835,10.01835c0,5.53298 -4.48537,10.01835 -10.01835,10.01835c-5.53298,0 -10.01835,-4.48537 -10.01835,-10.01835zM202.76883,274.81868c0,-1.51614 1.22908,-2.74522 2.74522,-2.74522c1.51614,0 2.74522,1.22908 2.74522,2.74522c0,1.51614 -1.22908,2.74522 -2.74522,2.74522c-1.51614,0 -2.74522,-1.22908 -2.74522,-2.74522z" stroke="#ff0000"/></g></svg>