<svg version="1.1" xmlns="http://www.w3.org/2000/svg" xmlns:xlink="http://www.w3.org/1999/xlink" width="500" height="500" viewBox="0,0,500,500"><g fill="none" fill-rule="nonzero" stroke="#000000" stroke-width="1" stroke-linecap="butt" stroke-linejoin="miter" stroke-miterlimit="10" stroke-dasharray="" stroke-dashoffset="0" font-family="none" font-weight="none" font-size="none" text-anchor="none" style="mix-blend-mode: normal"><path d=""/><path d="M136.77095,29.55584c2.00945,3.68981 3.1512,7.92036 3.1512,12.41757c0,4.98113 -1.40069,9.63512 -3.82968,13.58957c1.34948,-0.24573 2.7399,-0.37408 4.16029,-0.37408c7.16605,0 13.56908,3.26682 17.80109,8.39245c0.21934,-3.57477 3.18801,-6.40618 6.81799,-6.40618c3.77265,0 6.83098,3.05834 6.83098,6.83098c0,3.77265 -3.05834,6.83098 -6.83098,6.83098c-1.08316,0 -2.10743,-0.2521 -3.01735,-0.70083c0.95119,2.52741 1.47154,5.26587 1.47154,8.12586c0,1.96816 -0.24643,3.87877 -0.71011,5.70264c8.01077,4.01768 13.5092,12.30567 13.5092,21.87789c0,9.42554 -5.33121,17.60591 -13.14272,21.6902c1.09658,1.25969 1.76058,2.90588 1.76058,4.70715c0,1.37097 -0.38465,2.6521 -1.05191,3.74136c0.77662,-0.10344 1.56907,-0.15683 2.37398,-0.15683c9.83685,0 17.81119,7.97434 17.81119,17.81119c0,8.50291 -5.95824,15.6142 -13.92737,17.38651c3.75065,1.63536 7.1083,4.00367 9.892,6.92397c4.76487,-3.18233 10.49142,-5.03766 16.65129,-5.03766c3.52448,0 6.90709,0.60739 10.04888,1.7232c3.48781,-4.63124 9.03268,-7.6257 15.27694,-7.6257c9.0859,0 16.691,6.34003 18.63266,14.83743c1.33271,-0.99332 2.98535,-1.58128 4.7753,-1.58128c3.90524,0 7.15682,2.7987 7.85843,6.49983c1.23179,-1.75203 3.2688,-2.89695 5.57321,-2.89695c1.51497,0 2.91437,0.49484 4.04538,1.3317c2.52844,-6.18761 7.1333,-11.30634 12.94854,-14.49013c-6.02281,-4.28083 -9.95202,-11.31498 -9.95202,-19.26685c0,-9.71756 5.86789,-18.06461 14.25366,-21.69115c0.30643,-1.42157 0.70649,-2.80832 1.19341,-4.15348c-5.68901,-3.1763 -10.31122,-8.03428 -13.19408,-13.90135c-2.89011,1.95432 -6.16143,3.38759 -9.67914,4.16497c0.48707,1.58747 0.7492,3.27335 0.7492,5.02045c0,6.3057 -3.41463,11.81387 -8.49569,14.77631c-0.17219,8.3173 -6.96835,15.00674 -15.32691,15.00674c-8.46667,0 -15.33026,-6.86359 -15.33026,-15.33026c0,-4.59243 2.01935,-8.71322 5.21856,-11.52287c-0.16445,-0.95199 -0.25015,-1.93095 -0.25015,-2.92993c0,-5.46151 2.56155,-10.32475 6.54878,-13.45382c-1.50537,-1.63195 -2.82078,-3.44177 -3.91116,-5.39436c-2.27786,-1.50976 -3.77984,-4.09641 -3.77984,-7.03388c0,-0.986 0.16923,-1.93248 0.48023,-2.81197c-0.17646,-1.27614 -0.26766,-2.57952 -0.26766,-3.90421c0,-2.67164 0.37095,-5.25663 1.06416,-7.70629c-0.02067,-0.29488 -0.03118,-0.59255 -0.03118,-0.89269c0,-4.11326 1.97385,-7.76551 5.02602,-10.06121c-0.74796,0.187 -1.53067,0.28628 -2.33657,0.28628c-5.30321,0 -9.60232,-4.29911 -9.60232,-9.60232c0,-5.30321 4.29911,-9.60232 9.60232,-9.60232c5.30321,0 9.60232,4.29911 9.60232,9.60232c0,1.77646 -0.4824,3.44025 -1.32336,4.86752c4.59404,-3.23481 10.19603,-5.13435 16.24167,-5.13435c10.01857,0 18.81878,5.21646 23.83268,13.08145c5.59808,-4.7634 12.85308,-7.63788 20.77945,-7.63788c2.08926,0 4.13188,0.19971 6.10981,0.58108c-0.28792,-1.10872 -0.44114,-2.27173 -0.44114,-3.47053c0,-7.6036 6.16394,-13.76754 13.76754,-13.76754c0.30843,0 0.61449,0.01014 0.91786,0.03011c0.78136,-0.40184 1.58548,-0.76565 2.40991,-1.08898c-1.72772,0.21763 -3.48829,0.32977 -5.27504,0.32977c-20.52311,0 -37.59059,-14.79534 -41.11816,-34.30174c19.88913,7.8178 38.22263,18.73011 54.40769,32.14413c-0.0867,0.02906 -0.17354,0.05785 -0.26049,0.08636c0.11283,-0.00778 0.22586,-0.01484 0.33908,-0.02119c14.20663,11.78649 26.7558,25.50138 37.24608,40.74324c-4.71599,-2.06726 -8.32387,-6.19411 -9.68574,-11.24264c-1.61161,12.96247 -12.66741,22.99427 -26.06627,22.99427c-0.09415,0 -0.18818,-0.0005 -0.28209,-0.00148c-0.09759,3.41895 -0.73008,6.70394 -1.81672,9.77423c3.01298,1.65428 5.73325,3.77553 8.06339,6.26631c3.36398,-1.53613 7.10373,-2.39212 11.0434,-2.39212c11.68423,0 21.60993,7.52915 25.19008,18.00044c1.14734,-6.13659 4.92572,-11.34675 10.1197,-14.41505c5.93473,12.75582 10.56385,26.24188 13.71562,40.28646c-1.41947,0.45344 -2.93218,0.69821 -4.50206,0.69821c-5.03648,0 -9.48458,-2.51921 -12.15292,-6.36629c-2.59693,-2.19912 -4.66017,-5.00903 -5.9679,-8.20794c-1.66097,13.10296 -12.84857,23.23457 -26.40253,23.23457c-3.83214,0 -7.47513,-0.8099 -10.76712,-2.26786c5.06612,5.92608 8.12541,13.61915 8.12541,22.02676c0,4.69746 -0.955,9.17187 -2.68143,13.23967c0.03208,0.13724 0.06241,0.27515 0.09097,0.41371c0.9343,-0.51905 2.00984,-0.81467 3.15442,-0.81467c3.59253,0 6.50485,2.91232 6.50485,6.50485c0,2.05909 -0.95673,3.89473 -2.44991,5.08662c1.47602,2.30679 2.50718,4.92564 2.97249,7.73553c1.04947,0.84004 2.04364,1.74629 2.97618,2.71243c3.92684,-2.01884 8.37995,-3.15833 13.09919,-3.15833c6.08913,0 11.73518,1.89702 16.37939,5.13231c5.66242,0.88973 10.66131,3.77833 14.25178,7.92088c-1.95717,13.05282 -5.17571,25.69297 -9.52759,37.7924c-1.42459,0.54142 -2.91471,0.94983 -4.4552,1.21007c-3.35746,2.39641 -7.25319,4.08725 -11.47066,4.85598c-1.05103,0.62231 -2.15874,1.15901 -3.31352,1.60049c0.65298,0.28274 1.28937,0.59658 1.90728,0.93966c1.14019,-0.12929 2.29944,-0.19572 3.4742,-0.19572c3.4752,0 6.81464,0.58126 9.9264,1.65186c-27.43611,64.95244 -88.20246,112.38951 -160.86526,120.87743c-2.45565,-4.20327 -3.89893,-9.07022 -3.99543,-14.26644c-2.70592,-4.83213 -4.24851,-10.40382 -4.24851,-16.33579c0,-10.62699 4.95076,-20.09766 12.6717,-26.23145c1.55854,-4.11345 5.53517,-7.03772 10.19479,-7.03772c1.20408,0 2.36255,0.19527 3.44548,0.55586c2.31024,-0.50409 4.70961,-0.76968 7.17101,-0.76968c13.30549,0 24.79831,7.76092 30.19859,19.00286c1.08419,-0.14163 2.18995,-0.21469 3.31277,-0.21469c1.70035,0 3.36157,0.16755 4.96804,0.48705c-0.33018,-1.13299 -0.50722,-2.33123 -0.50722,-3.57083c0,-7.03589 5.70372,-12.73961 12.73961,-12.73961c2.93929,0 5.64608,0.99541 7.80167,2.66752c-0.57309,-0.84071 -0.90812,-1.85666 -0.90812,-2.95086c0,-2.89694 2.34844,-5.24538 5.24538,-5.24538c2.10582,0 3.9218,1.24091 4.75661,3.03138c3.94177,-2.59321 8.66039,-4.10204 13.73142,-4.10204c4.20961,0 8.17638,1.03976 11.65749,2.87646c1.90994,-3.70334 4.61556,-6.92944 7.89085,-9.45228c-3.01698,-4.21323 -4.98752,-9.2268 -5.53165,-14.66075c-1.27203,-1.44602 -2.35504,-3.06236 -3.21041,-4.8104c-4.23577,-1.85164 -7.19573,-6.07876 -7.19573,-10.99722c0,-1.33183 0.21703,-2.61297 0.61766,-3.80998c-1.94619,-1.02754 -3.61699,-2.5068 -4.87284,-4.29822c-0.1417,0.29107 -0.29032,0.57816 -0.44563,0.86104c0.4626,0.78852 0.72783,1.70684 0.72783,2.6871c0,2.93704 -2.38094,5.31798 -5.31798,5.31798c-0.89135,0 -1.73149,-0.2193 -2.4694,-0.60688c-3.01041,1.84221 -6.55023,2.90403 -10.33805,2.90403c-1.9941,0 -3.91946,-0.29428 -5.73504,-0.84178c-1.67043,1.44466 -3.55858,2.64434 -5.60861,3.5432c2.05719,3.86699 3.22286,8.28041 3.22286,12.96608c0,15.26879 -12.3778,27.6466 -27.6466,27.6466c-15.26879,0 -27.6466,-12.3778 -27.6466,-27.6466c0,-10.23791 5.5649,-19.17608 13.83486,-23.95466c-8.69486,-2.92753 -15.59309,-9.763 -18.60635,-18.41808c-0.12731,0.07088 -0.25527,0.14073 -0.38388,0.20954c1.05316,3.19554 1.62301,6.6107 1.62301,10.15896c0,7.76758 -2.73085,14.89734 -7.28483,20.48157c0.25733,1.15047 0.39308,2.34684 0.39308,3.57492c0,9.00591 -7.30073,16.30664 -16.30664,16.30664c-6.10169,0 -11.42064,-3.35129 -14.21662,-8.31361c-15.54422,-2.39796 -27.44547,-15.83389 -27.44547,-32.04951c0,-2.75061 0.34244,-5.42125 0.98701,-7.97159c-0.06393,0.00039 -0.1279,0.00059 -0.19192,0.00059c-3.65924,0 -7.16878,-0.64091 -10.42249,-1.81661c-2.57241,4.40264 -6.51002,7.91022 -11.23224,9.94211c-0.9023,0.70196 -1.88896,1.30058 -2.94222,1.7781c0.27917,1.90973 0.42372,3.86317 0.42372,5.85037c0,3.48623 -0.4449,6.86855 -1.28102,10.09328c2.55017,-1.36956 5.46604,-2.14646 8.56337,-2.14646c10.01029,0 18.12523,8.11494 18.12523,18.12523c0,10.01029 -8.11494,18.12523 -18.12523,18.12523c-5.13253,0 -9.7668,-2.13332 -13.06447,-5.56162c-2.16876,1.64356 -4.87202,2.61871 -7.80303,2.61871c-4.01969,0 -7.611,-1.83409 -9.98274,-4.71107c-5.0403,2.28361 -10.63691,3.55508 -16.5305,3.55508c-0.90674,0 -1.80645,-0.0301 -2.69819,-0.08935c0.85237,2.37171 1.43334,4.87284 1.70546,7.46594c6.76644,4.62935 11.85875,11.52644 14.182,19.59637c5.68544,0.27148 10.68267,3.16929 13.80516,7.50686c4.54727,-8.44223 13.46821,-14.18011 23.7293,-14.18011c14.87561,0 26.93467,12.05906 26.93467,26.93467c0,5.86739 -1.87609,11.29659 -5.06112,15.72046c0.39123,1.98469 0.59631,4.03622 0.59631,6.13566c0,0.72514 -0.02447,1.44458 -0.07262,2.15751c-54.56142,-2.85397 -103.33199,-27.57493 -137.71273,-65.56389c2.30766,-14.50674 14.33763,-25.77352 29.20202,-26.91243c-1.87119,-3.50199 -3.23778,-7.31422 -4.00264,-11.33958c-1.86226,0.36418 -3.78659,0.55501 -5.75548,0.55501c-14.94824,0 -27.32734,-10.99985 -29.48446,-25.34673c-1.55881,8.16795 -5.86443,15.36142 -11.91895,20.58249c0.21977,0.62431 0.33932,1.29586 0.33932,1.99534c0,2.50933 -1.53853,4.65932 -3.72373,5.55811c-12.28694,-21.45397 -20.71308,-45.40252 -24.33124,-70.89848c1.34742,-0.15222 2.71726,-0.23041 4.10537,-0.23041c18.54418,0 33.82904,13.95483 35.92616,31.93609c1.17289,-5.20217 3.70559,-9.88925 7.20504,-13.66818c-2.44245,-1.5861 -4.36422,-3.90621 -5.45274,-6.64777c-9.39544,-3.55231 -16.98078,-10.7899 -20.99244,-19.94919c-2.23027,0.60894 -4.5777,0.93403 -7.00105,0.93403c-5.6355,0 -10.86039,-1.75805 -15.15614,-4.75563c-0.41633,-5.2691 -0.62844,-10.59565 -0.62844,-15.97175c0,-9.6584 0.68463,-19.15689 2.00801,-28.4496c4.01502,-2.44615 8.73124,-3.85526 13.77658,-3.85526c5.47319,0 10.55908,1.65824 14.78267,4.49972c0.45365,-0.02597 0.91072,-0.03913 1.37087,-0.03913c2.00349,0 3.94871,0.2495 5.80628,0.71913c5.6134,-3.38234 12.19027,-5.32803 19.22158,-5.32803c8.06444,0 15.53108,2.55946 21.63193,6.91038c2.18046,-2.50974 5.3955,-4.09659 8.98117,-4.09659c6.56817,0 11.89273,5.32456 11.89273,11.89273c0,4.85679 -2.91134,9.0336 -7.08405,10.88046c1.21683,3.68276 1.87536,7.61955 1.87536,11.71016c0,13.81281 -7.50869,25.87187 -18.66699,32.3181c9.57965,1.4444 17.66568,7.44646 21.97896,15.72704c5.57992,-2.94421 11.93836,-4.61094 18.68609,-4.61094c3.79599,0 7.46879,0.52747 10.94909,1.51312c2.13084,-5.28141 6.09063,-9.62869 11.09461,-12.25706c-0.76006,0.05724 -1.52797,0.08638 -2.30268,0.08638c-13.70262,0 -25.2761,-9.11588 -28.98681,-21.61399c-2.70734,-1.42349 -4.55361,-4.26342 -4.55361,-7.53457c0,-3.00859 1.56178,-5.6524 3.91884,-7.16493c1.07217,-5.25114 3.50561,-10.00684 6.91563,-13.88242c-1.28534,0.82509 -2.81438,1.3036 -4.45518,1.3036c-4.56099,0 -8.2584,-3.69741 -8.2584,-8.2584c0,-4.56099 3.69741,-8.2584 8.2584,-8.2584c4.56099,0 8.2584,3.69741 8.2584,8.2584c0,1.6142 -0.46312,3.12023 -1.26374,4.39248c5.35014,-4.79318 12.41789,-7.70817 20.16647,-7.70817c0.16618,0 0.33205,0.00134 0.49759,0.00401c5.16192,-5.03757 12.10539,-8.25785 19.7964,-8.62684c-4.84411,-3.18331 -8.04235,-8.66598 -8.04235,-14.89563c0,-5.96291 2.93021,-11.24143 7.42926,-14.47418c-2.10569,-0.57284 -3.82605,-2.08092 -4.68734,-4.05048c-3.27636,6.37644 -9.77603,10.82459 -17.34698,11.19243c-3.49398,9.40134 -12.54735,16.09949 -23.16516,16.09949c-13.64438,0 -24.70534,-11.06096 -24.70534,-24.70534c0,-13.64438 11.06096,-24.70534 24.70534,-24.70534c1.86635,0 3.68437,0.20695 5.43236,0.59916c2.72558,-3.75786 6.68743,-6.56069 11.28854,-7.81147c0.00072,-0.28802 0.00642,-0.57487 0.01702,-0.86048c-0.4342,0.03245 -0.87285,0.04897 -1.31535,0.04897c-0.51725,0 -1.02924,-0.02257 -1.53502,-0.06677c-5.61646,4.17125 -12.57356,6.63901 -20.10704,6.63901c-6.96741,0 -13.4418,-2.11083 -18.81857,-5.72789c-0.06968,3.02357 -0.57585,5.93927 -1.45796,8.68652c-2.40987,18.2617 -18.03793,32.35573 -36.95782,32.35573c-8.1707,0 -15.72746,-2.62855 -21.87081,-7.08616c-3.74433,6.42318 -10.70706,10.73986 -18.678,10.73986c-0.10343,0 -0.2067,-0.00073 -0.30979,-0.00218c18.79756,-73.83887 78.67801,-131.26751 153.86965,-146.51421c-0.41529,13.18629 -10.41888,23.95439 -23.26989,25.5634zM151.00802,233.63973c-0.73498,0.42102 -1.48933,0.81206 -2.26139,1.17146c0.22466,-0.00623 0.45009,-0.00937 0.67626,-0.00937c0.42774,0 0.85286,0.01122 1.27509,0.03337c0.09551,-0.40161 0.19891,-0.80016 0.31004,-1.19547zM309.18852,342.09776c0.02916,-0.04383 0.05845,-0.08756 0.08787,-0.13119c-0.12685,-0.06092 -0.25088,-0.12679 -0.37183,-0.19737c0.09648,0.10788 0.19115,0.21742 0.28396,0.32856zM216.79942,225.03598c4.01394,-2.49742 8.75243,-3.93994 13.82784,-3.93994c10.47027,0 19.50671,6.13898 23.70622,15.01386c2.49655,-1.76123 5.27627,-3.1479 8.25739,-4.07823c-1.85889,-2.24212 -2.97632,-5.12118 -2.97632,-8.26123c0,-4.65959 2.46059,-8.74447 6.15329,-11.02617c-1.97431,-2.8265 -3.45773,-6.02125 -4.32662,-9.46062c-2.18901,-1.29022 -3.80822,-3.44399 -4.38917,-5.99285c-2.42931,-0.58729 -4.35011,-2.47748 -4.98123,-4.88938c-1.40197,2.31268 -3.94296,3.85805 -6.84489,3.85805c-2.31458,0 -4.39954,-0.98312 -5.86009,-2.55455c-2.33757,5.39973 -7.09451,9.50815 -12.90386,10.95828c-0.45888,8.05029 -4.08991,15.25139 -9.66256,20.37277zM209.48209,231.81491c0.94635,-1.28943 2.0078,-2.48911 3.16921,-3.58391c-1.19696,0.76599 -2.45187,1.44938 -3.75669,2.04212c0.20918,0.50723 0.40515,1.02131 0.58748,1.54179zM310.00486,219.04699c-0.14629,0.00186 -0.29279,0.00279 -0.43952,0.00279c-0.71292,0 -1.4207,-0.022 -2.12271,-0.06535c-4.92711,3.86622 -11.13727,6.17162 -17.88589,6.17162c-1.38641,0 -2.7501,-0.0973 -4.08461,-0.28544c-0.25101,2.98416 -1.51379,5.6804 -3.44413,7.74451c3.80294,1.4445 7.23291,3.64628 10.10574,6.42116c2.25545,-7.8698 7.99673,-14.26648 15.4461,-17.41226c0.75954,-0.90405 1.56931,-1.7645 2.42501,-2.57704zM58.29123,305.16091c0,-3.48871 2.82816,-6.31686 6.31686,-6.31686c3.48871,0 6.31686,2.82816 6.31686,6.31686c0,3.48871 -2.82816,6.31686 -6.31686,6.31686c-3.48871,0 -6.31686,-2.82816 -6.31686,-6.31686zM19.139,160.58868c0,-4.71805 3.82474,-8.54279 8.54279,-8.54279c4.71805,0 8.54279,3.82474 8.54279,8.54279c0,4.71805 -3.82474,8.54279 -8.54279,8.54279c-4.71805,0 -8.54279,-3.82474 -8.54279,-8.54279zM203.88517,105.20144c0,-3.94151 3.19523,-7.13674 7.13674,-7.13674c3.94151,0 7.13674,3.19523 7.13674,7.13674c0,3.94151 -3.19523,7.13674 -7.13674,7.13674c-3.94151,0 -7.13674,-3.19523 -7.13674,-7.13674zM305.2367,309.6957c0,-3.13033 2.53763,-5.66796 5.66796,-5.66796c3.13033,0 5.66796,2.53763 5.66796,5.66796c0,3.13033 -2.53763,5.66796 -5.66796,5.66796c-3.13033,0 -5.66796,-2.53763 -5.66796,-5.66796zM154.47381,44.98696c0,-3.87311 3.13978,-7.01289 7.01289,-7.01289c3.87311,0 7.01289,3.13978 7.01289,7.01289c0,3.87311 -3.13978,7.01289 -7.01289,7.01289c-3.87311,0 -7.01289,-3.13978 -7.01289,-7.01289zM274.58523,55.14618c0,-5.64053 4.57255,-10.21308 10.21308,-10.21308c5.64053,0 10.21308,4.57255 10.21308,10.21308c0,5.64053 -4.57255,10.21308 -10.21308,10.21308c-5.64053,0 -10.21308,-4.57255 -10.21308,-10.21308zM179.89055,22.91866c0,-7.62371 4.26162,-14.25206 10.53259,-17.63278c-0.01586,-0.3771 -0.02386,-0.75623 -0.02386,-1.13723c0,-1.33724 0.09864,-2.65144 0.28905,-3.93573c3.08616,-0.14144 6.19056,-0.21293 9.31167,-0.21293c22.72616,0 44.56699,3.79051 64.92477,10.7738c-3.31358,10.20867 -12.903,17.58904 -24.2162,17.58904c-3.3124,0 -6.47702,-0.63269 -9.37962,-1.78382c-3.78183,2.41956 -8.21612,3.90889 -12.98015,4.1453c-3.04219,7.17776 -10.15293,12.21291 -18.43968,12.21291c-11.05595,0 -20.01857,-8.96262 -20.01857,-20.01857zM382.69171,200.02989c0,-4.01535 3.25508,-7.27044 7.27044,-7.27044c4.01535,0 7.27044,3.25508 7.27044,7.27044c0,1.78052 -0.64004,3.41155 -1.70261,4.67557c1.63054,0.27041 3.12151,0.954 4.36171,1.93958c-0.17295,5.29804 -0.55197,10.54397 -1.12928,15.73003c-1.41158,0.82397 -3.05368,1.29607 -4.80605,1.29607c-5.27287,0 -9.54738,-4.27451 -9.54738,-9.54738c0,-2.86782 1.26444,-5.44032 3.26622,-7.19042c-2.89491,-0.95851 -4.98349,-3.68708 -4.98349,-6.90346zM189.38365,155.7677c0,-3.76563 3.05265,-6.81828 6.81828,-6.81828c3.76563,0 6.81828,3.05265 6.81828,6.81828c0,3.76563 -3.05265,6.81828 -6.81828,6.81828c-3.76563,0 -6.81828,-3.05265 -6.81828,-6.81828zM354.11985,181.93759c0,-6.05746 4.91054,-10.96801 10.96801,-10.96801c6.05746,0 10.96801,4.91054 10.96801,10.96801c0,6.05746 -4.91054,10.96801 -10.96801,10.96801c-6.05746,0 -10.96801,-4.91054 -10.96801,-10.96801zM49.71925,157.58968c0,-2.94942 2.39098,-5.34039 5.34039,-5.34039c2.94942,0 5.34039,2.39098 5.34039,5.34039c0,2.94942 -2.39098,5.34039 -5.34039,5.34039c-2.94942,0 -5.34039,-2.39098 -5.34039,-5.34039z"/></g></svg>