<svg version="1.1" xmlns="http://www.w3.org/2000/svg" xmlns:xlink="http://www.w3.org/1999/xlink" width="1500" height="1500" viewBox="0,0,1500,1500"><g fill="none" fill-rule="nonzero" stroke="#000000" stroke-width="1" stroke-linecap="butt" stroke-linejoin="miter" stroke-miterlimit="10" stroke-dasharray="" stroke-dashoffset="0" font-family="none" font-weight="none" font-size="none" text-anchor="none" style="mix-blend-mode: normal"><path d="M215.79452,374.61962c0,-7.80559 6.32768,-14.13327 14.13327,-14.13327c7.80559,0 14.13327,6.32768 14.13327,14.13327c0,7.80559 -6.32768,14.13327 -14.13327,14.13327c-7.80559,0 -14.13327,-6.32768 -14.13327,-14.13327zM642.23135,420.77632c-21.8467,0 -39.55695,-17.71025 -39.55695,-39.55695c0,-6.90145 1.7674,-13.39011 4.87427,-19.03805c-15.32302,-8.97408 -26.02183,-24.9892 -27.65584,-43.60479c0.00367,0.1275 0.00551,0.25546 0.00551,0.38385c0,7.23883 -5.86823,13.10706 -13.10706,13.10706c-7.23883,0 -13.10706,-5.86823 -13.10706,-13.10706c0,-7.23883 5.86823,-13.10706 13.10706,-13.10706c6.68283,0 12.19752,5.00139 13.00524,11.46535c-0.08055,-1.23186 -0.12145,-2.47453 -0.12145,-3.72676c0,-15.75543 6.47539,-29.99845 16.91001,-40.2129c36.82655,31.9732 65.78276,72.77404 83.57504,119.10893c-4.85225,16.35696 -19.99715,28.28839 -37.92878,28.28839zM355.58435,566.47171c0,-8.02319 6.50408,-14.52727 14.52727,-14.52727c8.02319,0 14.52727,6.50408 14.52727,14.52727c0,8.02319 -6.50408,14.52727 -14.52727,14.52727c-8.02319,0 -14.52727,-6.50408 -14.52727,-14.52727zM18.27728,163.79322c0,-12.67682 10.27659,-22.95341 22.95341,-22.95341c11.12017,0 20.3934,7.90773 22.50312,18.40663c0.49334,-0.02141 0.98944,-0.03223 1.48805,-0.03223c18.63205,0 33.73632,15.10426 33.73632,33.73632c0,10.63131 -4.91758,20.11406 -12.60218,26.29767c0.01833,0.35214 0.0276,0.70668 0.0276,1.06338c0,11.11789 -9.01283,20.13073 -20.13073,20.13073c-7.86563,0 -14.67763,-4.5111 -17.98992,-11.08723c-3.29362,2.13224 -7.22011,3.37023 -11.43575,3.37023c-11.63726,0 -21.07112,-9.43386 -21.07112,-21.07112c0,-9.80676 6.69945,-18.04878 15.77131,-20.39901c0.10613,-2.14445 0.4125,-4.23621 0.90079,-6.25699c-8.30852,-3.4529 -14.15092,-11.64665 -14.15092,-21.20497zM248.43474,126.99358c0,6.0711 -3.2465,11.38394 -8.09814,14.29718c0.00655,0.35681 0.00984,0.71442 0.00984,1.0728c0,16.64934 -7.10016,31.64035 -18.43776,42.11033c2.13884,3.8094 3.74033,7.96106 4.70173,12.35225c2.31007,-0.89301 4.82088,-1.3827 7.44606,-1.3827c11.40879,0 20.65744,9.24865 20.65744,20.65744c0,11.40879 -9.24865,20.65744 -20.65744,20.65744c-5.34649,0 -10.21858,-2.03112 -13.88675,-5.36384c-8.07197,12.17154 -21.89666,20.1965 -37.59568,20.1965c-24.89665,0 -45.07937,-20.18272 -45.07937,-45.07937c0,-8.23862 2.21007,-15.96104 6.06969,-22.60675c-4.59616,-4.36902 -8.46802,-9.49284 -11.41691,-15.17281c-4.95166,3.74019 -11.1173,5.95826 -17.80101,5.95826c-16.32673,0 -29.56216,-13.23543 -29.56216,-29.56216c0,-1.17101 0.06809,-2.32612 0.20052,-3.46158c-4.48675,-3.37188 -7.38873,-8.73875 -7.38873,-14.78342c0,-10.2068 8.27425,-18.48105 18.48105,-18.48105c6.03581,0 11.39581,2.89348 14.76858,7.36901c1.14806,-0.13545 2.31626,-0.20511 3.50073,-0.20511c5.82968,0 11.26523,1.68744 15.84487,4.60053c5.01361,-11.92256 13.94401,-21.7926 25.18049,-27.99938c4.64449,-6.72203 11.10232,-12.09516 18.66655,-15.41248c-9.00183,-4.74283 -15.1389,-14.19137 -15.1389,-25.07329c0,-15.64188 12.68025,-28.32213 28.32213,-28.32213c15.64188,0 28.32213,12.68025 28.32213,28.32213c0,9.47518 -4.65291,17.86361 -11.7985,23.00507c16.58202,4.6468 29.22552,18.71673 31.7904,36.0697c7.38998,1.70688 12.89913,8.32879 12.89913,16.23744zM126.66332,480.26304c0,-4.66934 3.78525,-8.45459 8.45459,-8.45459c4.66934,0 8.45459,3.78525 8.45459,8.45459c0,4.66934 -3.78525,8.45459 -8.45459,8.45459c-4.66934,0 -8.45459,-3.78525 -8.45459,-8.45459zM376.18787,298.4519c0,-4.43001 3.59123,-8.02124 8.02124,-8.02124c4.43001,0 8.02124,3.59123 8.02124,8.02124c0,4.43001 -3.59123,8.02124 -8.02124,8.02124c-4.43001,0 -8.02124,-3.59123 -8.02124,-8.02124zM250.94461,8.20988c0,-0.55473 0.04852,-1.09812 0.14154,-1.62617c5.98843,1.57747 11.867,3.42568 17.62182,5.53075c-1.47639,3.19116 -4.70651,5.40506 -8.45372,5.40506c-5.14157,0 -9.30964,-4.16807 -9.30964,-9.30964zM333.32911,209.81067c0,-0.33512 0.01767,-0.66611 0.05212,-0.9921c-1.50134,-1.49464 -2.43059,-3.56347 -2.43059,-5.84934c0,-4.55838 3.69529,-8.25367 8.25367,-8.25367c4.14561,0 7.57736,3.05636 8.16487,7.03869c2.40377,1.40822 4.12105,3.86149 4.52821,6.73617c2.98016,1.56493 5.01286,4.68984 5.01286,8.28951c0,5.16764 -4.1892,9.35685 -9.35685,9.35685c-4.7359,0 -8.65002,-3.51844 -9.27099,-8.08397c-2.94698,-1.56832 -4.95331,-4.67093 -4.95331,-8.24214zM381.25883,461.48785c0.11725,0 0.23436,0.00062 0.35132,0.00187c-5.70939,-7.19944 -9.30626,-16.15017 -9.85388,-25.91545c-17.02362,-1.94075 -31.67266,-11.70238 -40.26562,-25.6034c0.99091,3.7503 1.5188,7.68876 1.5188,11.75052c0,25.33515 -20.5382,45.87334 -45.87334,45.87334c-18.41976,0 -34.30388,-10.85634 -41.60286,-26.51949c-1.70973,9.43465 -9.96619,16.58976 -19.89381,16.58976c-5.03869,0 -9.64689,-1.84315 -13.18715,-4.89201c-2.44141,-1.26454 -4.26688,-3.55298 -4.90799,-6.29686c-1.35884,-2.71778 -2.12342,-5.78445 -2.12342,-9.02969c0,-11.1664 9.05216,-20.21856 20.21856,-20.21856c6.34858,0 12.01374,2.92603 15.72048,7.50306c-0.06443,-0.99487 -0.09715,-1.99839 -0.09715,-3.00955c0,-25.33515 20.5382,-45.87334 45.87334,-45.87334c16.0751,0 30.219,8.26842 38.41075,20.7843c-1.42404,-4.87257 -2.18777,-10.02692 -2.18777,-15.35966c0,-30.18569 24.47034,-54.65603 54.65603,-54.65603c30.18569,0 54.65603,24.47034 54.65603,54.65603c0,2.73652 -0.20111,5.42606 -0.58936,8.05466c18.29936,6.05623 31.50234,23.30277 31.50234,43.63304c0,25.37775 -20.57273,45.95048 -45.95048,45.95048c-2.73824,0 -5.42055,-0.23951 -8.0271,-0.69873c2.56657,4.63875 4.02761,9.97427 4.02761,15.65104c0,17.88041 -14.49493,32.37534 -32.37534,32.37534c-16.94714,0 -30.85299,-13.02129 -32.25845,-29.60478c-1.41244,2.56678 -4.14294,4.30608 -7.27968,4.30608c-4.58585,0 -8.30342,-3.71757 -8.30342,-8.30342c0,-4.58585 3.71757,-8.30342 8.30342,-8.30342c3.31845,0 6.18223,1.94666 7.5117,4.76032c2.30628,-15.61886 15.76654,-27.60546 32.02642,-27.60546zM614.90618,491.57819c0,-4.49427 3.64333,-8.1376 8.1376,-8.1376c4.49427,0 8.1376,3.64333 8.1376,8.1376c0,4.49427 -3.64333,8.1376 -8.1376,8.1376c-4.49427,0 -8.1376,-3.64333 -8.1376,-8.1376zM465.69075,463.78881c0,-8.13467 6.59445,-14.72912 14.72912,-14.72912c8.13467,0 14.72912,6.59445 14.72912,14.72912c0,8.13467 -6.59445,14.72912 -14.72912,14.72912c-8.13467,0 -14.72912,-6.59445 -14.72912,-14.72912zM671.25163,624.97927c0,-3.36558 2.01038,-6.26161 4.89577,-7.55274c-1.44233,3.38756 -2.94516,6.74315 -4.50716,10.06543c-0.2524,-0.7924 -0.38862,-1.63664 -0.38862,-2.5127zM229.40374,644.43542c0,-8.35332 6.7717,-15.12502 15.12502,-15.12502c8.35332,0 15.12502,6.7717 15.12502,15.12502c0,8.35332 -6.7717,15.12502 -15.12502,15.12502c-8.35332,0 -15.12502,-6.7717 -15.12502,-15.12502zM249.08968,135.55371c0,-11.6486 9.44306,-21.09166 21.09166,-21.09166c11.6486,0 21.09166,9.44306 21.09166,21.09166c0,11.6486 -9.44306,21.09166 -21.09166,21.09166c-11.6486,0 -21.09166,-9.44306 -21.09166,-21.09166zM60.03926,60.41467c17.05378,0 30.87861,13.82482 30.87861,30.87861c0,17.05378 -13.82482,30.87861 -30.87861,30.87861c-15.6296,0 -28.54704,-11.61219 -30.59553,-26.67979c7.75136,-12.62321 16.86482,-24.32002 27.13572,-34.88576c1.1358,-0.12663 2.29021,-0.19166 3.45981,-0.19166zM56.22346,138.91874c0,-4.85955 3.93945,-8.799 8.799,-8.799c4.85955,0 8.799,3.93945 8.799,8.799c0,4.85955 -3.93945,8.799 -8.799,8.799c-4.85955,0 -8.799,-3.93945 -8.799,-8.799zM654.74471,648.38716c0,-5.83482 4.73006,-10.56488 10.56488,-10.56488c0.40359,0 0.80189,0.02263 1.1937,0.06669c-2.9953,5.77737 -6.17294,11.44498 -9.52532,16.99519c-1.3994,-1.79201 -2.23327,-4.04712 -2.23327,-6.49699zM144.00635,636.47243c3.39031,-1.98282 7.33596,-3.11919 11.54703,-3.11919c12.65032,0 22.90544,10.25511 22.90544,22.90544c0,11.42874 -8.37017,20.90253 -19.31478,22.62564c-9.2044,-12.37286 -17.47795,-25.47926 -24.717,-39.21555c2.76297,-1.8611 6.04295,-3.01343 9.57931,-3.19633zM231.70263,46.30297c0,-9.0136 7.30696,-16.32056 16.32056,-16.32056c9.0136,0 16.32056,7.30696 16.32056,16.32056c0,9.0136 -7.30696,16.32056 -16.32056,16.32056c-9.0136,0 -16.32056,-7.30696 -16.32056,-16.32056zM210.5578,555.66213c0,-16.50315 13.37845,-29.88159 29.88159,-29.88159c6.2552,0 12.06149,1.92201 16.86053,5.20767c-0.20521,-1.09726 -0.31252,-2.22899 -0.31252,-3.38578c0,-10.10894 8.19491,-18.30385 18.30385,-18.30385c10.10894,0 18.30385,8.19491 18.30385,18.30385c0,10.10894 -8.19491,18.30385 -18.30385,18.30385c-2.5333,0 -4.94641,-0.51465 -7.14046,-1.44509c1.39955,3.45915 2.1702,7.24005 2.1702,11.20095c0,16.50315 -13.37845,29.88159 -29.88159,29.88159c-16.50315,0 -29.88159,-13.37845 -29.88159,-29.88159zM9.71076,255.84385c0,-4.48111 3.63266,-8.11377 8.11377,-8.11377c4.48111,0 8.11377,3.63266 8.11377,8.11377c0,4.48111 -3.63266,8.11377 -8.11377,8.11377c-4.48111,0 -8.11377,-3.63266 -8.11377,-8.11377zM262.09812,672.0495c0,-15.51617 12.57834,-28.0945 28.0945,-28.0945c15.51617,0 28.0945,12.57834 28.0945,28.0945c0,15.51617 -12.57834,28.0945 -28.0945,28.0945c-15.51617,0 -28.0945,-12.57834 -28.0945,-28.0945zM126.84032,496.84763c0,15.98373 -10.68581,29.47165 -25.30322,33.70956c-1.01645,-10.04756 -1.5371,-20.24157 -1.5371,-30.55719c0,-12.40948 0.75346,-24.64297 2.21713,-36.65723c14.26761,4.45392 24.62318,17.77005 24.62318,33.50486zM108.32475,554.20877c0,3.41052 -0.51915,6.69979 -1.48273,9.79309c-2.07912,-9.5678 -3.70176,-19.3059 -4.84395,-29.19036c3.97817,5.43798 6.32669,12.14336 6.32669,19.39727zM201.55024,256.63318c0,-5.33082 4.32149,-9.65231 9.65231,-9.65231c5.33082,0 9.65231,4.32149 9.65231,9.65231c0,5.33082 -4.32149,9.65231 -9.65231,9.65231c-5.33082,0 -9.65231,-4.32149 -9.65231,-9.65231zM393.92513,799.28977c0,-10.78418 8.74231,-19.52649 19.52649,-19.52649c10.42231,0 18.93747,8.16543 19.49721,18.44801c-10.82042,1.18205 -21.81378,1.78871 -32.94883,1.78871c-2.02617,0 -4.04765,-0.02009 -6.06425,-0.06007c-0.00706,-0.21585 -0.01062,-0.43259 -0.01062,-0.65016zM518.24531,765.6149c0.77223,-9.49074 5.95338,-17.73447 13.49223,-22.67997c-9.85419,-4.43635 -16.7147,-14.34188 -16.7147,-25.84977c0,-11.47017 6.8156,-21.34846 16.61788,-25.80597c1.75794,-2.73112 4.82484,-4.53993 8.31421,-4.53993c2.32259,0 4.45801,0.80139 6.14482,2.14274c14.36163,1.37947 25.59148,13.47988 25.59148,28.20316c0,9.58983 -4.76417,18.06693 -12.0548,23.19361c3.90165,1.60595 7.39105,4.00917 10.26534,7.00681c-26.80627,18.4529 -56.76191,32.65992 -88.89618,41.65032c-0.09268,-0.86079 -0.14022,-1.73509 -0.14022,-2.6205c0,-13.36669 10.83585,-24.20254 24.20254,-24.20254c4.51079,0 8.73335,1.23401 12.34853,3.38286c0.28011,0.02754 0.55658,0.06744 0.82887,0.11917zM83.82042,270.30613c0,-9.84415 7.98026,-17.8244 17.8244,-17.8244c9.84415,0 17.8244,7.98026 17.8244,17.8244c0,9.84415 -7.98026,17.8244 -17.8244,17.8244c-9.84415,0 -17.8244,-7.98026 -17.8244,-17.8244zM420.17488,295.32769c0,-23.27277 18.86631,-42.13908 42.13908,-42.13908c23.27277,0 42.13908,18.86631 42.13908,42.13908c0,17.84176 -11.08833,33.0937 -26.74972,39.24056c1.21478,2.69767 1.89073,5.69034 1.89073,8.84088c0,8.37512 -4.77667,15.63459 -11.75429,19.2027c-1.31152,4.00724 -5.08099,6.90181 -9.52652,6.90181c-4.32527,0 -8.01055,-2.74007 -9.41472,-6.57906c-7.33395,-3.43948 -12.41298,-10.88934 -12.41298,-19.52546c0,-4.51707 1.38949,-8.7096 3.76437,-12.1735c-12.04494,-7.41693 -20.07504,-20.72467 -20.07504,-35.90794zM520.13111,333.69167c0,-6.15181 4.98703,-11.13884 11.13884,-11.13884c6.15181,0 11.13884,4.98703 11.13884,11.13884c0,6.15181 -4.98703,11.13884 -11.13884,11.13884c-6.15181,0 -11.13884,-4.98703 -11.13884,-11.13884zM410.5835,660.83767c0,-12.97245 10.51625,-23.4887 23.4887,-23.4887c7.13971,0 13.5354,3.1855 17.84335,8.21277c1.62204,-4.94807 4.89082,-9.15005 9.1584,-11.95797c-0.58647,0.09478 -1.18818,0.14404 -1.80141,0.14404c-6.18833,0 -11.20495,-5.01663 -11.20495,-11.20495c0,-6.18833 5.01663,-11.20495 11.20495,-11.20495c6.18833,0 11.20495,5.01663 11.20495,11.20495c0,3.33142 -1.45387,6.32327 -3.76173,8.37568c2.17089,-0.68589 4.48214,-1.05582 6.87979,-1.05582c12.59781,0 22.81036,10.21255 22.81036,22.81036c0,12.59781 -10.21255,22.81036 -22.81036,22.81036c-6.79832,0 -12.90202,-2.97404 -17.08102,-7.69205c-1.02151,3.30052 -2.75107,6.28988 -5.01119,8.79058c6.09846,0.58465 10.86738,5.72251 10.86738,11.97421c0,6.64378 -5.38585,12.02963 -12.02963,12.02963c-6.64378,0 -12.02963,-5.38585 -12.02963,-12.02963c0,-1.71287 0.35799,-3.34212 1.00323,-4.81703c-1.68569,0.38428 -3.44039,0.58722 -5.24249,0.58722c-12.97245,0 -23.4887,-10.51625 -23.4887,-23.4887zM211.84266,468.09432c0,-4.76316 3.8613,-8.62446 8.62446,-8.62446c4.76316,0 8.62446,3.8613 8.62446,8.62446c0,4.76316 -3.8613,8.62446 -8.62446,8.62446c-4.76316,0 -8.62446,-3.8613 -8.62446,-8.62446zM476.42796,417.82292c0,-4.82409 3.26909,-8.88463 7.71278,-10.08717c3.22713,-21.63058 21.88113,-38.22176 44.41021,-38.22176c24.79981,0 44.90403,20.10422 44.90403,44.90403c0,24.79981 -20.10422,44.90403 -44.90403,44.90403c-19.98528,0 -36.92117,-13.05603 -42.74367,-31.1041c-5.26835,-0.53575 -9.37933,-4.9853 -9.37933,-10.39502zM291.51063,288.03507c0,-6.27594 5.08766,-11.3636 11.3636,-11.3636c6.27594,0 11.3636,5.08766 11.3636,11.3636c0,6.27594 -5.08766,11.3636 -11.3636,11.3636c-6.27594,0 -11.3636,-5.08766 -11.3636,-11.3636zM544.30577,642.17991c0,-11.21384 9.09062,-20.30446 20.30446,-20.30446c6.31283,0 11.95279,2.88093 15.67684,7.39977c3.54683,-4.98946 9.37443,-8.24445 15.96227,-8.24445c10.80875,0 19.57097,8.76222 19.57097,19.57097c0,10.80875 -8.76222,19.57097 -19.57097,19.57097c-5.88669,0 -11.16635,-2.59899 -14.75411,-6.71211c-3.64248,5.44129 -9.84538,9.02377 -16.88501,9.02377c-11.21384,0 -20.30446,-9.09062 -20.30446,-20.30446zM46.34935,302.9495c0,-4.50002 3.64799,-8.14801 8.14801,-8.14801c4.50002,0 8.14801,3.64799 8.14801,8.14801c0,4.50002 -3.64799,8.14801 -8.14801,8.14801c-4.50002,0 -8.14801,-3.64799 -8.14801,-8.14801zM165.93722,507.46194c0,-4.43499 3.59527,-8.03026 8.03026,-8.03026c4.43499,0 8.03026,3.59527 8.03026,8.03026c0,4.43499 -3.59527,8.03026 -8.03026,8.03026c-4.43499,0 -8.03026,-3.59527 -8.03026,-8.03026zM110.53555,21.47697c-0.25705,0 -0.51303,-0.00459 -0.76786,-0.01369c5.54168,-2.8063 11.23166,-5.36217 17.05508,-7.65273c-3.8762,4.68293 -9.73329,7.66642 -16.28722,7.66642zM166.46741,342.7307c0,-5.44284 4.41229,-9.85513 9.85513,-9.85513c5.44284,0 9.85513,4.41229 9.85513,9.85513c0,5.44284 -4.41229,9.85513 -9.85513,9.85513c-5.44284,0 -9.85513,-4.41229 -9.85513,-9.85513zM50.03162,332.32704c12.34201,2.69093 22.17351,12.10189 25.46843,24.20678c-9.1817,-7.31241 -17.70554,-15.4157 -25.46843,-24.20678z"/><path d="M208.72788,374.61962c0,-11.70838 9.49152,-21.1999 21.1999,-21.1999c8.11267,0 15.16103,4.55691 18.72506,11.25073c10.9843,-7.42391 24.22752,-11.75906 38.48327,-11.75906c4.60664,0 9.10756,0.45268 13.46069,1.31599c10.56651,-30.24952 38.36098,-52.41484 71.62462,-54.73717c-0.02925,-0.34221 -0.04418,-0.68852 -0.04418,-1.03831c0,-6.64501 5.38685,-12.03186 12.03186,-12.03186c6.64501,0 12.03186,5.38685 12.03186,12.03186c0,0.96275 -0.11308,1.89909 -0.32667,2.79647c1.19406,0.2659 2.3783,0.55785 3.55211,0.87521c-0.23865,-2.23259 -0.36106,-4.49994 -0.36106,-6.79588c0,-34.90916 28.29947,-63.20862 63.20862,-63.20862c34.90916,0 63.20862,28.29947 63.20862,63.20862c0,9.32131 -2.01769,18.17137 -5.64014,26.13725c2.98404,-2.78044 6.98711,-4.48152 11.38749,-4.48152c9.22771,0 16.70825,7.48054 16.70825,16.70825c0,6.07659 -3.24388,11.39553 -8.09442,14.3196c8.48585,1.43773 16.43176,4.46253 23.52175,8.75838c-4.19381,-7.03045 -7.39456,-14.72195 -9.40865,-22.88091c-4.20327,-3.60578 -6.86619,-8.95609 -6.86619,-14.92837c0,-4.88583 1.7822,-9.35541 4.73197,-12.79411c1.69033,-19.39234 9.93842,-36.90595 22.51431,-50.31089c54.60832,39.07291 95.56097,96.01167 114.31546,162.2738c-10.87041,13.66516 -27.64269,22.42561 -46.46107,22.42561c-18.79884,0 -35.55582,-8.74227 -46.42718,-22.38305c-1.94749,35.45365 -31.31311,63.60231 -67.25321,63.60231c-10.45202,0 -20.34801,-2.38067 -29.17529,-6.62935c-3.86213,6.43301 -10.90625,10.73779 -18.9558,10.73779c-5.11819,0 -9.82989,-1.74037 -13.57561,-4.66159c-9.92453,10.11869 -22.94524,17.18966 -37.52854,19.67933c-3.40904,23.48578 -23.6262,41.52597 -48.05688,41.52597c-24.09665,0 -44.09421,-17.55025 -47.90765,-40.56572c-2.5097,-2.27856 -4.0856,-5.56728 -4.0856,-9.22407c0,-3.93283 1.8228,-7.43992 4.66964,-9.72253c2.26516,-9.82984 7.51417,-18.51898 14.74209,-25.06244c-0.80173,-0.30734 -1.59741,-0.62691 -2.3868,-0.95847c-12.00282,20.14389 -34.00269,33.63845 -59.15439,33.63845c-20.96271,0 -39.73603,-9.37387 -52.35693,-24.15857c-0.47521,0.15001 -0.95548,0.28863 -1.44049,0.41555c0.04305,0.42947 0.0651,0.86512 0.0651,1.30593c0,7.14473 -5.79195,12.93669 -12.93669,12.93669c-7.14473,0 -12.93669,-5.79195 -12.93669,-12.93669c0,-1.95218 0.43241,-3.80336 1.20666,-5.463c-8.09771,-5.44536 -13.42549,-14.69293 -13.42549,-25.18488c0,-14.73738 10.51174,-27.0196 24.44652,-29.75798c0.91838,-4.43231 2.26309,-8.70855 3.98935,-12.78394c-8.69367,-2.64536 -15.01958,-10.72639 -15.01958,-20.28491zM521.72078,347.40401c-4.3277,-3.01941 -7.15909,-8.03522 -7.15909,-13.71233c0,-1.11032 0.1083,-2.19534 0.31492,-3.24509c-6.39717,9.5557 -15.33096,17.26976 -25.83799,22.17882c-3.80684,12.8236 -15.35409,22.31784 -29.22635,23.06734c0.0638,0.94928 0.11145,1.903 0.14266,2.86086c2.74642,2.13942 5.32661,4.48223 7.71794,7.0058c9.88125,-20.80784 30.11626,-35.74535 54.04791,-38.1554zM348.32071,566.47171c0,-12.03478 9.75612,-21.7909 21.7909,-21.7909c12.03478,0 21.7909,9.75612 21.7909,21.7909c0,12.03478 -9.75612,21.7909 -21.7909,21.7909c-12.03478,0 -21.7909,-9.75612 -21.7909,-21.7909zM6.80058,163.79322c0,-16.74504 11.9539,-30.69809 27.7936,-33.79107c-3.75532,-2.47354 -7.12932,-5.47887 -10.0148,-8.90881c-2.95202,0.71244 -5.97925,1.23202 -9.06762,1.54466c13.1018,-31.20717 33.89083,-58.39007 59.9977,-79.17932c0.24931,1.44614 0.45288,2.90794 0.60918,4.38384c17.65462,6.53566 30.23853,23.52364 30.23853,43.45075c0,3.2457 -0.33384,6.41343 -0.96907,9.47071c0.54202,0.19324 1.07626,0.40286 1.60212,0.62829c0.16929,-0.02826 0.3389,-0.05557 0.50883,-0.08191c8.76429,-16.0929 22.52119,-29.0745 39.19037,-36.86446c-1.2676,-4.02902 -1.95104,-8.31696 -1.95104,-12.76453c0,-23.46282 19.02038,-42.4832 42.4832,-42.4832c17.54032,0 32.59787,10.63001 39.08194,25.79932c4.08391,-7.82985 12.27754,-13.17537 21.71967,-13.17537c13.52039,0 24.48084,10.96044 24.48084,24.48084c0,13.52039 -10.96044,24.48084 -24.48084,24.48084c-4.6246,0 -8.9497,-1.28233 -12.63913,-3.51081c8.05616,7.02991 14.39791,15.97493 18.31547,26.12529c2.62612,3.78249 4.95632,7.78594 6.95709,11.97682c3.00592,-0.9478 6.20564,-1.45891 9.52472,-1.45891c17.4729,0 31.63749,14.16459 31.63749,31.63749c0,17.4729 -14.16459,31.63749 -31.63749,31.63749c-1.60306,0 -3.17827,-0.11923 -4.71725,-0.3493c-2.68254,9.04644 -6.81383,17.47009 -12.12502,25.00209c7.13189,5.67692 11.70355,14.43303 11.70355,24.2569c0,16.20287 -12.43632,29.50108 -28.28432,30.86999c-3.25943,4.35809 -7.03231,8.30986 -11.22896,11.76562c-1.01864,6.99941 -7.04493,12.37515 -14.32679,12.37515c-1.92654,0 -3.76519,-0.37628 -5.44648,-1.05935c-7.23068,2.63871 -15.03824,4.07837 -23.18204,4.07837c-37.34497,0 -67.61906,-30.27408 -67.61906,-67.61906c0,-1.80045 0.07037,-3.58447 0.2085,-5.34945c-2.37665,14.56484 -10.971,27.04052 -22.96924,34.61325c-5.27111,8.82353 -14.9162,14.73226 -25.94135,14.73226c-8.1143,0 -15.48107,-3.20057 -20.90675,-8.40815c-2.71019,0.75675 -5.5673,1.16134 -8.51892,1.16134c-17.45588,0 -31.60667,-14.15079 -31.60667,-31.60667c0,-8.8745 3.6575,-16.89474 9.54735,-22.63557c0.07343,-0.95557 0.17341,-1.9037 0.29919,-2.84367c-5.15362,-6.01877 -8.2665,-13.83672 -8.2665,-22.38173zM115.78296,195.89905c-0.01279,-0.01604 -0.02557,-0.03209 -0.03835,-0.04815c-0.0093,0.16451 -0.01938,0.32881 -0.03024,0.4929c0.02238,-0.14841 0.04524,-0.29666 0.06859,-0.44475zM228.62529,61.23924c-0.05687,0.24734 -0.11589,0.49385 -0.17705,0.73952c0.69284,0.46027 1.37653,0.93321 2.05075,1.41849c-0.66526,-0.68189 -1.29106,-1.40245 -1.87369,-2.15801zM147.7998,480.26304c0,3.6103 -1.50861,6.86824 -3.92983,9.17782c0.34078,2.41998 0.51701,4.89279 0.51701,7.40677c0,17.56994 -8.60796,33.12938 -21.83668,42.69111c1.44146,4.63424 2.218,9.56145 2.218,14.67002c0,12.37896 -4.55961,23.69296 -12.09097,32.35417c-8.24591,-27.40802 -12.67732,-56.46797 -12.67732,-86.56294c0,-18.48574 1.67197,-36.58098 4.87293,-54.14273c12.69572,3.25854 23.54049,11.1336 30.63903,21.72988c6.82169,0.20821 12.28783,5.8037 12.28783,12.67588zM246.28979,8.20988c0,-0.94524 0.09391,-1.86854 0.27292,-2.76109c9.09198,2.168 17.94311,4.95681 26.50611,8.31915c-2.14852,4.94678 -7.07753,8.40639 -12.81457,8.40639c-7.71236,0 -13.96446,-6.2521 -13.96446,-13.96446zM328.66387,209.81067c0,-0.11279 0.00133,-0.22526 0.00399,-0.33741c-1.16921,-1.89008 -1.84405,-4.11825 -1.84405,-6.50403c0,-6.83756 5.54294,-12.38051 12.38051,-12.38051c5.20449,0 9.65891,3.21139 11.48981,7.7607c2.48098,1.74243 4.37049,4.26997 5.30758,7.22169c3.39358,2.56184 5.58697,6.62918 5.58697,11.20881c0,7.75146 -6.2838,14.03527 -14.03527,14.03527c-6.31304,0 -11.65259,-4.16805 -13.41689,-9.9024c-3.32786,-2.55861 -5.47265,-6.5799 -5.47265,-11.10213zM610.83738,491.57819c0,-6.74141 5.46499,-12.2064 12.2064,-12.2064c6.74141,0 12.2064,5.46499 12.2064,12.2064c0,6.74141 -5.46499,12.2064 -12.2064,12.2064c-6.74141,0 -12.2064,-5.46499 -12.2064,-12.2064zM667.11651,624.97927c0,-6.38144 4.8184,-11.63747 11.01547,-12.32837c-2.68451,6.62147 -5.59861,13.12532 -8.73243,19.50169c-1.43779,-2.0252 -2.28304,-4.50055 -2.28304,-7.17331zM649.46227,648.38716c0,-8.75224 7.09509,-15.84732 15.84732,-15.84732c1.26913,0 2.50341,0.14919 3.68627,0.43098c-4.52753,9.14153 -9.50733,18.01926 -14.91016,26.60392c-2.85714,-2.86635 -4.62343,-6.8207 -4.62343,-11.18758zM221.84123,644.43542c0,-12.52997 10.15755,-22.68752 22.68752,-22.68752c10.09416,0 18.64863,6.59218 21.59313,15.70625c6.82402,-4.75691 15.12162,-7.54639 24.07075,-7.54639c23.27425,0 42.14176,18.86751 42.14176,42.14176c0,23.27425 -18.86751,42.14176 -42.14176,42.14176c-23.27425,0 -42.14176,-18.86751 -42.14176,-42.14176c0,-1.77828 0.11015,-3.53084 0.32399,-5.25123c-1.25012,0.21347 -2.53513,0.32466 -3.8461,0.32466c-12.52997,0 -22.68752,-10.15755 -22.68752,-22.68752zM468.7641,786.31541c0,-20.05004 16.25377,-36.30381 36.30381,-36.30381c0.60291,0 1.20238,0.0147 1.79809,0.04375c0.96236,-2.20324 2.09571,-4.31469 3.38327,-6.31759c-5.87597,-7.28987 -9.39353,-16.56045 -9.39353,-26.6526c0,-23.47282 19.02848,-42.5013 42.5013,-42.5013c19.81137,0 36.45678,13.5551 41.16766,31.89672c13.38623,-13.08559 31.6037,-21.24974 51.72661,-21.56662c-41.2811,52.66788 -99.79228,91.18468 -167.04805,107.06491c-0.28908,-1.8454 -0.43915,-3.73691 -0.43915,-5.66347zM134.84755,628.83816c5.75785,-4.35469 12.93019,-6.93765 20.70582,-6.93765c18.97549,0 34.35816,15.38267 34.35816,34.35816c0,15.03868 -9.66196,27.82069 -23.11696,32.47709c-14.29709,-17.64386 -26.63232,-36.94237 -36.67372,-57.56353c1.49008,-0.91722 3.07122,-1.70081 4.7267,-2.33407zM195.61701,555.66213c0,-24.75472 20.06767,-44.82239 44.82239,-44.82239c4.13892,0 8.14681,0.56099 11.95179,1.61108c4.91594,-7.41504 13.33704,-12.30417 22.90006,-12.30417c15.1634,0 27.45577,12.29237 27.45577,27.45577c0,11.67108 -7.28223,21.64131 -17.55078,25.61477c0.04351,0.80946 0.06555,1.62463 0.06555,2.44495c0,24.75472 -20.06767,44.82239 -44.82239,44.82239c-24.75472,0 -44.82239,-20.06767 -44.82239,-44.82239zM17.82452,243.6732c6.72166,0 12.17065,5.44899 12.17065,12.17065c0,6.72166 -5.44899,12.17065 -12.17065,12.17065c-2.46233,0 -4.75387,-0.73123 -6.66932,-1.98838c-1.70585,-4.87937 -3.22794,-9.845 -4.55797,-14.88862c1.84022,-4.38473 6.17412,-7.4643 11.22729,-7.4643zM384.16189,799.28977c0,-16.17627 13.11346,-29.28973 29.28973,-29.28973c15.40268,0 28.02849,11.88921 29.20086,26.99107c-13.93208,1.98302 -28.17248,3.00889 -42.65248,3.00889c-5.31225,0 -10.59225,-0.13807 -15.83661,-0.41083c-0.001,-0.09968 -0.0015,-0.19948 -0.0015,-0.2994zM74.90822,270.30613c0,-14.76622 11.97039,-26.73661 26.73661,-26.73661c14.76622,0 26.73661,11.97039 26.73661,26.73661c0,14.76622 -11.97039,26.73661 -26.73661,26.73661c-14.76622,0 -26.73661,-11.97039 -26.73661,-26.73661zM398.83915,660.83767c0,-19.45868 15.77437,-35.23305 35.23305,-35.23305c3.08257,0 6.07269,0.39587 8.92228,1.13955c-0.34557,-1.34283 -0.52937,-2.75061 -0.52937,-4.20131c0,-9.28249 7.52494,-16.80743 16.80743,-16.80743c7.8941,0 14.51709,5.44226 16.3217,12.77952c17.9665,1.03487 32.21686,15.93233 32.21686,34.15814c0,18.89672 -15.31882,34.21554 -34.21554,34.21554c-1.81257,0 -3.59223,-0.14094 -5.32861,-0.41247c0.07833,0.68249 0.11859,1.37656 0.11859,2.08003c0,9.96568 -8.07878,18.04445 -18.04445,18.04445c-7.28409,0 -13.56011,-4.31601 -16.41025,-10.53018c-19.39366,-0.07617 -35.0917,-15.82123 -35.0917,-35.23277zM42.77354,314.59149c28.09546,0 50.87134,22.77587 50.87134,50.87134c0,1.29681 -0.04852,2.58228 -0.14385,3.8547c-22.45905,-14.15623 -41.90458,-32.65747 -57.15654,-54.32366c2.10564,-0.26554 4.25137,-0.40237 6.42905,-0.40237zM285.82883,288.03507c0,-9.41391 7.63148,-17.0454 17.0454,-17.0454c9.41391,0 17.0454,7.63148 17.0454,17.0454c0,9.41391 -7.63148,17.0454 -17.0454,17.0454c-9.41391,0 -17.0454,-7.63148 -17.0454,-17.0454zM534.15354,642.17991c0,-16.82076 13.63592,-30.45669 30.45669,-30.45669c5.69954,0 11.03343,1.56557 15.59508,4.29014c4.61151,-3.01517 10.12307,-4.76808 16.04404,-4.76808c16.21312,0 29.35645,13.14333 29.35645,29.35645c0,16.21312 -13.14333,29.35645 -29.35645,29.35645c-4.87665,0 -9.47558,-1.18909 -13.52266,-3.29316c-5.06303,3.75231 -11.33058,5.97156 -18.11646,5.97156c-16.82076,0 -30.45669,-13.63592 -30.45669,-30.45669zM42.27534,302.9495c0,-6.75004 5.47199,-12.22202 12.22202,-12.22202c6.75004,0 12.22202,5.47199 12.22202,12.22202c0,6.75004 -5.47199,12.22202 -12.22202,12.22202c-6.75004,0 -12.22202,-5.47199 -12.22202,-12.22202zM161.92209,507.46194c0,-6.65248 5.3929,-12.04538 12.04538,-12.04538c6.65248,0 12.04538,5.3929 12.04538,12.04538c0,6.65248 -5.3929,12.04538 -12.04538,12.04538c-6.65248,0 -12.04538,-5.3929 -12.04538,-12.04538zM110.53555,32.04329c-5.02006,0 -9.76757,-1.16694 -13.98607,-3.24436c13.83798,-8.37973 28.77342,-15.12906 44.53998,-19.98162c-3.70591,13.39294 -15.9816,23.22598 -30.55391,23.22598zM161.53985,342.7307c0,-8.16425 6.61843,-14.78269 14.78269,-14.78269c8.16425,0 14.78269,6.61843 14.78269,14.78269c0,8.16425 -6.61843,14.78269 -14.78269,14.78269c-8.16425,0 -14.78269,-6.61843 -14.78269,-14.78269z"/><path d="M201.66125,374.61962c0,-15.61118 12.65536,-28.26654 28.26654,-28.26654c1.49412,0 2.96117,0.11592 4.39264,0.33927c13.46252,-9.49415 29.59428,-15.45652 47.04745,-16.53925c3.93089,-7.41638 8.69045,-14.32617 14.15529,-20.60597c-8.94435,-3.05564 -15.37614,-11.53274 -15.37614,-21.51206c0,-12.55188 10.17531,-22.7272 22.7272,-22.7272c11.66238,0 21.27309,8.78424 22.57667,20.09726c15.59686,-8.56997 33.5113,-13.44449 52.56424,-13.44449c1.09993,0 2.19607,0.01625 3.28819,0.04851c10.11463,-35.20316 42.55477,-60.95963 81.01065,-60.95963c33.20819,0 61.93043,19.20663 75.66417,47.11733c3.58903,-6.33013 7.77387,-12.27808 12.47831,-17.76763c73.09754,42.45656 126.61927,114.90156 143.72192,200.49174c-13.898,12.10908 -32.06612,19.44229 -51.94701,19.44229c-11.65912,0 -22.72919,-2.52206 -32.6944,-7.05037c-14.48989,30.13894 -45.3084,50.94317 -80.98599,50.94317c-15.1879,0 -29.49524,-3.77013 -42.0372,-10.42556c-12.21821,13.82236 -28.53255,23.93937 -47.04262,28.45063c-8.2223,16.8291 -23.52751,29.56482 -42.03361,34.32511c1.11867,3.08854 1.72862,6.42077 1.72862,9.89546c0,16.04638 -13.00816,29.05453 -29.05453,29.05453c-16.04638,0 -29.05453,-13.00816 -29.05453,-29.05453c0,-6.63376 2.22322,-12.74826 5.96521,-17.63907c-14.45331,-9.02099 -25.09127,-23.58386 -28.93995,-40.71464c-3.28709,1.17754 -6.66095,2.17281 -10.10938,2.97363c2.51111,4.96073 3.92598,10.57053 3.92598,16.51079c0,10.60164 -4.50661,20.15071 -11.70863,26.83602c0.00817,0.40691 0.01228,0.81483 0.01228,1.2237c0,29.76657 -21.76205,54.45035 -50.24404,59.00923c5.62646,1.01973 10.71102,3.59566 14.79174,7.26584c7.63878,-3.88597 16.28472,-6.0767 25.44233,-6.0767c31.03233,0 56.18901,25.15668 56.18901,56.18901c0,31.03233 -25.15668,56.18901 -56.18901,56.18901c-30.77979,0 -55.77916,-24.74888 -56.18402,-55.43255c-11.52031,-4.2735 -19.72989,-15.3633 -19.72989,-28.37055c0,-13.88964 9.3612,-25.59285 22.11861,-29.14463c-31.12134,-2.07848 -55.72112,-27.98077 -55.72112,-59.62865c0,-30.71362 23.16882,-56.01586 52.98248,-59.38276c-4.53927,-3.2616 -8.76851,-6.92748 -12.63502,-10.94495c-0.1848,0.00586 -0.37033,0.00881 -0.55655,0.00881c-8.43088,0 -15.44901,-6.04867 -16.95157,-14.04316c-11.02819,-7.22178 -18.31322,-19.68695 -18.31322,-33.85362c0,-10.70917 4.163,-20.44601 10.959,-27.68052c1.16703,-8.96793 3.62909,-17.52909 7.19238,-25.4897c-1.09515,-3.01306 -1.69245,-6.26508 -1.69245,-9.65661zM524.01342,228.72374c-12.09004,-2.91674 -23.34165,-7.98363 -33.32748,-14.77333c15.84696,5.01935 31.12436,11.31914 45.71073,18.7779c-4.41357,-0.63004 -8.58562,-2.0092 -12.38325,-4.00458zM152.2624,7.10892c0.8951,-0.70303 1.8119,-1.37967 2.74924,-2.02877c14.46026,-3.32393 29.51922,-5.08015 44.98837,-5.08015c3.72604,0 7.42828,0.10189 11.10409,0.30304c8.46733,3.94261 15.7978,9.91676 21.36491,17.29597c3.10405,-1.68559 6.51211,-2.88236 10.12086,-3.487c-0.6194,-1.85463 -0.95489,-3.8392 -0.95489,-5.90213c0,-1.29799 0.13282,-2.56497 0.38561,-3.78807c12.24018,2.61718 24.06526,6.3543 35.3628,11.09893c-1.33379,3.12099 -3.49561,5.80362 -6.20935,7.77178c5.86568,5.90124 9.49028,14.03257 9.49028,23.01046c0,8.92611 -3.58291,17.01539 -9.38901,22.90813c7.06024,8.50645 12.9138,18.05038 17.29815,28.36926c14.08239,6.83333 23.79121,21.26953 23.79121,37.97335c0,14.35129 -7.16666,27.02872 -18.11637,34.64867c-3.71239,14.87785 -10.33218,28.60486 -19.22094,40.54258c0.22695,1.75322 0.34399,3.54091 0.34399,5.35594c0,10.68532 -4.05643,20.42321 -10.71338,27.75774c-14.19797,31.15522 -45.61188,52.81173 -82.08393,52.81173c-17.48794,0 -33.81296,-4.97903 -47.63481,-13.59684c-5.13477,13.38196 -18.10522,22.88142 -33.2944,22.88142c-19.68829,0 -35.64881,-15.96051 -35.64881,-35.64881c0,-3.37968 0.47031,-6.64951 1.34904,-9.74762c-0.36288,0.00966 -0.72696,0.01453 -1.09218,0.01453c-1.457,0 -2.89593,-0.07739 -4.31289,-0.2283c-9.25485,-0.44324 -18.02094,-2.7511 -25.93081,-6.55611c-0.70364,-0.0134 -1.40307,-0.04404 -2.09786,-0.09152c0.09283,0.7024 0.14074,1.41897 0.14074,2.14673c0,8.96222 -7.26531,16.22753 -16.22753,16.22753c-1.63879,0 -3.22085,-0.24292 -4.71212,-0.69473c-3.18472,-8.33368 -5.82804,-16.93497 -7.88696,-25.76085c0.898,-1.10482 1.93841,-2.08924 3.09327,-2.9253c-1.74866,-1.60708 -3.36113,-3.36003 -4.81812,-5.23957c-2.29813,-12.13159 -3.50059,-24.65084 -3.50059,-37.45093c0,-94.07815 64.95661,-172.98488 152.4669,-194.31724c-0.06023,0.47792 -0.12845,0.95335 -0.20451,1.42616zM98.31378,42.82344c4.2355,3.34915 8.02162,7.24165 11.25312,11.57225c6.79597,-5.68228 14.26035,-10.59174 22.25802,-14.59326c0.24822,-1.16319 0.53215,-2.31316 0.85059,-3.4487c-6.43876,3.96724 -14.02209,6.25587 -22.13996,6.25587c-4.36312,0 -8.57183,-0.66113 -12.5314,-1.88867c0.11123,0.69821 0.21447,1.39908 0.30964,2.10251zM39.05359,297.73465c2.17463,-6.44252 8.2675,-11.08118 15.44378,-11.08118c9.00005,0 16.29603,7.29598 16.29603,16.29603c0,0.24045 -0.00521,0.47968 -0.01552,0.7176c23.48849,10.66134 39.82411,34.32084 39.82411,61.79573c0,4.40313 -0.41955,8.70827 -1.22086,12.87761c-34.67419,-17.65385 -63.51386,-45.12273 -82.85907,-78.74672c4.04655,-0.99502 8.23591,-1.62688 12.53154,-1.85906zM161.93364,496.82554c2.94258,-3.32667 7.24326,-5.42411 12.03383,-5.42411c8.86998,0 16.06051,7.19054 16.06051,16.06051c0,8.86998 -7.19054,16.06051 -16.06051,16.06051c-6.25753,0 -11.67921,-3.57867 -14.33006,-8.80103c-3.27096,12.45787 -9.88008,23.5632 -18.81352,32.30217c0.25638,2.35983 0.38794,4.75714 0.38794,7.18517c0,19.86083 -8.80269,37.66569 -22.71939,49.72589c-11.96027,-32.38316 -18.49245,-67.39607 -18.49245,-103.93465c0,-24.5755 2.95501,-48.46081 8.5291,-71.32002c30.65231,7.52065 53.39439,35.1764 53.40454,68.14556zM323.99863,209.81067c0,-0.13229 0.00138,-0.26426 0.00412,-0.39589c-0.84071,-1.98029 -1.30577,-4.15861 -1.30577,-6.44555c0,-9.11675 7.39059,-16.50734 16.50734,-16.50734c6.04352,0 11.32849,3.24772 14.20484,8.09308c2.88915,2.0395 5.17322,4.879 6.52986,8.19616c3.88082,3.42886 6.32809,8.44304 6.32809,14.0288c0,10.33529 -8.3784,18.71369 -18.71369,18.71369c-7.90993,0 -14.67364,-4.90751 -17.4125,-11.84389c-3.77239,-3.41458 -6.14228,-8.35006 -6.14228,-13.83906zM606.76858,491.57819c0,-8.98855 7.28666,-16.2752 16.2752,-16.2752c8.98855,0 16.2752,7.28666 16.2752,16.2752c0,8.98855 -7.28666,16.2752 -16.2752,16.2752c-8.98855,0 -16.2752,-7.28666 -16.2752,-16.2752zM686.17422,586.21114c0,-7.74501 2.46989,-14.91314 6.66498,-20.75972c-1.8312,8.22927 -4.00042,16.3312 -6.49233,24.29047c-0.11419,-1.16146 -0.17265,-2.33928 -0.17265,-3.53075zM662.98139,624.97927c0,-9.13506 7.40543,-16.54048 16.54048,-16.54048c0.09343,0 0.18667,0.00077 0.27973,0.00232c-36.7811,94.83718 -120.38872,166.3236 -222.44575,186.08212c-0.45567,-2.66781 -0.69302,-5.4101 -0.69302,-8.20782c0,-22.00434 14.68256,-40.57939 34.78507,-46.46255c-3.06054,-6.96788 -4.75926,-14.66941 -4.75926,-22.7677c0,-7.93203 1.62969,-15.48344 4.5725,-22.33764c-5.43337,2.28402 -11.40207,3.54628 -17.66558,3.54628c-0.41463,0 -0.82797,-0.00553 -1.23995,-0.01652c-3.73469,8.44522 -12.18642,14.33817 -22.01452,14.33817c-5.43069,0 -10.44112,-1.7993 -14.46769,-4.83427c-0.59761,0.02253 -1.19808,0.03389 -1.8012,0.03389c-25.9449,0 -46.9774,-21.0325 -46.9774,-46.9774c0,-25.9449 21.0325,-46.9774 46.9774,-46.9774c1.50023,0 2.98403,0.07032 4.44829,0.20785c3.34202,-8.17512 11.37437,-13.93518 20.75205,-13.93518c6.38678,0 12.14953,2.67177 16.23155,6.95861c24.31051,1.00044 43.71219,21.02523 43.71219,45.58152c0,4.9814 -0.79839,9.77632 -2.27419,14.26378c3.86391,-2.03948 7.99205,-3.64546 12.3197,-4.75324c-3.3486,-5.90457 -5.26049,-12.73087 -5.26049,-20.00371c0,-22.42769 18.18123,-40.60892 40.60892,-40.60892c5.62102,0 10.97529,1.14205 15.84346,3.20677c4.83114,-2.13328 10.17505,-3.31796 15.79566,-3.31796c21.6175,0 39.14194,17.52444 39.14194,39.14194c0,7.01983 -1.84793,13.60805 -5.08388,19.30474c2.36531,-0.16569 4.75308,-0.24993 7.16052,-0.24993c3.47836,0 6.91564,0.17585 10.30345,0.51914c-2.26787,-3.36735 -3.59155,-7.42336 -3.59155,-11.78853c0,-10.94137 8.31619,-19.94039 18.97251,-21.02099c-0.11265,-0.77937 -0.17095,-1.57633 -0.17095,-2.3869zM155.55337,610.44779c25.30065,0 45.81088,20.51023 45.81088,45.81088c0,18.51635 -10.98545,34.46691 -26.79441,41.68973c-19.93974,-22.69004 -36.50815,-48.41539 -48.92248,-76.3933c8.02501,-6.92183 18.47672,-11.10731 29.90601,-11.10731zM413.45162,760.23679c20.274,0 36.9397,15.44901 38.86697,35.21691c-16.9898,2.98798 -34.47221,4.54629 -52.31859,4.54629c-8.62303,0 -17.16109,-0.36381 -25.59967,-1.07692c0.19683,-21.3995 17.60529,-38.68629 39.05129,-38.68629zM699.00838,478.14947c0,-0.74279 0.01345,-1.48243 0.04012,-2.2187c0.30779,3.87719 0.54187,7.77514 0.70084,11.69244c-0.4877,-3.08622 -0.74095,-6.25041 -0.74095,-9.47374zM156.61229,342.7307c0,-10.88567 8.82458,-19.71025 19.71025,-19.71025c10.88567,0 19.71025,8.82458 19.71025,19.71025c0,10.88567 -8.82458,19.71025 -19.71025,19.71025c-10.88567,0 -19.71025,-8.82458 -19.71025,-19.71025z"/><path d="M274.71617,291.82761c-0.16551,-1.24065 -0.25095,-2.50662 -0.25095,-3.79254c0,-15.68986 12.71914,-28.409 28.409,-28.409c3.39353,0 6.64809,0.59501 9.66504,1.68639c17.1847,-9.39955 36.61047,-15.21401 57.27149,-16.43758c10.51849,-19.24438 26.86743,-34.84598 46.67178,-44.42977c158.0198,8.5564 283.51746,139.39987 283.51746,299.55489c0,7.88794 -0.30443,15.70478 -0.90217,23.43941c-9.50704,-12.60208 -15.14405,-28.28771 -15.14405,-45.28994c0,-2.50128 0.122,-4.97406 0.36037,-7.41272c-12.76915,6.01334 -27.0334,9.37499 -42.0828,9.37499c-0.80228,0 -1.60233,-0.00955 -2.40003,-0.02855c2.24364,3.27037 3.55646,7.22938 3.55646,11.49501c0,11.23568 -9.10832,20.344 -20.344,20.344c-9.05312,0 -16.72509,-5.91338 -19.36409,-14.0883c-19.89512,17.93012 -46.23737,28.84419 -75.12873,28.84419c-12.81946,0 -25.13706,-2.14877 -36.61225,-6.10579c-13.56558,11.51658 -29.8405,19.93877 -47.73413,24.17594c-9.76681,12.06669 -22.93304,21.26887 -38.0418,26.14965c-2.18344,17.97032 -17.49151,31.892 -36.05117,31.892c-20.05797,0 -36.31817,-16.2602 -36.31817,-36.31817c0,-2.2576 0.20599,-4.46708 0.6002,-6.61069c-6.19364,-4.40606 -11.74047,-9.66216 -16.47031,-15.59812c-0.8356,2.13658 -1.82718,4.19499 -2.96073,6.16122c0.11986,1.73044 0.18078,3.47711 0.18078,5.23801c0,17.65736 -6.1261,33.8839 -16.36883,46.67015c34.74238,4.23244 61.65433,33.83202 61.65433,69.71722c0,38.79041 -31.44584,70.23626 -70.23626,70.23626c-38.41154,0 -69.62128,-30.83457 -70.22728,-69.10177c-3.00998,-2.57423 -5.61087,-5.61293 -7.69166,-9.00509c-2.55269,18.45033 -13.89565,34.0922 -29.66462,42.56135c-51.19056,-53.81094 -82.60906,-126.6065 -82.60906,-206.74025c0,-40.88082 8.177,-79.85181 22.98465,-115.36661c-46.10478,-19.25385 -83.46184,-55.27334 -104.45267,-100.43996c7.68066,-2.28765 15.81764,-3.51617 24.24156,-3.51617c5.43672,0 10.75392,0.51171 15.90607,1.48961c-0.46841,-1.7006 -0.83856,-3.44192 -1.10396,-5.21748c-9.04676,-0.81296 -17.68182,-3.05445 -25.67794,-6.4972c-3.64746,3.51466 -8.60791,5.67607 -14.07319,5.67607c-0.98849,0 -1.96046,-0.07071 -2.91113,-0.20734c-9.61278,-23.40999 -14.91339,-49.04645 -14.91339,-75.92093c0,-110.45695 89.54305,-200 200,-200c29.08616,0 56.72214,6.20896 81.65483,17.37376c-0.50876,1.18655 -1.11331,2.32229 -1.80393,3.39748c5.50557,6.8544 8.84257,15.52496 8.9699,24.97057c23.28265,25.4754 37.48502,59.39001 37.48502,96.62176c0,35.87473 -13.18594,68.66972 -34.97564,93.8028c-12.92696,47.52025 -56.1673,82.55104 -107.66719,83.03853c10.0221,3.12375 17.29737,12.47517 17.29737,23.52581c0,1.22962 -0.09008,2.43819 -0.26399,3.61949c15.64222,-17.9244 36.76888,-30.93879 60.76368,-36.42686c3.92554,-6.39903 8.36328,-12.44996 13.25613,-18.09572zM413.45162,750.47355c13.68004,0 26.04579,5.62712 34.90888,14.69298c4.90398,-13.14369 14.2468,-24.1241 26.20515,-31.11792c-1.33569,-5.43492 -2.04411,-11.11646 -2.04411,-16.96345c0,-2.49568 0.12906,-4.96122 0.38088,-7.3903c-0.38257,-0.00456 -0.76424,-0.01288 -1.14496,-0.02494c-5.45383,5.53151 -13.03467,8.96034 -21.41637,8.96034c-1.44654,0 -2.86923,-0.10213 -4.26124,-0.29957c-3.87624,0.80543 -7.89251,1.22873 -12.00765,1.22873c-32.43113,0 -58.72175,-26.29062 -58.72175,-58.72175c0,-32.43113 26.29062,-58.72175 58.72175,-58.72175c1.93691,0 3.85191,0.09378 5.74072,0.27704c5.03938,-4.8678 11.89978,-7.86249 19.45963,-7.86249c3.04857,0 5.98339,0.48699 8.73093,1.38741c1.83982,-0.17907 3.70526,-0.2707 5.59209,-0.2707c18.83366,0 35.53488,9.13005 45.91911,23.20559c8.44769,-16.29776 25.47112,-27.434 45.09555,-27.434c5.72095,0 11.22086,0.94641 16.3517,2.69122c4.80978,-1.58062 9.94875,-2.43567 15.28742,-2.43567c24.1495,0 44.21259,17.49604 48.20504,40.50392c3.58616,-4.6075 8.66567,-7.99534 14.51155,-9.43654c1.11556,-10.36642 9.89313,-18.43803 20.55593,-18.43803c0.5361,0 1.06743,0.0204 1.59327,0.06048c-2.47631,-5.54465 -3.85306,-11.68805 -3.85306,-18.15301c0,-14.91991 7.33257,-28.12721 18.59061,-36.2148c-23.8024,141.88747 -147.2016,250.00366 -295.85269,250.00366c-11.95842,0 -23.75342,-0.69968 -35.34629,-2.06035c0.71514,-26.33623 22.28896,-47.4661 48.79791,-47.4661zM128.84719,305.60356c-5.37657,4.14964 -11.72754,7.09822 -18.65105,8.44389c10.89288,14.26242 17.36296,32.08331 17.36296,51.41536c0,17.13937 -5.08562,33.09094 -13.83016,46.428c35.0622,9.04594 61.63129,39.22453 65.31412,76.14262c5.74086,1.49559 10.48166,5.46839 13.01247,10.70848c1.94794,-1.65743 3.98203,-3.21663 6.09462,-4.66996c-16.06586,-19.73584 -25.69739,-44.91842 -25.69739,-72.35058c0,-20.79419 5.53426,-40.29578 15.2102,-57.11221c-3.39447,1.76306 -7.2511,2.75933 -11.34043,2.75933c-13.60709,0 -24.63781,-11.03072 -24.63781,-24.63781c0,-11.83127 8.33943,-21.71476 19.46079,-24.09298c-15.19266,-1.53005 -29.4949,-6.07757 -42.29833,-13.03416zM155.55337,598.99507c12.36983,0 23.8236,3.92215 33.18552,10.59069c-14.17729,-13.59637 -23.00348,-32.72927 -23.00348,-53.92363c0,-4.66392 0.4274,-9.22801 1.24517,-13.65524c-2.72699,4.5333 -5.85212,8.79992 -9.327,12.75148c-0.11031,16.85093 -5.28995,32.49844 -14.09034,45.49398c3.86666,-0.82378 7.87777,-1.25727 11.99013,-1.25727zM212.18457,624.83794c-5.8035,-2.3729 -11.24186,-5.45489 -16.20736,-9.13827c5.16532,5.14822 9.35301,11.27671 12.26037,18.08281c0.93036,-3.17462 2.26596,-6.17607 3.94698,-8.94454zM319.33338,209.81067c0,-0.38944 0.00954,-0.77665 0.02841,-1.1614c-0.51557,-1.80448 -0.79165,-3.71002 -0.79165,-5.68004c0,-11.39594 9.23824,-20.63418 20.63418,-20.63418c6.64686,0 12.55968,3.14284 16.33348,8.02355c3.56765,2.3667 6.44659,5.68865 8.27195,9.60099c4.39996,4.25332 7.13579,10.21734 7.13579,16.82034c0,12.91911 -10.47301,23.39211 -23.39211,23.39211c-9.51556,0 -17.7041,-5.68166 -21.35821,-13.83758c-4.23868,-4.22354 -6.86182,-10.06733 -6.86182,-16.5238z"/><path d="M222.86115,374.61962c0,-3.90279 3.16384,-7.06663 7.06663,-7.06663c3.90279,0 7.06663,3.16384 7.06663,7.06663c0,3.90279 -3.16384,7.06663 -7.06663,7.06663c-3.90279,0 -7.06663,-3.16384 -7.06663,-7.06663zM362.84798,566.47171c0,-4.01159 3.25204,-7.26363 7.26363,-7.26363c4.01159,0 7.26363,3.25204 7.26363,7.26363c0,4.01159 -3.25204,7.26363 -7.26363,7.26363c-4.01159,0 -7.26363,-3.25204 -7.26363,-7.26363zM29.75399,163.79322c0,-6.33841 5.1383,-11.4767 11.4767,-11.4767c6.33841,0 11.4767,5.1383 11.4767,11.4767c0,6.33841 -5.1383,11.4767 -11.4767,11.4767c-6.33841,0 -11.4767,-5.1383 -11.4767,-11.4767zM223.43778,126.99358c0,-4.60181 3.73051,-8.33232 8.33232,-8.33232c4.60181,0 8.33232,3.73051 8.33232,8.33232c0,4.60181 -3.73051,8.33232 -8.33232,8.33232c-4.60181,0 -8.33232,-3.73051 -8.33232,-8.33232zM130.89061,480.26304c0,-2.33467 1.89262,-4.2273 4.2273,-4.2273c2.33467,0 4.2273,1.89262 4.2273,4.2273c0,2.33467 -1.89262,4.2273 -4.2273,4.2273c-2.33467,0 -4.2273,-1.89262 -4.2273,-4.2273zM160.03434,206.51161c0,-12.44832 10.09136,-22.53969 22.53969,-22.53969c12.44832,0 22.53969,10.09136 22.53969,22.53969c0,12.44832 -10.09136,22.53969 -22.53969,22.53969c-12.44832,0 -22.53969,-10.09136 -22.53969,-22.53969zM380.19849,298.4519c0,-2.215 1.79562,-4.01062 4.01062,-4.01062c2.215,0 4.01062,1.79562 4.01062,4.01062c0,2.215 -1.79562,4.01062 -4.01062,4.01062c-2.215,0 -4.01062,-1.79562 -4.01062,-4.01062zM255.59943,8.20988c0,-0.12653 0.00505,-0.25188 0.01495,-0.37585c2.91556,0.8423 5.80373,1.74915 8.66286,2.71891c-0.80704,1.3827 -2.30652,2.31177 -4.023,2.31177c-2.57079,0 -4.65482,-2.08403 -4.65482,-4.65482zM337.99436,209.81067c0,-1.01836 0.32629,-1.9605 0.88002,-2.7276c-2.12492,-0.16809 -3.7969,-1.94571 -3.7969,-4.11384c0,-2.27919 1.84765,-4.12684 4.12684,-4.12684c2.27919,0 4.12684,1.84765 4.12684,4.12684c0,0.79883 -0.22697,1.54464 -0.61993,2.17648c2.55276,0.02768 4.61362,2.10565 4.61362,4.66496c0,0.86636 -0.23616,1.67756 -0.6476,2.37275c0.28382,-0.05377 0.57671,-0.08191 0.87617,-0.08191c2.58382,0 4.67842,2.0946 4.67842,4.67842c0,2.58382 -2.0946,4.67842 -4.67842,4.67842c-2.58382,0 -4.67842,-2.0946 -4.67842,-4.67842c0,-0.87094 0.23799,-1.6863 0.65248,-2.38459c-0.2812,0.0529 -0.57131,0.08058 -0.86787,0.08058c-2.57654,0 -4.66524,-2.0887 -4.66524,-4.66524zM365.07116,493.86319c0,-8.9402 7.24747,-16.18767 16.18767,-16.18767c8.9402,0 16.18767,7.24747 16.18767,16.18767c0,8.9402 -7.24747,16.18767 -16.18767,16.18767c-8.9402,0 -16.18767,-7.24747 -16.18767,-16.18767zM26.29166,211.65418c0,-5.81863 4.71693,-10.53556 10.53556,-10.53556c5.81863,0 10.53556,4.71693 10.53556,10.53556c0,5.81863 -4.71693,10.53556 -10.53556,10.53556c-5.81863,0 -10.53556,-4.71693 -10.53556,-10.53556zM618.97498,491.57819c0,-2.24714 1.82166,-4.0688 4.0688,-4.0688c2.24714,0 4.0688,1.82166 4.0688,4.0688c0,2.24714 -1.82166,4.0688 -4.0688,4.0688c-2.24714,0 -4.0688,-1.82166 -4.0688,-4.0688zM635.94421,341.72647c-15.53829,0 -28.13457,-12.59627 -28.13457,-28.13457c0,-8.22694 3.53112,-15.62914 9.16042,-20.77368c12.92271,13.52935 24.59272,28.26547 34.82386,44.02218c-4.51361,3.08311 -9.97111,4.88606 -15.84972,4.88606zM473.05531,463.78881c0,-4.06733 3.29723,-7.36456 7.36456,-7.36456c4.06733,0 7.36456,3.29723 7.36456,7.36456c0,4.06733 -3.29723,7.36456 -7.36456,7.36456c-4.06733,0 -7.36456,-3.29723 -7.36456,-7.36456zM236.96625,644.43542c0,-4.17666 3.38585,-7.56251 7.56251,-7.56251c4.17666,0 7.56251,3.38585 7.56251,7.56251c0,4.17666 -3.38585,7.56251 -7.56251,7.56251c-4.17666,0 -7.56251,-3.38585 -7.56251,-7.56251zM259.63551,135.55371c0,-5.8243 4.72153,-10.54583 10.54583,-10.54583c5.8243,0 10.54583,4.72153 10.54583,10.54583c0,5.8243 -4.72153,10.54583 -10.54583,10.54583c-5.8243,0 -10.54583,-4.72153 -10.54583,-10.54583zM215.53016,437.44645c0,-5.5832 4.52608,-10.10928 10.10928,-10.10928c5.5832,0 10.10928,4.52608 10.10928,10.10928c0,5.5832 -4.52608,10.10928 -10.10928,10.10928c-1.64048,0 -3.1897,-0.39075 -4.55966,-1.08426c-0.79059,1.54094 -2.39532,2.59534 -4.24631,2.59534c-2.63416,0 -4.76958,-2.13541 -4.76958,-4.76958c0,-2.26871 1.58399,-4.16745 3.70637,-4.65064c-0.1572,-0.70829 -0.2401,-1.44454 -0.2401,-2.20015zM60.62296,138.91874c0,-2.42978 1.96972,-4.3995 4.3995,-4.3995c2.42978,0 4.3995,1.96972 4.3995,4.3995c0,2.42978 -1.96972,4.3995 -4.3995,4.3995c-2.42978,0 -4.3995,-1.96972 -4.3995,-4.3995zM154.38705,142.36356c0,-10.99678 6.19491,-20.54666 15.28527,-25.35019c0.14209,-12.0911 9.98781,-21.84893 22.11258,-21.84893c12.2133,0 22.11414,9.90084 22.11414,22.11414c0,5.10035 -1.72665,9.79742 -4.62731,13.53855c1.55705,3.53221 2.42157,7.43836 2.42157,11.54643c0,15.82469 -12.82844,28.65313 -28.65313,28.65313c-15.82469,0 -28.65313,-12.82844 -28.65313,-28.65313zM99.56535,145.12815c0,-8.16336 6.61771,-14.78108 14.78108,-14.78108c8.16336,0 14.78108,6.61771 14.78108,14.78108c0,2.71983 -0.73461,5.26809 -2.01623,7.45718c-2.02267,4.35706 -6.43684,7.37849 -11.55669,7.37849c-0.40032,0 -0.79633,-0.01847 -1.18722,-0.05461c-0.00698,0.00001 -0.01395,0.00001 -0.02093,0.00001c-8.16336,0 -14.78108,-6.61771 -14.78108,-14.78108zM660.02715,648.38716c0,-2.30973 1.48239,-4.27323 3.54767,-4.99099c-1.11939,2.05319 -2.26208,4.09186 -3.4277,6.11564c-0.07858,-0.36242 -0.11998,-0.7387 -0.11998,-1.12465zM337.569,492.63641c0,-2.29293 1.85878,-4.15171 4.15171,-4.15171c2.29293,0 4.15171,1.85878 4.15171,4.15171c0,2.29293 -1.85878,4.15171 -4.15171,4.15171c-2.29293,0 -4.15171,-1.85878 -4.15171,-4.15171zM350.68712,381.2727c0,-15.09285 12.23517,-27.32801 27.32801,-27.32801c15.09285,0 27.32801,12.23517 27.32801,27.32801c0,15.09285 -12.23517,27.32801 -27.32801,27.32801c-15.09285,0 -27.32801,-12.23517 -27.32801,-27.32801zM145.00124,645.92238c1.44909,0 2.82221,0.32528 4.05031,0.90681c1.84696,-1.27594 4.08712,-2.02323 6.50182,-2.02323c6.32516,0 11.45272,5.12756 11.45272,11.45272c0,6.32516 -5.12756,11.45272 -11.45272,11.45272c-1.85384,0 -3.6048,-0.44046 -5.15394,-1.22245c-4.00809,-5.997 -7.80579,-12.14654 -11.38255,-18.43808c1.63162,-1.33059 3.71481,-2.12848 5.98436,-2.12848zM239.86291,46.30297c0,-4.5068 3.65348,-8.16028 8.16028,-8.16028c4.5068,0 8.16028,3.65348 8.16028,8.16028c0,4.5068 -3.65348,8.16028 -8.16028,8.16028c-4.5068,0 -8.16028,-3.65348 -8.16028,-8.16028zM225.4986,555.66213c0,-8.25157 6.68922,-14.9408 14.9408,-14.9408c2.774,0 5.37143,0.75599 7.5975,2.07318c0.60939,-2.20026 2.62636,-3.81555 5.0206,-3.81555c2.8769,0 5.20909,2.33219 5.20909,5.20909c0,2.56558 -1.85475,4.69796 -4.29653,5.12942c0.90459,1.92579 1.41014,4.07618 1.41014,6.34466c0,8.25157 -6.68922,14.9408 -14.9408,14.9408c-8.25157,0 -14.9408,-6.68922 -14.9408,-14.9408zM13.76764,255.84385c0,-2.24055 1.81633,-4.05688 4.05688,-4.05688c2.24055,0 4.05688,1.81633 4.05688,4.05688c0,2.24055 -1.81633,4.05688 -4.05688,4.05688c-2.24055,0 -4.05688,-1.81633 -4.05688,-4.05688zM276.14537,672.0495c0,-7.75808 6.28917,-14.04725 14.04725,-14.04725c7.75808,0 14.04725,6.28917 14.04725,14.04725c0,7.75808 -6.28917,14.04725 -14.04725,14.04725c-7.75808,0 -14.04725,-6.28917 -14.04725,-14.04725zM206.37639,256.63318c0,-2.66541 2.16074,-4.82615 4.82615,-4.82615c2.66541,0 4.82615,2.16074 4.82615,4.82615c0,2.66541 -2.16074,4.82615 -4.82615,4.82615c-2.66541,0 -4.82615,-2.16074 -4.82615,-4.82615zM173.06051,51.68137c0,-7.82094 6.34013,-14.16107 14.16107,-14.16107c7.82094,0 14.16107,6.34013 14.16107,14.16107c0,7.82094 -6.34013,14.16107 -14.16107,14.16107c-7.82094,0 -14.16107,-6.34013 -14.16107,-14.16107zM403.68838,799.28977c0,-5.39209 4.37115,-9.76324 9.76324,-9.76324c5.33378,0 9.66859,4.27713 9.76172,9.58869c-6.44552,0.49325 -12.94803,0.78283 -19.50111,0.86229c-0.01581,-0.22719 -0.02385,-0.45652 -0.02385,-0.68773zM511.82147,774.79061c0,-2.5792 2.09085,-4.67005 4.67005,-4.67005c2.49177,0 4.52774,1.95151 4.66291,4.40952c-9.15093,4.04436 -18.54206,7.64461 -28.14608,10.77342c0.51409,-6.20986 5.71699,-11.08936 12.05956,-11.08936c2.64146,0 5.08526,0.84632 7.07502,2.28259c-0.20751,-0.5285 -0.32146,-1.104 -0.32146,-1.70611zM266.13933,527.60242c0,-5.05447 4.09746,-9.15192 9.15192,-9.15192c5.05447,0 9.15192,4.09746 9.15192,9.15192c0,5.05447 -4.09746,9.15192 -9.15192,9.15192c-5.05447,0 -9.15192,-4.09746 -9.15192,-9.15192zM560.23775,318.96038c0,-3.61942 2.93412,-6.55353 6.55353,-6.55353c3.61942,0 6.55353,2.93412 6.55353,6.55353c0,3.61942 -2.93412,6.55353 -6.55353,6.55353c-3.61942,0 -6.55353,-2.93412 -6.55353,-6.55353zM92.73262,270.30613c0,-4.92207 3.99013,-8.9122 8.9122,-8.9122c4.92207,0 8.9122,3.99013 8.9122,8.9122c0,4.92207 -3.99013,8.9122 -8.9122,8.9122c-4.92207,0 -8.9122,-3.99013 -8.9122,-8.9122zM441.24442,295.32769c0,-11.63639 9.43316,-21.06954 21.06954,-21.06954c11.63639,0 21.06954,9.43316 21.06954,21.06954c0,6.39575 -2.84973,12.12592 -7.34872,15.99001c0.62039,-0.24084 1.29503,-0.37295 2.00053,-0.37295c3.05409,0 5.52992,2.47583 5.52992,5.52992c0,3.05409 -2.47583,5.52992 -5.52992,5.52992c-3.05409,0 -5.52992,-2.47583 -5.52992,-5.52992c0,-1.28115 0.43567,-2.46053 1.16693,-3.3981c-3.2776,2.10185 -7.17564,3.32066 -11.35835,3.32066c-11.63639,0 -21.06954,-9.43316 -21.06954,-21.06954zM109.29365,496.84763c0,6.60829 -3.65308,12.36335 -9.04996,15.35592c-0.16194,-4.04773 -0.24369,-8.11609 -0.24369,-12.20355c0,-6.15634 0.18544,-12.26936 0.55103,-18.3338c5.22777,3.03825 8.74262,8.69937 8.74262,15.18142zM525.70053,333.69167c0,-3.0759 2.49351,-5.56942 5.56942,-5.56942c3.0759,0 5.56942,2.49351 5.56942,5.56942c0,3.0759 -2.49351,5.56942 -5.56942,5.56942c-3.0759,0 -5.56942,-2.49351 -5.56942,-5.56942zM422.32785,660.83767c0,-6.48623 5.25812,-11.74435 11.74435,-11.74435c6.48623,0 11.74435,5.25812 11.74435,11.74435c0,6.48623 -5.25812,11.74435 -11.74435,11.74435c-6.48623,0 -11.74435,-5.25812 -11.74435,-11.74435zM223.72774,216.10089c0,-5.70439 4.62433,-10.32872 10.32872,-10.32872c5.70439,0 10.32872,4.62433 10.32872,10.32872c0,5.70439 -4.62433,10.32872 -10.32872,10.32872c-5.70439,0 -10.32872,-4.62433 -10.32872,-10.32872zM529.18994,717.08516c0,-7.82427 6.34283,-14.1671 14.1671,-14.1671c7.82427,0 14.1671,6.34283 14.1671,14.1671c0,7.82427 -6.34283,14.1671 -14.1671,14.1671c-7.82427,0 -14.1671,-6.34283 -14.1671,-14.1671zM533.17417,768.08585c0,-8.30027 6.7287,-15.02897 15.02897,-15.02897c3.21501,0 6.19424,1.00951 8.63799,2.72885c-7.66116,4.70765 -15.54997,9.08076 -23.64609,13.09897c-0.01385,-0.26453 -0.02087,-0.53087 -0.02087,-0.79885zM444.32628,688.55618c0,-3.32189 2.69293,-6.01482 6.01482,-6.01482c3.32189,0 6.01482,2.69293 6.01482,6.01482c0,3.32189 -2.69293,6.01482 -6.01482,6.01482c-3.32189,0 -6.01482,-2.69293 -6.01482,-6.01482zM535.0147,696.61974c0,-2.72842 2.21182,-4.94024 4.94024,-4.94024c2.72842,0 4.94024,2.21182 4.94024,4.94024c0,2.72842 -2.21182,4.94024 -4.94024,4.94024c-2.72842,0 -4.94024,-2.21182 -4.94024,-4.94024zM453.30241,359.49198c0,-2.76741 2.24343,-5.01083 5.01083,-5.01083c2.76741,0 5.01083,2.24343 5.01083,5.01083c0,2.76741 -2.24343,5.01083 -5.01083,5.01083c-2.76741,0 -5.01083,-2.24343 -5.01083,-5.01083zM216.15489,468.09432c0,-2.38158 1.93065,-4.31223 4.31223,-4.31223c2.38158,0 4.31223,1.93065 4.31223,4.31223c0,2.38158 -1.93065,4.31223 -4.31223,4.31223c-2.38158,0 -4.31223,-1.93065 -4.31223,-4.31223zM462.19038,652.67308c0,-6.29891 5.10627,-11.40518 11.40518,-11.40518c6.29891,0 11.40518,5.10627 11.40518,11.40518c0,6.29891 -5.10627,11.40518 -11.40518,11.40518c-6.29891,0 -11.40518,-5.10627 -11.40518,-11.40518zM481.65252,417.82292c0,-2.88544 2.33911,-5.22455 5.22455,-5.22455c2.88544,0 5.22455,2.33911 5.22455,5.22455c0,2.88544 -2.33911,5.22455 -5.22455,5.22455c-2.88544,0 -5.22455,-2.33911 -5.22455,-5.22455zM297.19242,288.03507c0,-3.13797 2.54383,-5.6818 5.6818,-5.6818c3.13797,0 5.6818,2.54383 5.6818,5.6818c0,3.13797 -2.54383,5.6818 -5.6818,5.6818c-3.13797,0 -5.6818,-2.54383 -5.6818,-5.6818zM554.458,642.17991c0,-5.60692 4.54531,-10.15223 10.15223,-10.15223c5.60692,0 10.15223,4.54531 10.15223,10.15223c0,5.60692 -4.54531,10.15223 -10.15223,10.15223c-5.60692,0 -10.15223,-4.54531 -10.15223,-10.15223zM586.46386,640.60174c0,-5.40437 4.38111,-9.78548 9.78548,-9.78548c5.40437,0 9.78548,4.38111 9.78548,9.78548c0,5.40437 -4.38111,9.78548 -9.78548,9.78548c-5.40437,0 -9.78548,-4.38111 -9.78548,-9.78548zM506.09895,414.41802c0,-12.3999 10.05211,-22.45201 22.45201,-22.45201c12.3999,0 22.45201,10.05211 22.45201,22.45201c0,12.3999 -10.05211,22.45201 -22.45201,22.45201c-12.3999,0 -22.45201,-10.05211 -22.45201,-22.45201zM130.64712,157.42394c0,-2.63378 2.1351,-4.76888 4.76888,-4.76888c2.63378,0 4.76888,2.1351 4.76888,4.76888c0,2.63378 -2.1351,4.76888 -4.76888,4.76888c-2.63378,0 -4.76888,-2.1351 -4.76888,-4.76888zM56.18752,220.31158c0,-5.55895 4.50642,-10.06536 10.06536,-10.06536c5.55895,0 10.06536,4.50642 10.06536,10.06536c0,5.55895 -4.50642,10.06536 -10.06536,10.06536c-5.55895,0 -10.06536,-4.50642 -10.06536,-10.06536zM447.26268,343.40913c0,-5.95204 4.82508,-10.77713 10.77713,-10.77713c5.95204,0 10.77713,4.82508 10.77713,10.77713c0,5.95204 -4.82508,10.77713 -10.77713,10.77713c-5.95204,0 -10.77713,-4.82508 -10.77713,-10.77713zM394.65842,432.96041c0,-12.68887 10.28637,-22.97524 22.97524,-22.97524c12.68887,0 22.97524,10.28637 22.97524,22.97524c0,12.68887 -10.28637,22.97524 -22.97524,22.97524c-12.68887,0 -22.97524,-10.28637 -22.97524,-22.97524zM264.19945,421.72139c0,-12.66757 10.2691,-22.93667 22.93667,-22.93667c12.66757,0 22.93667,10.2691 22.93667,22.93667c0,12.66757 -10.2691,22.93667 -22.93667,22.93667c-12.66757,0 -22.93667,-10.2691 -22.93667,-22.93667zM50.42336,302.9495c0,-2.25001 1.824,-4.07401 4.07401,-4.07401c2.25001,0 4.07401,1.824 4.07401,4.07401c0,2.25001 -1.824,4.07401 -4.07401,4.07401c-2.25001,0 -4.07401,-1.824 -4.07401,-4.07401zM86.83659,126.88315c0,-5.1034 4.13713,-9.24053 9.24053,-9.24053c5.1034,0 9.24053,4.13713 9.24053,9.24053c0,5.1034 -4.13713,9.24053 -9.24053,9.24053c-5.1034,0 -9.24053,-4.13713 -9.24053,-9.24053zM622.45288,381.21937c0,-10.92335 8.85512,-19.77847 19.77847,-19.77847c10.92335,0 19.77847,8.85512 19.77847,19.77847c0,10.92335 -8.85512,19.77847 -19.77847,19.77847c-10.92335,0 -19.77847,-8.85512 -19.77847,-19.77847zM169.95234,507.46194c0,-2.21749 1.79763,-4.01513 4.01513,-4.01513c2.21749,0 4.01513,1.79763 4.01513,4.01513c0,2.21749 -1.79763,4.01513 -4.01513,4.01513c-2.21749,0 -4.01513,-1.79763 -4.01513,-4.01513zM44.59995,91.29327c0,-8.52689 6.91241,-15.4393 15.4393,-15.4393c8.52689,0 15.4393,6.91241 15.4393,15.4393c0,8.52689 -6.91241,15.4393 -15.4393,15.4393c-8.52689,0 -15.4393,-6.91241 -15.4393,-15.4393zM453.67006,622.54286c0,-3.09416 2.50831,-5.60248 5.60248,-5.60248c3.09416,0 5.60248,2.50831 5.60248,5.60248c0,3.09416 -2.50831,5.60248 -5.60248,5.60248c-3.09416,0 -5.60248,-2.50831 -5.60248,-5.60248zM171.39498,342.7307c0,-2.72142 2.20614,-4.92756 4.92756,-4.92756c2.72142,0 4.92756,2.20614 4.92756,4.92756c0,2.72142 -2.20614,4.92756 -4.92756,4.92756c-2.72142,0 -4.92756,-2.20614 -4.92756,-4.92756zM48.35371,192.95053c0,-9.31603 7.55213,-16.86816 16.86816,-16.86816c9.31603,0 16.86816,7.55213 16.86816,16.86816c0,9.31603 -7.55213,16.86816 -16.86816,16.86816c-9.31603,0 -16.86816,-7.55213 -16.86816,-16.86816z"/></g></svg>