<svg id="svg5_1652694883513" xmlns="http://www.w3.org/2000/svg" viewBox="0 0 200.00 300.00" width="200.00" height="300.00"><g transform="translate(100.00, 0.00)"><g transform="translate(0.00, 6.00)"><path stroke="rgb(0.00, 0.00, 0.00)" stroke-width="0.5" stroke-linecap="butt" stroke-linejoin="miter" fill="none" d="M0.00,0.00 L-2.37,0.00 L-2.37,2.00 L-1.30,2.00 L-1.30,2.00 L-8.69,2.00 L-8.69,-2.00 L-16.37,-2.00 L-16.37,-2.00 L-9.15,-2.00 L-9.15,-2.00 L-10.88,-2.00 L-10.88,2.00 L-17.95,2.00 L-17.95,2.00 L-17.09,2.00 L-17.09,2.00 L-7.49,2.00 L-7.49,2.00 L-4.57,2.00 L-4.57,2.00 L-5.18,2.00 L-5.18,0.64 L-0.79,0.64 L-0.79,-2.00 L-4.52,-2.00 L-4.52,-1.02 L-1.25,-1.02 L-1.25,2.00 L7.32,2.00 L7.32,2.00 L5.82,2.00 L5.82,-2.00 L6.14,-2.00 L6.14,-0.30 L12.57,-0.30 L12.57,2.00 L4.24,2.00 L4.24,2.00 L6.27,2.00 L6.27,2.00 L11.47,2.00 L11.47,-2.00 L20.69,-2.00 L20.69,-2.00 L16.12,-2.00 L16.12,-2.00 L15.89,-2.00 L15.89,-2.00 L9.08,-2.00 L9.08,-1.19 L10.04,-1.19 L10.04,-2.00 L13.12,-2.00 L13.12,-2.00 L14.04,-2.00 L14.04,-2.00 L8.96,-2.00 L8.96,-1.92 L5.87,-1.92 L5.87,-2.00 L10.24,-2.00 L10.24,2.00 L9.88,2.00 L9.88,2.00 L9.98,2.00 L9.98,2.00 L15.33,2.00 L15.33,-1.41 L13.51,-1.41 L13.51,-2.00 L21.21,-2.00 L21.21,-2.00 L21.58,-2.00 L21.58,-2.00 L23.35,-2.00 L23.35,-2.00 L32.65,-2.00 L32.65,-2.00 L27.69,-2.00 L27.69,0.85 L29.51,0.85 L29.51,-2.00 L27.26,-2.00 L27.26,-2.00 L17.28,-2.00 L17.28,-2.00 L8.37,-2.00 L8.37,2.00 L4.47,2.00 L4.47,2.00 L-3.09,2.00 L-3.09,2.00 L-12.67,2.00 L-12.67,-2.00 L-7.77,-2.00 L-7.77,-0.73 L-3.76,-0.73 L-3.76,2.00 L-0.62,2.00 L-0.62,-2.00" /></g><g transform="translate(0.00, 6.00) translate(0.00, 6.00)"><path stroke="rgb(0.00, 0.00, 0.00)" stroke-width="0.5" stroke-linecap="butt" stroke-linejoin="miter" fill="none" d="M0.00,0.00 L5.74,0.00 L5.74,2.00 L1.71,2.00 L1.71,2.00 L9.00,2.00 L9.00,2.00 L3.55,2.00 L3.55,2.00 L-2.80,2.00 L-2.80,2.00 L-9.99,2.00 L-9.99,1.93 L-7.00,1.93 L-7.00,-2.00 L-13.36,-2.00 L-13.36,0.46 L-14.36,0.46 L-14.36,2.00 L-22.10,2.00 L-22.10,2.00 L-16.24,2.00 L-16.24,2.00 L-23.56,2.00 L-23.56,2.00 L-17.96,2.00 L-17.96,2.00 L-24.87,2.00 L-24.87,2.00 L-24.80,2.00 L-24.80,2.00 L-23.18,2.00 L-23.18,2.00 L-13.69,2.00 L-13.69,2.00 L-7.76,2.00 L-7.76,-2.00 L-10.74,-2.00 L-10.74,1.13 L-16.42,1.13 L-16.42,0.70 L-25.09,0.70 L-25.09,-2.00 L-22.23,-2.00 L-22.23,-2.00 L-29.06,-2.00 L-29.06,-2.00 L-31.30,-2.00 L-31.30,-2.00 L-31.20,-2.00 L-31.20,-2.00 L-38.45,-2.00 L-38.45,1.23 L-43.03,1.23 L-43.03,-2.00 L-47.65,-2.00 L-47.65,-2.00 L-39.11,-2.00 L-39.11,2.00 L-43.19,2.00 L-43.19,-2.00 L-34.33,-2.00 L-34.33,2.00 L-36.96,2.00 L-36.96,-2.00 L-34.12,-2.00 L-34.12,-2.00 L-40.08,-2.00 L-40.08,2.00 L-34.59,2.00 L-34.59,2.00 L-25.80,2.00 L-25.80,2.00 L-31.91,2.00 L-31.91,0.26 L-41.22,0.26 L-41.22,-2.00 L-32.86,-2.00 L-32.86,1.21 L-35.02,1.21 L-35.02,2.00 L-34.85,2.00 L-34.85,-2.00 L-40.62,-2.00 L-40.62,-2.00 L-44.15,-2.00 L-44.15,-2.00 L-51.71,-2.00 L-51.71,-2.00 L-45.64,-2.00 L-45.64,-2.00 L-48.68,-2.00 L-48.68,-2.00 L-56.55,-2.00 L-56.55,-2.00 L-60.91,-2.00 L-60.91,0.32 L-67.85,0.32 L-67.85,-2.00 L-67.95,-2.00 L-67.95,-1.11" /></g><g transform="translate(0.00, 6.00) translate(0.00, 6.00) translate(0.00, 6.00)"><path stroke="rgb(0.00, 0.00, 0.00)" stroke-width="0.5" stroke-linecap="butt" stroke-linejoin="miter" fill="none" d="M0.00,0.00 L6.95,0.00 L6.95,2.00 L14.35,2.00 L14.35,2.00 L7.83,2.00 L7.83,2.00 L6.27,2.00 L6.27,2.00 L1.81,2.00 L1.81,2.00 L0.13,2.00 L0.13,0.12 L-4.54,0.12 L-4.54,-2.00 L-9.47,-2.00 L-9.47,-2.00 L-9.20,-2.00 L-9.20,-0.21 L0.09,-0.21 L0.09,-2.00 L-7.68,-2.00 L-7.68,-2.00 L-9.85,-2.00 L-9.85,-2.00 L-10.45,-2.00 L-10.45,1.51 L-8.62,1.51 L-8.62,2.00 L-8.11,2.00 L-8.11,2.00 L-7.13,2.00 L-7.13,2.00 L-15.22,2.00 L-15.22,2.00 L-8.02,2.00 L-8.02,-2.00 L-17.88,-2.00 L-17.88,-1.13 L-17.18,-1.13 L-17.18,2.00 L-26.64,2.00 L-26.64,0.88 L-20.61,0.88 L-20.61,2.00 L-25.15,2.00 L-25.15,2.00 L-29.13,2.00 L-29.13,2.00 L-28.00,2.00 L-28.00,-2.00 L-27.52,-2.00 L-27.52,-2.00 L-27.29,-2.00 L-27.29,2.00 L-24.70,2.00 L-24.70,2.00 L-23.44,2.00 L-23.44,-2.00 L-24.46,-2.00 L-24.46,-0.72 L-29.14,-0.72 L-29.14,-2.00 L-22.73,-2.00 L-22.73,-2.00 L-20.04,-2.00 L-20.04,-2.00 L-13.46,-2.00 L-13.46,-2.00 L-20.19,-2.00 L-20.19,2.00 L-22.26,2.00 L-22.26,2.00 L-21.43,2.00 L-21.43,2.00 L-21.09,2.00 L-21.09,2.00 L-24.48,2.00 L-24.48,-2.00 L-28.27,-2.00 L-28.27,2.00 L-22.78,2.00 L-22.78,2.00 L-30.96,2.00 L-30.96,-2.00 L-37.41,-2.00 L-37.41,-2.00 L-43.84,-2.00 L-43.84,1.94 L-36.84,1.94 L-36.84,2.00 L-32.00,2.00 L-32.00,2.00 L-33.49,2.00 L-33.49,-2.00 L-25.36,-2.00 L-25.36,2.00 L-21.70,2.00 L-21.70,2.00 L-28.75,2.00 L-28.75,-2.00" /></g><g transform="translate(0.00, 6.00) translate(0.00, 6.00) translate(0.00, 6.00) translate(0.00, 6.00)"><path stroke="rgb(0.00, 0.00, 0.00)" stroke-width="0.5" stroke-linecap="butt" stroke-linejoin="miter" fill="none" d="M0.00,0.00 L-4.15,0.00 L-4.15,-2.00 L-6.80,-2.00 L-6.80,0.87 L-5.94,0.87 L-5.94,-2.00 L3.41,-2.00 L3.41,-2.00 L8.24,-2.00 L8.24,2.00 L2.99,2.00 L2.99,-2.00 L-1.07,-2.00 L-1.07,-2.00 L4.80,-2.00 L4.80,-1.48 L13.39,-1.48 L13.39,-2.00 L10.24,-2.00 L10.24,2.00 L12.66,2.00 L12.66,-2.00 L12.48,-2.00 L12.48,-2.00 L8.08,-2.00 L8.08,0.82 L7.66,0.82 L7.66,0.25 L-0.38,0.25 L-0.38,2.00 L-6.61,2.00 L-6.61,2.00 L-9.66,2.00 L-9.66,2.00 L-19.13,2.00 L-19.13,2.00 L-22.62,2.00 L-22.62,2.00 L-20.30,2.00 L-20.30,-0.40 L-20.22,-0.40 L-20.22,2.00 L-25.39,2.00 L-25.39,2.00 L-28.31,2.00 L-28.31,2.00 L-28.32,2.00 L-28.32,2.00 L-20.28,2.00 L-20.28,-2.00 L-22.26,-2.00 L-22.26,2.00 L-24.31,2.00 L-24.31,-1.21 L-25.74,-1.21 L-25.74,0.94 L-34.68,0.94 L-34.68,2.00 L-28.05,2.00 L-28.05,2.00 L-27.61,2.00 L-27.61,2.00 L-25.86,2.00 L-25.86,2.00 L-34.31,2.00 L-34.31,2.00 L-41.09,2.00 L-41.09,0.15 L-42.77,0.15 L-42.77,2.00 L-44.00,2.00 L-44.00,-2.00 L-34.02,-2.00 L-34.02,2.00 L-43.28,2.00 L-43.28,2.00 L-45.96,2.00 L-45.96,-2.00 L-49.67,-2.00 L-49.67,1.83 L-52.24,1.83 L-52.24,2.00 L-48.77,2.00 L-48.77,2.00 L-57.83,2.00 L-57.83,-1.07 L-64.95,-1.07 L-64.95,-2.00 L-68.21,-2.00 L-68.21,-1.25 L-61.44,-1.25 L-61.44,-2.00 L-62.03,-2.00 L-62.03,-2.00 L-68.32,-2.00 L-68.32,-2.00 L-73.70,-2.00 L-73.70,-2.00 L-78.08,-2.00 L-78.08,-1.80" /></g><g transform="translate(0.00, 6.00) translate(0.00, 6.00) translate(0.00, 6.00) translate(0.00, 6.00) translate(0.00, 6.00)"><path stroke="rgb(0.00, 0.00, 0.00)" stroke-width="0.5" stroke-linecap="butt" stroke-linejoin="miter" fill="none" d="M0.00,0.00 L3.22,0.00 L3.22,-2.00 L-0.90,-2.00 L-0.90,1.17 L-9.51,1.17 L-9.51,2.00 L-1.92,2.00 L-1.92,0.12 L-3.00,0.12 L-3.00,1.17 L5.47,1.17 L5.47,2.00 L14.57,2.00 L14.57,-0.07 L12.49,-0.07 L12.49,-2.00 L19.30,-2.00 L19.30,2.00 L21.15,2.00 L21.15,2.00 L23.84,2.00 L23.84,2.00 L31.91,2.00 L31.91,2.00 L40.68,2.00 L40.68,2.00 L48.08,2.00 L48.08,-2.00 L38.08,-2.00 L38.08,-2.00 L46.58,-2.00 L46.58,-2.00 L42.86,-2.00 L42.86,-2.00 L34.82,-2.00 L34.82,-2.00 L35.28,-2.00 L35.28,-2.00 L26.91,-2.00 L26.91,-2.00 L24.67,-2.00 L24.67,2.00 L21.43,2.00 L21.43,0.17 L29.03,0.17 L29.03,2.00 L25.85,2.00 L25.85,-2.00 L28.04,-2.00 L28.04,-2.00 L18.94,-2.00 L18.94,-2.00 L22.87,-2.00 L22.87,-2.00 L24.07,-2.00 L24.07,-1.42 L24.14,-1.42 L24.14,-2.00 L27.06,-2.00 L27.06,-0.71 L22.45,-0.71 L22.45,1.35 L26.40,1.35 L26.40,-2.00 L29.54,-2.00 L29.54,-1.89 L23.43,-1.89 L23.43,-0.86 L26.99,-0.86 L26.99,-2.00 L17.69,-2.00 L17.69,2.00 L16.47,2.00 L16.47,2.00 L15.42,2.00 L15.42,2.00 L24.16,2.00 L24.16,2.00 L27.87,2.00 L27.87,1.98 L27.17,1.98 L27.17,-2.00 L27.77,-2.00 L27.77,-1.83 L30.18,-1.83 L30.18,2.00 L37.68,2.00 L37.68,-2.00 L31.97,-2.00 L31.97,2.00 L36.11,2.00 L36.11,-2.00 L29.32,-2.00 L29.32,-2.00 L39.21,-2.00 L39.21,-2.00 L30.09,-2.00 L30.09,1.77 L27.62,1.77 L27.62,-2.00" /></g><g transform="translate(0.00, 6.00) translate(0.00, 6.00) translate(0.00, 6.00) translate(0.00, 6.00) translate(0.00, 6.00) translate(0.00, 6.00)"><path stroke="rgb(0.00, 0.00, 0.00)" stroke-width="0.5" stroke-linecap="butt" stroke-linejoin="miter" fill="none" d="M0.00,0.00 L1.41,0.00 L1.41,2.00 L4.27,2.00 L4.27,-2.00 L14.05,-2.00 L14.05,2.00 L20.14,2.00 L20.14,2.00 L14.89,2.00 L14.89,-2.00 L24.29,-2.00 L24.29,0.00 L21.12,0.00 L21.12,-2.00 L19.59,-2.00 L19.59,2.00 L14.91,2.00 L14.91,-2.00 L23.71,-2.00 L23.71,1.98 L25.13,1.98 L25.13,2.00 L24.34,2.00 L24.34,2.00 L21.70,2.00 L21.70,2.00 L31.62,2.00 L31.62,2.00 L34.62,2.00 L34.62,-2.00 L37.45,-2.00 L37.45,2.00 L45.73,2.00 L45.73,-2.00 L47.81,-2.00 L47.81,-2.00 L57.70,-2.00 L57.70,-2.00 L60.74,-2.00 L60.74,2.00 L51.06,2.00 L51.06,2.00 L57.85,2.00 L57.85,0.57 L61.51,0.57 L61.51,2.00 L53.73,2.00 L53.73,2.00 L49.07,2.00 L49.07,2.00 L45.52,2.00 L45.52,1.76 L45.76,1.76 L45.76,-2.00 L36.95,-2.00 L36.95,-2.00 L30.31,-2.00 L30.31,2.00 L33.96,2.00 L33.96,2.00 L32.31,2.00 L32.31,2.00 L32.37,2.00 L32.37,-2.00 L41.67,-2.00 L41.67,-2.00 L33.97,-2.00 L33.97,2.00 L30.05,2.00 L30.05,1.10 L29.77,1.10 L29.77,-2.00 L27.03,-2.00 L27.03,0.24 L32.39,0.24 L32.39,-2.00 L25.43,-2.00 L25.43,0.32 L19.23,0.32 L19.23,2.00 L15.53,2.00 L15.53,-0.86 L15.55,-0.86 L15.55,-2.00 L16.71,-2.00 L16.71,-2.00 L19.48,-2.00 L19.48,-1.46 L12.33,-1.46 L12.33,2.00 L9.15,2.00 L9.15,-2.00 L8.05,-2.00 L8.05,2.00 L15.55,2.00 L15.55,-2.00 L7.36,-2.00 L7.36,-0.93 L7.77,-0.93 L7.77,-2.00" /></g><g transform="translate(0.00, 6.00) translate(0.00, 6.00) translate(0.00, 6.00) translate(0.00, 6.00) translate(0.00, 6.00) translate(0.00, 6.00) translate(0.00, 6.00)"><path stroke="rgb(0.00, 0.00, 0.00)" stroke-width="0.5" stroke-linecap="butt" stroke-linejoin="miter" fill="none" d="M0.00,0.00 L6.78,0.00 L6.78,2.00 L4.37,2.00 L4.37,-2.00 L8.68,-2.00 L8.68,2.00 L18.33,2.00 L18.33,2.00 L12.93,2.00 L12.93,2.00 L21.66,2.00 L21.66,2.00 L21.33,2.00 L21.33,-2.00 L13.15,-2.00 L13.15,-2.00 L21.16,-2.00 L21.16,-2.00 L17.19,-2.00 L17.19,2.00 L13.86,2.00 L13.86,2.00 L18.16,2.00 L18.16,-2.00 L12.77,-2.00 L12.77,2.00 L11.99,2.00 L11.99,2.00 L4.45,2.00 L4.45,0.20 L0.13,0.20 L0.13,2.00 L-9.32,2.00 L-9.32,2.00 L-11.32,2.00 L-11.32,2.00 L-2.42,2.00 L-2.42,2.00 L-2.46,2.00 L-2.46,0.75 L3.79,0.75 L3.79,2.00 L-3.53,2.00 L-3.53,2.00 L-9.56,2.00 L-9.56,-2.00 L-2.57,-2.00 L-2.57,-2.00 L1.42,-2.00 L1.42,0.09 L4.34,0.09 L4.34,-2.00 L-3.13,-2.00 L-3.13,2.00 L3.37,2.00 L3.37,2.00 L8.11,2.00 L8.11,2.00 L2.60,2.00 L2.60,2.00 L8.55,2.00 L8.55,2.00 L12.10,2.00 L12.10,-1.07 L3.47,-1.07 L3.47,2.00 L4.48,2.00 L4.48,2.00 L2.41,2.00 L2.41,-1.33 L5.11,-1.33 L5.11,-2.00 L-1.99,-2.00 L-1.99,-2.00 L-11.86,-2.00 L-11.86,0.27 L-9.96,0.27 L-9.96,-2.00 L-12.32,-2.00 L-12.32,-1.10 L-11.81,-1.10 L-11.81,2.00 L-9.24,2.00 L-9.24,2.00 L-6.60,2.00 L-6.60,2.00 L-6.55,2.00 L-6.55,2.00 L-3.15,2.00 L-3.15,2.00 L-3.06,2.00 L-3.06,2.00 L-10.02,2.00 L-10.02,-2.00 L-18.62,-2.00 L-18.62,-2.00 L-12.64,-2.00 L-12.64,-1.67 L-10.39,-1.67 L-10.39,-2.00" /></g><g transform="translate(0.00, 6.00) translate(0.00, 6.00) translate(0.00, 6.00) translate(0.00, 6.00) translate(0.00, 6.00) translate(0.00, 6.00) translate(0.00, 6.00) translate(0.00, 6.00)"><path stroke="rgb(0.00, 0.00, 0.00)" stroke-width="0.5" stroke-linecap="butt" stroke-linejoin="miter" fill="none" d="M0.00,0.00 L0.90,0.00 L0.90,-2.00 L7.10,-2.00 L7.10,-2.00 L9.93,-2.00 L9.93,2.00 L5.98,2.00 L5.98,2.00 L-2.77,2.00 L-2.77,2.00 L2.15,2.00 L2.15,2.00 L-4.10,2.00 L-4.10,-2.00 L2.60,-2.00 L2.60,-2.00 L-1.66,-2.00 L-1.66,-1.23 L-5.51,-1.23 L-5.51,-2.00 L-9.23,-2.00 L-9.23,-2.00 L-12.28,-2.00 L-12.28,-2.00 L-19.97,-2.00 L-19.97,2.00 L-23.20,2.00 L-23.20,0.22 L-23.09,0.22 L-23.09,1.13 L-14.82,1.13 L-14.82,-1.33 L-8.88,-1.33 L-8.88,-2.00 L-2.69,-2.00 L-2.69,-2.00 L-11.95,-2.00 L-11.95,-2.00 L-6.72,-2.00 L-6.72,-2.00 L2.70,-2.00 L2.70,0.61 L-1.98,0.61 L-1.98,2.00 L-11.30,2.00 L-11.30,2.00 L-17.52,2.00 L-17.52,2.00 L-17.27,2.00 L-17.27,2.00 L-12.76,2.00 L-12.76,2.00 L-3.99,2.00 L-3.99,2.00 L-4.64,2.00 L-4.64,-1.82 L-0.41,-1.82 L-0.41,2.00 L-7.94,2.00 L-7.94,-2.00 L0.58,-2.00 L0.58,-2.00 L-2.56,-2.00 L-2.56,-2.00 L-9.15,-2.00 L-9.15,2.00 L-9.30,2.00 L-9.30,2.00 L-6.93,2.00 L-6.93,2.00 L-7.78,2.00 L-7.78,2.00 L-8.54,2.00 L-8.54,2.00 L-16.61,2.00 L-16.61,2.00 L-8.28,2.00 L-8.28,1.53 L-1.85,1.53 L-1.85,0.80 L7.74,0.80 L7.74,0.39 L-0.61,0.39 L-0.61,2.00 L-10.17,2.00 L-10.17,2.00 L-15.22,2.00 L-15.22,-2.00 L-20.39,-2.00 L-20.39,-0.31 L-15.65,-0.31 L-15.65,-2.00 L-21.41,-2.00 L-21.41,-2.00 L-31.37,-2.00 L-31.37,2.00 L-32.81,2.00 L-32.81,2.00 L-35.61,2.00 L-35.61,-2.00" /></g><g transform="translate(0.00, 6.00) translate(0.00, 6.00) translate(0.00, 6.00) translate(0.00, 6.00) translate(0.00, 6.00) translate(0.00, 6.00) translate(0.00, 6.00) translate(0.00, 6.00) translate(0.00, 6.00)"><path stroke="rgb(0.00, 0.00, 0.00)" stroke-width="0.5" stroke-linecap="butt" stroke-linejoin="miter" fill="none" d="M0.00,0.00 L5.28,0.00 L5.28,2.00 L11.78,2.00 L11.78,-2.00 L6.13,-2.00 L6.13,-2.00 L7.22,-2.00 L7.22,-1.92 L5.87,-1.92 L5.87,2.00 L-0.51,2.00 L-0.51,2.00 L4.37,2.00 L4.37,-2.00 L-4.28,-2.00 L-4.28,1.48 L4.58,1.48 L4.58,2.00 L5.53,2.00 L5.53,-2.00 L-2.68,-2.00 L-2.68,-2.00 L-0.31,-2.00 L-0.31,-2.00 L3.92,-2.00 L3.92,2.00 L-2.22,2.00 L-2.22,-2.00 L7.48,-2.00 L7.48,-2.00 L15.15,-2.00 L15.15,-2.00 L14.64,-2.00 L14.64,-2.00 L5.23,-2.00 L5.23,2.00 L-0.26,2.00 L-0.26,2.00 L8.75,2.00 L8.75,-2.00 L0.45,-2.00 L0.45,-2.00 L-5.64,-2.00 L-5.64,-2.00 L-9.57,-2.00 L-9.57,-2.00 L-4.55,-2.00 L-4.55,-2.00 L2.72,-2.00 L2.72,0.63 L11.39,0.63 L11.39,-2.00 L17.24,-2.00 L17.24,-2.00 L14.35,-2.00 L14.35,2.00 L22.78,2.00 L22.78,2.00 L21.20,2.00 L21.20,-0.38 L13.81,-0.38 L13.81,2.00 L8.28,2.00 L8.28,-2.00 L14.80,-2.00 L14.80,-0.12 L16.01,-0.12 L16.01,-2.00 L12.50,-2.00 L12.50,2.00 L21.01,2.00 L21.01,2.00 L28.72,2.00 L28.72,-2.00 L30.35,-2.00 L30.35,-1.43 L33.86,-1.43 L33.86,-2.00 L29.51,-2.00 L29.51,-0.15 L36.39,-0.15 L36.39,2.00 L41.36,2.00 L41.36,0.75 L48.82,0.75 L48.82,-1.26 L54.03,-1.26 L54.03,-2.00 L61.30,-2.00 L61.30,-2.00 L67.22,-2.00 L67.22,-2.00 L61.60,-2.00 L61.60,2.00 L57.45,2.00 L57.45,2.00 L50.75,2.00 L50.75,2.00 L42.37,2.00 L42.37,-2.00" /></g><g transform="translate(0.00, 6.00) translate(0.00, 6.00) translate(0.00, 6.00) translate(0.00, 6.00) translate(0.00, 6.00) translate(0.00, 6.00) translate(0.00, 6.00) translate(0.00, 6.00) translate(0.00, 6.00) translate(0.00, 6.00)"><path stroke="rgb(0.00, 0.00, 0.00)" stroke-width="0.5" stroke-linecap="butt" stroke-linejoin="miter" fill="none" d="M0.00,0.00 L7.29,0.00 L7.29,2.00 L-2.51,2.00 L-2.51,-2.00 L4.92,-2.00 L4.92,-2.00 L1.22,-2.00 L1.22,-2.00 L3.90,-2.00 L3.90,-2.00 L-2.28,-2.00 L-2.28,-2.00 L-10.54,-2.00 L-10.54,-2.00 L-17.52,-2.00 L-17.52,0.69 L-16.65,0.69 L-16.65,2.00 L-16.64,2.00 L-16.64,2.00 L-17.96,2.00 L-17.96,2.00 L-17.57,2.00 L-17.57,0.85 L-16.24,0.85 L-16.24,2.00 L-14.25,2.00 L-14.25,2.00 L-7.07,2.00 L-7.07,-2.00 L-9.81,-2.00 L-9.81,-2.00 L-10.85,-2.00 L-10.85,-2.00 L-14.53,-2.00 L-14.53,0.37 L-9.65,0.37 L-9.65,-2.00 L-11.29,-2.00 L-11.29,1.48 L-10.19,1.48 L-10.19,-2.00 L-14.28,-2.00 L-14.28,-2.00 L-19.21,-2.00 L-19.21,2.00 L-21.86,2.00 L-21.86,-0.30 L-15.58,-0.30 L-15.58,-2.00 L-12.97,-2.00 L-12.97,-2.00 L-5.40,-2.00 L-5.40,-0.88 L-8.58,-0.88 L-8.58,2.00 L-9.28,2.00 L-9.28,-2.00 L-18.38,-2.00 L-18.38,-2.00 L-20.80,-2.00 L-20.80,-2.00 L-29.27,-2.00 L-29.27,-2.00 L-25.61,-2.00 L-25.61,1.64 L-22.40,1.64 L-22.40,2.00 L-17.43,2.00 L-17.43,2.00 L-16.96,2.00 L-16.96,-0.14 L-23.97,-0.14 L-23.97,-2.00 L-22.10,-2.00 L-22.10,2.00 L-25.72,2.00 L-25.72,2.00 L-20.62,2.00 L-20.62,2.00 L-25.79,2.00 L-25.79,-2.00 L-30.14,-2.00 L-30.14,-0.66 L-31.60,-0.66 L-31.60,2.00 L-35.19,2.00 L-35.19,2.00 L-32.68,2.00 L-32.68,2.00 L-29.94,2.00 L-29.94,-2.00 L-23.29,-2.00 L-23.29,-2.00 L-26.06,-2.00 L-26.06,-2.00 L-35.56,-2.00 L-35.56,-2.00 L-39.70,-2.00 L-39.70,-2.00" /></g><g transform="translate(0.00, 6.00) translate(0.00, 6.00) translate(0.00, 6.00) translate(0.00, 6.00) translate(0.00, 6.00) translate(0.00, 6.00) translate(0.00, 6.00) translate(0.00, 6.00) translate(0.00, 6.00) translate(0.00, 6.00) translate(0.00, 6.00)"><path stroke="rgb(0.00, 0.00, 0.00)" stroke-width="0.5" stroke-linecap="butt" stroke-linejoin="miter" fill="none" d="M0.00,0.00 L0.98,0.00 L0.98,-2.00 L6.08,-2.00 L6.08,2.00 L2.99,2.00 L2.99,2.00 L11.76,2.00 L11.76,2.00 L1.99,2.00 L1.99,-2.00 L4.71,-2.00 L4.71,-2.00 L-0.63,-2.00 L-0.63,-1.17 L7.89,-1.17 L7.89,-0.24 L5.69,-0.24 L5.69,-2.00 L1.63,-2.00 L1.63,1.90 L5.23,1.90 L5.23,2.00 L6.43,2.00 L6.43,2.00 L13.12,2.00 L13.12,-1.73 L17.46,-1.73 L17.46,-2.00 L7.67,-2.00 L7.67,2.00 L7.91,2.00 L7.91,2.00 L5.26,2.00 L5.26,2.00 L11.54,2.00 L11.54,0.58 L9.12,0.58 L9.12,2.00 L13.16,2.00 L13.16,2.00 L22.70,2.00 L22.70,-2.00 L27.25,-2.00 L27.25,-2.00 L25.94,-2.00 L25.94,-0.48 L28.76,-0.48 L28.76,-0.11 L35.68,-0.11 L35.68,2.00 L30.52,2.00 L30.52,2.00 L27.79,2.00 L27.79,1.97 L22.74,1.97 L22.74,2.00 L15.33,2.00 L15.33,2.00 L16.60,2.00 L16.60,2.00 L22.87,2.00 L22.87,-0.62 L30.45,-0.62 L30.45,-2.00 L37.05,-2.00 L37.05,-1.96 L27.56,-1.96 L27.56,-0.61 L31.65,-0.61 L31.65,2.00 L33.68,2.00 L33.68,-2.00 L35.28,-2.00 L35.28,-1.56 L44.52,-1.56 L44.52,2.00 L39.41,2.00 L39.41,-2.00 L48.45,-2.00 L48.45,-2.00 L53.36,-2.00 L53.36,-2.00 L55.86,-2.00 L55.86,2.00 L48.68,2.00 L48.68,2.00 L43.60,2.00 L43.60,2.00 L47.76,2.00 L47.76,-2.00 L46.75,-2.00 L46.75,-2.00 L42.90,-2.00 L42.90,-2.00 L37.12,-2.00 L37.12,0.78 L45.11,0.78 L45.11,-1.00 L42.19,-1.00 L42.19,-2.00" /></g><g transform="translate(0.00, 6.00) translate(0.00, 6.00) translate(0.00, 6.00) translate(0.00, 6.00) translate(0.00, 6.00) translate(0.00, 6.00) translate(0.00, 6.00) translate(0.00, 6.00) translate(0.00, 6.00) translate(0.00, 6.00) translate(0.00, 6.00) translate(0.00, 6.00)"><path stroke="rgb(0.00, 0.00, 0.00)" stroke-width="0.5" stroke-linecap="butt" stroke-linejoin="miter" fill="none" d="M0.00,0.00 L1.45,0.00 L1.45,-0.25 L-3.87,-0.25 L-3.87,2.00 L-10.10,2.00 L-10.10,-1.89 L-2.73,-1.89 L-2.73,2.00 L-1.95,2.00 L-1.95,2.00 L-10.62,2.00 L-10.62,-0.07 L-4.82,-0.07 L-4.82,-2.00 L-7.01,-2.00 L-7.01,2.00 L-16.18,2.00 L-16.18,-2.00 L-15.90,-2.00 L-15.90,-2.00 L-24.29,-2.00 L-24.29,-2.00 L-17.02,-2.00 L-17.02,1.80 L-20.58,1.80 L-20.58,2.00 L-12.53,2.00 L-12.53,-2.00 L-22.10,-2.00 L-22.10,2.00 L-15.54,2.00 L-15.54,2.00 L-6.40,2.00 L-6.40,2.00 L-9.95,2.00 L-9.95,2.00 L-17.20,2.00 L-17.20,-2.00 L-17.93,-2.00 L-17.93,-2.00 L-20.95,-2.00 L-20.95,-2.00 L-12.69,-2.00 L-12.69,-2.00 L-12.23,-2.00 L-12.23,2.00 L-6.89,2.00 L-6.89,-1.07 L-4.35,-1.07 L-4.35,-2.00 L3.05,-2.00 L3.05,-2.00 L-1.90,-2.00 L-1.90,-0.49 L0.37,-0.49 L0.37,-2.00 L9.36,-2.00 L9.36,-2.00 L10.38,-2.00 L10.38,1.94 L13.72,1.94 L13.72,2.00 L18.78,2.00 L18.78,2.00 L22.81,2.00 L22.81,2.00 L28.69,2.00 L28.69,2.00 L38.10,2.00 L38.10,2.00 L31.67,2.00 L31.67,-2.00 L32.35,-2.00 L32.35,-2.00 L34.67,-2.00 L34.67,-2.00 L39.47,-2.00 L39.47,-2.00 L29.72,-2.00 L29.72,-1.88 L36.87,-1.88 L36.87,-2.00 L37.69,-2.00 L37.69,-2.00 L47.28,-2.00 L47.28,1.87 L49.25,1.87 L49.25,2.00 L54.78,2.00 L54.78,2.00 L59.07,2.00 L59.07,2.00 L61.46,2.00 L61.46,2.00 L68.58,2.00 L68.58,2.00 L62.81,2.00 L62.81,2.00 L53.76,2.00 L53.76,2.00" /></g><g transform="translate(0.00, 6.00) translate(0.00, 6.00) translate(0.00, 6.00) translate(0.00, 6.00) translate(0.00, 6.00) translate(0.00, 6.00) translate(0.00, 6.00) translate(0.00, 6.00) translate(0.00, 6.00) translate(0.00, 6.00) translate(0.00, 6.00) translate(0.00, 6.00) translate(0.00, 6.00)"><path stroke="rgb(0.00, 0.00, 0.00)" stroke-width="0.5" stroke-linecap="butt" stroke-linejoin="miter" fill="none" d="M0.00,0.00 L6.44,0.00 L6.44,2.00 L6.75,2.00 L6.75,2.00 L3.70,2.00 L3.70,2.00 L2.02,2.00 L2.02,-2.00 L-4.72,-2.00 L-4.72,2.00 L-10.46,2.00 L-10.46,-2.00 L-1.87,-2.00 L-1.87,-0.07 L-3.82,-0.07 L-3.82,-2.00 L-5.32,-2.00 L-5.32,2.00 L-0.51,2.00 L-0.51,-1.52 L1.19,-1.52 L1.19,2.00 L-0.85,2.00 L-0.85,-2.00 L7.66,-2.00 L7.66,1.81 L9.07,1.81 L9.07,-2.00 L10.59,-2.00 L10.59,2.00 L18.95,2.00 L18.95,2.00 L10.77,2.00 L10.77,2.00 L11.62,2.00 L11.62,-2.00 L15.42,-2.00 L15.42,2.00 L15.80,2.00 L15.80,-2.00 L19.06,-2.00 L19.06,-2.00 L14.64,-2.00 L14.64,2.00 L9.96,2.00 L9.96,-2.00 L14.45,-2.00 L14.45,-2.00 L9.66,-2.00 L9.66,0.12 L5.02,0.12 L5.02,-2.00 L12.05,-2.00 L12.05,-2.00 L16.90,-2.00 L16.90,2.00 L14.25,2.00 L14.25,1.21 L16.24,1.21 L16.24,-2.00 L13.29,-2.00 L13.29,-1.32 L5.70,-1.32 L5.70,-2.00 L11.54,-2.00 L11.54,-1.55 L13.62,-1.55 L13.62,-2.00 L21.76,-2.00 L21.76,2.00 L29.22,2.00 L29.22,2.00 L27.20,2.00 L27.20,-0.28 L18.07,-0.28 L18.07,-2.00 L18.52,-2.00 L18.52,-2.00 L25.02,-2.00 L25.02,-2.00 L30.59,-2.00 L30.59,2.00 L40.20,2.00 L40.20,-2.00 L47.20,-2.00 L47.20,0.72 L37.84,0.72 L37.84,-1.54 L41.12,-1.54 L41.12,2.00 L35.98,2.00 L35.98,-2.00 L38.58,-2.00 L38.58,-2.00 L46.42,-2.00 L46.42,-2.00 L50.00,-2.00 L50.00,-2.00 L47.04,-2.00 L47.04,-1.31" /></g><g transform="translate(0.00, 6.00) translate(0.00, 6.00) translate(0.00, 6.00) translate(0.00, 6.00) translate(0.00, 6.00) translate(0.00, 6.00) translate(0.00, 6.00) translate(0.00, 6.00) translate(0.00, 6.00) translate(0.00, 6.00) translate(0.00, 6.00) translate(0.00, 6.00) translate(0.00, 6.00) translate(0.00, 6.00)"><path stroke="rgb(0.00, 0.00, 0.00)" stroke-width="0.5" stroke-linecap="butt" stroke-linejoin="miter" fill="none" d="M0.00,0.00 L8.43,0.00 L8.43,2.00 L0.46,2.00 L0.46,2.00 L5.53,2.00 L5.53,-2.00 L-2.78,-2.00 L-2.78,-2.00 L-8.55,-2.00 L-8.55,-2.00 L-5.45,-2.00 L-5.45,-2.00 L-4.00,-2.00 L-4.00,2.00 L-8.88,2.00 L-8.88,2.00 L-2.66,2.00 L-2.66,1.14 L0.50,1.14 L0.50,2.00 L-6.18,2.00 L-6.18,-2.00 L-3.82,-2.00 L-3.82,-2.00 L-11.58,-2.00 L-11.58,-0.98 L-10.05,-0.98 L-10.05,-2.00 L-6.94,-2.00 L-6.94,2.00 L-15.13,2.00 L-15.13,-1.60 L-21.84,-1.60 L-21.84,-2.00 L-13.22,-2.00 L-13.22,0.54 L-4.07,0.54 L-4.07,-2.00 L-1.14,-2.00 L-1.14,0.24 L-9.66,0.24 L-9.66,2.00 L-17.05,2.00 L-17.05,2.00 L-14.48,2.00 L-14.48,-1.75 L-8.65,-1.75 L-8.65,-2.00 L-3.49,-2.00 L-3.49,2.00 L-13.03,2.00 L-13.03,-0.30 L-10.84,-0.30 L-10.84,1.27 L-16.45,1.27 L-16.45,-2.00 L-8.67,-2.00 L-8.67,-2.00 L-1.26,-2.00 L-1.26,-2.00 L-3.51,-2.00 L-3.51,0.72 L-4.13,0.72 L-4.13,0.90 L0.51,0.90 L0.51,2.00 L3.69,2.00 L3.69,-2.00 L6.47,-2.00 L6.47,2.00 L13.11,2.00 L13.11,1.74 L14.97,1.74 L14.97,-1.23 L23.79,-1.23 L23.79,2.00 L15.75,2.00 L15.75,2.00 L11.18,2.00 L11.18,0.72 L5.05,0.72 L5.05,2.00 L4.98,2.00 L4.98,2.00 L-3.64,2.00 L-3.64,2.00 L-1.00,2.00 L-1.00,-1.07 L5.59,-1.07 L5.59,-2.00 L-4.16,-2.00 L-4.16,-2.00 L-6.71,-2.00 L-6.71,1.53 L-11.75,1.53 L-11.75,-2.00 L-18.90,-2.00 L-18.90,-2.00 L-27.19,-2.00 L-27.19,2.00" /></g><g transform="translate(0.00, 6.00) translate(0.00, 6.00) translate(0.00, 6.00) translate(0.00, 6.00) translate(0.00, 6.00) translate(0.00, 6.00) translate(0.00, 6.00) translate(0.00, 6.00) translate(0.00, 6.00) translate(0.00, 6.00) translate(0.00, 6.00) translate(0.00, 6.00) translate(0.00, 6.00) translate(0.00, 6.00) translate(0.00, 6.00)"><path stroke="rgb(0.00, 0.00, 0.00)" stroke-width="0.5" stroke-linecap="butt" stroke-linejoin="miter" fill="none" d="M0.00,0.00 L8.73,0.00 L8.73,-2.00 L4.98,-2.00 L4.98,-2.00 L13.00,-2.00 L13.00,-2.00 L17.55,-2.00 L17.55,1.22 L18.45,1.22 L18.45,2.00 L19.75,2.00 L19.75,2.00 L27.76,2.00 L27.76,2.00 L24.74,2.00 L24.74,-2.00 L24.87,-2.00 L24.87,2.00 L18.05,2.00 L18.05,2.00 L15.63,2.00 L15.63,-0.32 L10.24,-0.32 L10.24,2.00 L8.62,2.00 L8.62,2.00 L4.12,2.00 L4.12,2.00 L1.91,2.00 L1.91,2.00 L-5.54,2.00 L-5.54,2.00 L-3.49,2.00 L-3.49,2.00 L-2.38,2.00 L-2.38,-2.00 L4.96,-2.00 L4.96,-1.97 L13.52,-1.97 L13.52,-2.00 L9.00,-2.00 L9.00,1.68 L17.26,1.68 L17.26,2.00 L23.80,2.00 L23.80,2.00 L27.83,2.00 L27.83,-2.00 L36.16,-2.00 L36.16,2.00 L36.38,2.00 L36.38,2.00 L40.46,2.00 L40.46,2.00 L46.18,2.00 L46.18,1.40 L37.28,1.40 L37.28,2.00 L33.58,2.00 L33.58,2.00 L42.06,2.00 L42.06,-1.96 L49.80,-1.96 L49.80,-2.00 L45.05,-2.00 L45.05,-2.00 L35.99,-2.00 L35.99,2.00 L43.24,2.00 L43.24,-2.00 L51.20,-2.00 L51.20,1.06 L48.82,1.06 L48.82,2.00 L49.25,2.00 L49.25,2.00 L46.64,2.00 L46.64,2.00 L48.60,2.00 L48.60,-2.00 L49.25,-2.00 L49.25,-2.00 L51.24,-2.00 L51.24,2.00 L49.99,2.00 L49.99,-2.00 L44.39,-2.00 L44.39,2.00 L41.08,2.00 L41.08,2.00 L37.68,2.00 L37.68,2.00 L44.74,2.00 L44.74,-2.00 L39.29,-2.00 L39.29,2.00 L48.85,2.00 L48.85,-2.00 L56.68,-2.00 L56.68,2.00" /></g><g transform="translate(0.00, 6.00) translate(0.00, 6.00) translate(0.00, 6.00) translate(0.00, 6.00) translate(0.00, 6.00) translate(0.00, 6.00) translate(0.00, 6.00) translate(0.00, 6.00) translate(0.00, 6.00) translate(0.00, 6.00) translate(0.00, 6.00) translate(0.00, 6.00) translate(0.00, 6.00) translate(0.00, 6.00) translate(0.00, 6.00) translate(0.00, 6.00)"><path stroke="rgb(0.00, 0.00, 0.00)" stroke-width="0.5" stroke-linecap="butt" stroke-linejoin="miter" fill="none" d="M0.00,0.00 L-6.10,0.00 L-6.10,-2.00 L-3.64,-2.00 L-3.64,-0.43 L-13.30,-0.43 L-13.30,-2.00 L-8.98,-2.00 L-8.98,-2.00 L-15.68,-2.00 L-15.68,-2.00 L-21.84,-2.00 L-21.84,2.00 L-27.04,2.00 L-27.04,2.00 L-18.20,2.00 L-18.20,2.00 L-19.22,2.00 L-19.22,-1.61 L-26.06,-1.61 L-26.06,-2.00 L-22.23,-2.00 L-22.23,-0.43 L-27.55,-0.43 L-27.55,-2.00 L-32.42,-2.00 L-32.42,2.00 L-30.69,2.00 L-30.69,2.00 L-34.00,2.00 L-34.00,1.25 L-28.84,1.25 L-28.84,-2.00 L-30.73,-2.00 L-30.73,2.00 L-27.99,2.00 L-27.99,-2.00 L-33.21,-2.00 L-33.21,-2.00 L-36.66,-2.00 L-36.66,-2.00 L-31.63,-2.00 L-31.63,1.60 L-25.54,1.60 L-25.54,2.00 L-33.54,2.00 L-33.54,2.00 L-27.78,2.00 L-27.78,2.00 L-28.96,2.00 L-28.96,2.00 L-21.60,2.00 L-21.60,-2.00 L-25.93,-2.00 L-25.93,-0.95 L-30.60,-0.95 L-30.60,2.00 L-33.85,2.00 L-33.85,2.00 L-27.79,2.00 L-27.79,-2.00 L-28.51,-2.00 L-28.51,-2.00 L-20.15,-2.00 L-20.15,2.00 L-11.29,2.00 L-11.29,2.00 L-12.19,2.00 L-12.19,2.00 L-19.38,2.00 L-19.38,-2.00 L-23.85,-2.00 L-23.85,2.00 L-19.12,2.00 L-19.12,-2.00 L-29.05,-2.00 L-29.05,2.00 L-26.16,2.00 L-26.16,2.00 L-26.86,2.00 L-26.86,-0.51 L-33.04,-0.51 L-33.04,-0.04 L-35.85,-0.04 L-35.85,2.00 L-33.41,2.00 L-33.41,2.00 L-33.66,2.00 L-33.66,1.39 L-41.32,1.39 L-41.32,-2.00 L-32.18,-2.00 L-32.18,-2.00 L-36.66,-2.00 L-36.66,-2.00 L-27.99,-2.00 L-27.99,2.00 L-35.52,2.00 L-35.52,0.95 L-42.50,0.95 L-42.50,-2.00" /></g><g transform="translate(0.00, 6.00) translate(0.00, 6.00) translate(0.00, 6.00) translate(0.00, 6.00) translate(0.00, 6.00) translate(0.00, 6.00) translate(0.00, 6.00) translate(0.00, 6.00) translate(0.00, 6.00) translate(0.00, 6.00) translate(0.00, 6.00) translate(0.00, 6.00) translate(0.00, 6.00) translate(0.00, 6.00) translate(0.00, 6.00) translate(0.00, 6.00) translate(0.00, 6.00)"><path stroke="rgb(0.00, 0.00, 0.00)" stroke-width="0.5" stroke-linecap="butt" stroke-linejoin="miter" fill="none" d="M0.00,0.00 L-7.41,0.00 L-7.41,-2.00 L-4.47,-2.00 L-4.47,2.00 L-8.91,2.00 L-8.91,-2.00 L-11.26,-2.00 L-11.26,-2.00 L-4.64,-2.00 L-4.64,-2.00 L-3.52,-2.00 L-3.52,2.00 L-8.54,2.00 L-8.54,-0.65 L-4.83,-0.65 L-4.83,-2.00 L-12.37,-2.00 L-12.37,1.37 L-6.65,1.37 L-6.65,-1.95 L-14.60,-1.95 L-14.60,2.00 L-10.88,2.00 L-10.88,0.26 L-7.48,0.26 L-7.48,2.00 L-3.94,2.00 L-3.94,2.00 L-11.41,2.00 L-11.41,2.00 L-17.76,2.00 L-17.76,2.00 L-11.68,2.00 L-11.68,2.00 L-21.45,2.00 L-21.45,2.00 L-28.81,2.00 L-28.81,2.00 L-28.39,2.00 L-28.39,-2.00 L-24.33,-2.00 L-24.33,-2.00 L-25.15,-2.00 L-25.15,-2.00 L-22.01,-2.00 L-22.01,1.39 L-15.19,1.39 L-15.19,-0.06 L-5.62,-0.06 L-5.62,0.21 L-8.94,0.21 L-8.94,-2.00 L-11.91,-2.00 L-11.91,2.00 L-4.76,2.00 L-4.76,2.00 L2.28,2.00 L2.28,2.00 L-7.58,2.00 L-7.58,1.06 L-0.59,1.06 L-0.59,2.00 L-4.83,2.00 L-4.83,2.00 L0.56,2.00 L0.56,2.00 L0.79,2.00 L0.79,0.10 L0.00,0.10 L0.00,2.00 L3.50,2.00 L3.50,2.00 L11.43,2.00 L11.43,2.00 L11.07,2.00 L11.07,2.00 L5.70,2.00 L5.70,-2.00 L11.83,-2.00 L11.83,-2.00 L19.24,-2.00 L19.24,0.21 L10.73,0.21 L10.73,1.37 L1.51,1.37 L1.51,2.00 L9.28,2.00 L9.28,2.00 L12.19,2.00 L12.19,-2.00 L21.12,-2.00 L21.12,-2.00 L23.22,-2.00 L23.22,-2.00 L23.13,-2.00 L23.13,-2.00 L19.94,-2.00 L19.94,2.00 L21.77,2.00 L21.77,-2.00" /></g><g transform="translate(0.00, 6.00) translate(0.00, 6.00) translate(0.00, 6.00) translate(0.00, 6.00) translate(0.00, 6.00) translate(0.00, 6.00) translate(0.00, 6.00) translate(0.00, 6.00) translate(0.00, 6.00) translate(0.00, 6.00) translate(0.00, 6.00) translate(0.00, 6.00) translate(0.00, 6.00) translate(0.00, 6.00) translate(0.00, 6.00) translate(0.00, 6.00) translate(0.00, 6.00) translate(0.00, 6.00)"><path stroke="rgb(0.00, 0.00, 0.00)" stroke-width="0.5" stroke-linecap="butt" stroke-linejoin="miter" fill="none" d="M0.00,0.00 L-6.37,0.00 L-6.37,2.00 L-0.50,2.00 L-0.50,2.00 L1.37,2.00 L1.37,2.00 L-8.38,2.00 L-8.38,-2.00 L-4.69,-2.00 L-4.69,-2.00 L-13.27,-2.00 L-13.27,-2.00 L-20.22,-2.00 L-20.22,-2.00 L-27.86,-2.00 L-27.86,2.00 L-32.54,2.00 L-32.54,0.46 L-31.66,0.46 L-31.66,-2.00 L-31.66,-2.00 L-31.66,-2.00 L-37.44,-2.00 L-37.44,2.00 L-38.48,2.00 L-38.48,-1.84 L-41.81,-1.84 L-41.81,-1.86 L-34.79,-1.86 L-34.79,-2.00 L-36.45,-2.00 L-36.45,2.00 L-41.20,2.00 L-41.20,-1.64 L-44.67,-1.64 L-44.67,-2.00 L-45.16,-2.00 L-45.16,-2.00 L-52.16,-2.00 L-52.16,-2.00 L-58.09,-2.00 L-58.09,-2.00 L-54.63,-2.00 L-54.63,-2.00 L-55.19,-2.00 L-55.19,-2.00 L-48.68,-2.00 L-48.68,2.00 L-50.11,2.00 L-50.11,2.00 L-40.94,2.00 L-40.94,2.00 L-43.09,2.00 L-43.09,-2.00 L-48.33,-2.00 L-48.33,2.00 L-48.80,2.00 L-48.80,2.00 L-49.48,2.00 L-49.48,1.97 L-59.15,1.97 L-59.15,2.00 L-56.08,2.00 L-56.08,-2.00 L-62.57,-2.00 L-62.57,-2.00 L-59.12,-2.00 L-59.12,2.00 L-62.42,2.00 L-62.42,0.04 L-70.95,0.04 L-70.95,-2.00 L-78.03,-2.00 L-78.03,-1.08 L-84.90,-1.08 L-84.90,-0.36 L-75.52,-0.36 L-75.52,2.00 L-67.10,2.00 L-67.10,2.00 L-60.71,2.00 L-60.71,-2.00 L-55.47,-2.00 L-55.47,-1.64 L-50.81,-1.64 L-50.81,2.00 L-53.01,2.00 L-53.01,2.00 L-59.01,2.00 L-59.01,1.09 L-66.03,1.09 L-66.03,1.78 L-65.14,1.78 L-65.14,2.00 L-61.47,2.00 L-61.47,2.00 L-52.72,2.00 L-52.72,1.90 L-58.95,1.90 L-58.95,-2.00" /></g><g transform="translate(0.00, 6.00) translate(0.00, 6.00) translate(0.00, 6.00) translate(0.00, 6.00) translate(0.00, 6.00) translate(0.00, 6.00) translate(0.00, 6.00) translate(0.00, 6.00) translate(0.00, 6.00) translate(0.00, 6.00) translate(0.00, 6.00) translate(0.00, 6.00) translate(0.00, 6.00) translate(0.00, 6.00) translate(0.00, 6.00) translate(0.00, 6.00) translate(0.00, 6.00) translate(0.00, 6.00) translate(0.00, 6.00)"><path stroke="rgb(0.00, 0.00, 0.00)" stroke-width="0.5" stroke-linecap="butt" stroke-linejoin="miter" fill="none" d="M0.00,0.00 L-2.63,0.00 L-2.63,0.49 L-1.82,0.49 L-1.82,0.83 L0.63,0.83 L0.63,2.00 L-8.35,2.00 L-8.35,-2.00 L-4.85,-2.00 L-4.85,2.00 L-5.50,2.00 L-5.50,2.00 L-1.04,2.00 L-1.04,2.00 L6.01,2.00 L6.01,1.80 L13.28,1.80 L13.28,-2.00 L11.20,-2.00 L11.20,-2.00 L10.09,-2.00 L10.09,2.00 L9.40,2.00 L9.40,-2.00 L10.53,-2.00 L10.53,2.00 L11.17,2.00 L11.17,2.00 L8.32,2.00 L8.32,-2.00 L2.21,-2.00 L2.21,-2.00 L1.06,-2.00 L1.06,2.00 L-7.11,2.00 L-7.11,-2.00 L-5.72,-2.00 L-5.72,2.00 L-6.38,2.00 L-6.38,0.31 L-2.98,0.31 L-2.98,2.00 L-4.17,2.00 L-4.17,1.48 L5.09,1.48 L5.09,-2.00 L-4.21,-2.00 L-4.21,2.00 L-7.80,2.00 L-7.80,-2.00 L-16.20,-2.00 L-16.20,2.00 L-21.18,2.00 L-21.18,-1.15 L-12.91,-1.15 L-12.91,2.00 L-12.56,2.00 L-12.56,-2.00 L-8.52,-2.00 L-8.52,2.00 L-16.94,2.00 L-16.94,-2.00 L-11.49,-2.00 L-11.49,-0.45 L-4.10,-0.45 L-4.10,-2.00 L4.41,-2.00 L4.41,2.00 L-3.07,2.00 L-3.07,-2.00 L3.30,-2.00 L3.30,-2.00 L3.62,-2.00 L3.62,2.00 L13.34,2.00 L13.34,2.00 L13.18,2.00 L13.18,2.00 L18.33,2.00 L18.33,-2.00 L14.18,-2.00 L14.18,2.00 L23.70,2.00 L23.70,2.00 L19.19,2.00 L19.19,2.00 L15.02,2.00 L15.02,0.56 L14.78,0.56 L14.78,-2.00 L6.04,-2.00 L6.04,-2.00 L7.73,-2.00 L7.73,-2.00 L-1.67,-2.00 L-1.67,2.00 L-6.89,2.00 L-6.89,-2.00 L1.71,-2.00 L1.71,2.00" /></g><g transform="translate(0.00, 6.00) translate(0.00, 6.00) translate(0.00, 6.00) translate(0.00, 6.00) translate(0.00, 6.00) translate(0.00, 6.00) translate(0.00, 6.00) translate(0.00, 6.00) translate(0.00, 6.00) translate(0.00, 6.00) translate(0.00, 6.00) translate(0.00, 6.00) translate(0.00, 6.00) translate(0.00, 6.00) translate(0.00, 6.00) translate(0.00, 6.00) translate(0.00, 6.00) translate(0.00, 6.00) translate(0.00, 6.00) translate(0.00, 6.00)"><path stroke="rgb(0.00, 0.00, 0.00)" stroke-width="0.5" stroke-linecap="butt" stroke-linejoin="miter" fill="none" d="M0.00,0.00 L9.68,0.00 L9.68,2.00 L4.00,2.00 L4.00,-2.00 L12.47,-2.00 L12.47,-1.89 L12.41,-1.89 L12.41,2.00 L11.40,2.00 L11.40,2.00 L5.23,2.00 L5.23,-1.29 L13.47,-1.29 L13.47,-2.00 L4.67,-2.00 L4.67,-2.00 L-4.35,-2.00 L-4.35,-2.00 L-5.90,-2.00 L-5.90,-2.00 L-7.91,-2.00 L-7.91,-1.06 L-1.20,-1.06 L-1.20,-0.09 L-0.19,-0.09 L-0.19,2.00 L-2.65,2.00 L-2.65,2.00 L-9.40,2.00 L-9.40,2.00 L-4.61,2.00 L-4.61,2.00 L1.59,2.00 L1.59,-2.00 L-7.05,-2.00 L-7.05,-2.00 L-14.27,-2.00 L-14.27,-2.00 L-7.58,-2.00 L-7.58,2.00 L-12.47,2.00 L-12.47,-1.30 L-5.77,-1.30 L-5.77,-2.00 L0.25,-2.00 L0.25,2.00 L8.01,2.00 L8.01,2.00 L12.91,2.00 L12.91,-0.85 L18.09,-0.85 L18.09,1.63 L8.20,1.63 L8.20,2.00 L9.21,2.00 L9.21,-2.00 L6.17,-2.00 L6.17,-2.00 L16.01,-2.00 L16.01,2.00 L25.28,2.00 L25.28,-2.00 L21.24,-2.00 L21.24,2.00 L14.06,2.00 L14.06,-1.18 L21.63,-1.18 L21.63,-2.00 L21.91,-2.00 L21.91,-2.00 L20.19,-2.00 L20.19,-2.00 L16.70,-2.00 L16.70,-0.06 L16.46,-0.06 L16.46,-0.02 L25.13,-0.02 L25.13,0.58 L34.49,0.58 L34.49,-1.24 L33.27,-1.24 L33.27,-2.00 L26.23,-2.00 L26.23,-2.00 L27.88,-2.00 L27.88,0.19 L28.12,0.19 L28.12,-2.00 L37.80,-2.00 L37.80,-2.00 L38.49,-2.00 L38.49,-2.00 L31.81,-2.00 L31.81,2.00 L22.31,2.00 L22.31,2.00 L15.99,2.00 L15.99,2.00 L14.20,2.00 L14.20,2.00" /></g><g transform="translate(0.00, 6.00) translate(0.00, 6.00) translate(0.00, 6.00) translate(0.00, 6.00) translate(0.00, 6.00) translate(0.00, 6.00) translate(0.00, 6.00) translate(0.00, 6.00) translate(0.00, 6.00) translate(0.00, 6.00) translate(0.00, 6.00) translate(0.00, 6.00) translate(0.00, 6.00) translate(0.00, 6.00) translate(0.00, 6.00) translate(0.00, 6.00) translate(0.00, 6.00) translate(0.00, 6.00) translate(0.00, 6.00) translate(0.00, 6.00) translate(0.00, 6.00)"><path stroke="rgb(0.00, 0.00, 0.00)" stroke-width="0.5" stroke-linecap="butt" stroke-linejoin="miter" fill="none" d="M0.00,0.00 L-9.98,0.00 L-9.98,2.00 L-18.03,2.00 L-18.03,2.00 L-13.06,2.00 L-13.06,2.00 L-19.49,2.00 L-19.49,1.54 L-22.96,1.54 L-22.96,2.00 L-14.72,2.00 L-14.72,2.00 L-12.96,2.00 L-12.96,2.00 L-8.41,2.00 L-8.41,2.00 L-9.38,2.00 L-9.38,2.00 L-1.83,2.00 L-1.83,2.00 L-10.28,2.00 L-10.28,2.00 L-14.34,2.00 L-14.34,-2.00 L-6.77,-2.00 L-6.77,-2.00 L1.00,-2.00 L1.00,1.10 L5.96,1.10 L5.96,-2.00 L-1.20,-2.00 L-1.20,0.37 L-2.61,0.37 L-2.61,2.00 L-12.45,2.00 L-12.45,2.00 L-16.76,2.00 L-16.76,-2.00 L-24.16,-2.00 L-24.16,2.00 L-20.64,2.00 L-20.64,2.00 L-18.69,2.00 L-18.69,2.00 L-26.03,2.00 L-26.03,2.00 L-22.63,2.00 L-22.63,-2.00 L-15.75,-2.00 L-15.75,-2.00 L-16.78,-2.00 L-16.78,2.00 L-19.34,2.00 L-19.34,2.00 L-11.60,2.00 L-11.60,-2.00 L-4.76,-2.00 L-4.76,-2.00 L-12.18,-2.00 L-12.18,-2.00 L-11.45,-2.00 L-11.45,-2.00 L-19.76,-2.00 L-19.76,2.00 L-13.04,2.00 L-13.04,-1.50 L-17.16,-1.50 L-17.16,-2.00 L-16.57,-2.00 L-16.57,2.00 L-13.74,2.00 L-13.74,2.00 L-13.62,2.00 L-13.62,-2.00 L-22.86,-2.00 L-22.86,2.00 L-18.16,2.00 L-18.16,-1.91 L-9.11,-1.91 L-9.11,-2.00 L-8.53,-2.00 L-8.53,-2.00 L-3.01,-2.00 L-3.01,2.00 L-7.37,2.00 L-7.37,-0.72 L-15.75,-0.72 L-15.75,0.50 L-21.15,0.50 L-21.15,-2.00 L-20.58,-2.00 L-20.58,2.00 L-21.31,2.00 L-21.31,2.00 L-20.30,2.00 L-20.30,2.00 L-19.40,2.00 L-19.40,2.00 L-9.60,2.00 L-9.60,2.00" /></g><g transform="translate(0.00, 6.00) translate(0.00, 6.00) translate(0.00, 6.00) translate(0.00, 6.00) translate(0.00, 6.00) translate(0.00, 6.00) translate(0.00, 6.00) translate(0.00, 6.00) translate(0.00, 6.00) translate(0.00, 6.00) translate(0.00, 6.00) translate(0.00, 6.00) translate(0.00, 6.00) translate(0.00, 6.00) translate(0.00, 6.00) translate(0.00, 6.00) translate(0.00, 6.00) translate(0.00, 6.00) translate(0.00, 6.00) translate(0.00, 6.00) translate(0.00, 6.00) translate(0.00, 6.00)"><path stroke="rgb(0.00, 0.00, 0.00)" stroke-width="0.5" stroke-linecap="butt" stroke-linejoin="miter" fill="none" d="M0.00,0.00 L3.25,0.00 L3.25,0.47 L-6.62,0.47 L-6.62,-2.00 L-2.03,-2.00 L-2.03,2.00 L-6.63,2.00 L-6.63,-2.00 L-1.49,-2.00 L-1.49,-2.00 L-2.76,-2.00 L-2.76,2.00 L-3.72,2.00 L-3.72,-2.00 L-7.09,-2.00 L-7.09,-2.00 L-2.11,-2.00 L-2.11,-2.00 L-10.33,-2.00 L-10.33,0.98 L-1.42,0.98 L-1.42,2.00 L0.67,2.00 L0.67,2.00 L-3.62,2.00 L-3.62,0.19 L-5.98,0.19 L-5.98,-2.00 L-1.50,-2.00 L-1.50,-2.00 L-3.88,-2.00 L-3.88,2.00 L0.07,2.00 L0.07,2.00 L-6.01,2.00 L-6.01,0.57 L2.74,0.57 L2.74,-2.00 L2.47,-2.00 L2.47,-2.00 L9.43,-2.00 L9.43,-1.10 L13.03,-1.10 L13.03,2.00 L5.80,2.00 L5.80,2.00 L11.52,2.00 L11.52,2.00 L7.21,2.00 L7.21,-2.00 L12.17,-2.00 L12.17,-0.35 L19.63,-0.35 L19.63,0.71 L25.04,0.71 L25.04,-2.00 L25.03,-2.00 L25.03,1.79 L17.19,1.79 L17.19,-2.00 L10.49,-2.00 L10.49,-2.00 L19.87,-2.00 L19.87,-2.00 L27.31,-2.00 L27.31,2.00 L24.22,2.00 L24.22,2.00 L21.34,2.00 L21.34,-1.82 L15.15,-1.82 L15.15,-0.91 L14.48,-0.91 L14.48,-1.21 L22.73,-1.21 L22.73,-1.08 L13.12,-1.08 L13.12,2.00 L9.23,2.00 L9.23,-0.47 L17.67,-0.47 L17.67,-2.00 L11.67,-2.00 L11.67,1.57 L15.15,1.57 L15.15,-0.14 L10.37,-0.14 L10.37,2.00 L1.88,2.00 L1.88,-2.00 L-1.81,-2.00 L-1.81,2.00 L-2.99,2.00 L-2.99,-2.00 L-12.35,-2.00 L-12.35,2.00 L-5.85,2.00 L-5.85,2.00 L2.25,2.00 L2.25,-2.00" /></g><g transform="translate(0.00, 6.00) translate(0.00, 6.00) translate(0.00, 6.00) translate(0.00, 6.00) translate(0.00, 6.00) translate(0.00, 6.00) translate(0.00, 6.00) translate(0.00, 6.00) translate(0.00, 6.00) translate(0.00, 6.00) translate(0.00, 6.00) translate(0.00, 6.00) translate(0.00, 6.00) translate(0.00, 6.00) translate(0.00, 6.00) translate(0.00, 6.00) translate(0.00, 6.00) translate(0.00, 6.00) translate(0.00, 6.00) translate(0.00, 6.00) translate(0.00, 6.00) translate(0.00, 6.00) translate(0.00, 6.00)"><path stroke="rgb(0.00, 0.00, 0.00)" stroke-width="0.5" stroke-linecap="butt" stroke-linejoin="miter" fill="none" d="M0.00,0.00 L2.90,0.00 L2.90,0.18 L1.75,0.18 L1.75,2.00 L5.87,2.00 L5.87,-2.00 L9.07,-2.00 L9.07,2.00 L9.21,2.00 L9.21,-2.00 L0.05,-2.00 L0.05,-2.00 L-7.60,-2.00 L-7.60,-2.00 L-10.54,-2.00 L-10.54,0.62 L-7.66,0.62 L-7.66,-2.00 L-3.07,-2.00 L-3.07,2.00 L-4.54,2.00 L-4.54,-1.44 L-3.65,-1.44 L-3.65,-2.00 L-8.31,-2.00 L-8.31,-2.00 L1.65,-2.00 L1.65,-2.00 L10.02,-2.00 L10.02,-2.00 L11.28,-2.00 L11.28,-2.00 L7.16,-2.00 L7.16,-2.00 L14.17,-2.00 L14.17,2.00 L21.75,2.00 L21.75,-2.00 L18.94,-2.00 L18.94,2.00 L24.15,2.00 L24.15,-0.17 L32.22,-0.17 L32.22,2.00 L39.78,2.00 L39.78,-1.94 L30.38,-1.94 L30.38,-2.00 L21.41,-2.00 L21.41,-2.00 L26.45,-2.00 L26.45,-2.00 L20.22,-2.00 L20.22,-2.00 L14.70,-2.00 L14.70,2.00 L18.92,2.00 L18.92,2.00 L14.24,2.00 L14.24,-2.00 L18.13,-2.00 L18.13,-2.00 L8.73,-2.00 L8.73,1.38 L8.11,1.38 L8.11,2.00 L1.19,2.00 L1.19,2.00 L10.47,2.00 L10.47,-2.00 L8.72,-2.00 L8.72,-2.00 L18.19,-2.00 L18.19,1.00 L25.92,1.00 L25.92,1.48 L35.85,1.48 L35.85,-0.11 L34.11,-0.11 L34.11,2.00 L25.09,2.00 L25.09,0.64 L15.19,0.64 L15.19,-2.00 L12.91,-2.00 L12.91,-0.41 L16.48,-0.41 L16.48,2.00 L14.34,2.00 L14.34,2.00 L16.01,2.00 L16.01,2.00 L8.41,2.00 L8.41,-2.00 L-0.14,-2.00 L-0.14,-2.00 L5.29,-2.00 L5.29,-0.55 L10.61,-0.55 L10.61,-1.31" /></g><g transform="translate(0.00, 6.00) translate(0.00, 6.00) translate(0.00, 6.00) translate(0.00, 6.00) translate(0.00, 6.00) translate(0.00, 6.00) translate(0.00, 6.00) translate(0.00, 6.00) translate(0.00, 6.00) translate(0.00, 6.00) translate(0.00, 6.00) translate(0.00, 6.00) translate(0.00, 6.00) translate(0.00, 6.00) translate(0.00, 6.00) translate(0.00, 6.00) translate(0.00, 6.00) translate(0.00, 6.00) translate(0.00, 6.00) translate(0.00, 6.00) translate(0.00, 6.00) translate(0.00, 6.00) translate(0.00, 6.00) translate(0.00, 6.00)"><path stroke="rgb(0.00, 0.00, 0.00)" stroke-width="0.5" stroke-linecap="butt" stroke-linejoin="miter" fill="none" d="M0.00,0.00 L9.23,0.00 L9.23,2.00 L4.93,2.00 L4.93,2.00 L12.45,2.00 L12.45,-1.44 L10.20,-1.44 L10.20,2.00 L16.68,2.00 L16.68,2.00 L9.31,2.00 L9.31,-1.79 L11.33,-1.79 L11.33,-2.00 L12.69,-2.00 L12.69,-2.00 L8.15,-2.00 L8.15,-2.00 L17.92,-2.00 L17.92,2.00 L12.57,2.00 L12.57,-2.00 L9.67,-2.00 L9.67,2.00 L2.12,2.00 L2.12,1.26 L-3.02,1.26 L-3.02,-2.00 L-1.01,-2.00 L-1.01,2.00 L-1.97,2.00 L-1.97,-2.00 L2.57,-2.00 L2.57,2.00 L4.12,2.00 L4.12,2.00 L-0.06,2.00 L-0.06,2.00 L-4.10,2.00 L-4.10,-2.00 L3.29,-2.00 L3.29,-2.00 L-2.13,-2.00 L-2.13,-0.01 L-1.35,-0.01 L-1.35,-2.00 L-9.77,-2.00 L-9.77,-2.00 L-8.27,-2.00 L-8.27,0.37 L-4.57,0.37 L-4.57,-2.00 L-3.13,-2.00 L-3.13,2.00 L-0.27,2.00 L-0.27,2.00 L6.60,2.00 L6.60,-2.00 L0.19,-2.00 L0.19,-2.00 L7.91,-2.00 L7.91,-2.00 L7.35,-2.00 L7.35,2.00 L15.22,2.00 L15.22,2.00 L10.83,2.00 L10.83,-2.00 L17.04,-2.00 L17.04,-2.00 L26.37,-2.00 L26.37,-2.00 L21.38,-2.00 L21.38,-2.00 L25.24,-2.00 L25.24,-2.00 L34.86,-2.00 L34.86,-2.00 L40.34,-2.00 L40.34,-2.00 L37.05,-2.00 L37.05,-2.00 L38.75,-2.00 L38.75,2.00 L45.61,2.00 L45.61,2.00 L49.78,2.00 L49.78,-2.00 L51.13,-2.00 L51.13,-1.77 L49.63,-1.77 L49.63,-2.00 L58.35,-2.00 L58.35,-2.00 L54.53,-2.00 L54.53,-2.00 L61.60,-2.00 L61.60,2.00 L59.38,2.00 L59.38,-2.00" /></g><g transform="translate(0.00, 6.00) translate(0.00, 6.00) translate(0.00, 6.00) translate(0.00, 6.00) translate(0.00, 6.00) translate(0.00, 6.00) translate(0.00, 6.00) translate(0.00, 6.00) translate(0.00, 6.00) translate(0.00, 6.00) translate(0.00, 6.00) translate(0.00, 6.00) translate(0.00, 6.00) translate(0.00, 6.00) translate(0.00, 6.00) translate(0.00, 6.00) translate(0.00, 6.00) translate(0.00, 6.00) translate(0.00, 6.00) translate(0.00, 6.00) translate(0.00, 6.00) translate(0.00, 6.00) translate(0.00, 6.00) translate(0.00, 6.00) translate(0.00, 6.00)"><path stroke="rgb(0.00, 0.00, 0.00)" stroke-width="0.5" stroke-linecap="butt" stroke-linejoin="miter" fill="none" d="M0.00,0.00 L-7.77,0.00 L-7.77,2.00 L-0.38,2.00 L-0.38,2.00 L-5.37,2.00 L-5.37,2.00 L-0.79,2.00 L-0.79,0.33 L1.64,0.33 L1.64,2.00 L0.09,2.00 L0.09,-2.00 L-5.41,-2.00 L-5.41,-2.00 L-12.62,-2.00 L-12.62,-2.00 L-16.44,-2.00 L-16.44,2.00 L-16.49,2.00 L-16.49,-1.82 L-16.84,-1.82 L-16.84,2.00 L-23.67,2.00 L-23.67,1.40 L-20.55,1.40 L-20.55,-1.77 L-14.79,-1.77 L-14.79,0.10 L-18.78,0.10 L-18.78,-2.00 L-10.95,-2.00 L-10.95,-2.00 L-20.05,-2.00 L-20.05,-2.00 L-16.18,-2.00 L-16.18,-2.00 L-24.13,-2.00 L-24.13,-2.00 L-30.02,-2.00 L-30.02,-2.00 L-25.10,-2.00 L-25.10,-2.00 L-33.68,-2.00 L-33.68,-2.00 L-31.54,-2.00 L-31.54,2.00 L-35.05,2.00 L-35.05,-2.00 L-25.84,-2.00 L-25.84,-0.31 L-25.84,-0.31 L-25.84,0.34 L-19.45,0.34 L-19.45,2.00 L-17.06,2.00 L-17.06,2.00 L-8.22,2.00 L-8.22,0.03 L-6.02,0.03 L-6.02,2.00 L0.12,2.00 L0.12,2.00 L-5.83,2.00 L-5.83,1.29 L-12.57,1.29 L-12.57,2.00 L-11.74,2.00 L-11.74,0.28 L-12.02,0.28 L-12.02,2.00 L-9.67,2.00 L-9.67,2.00 L-1.88,2.00 L-1.88,-2.00 L7.16,-2.00 L7.16,-2.00 L13.40,-2.00 L13.40,2.00 L19.80,2.00 L19.80,-2.00 L21.83,-2.00 L21.83,-2.00 L16.68,-2.00 L16.68,-2.00 L24.26,-2.00 L24.26,0.25 L30.97,0.25 L30.97,-2.00 L38.98,-2.00 L38.98,-2.00 L40.65,-2.00 L40.65,2.00 L37.48,2.00 L37.48,-0.38 L36.21,-0.38 L36.21,-2.00 L40.13,-2.00 L40.13,-2.00 L43.30,-2.00 L43.30,2.00" /></g><g transform="translate(0.00, 6.00) translate(0.00, 6.00) translate(0.00, 6.00) translate(0.00, 6.00) translate(0.00, 6.00) translate(0.00, 6.00) translate(0.00, 6.00) translate(0.00, 6.00) translate(0.00, 6.00) translate(0.00, 6.00) translate(0.00, 6.00) translate(0.00, 6.00) translate(0.00, 6.00) translate(0.00, 6.00) translate(0.00, 6.00) translate(0.00, 6.00) translate(0.00, 6.00) translate(0.00, 6.00) translate(0.00, 6.00) translate(0.00, 6.00) translate(0.00, 6.00) translate(0.00, 6.00) translate(0.00, 6.00) translate(0.00, 6.00) translate(0.00, 6.00) translate(0.00, 6.00)"><path stroke="rgb(0.00, 0.00, 0.00)" stroke-width="0.5" stroke-linecap="butt" stroke-linejoin="miter" fill="none" d="M0.00,0.00 L-5.87,0.00 L-5.87,-2.00 L0.63,-2.00 L0.63,2.00 L7.70,2.00 L7.70,-2.00 L15.55,-2.00 L15.55,-1.83 L5.79,-1.83 L5.79,-2.00 L-3.84,-2.00 L-3.84,-2.00 L-12.62,-2.00 L-12.62,-2.00 L-3.04,-2.00 L-3.04,-2.00 L0.95,-2.00 L0.95,-2.00 L-6.42,-2.00 L-6.42,-2.00 L2.37,-2.00 L2.37,-2.00 L12.34,-2.00 L12.34,-2.00 L17.06,-2.00 L17.06,2.00 L25.05,2.00 L25.05,-1.82 L27.07,-1.82 L27.07,-2.00 L18.97,-2.00 L18.97,-2.00 L23.88,-2.00 L23.88,-2.00 L17.16,-2.00 L17.16,2.00 L14.50,2.00 L14.50,1.33 L8.24,1.33 L8.24,2.00 L-1.64,2.00 L-1.64,-2.00 L-2.67,-2.00 L-2.67,-2.00 L2.85,-2.00 L2.85,-2.00 L10.41,-2.00 L10.41,1.41 L2.12,1.41 L2.12,-2.00 L-6.70,-2.00 L-6.70,1.92 L-1.14,1.92 L-1.14,2.00 L-7.54,2.00 L-7.54,2.00 L2.02,2.00 L2.02,2.00 L-2.94,2.00 L-2.94,2.00 L-3.97,2.00 L-3.97,2.00 L6.00,2.00 L6.00,2.00 L0.39,2.00 L0.39,1.93 L1.26,1.93 L1.26,-2.00 L-7.14,-2.00 L-7.14,0.61 L-0.28,0.61 L-0.28,-2.00 L0.24,-2.00 L0.24,-2.00 L8.57,-2.00 L8.57,-1.71 L3.93,-1.71 L3.93,-2.00 L11.67,-2.00 L11.67,2.00 L6.27,2.00 L6.27,2.00 L11.33,2.00 L11.33,-2.00 L19.34,-2.00 L19.34,2.00 L28.77,2.00 L28.77,-2.00 L28.87,-2.00 L28.87,-1.58 L29.58,-1.58 L29.58,-2.00 L32.00,-2.00 L32.00,-0.73 L37.62,-0.73 L37.62,2.00 L32.81,2.00 L32.81,-2.00 L42.60,-2.00 L42.60,0.16" /></g><g transform="translate(0.00, 6.00) translate(0.00, 6.00) translate(0.00, 6.00) translate(0.00, 6.00) translate(0.00, 6.00) translate(0.00, 6.00) translate(0.00, 6.00) translate(0.00, 6.00) translate(0.00, 6.00) translate(0.00, 6.00) translate(0.00, 6.00) translate(0.00, 6.00) translate(0.00, 6.00) translate(0.00, 6.00) translate(0.00, 6.00) translate(0.00, 6.00) translate(0.00, 6.00) translate(0.00, 6.00) translate(0.00, 6.00) translate(0.00, 6.00) translate(0.00, 6.00) translate(0.00, 6.00) translate(0.00, 6.00) translate(0.00, 6.00) translate(0.00, 6.00) translate(0.00, 6.00) translate(0.00, 6.00)"><path stroke="rgb(0.00, 0.00, 0.00)" stroke-width="0.5" stroke-linecap="butt" stroke-linejoin="miter" fill="none" d="M0.00,0.00 L-6.72,0.00 L-6.72,-2.00 L-16.66,-2.00 L-16.66,-2.00 L-19.66,-2.00 L-19.66,2.00 L-10.91,2.00 L-10.91,2.00 L-7.39,2.00 L-7.39,2.00 L-2.83,2.00 L-2.83,-2.00 L-6.60,-2.00 L-6.60,2.00 L-6.56,2.00 L-6.56,2.00 L-12.02,2.00 L-12.02,-2.00 L-19.51,-2.00 L-19.51,-2.00 L-22.34,-2.00 L-22.34,2.00 L-13.09,2.00 L-13.09,2.00 L-8.54,2.00 L-8.54,1.71 L-9.31,1.71 L-9.31,2.00 L-13.46,2.00 L-13.46,-2.00 L-18.33,-2.00 L-18.33,2.00 L-24.97,2.00 L-24.97,-2.00 L-31.49,-2.00 L-31.49,2.00 L-30.90,2.00 L-30.90,-2.00 L-39.33,-2.00 L-39.33,0.30 L-47.92,0.30 L-47.92,2.00 L-53.71,2.00 L-53.71,-2.00 L-50.72,-2.00 L-50.72,-2.00 L-43.76,-2.00 L-43.76,2.00 L-39.37,2.00 L-39.37,2.00 L-38.04,2.00 L-38.04,2.00 L-45.11,2.00 L-45.11,-2.00 L-43.29,-2.00 L-43.29,-2.00 L-44.68,-2.00 L-44.68,-2.00 L-40.63,-2.00 L-40.63,-2.00 L-45.31,-2.00 L-45.31,2.00 L-49.75,2.00 L-49.75,-2.00 L-43.69,-2.00 L-43.69,1.00 L-34.42,1.00 L-34.42,0.16 L-43.83,0.16 L-43.83,2.00 L-50.62,2.00 L-50.62,-2.00 L-53.26,-2.00 L-53.26,2.00 L-54.89,2.00 L-54.89,-2.00 L-57.68,-2.00 L-57.68,-2.00 L-54.64,-2.00 L-54.64,-0.40 L-50.72,-0.40 L-50.72,2.00 L-43.52,2.00 L-43.52,2.00 L-53.16,2.00 L-53.16,-2.00 L-53.05,-2.00 L-53.05,-0.56 L-56.27,-0.56 L-56.27,-2.00 L-53.15,-2.00 L-53.15,2.00 L-54.53,2.00 L-54.53,1.27 L-58.32,1.27 L-58.32,-2.00 L-62.37,-2.00 L-62.37,2.00 L-61.99,2.00 L-61.99,-2.00" /></g><g transform="translate(0.00, 6.00) translate(0.00, 6.00) translate(0.00, 6.00) translate(0.00, 6.00) translate(0.00, 6.00) translate(0.00, 6.00) translate(0.00, 6.00) translate(0.00, 6.00) translate(0.00, 6.00) translate(0.00, 6.00) translate(0.00, 6.00) translate(0.00, 6.00) translate(0.00, 6.00) translate(0.00, 6.00) translate(0.00, 6.00) translate(0.00, 6.00) translate(0.00, 6.00) translate(0.00, 6.00) translate(0.00, 6.00) translate(0.00, 6.00) translate(0.00, 6.00) translate(0.00, 6.00) translate(0.00, 6.00) translate(0.00, 6.00) translate(0.00, 6.00) translate(0.00, 6.00) translate(0.00, 6.00) translate(0.00, 6.00)"><path stroke="rgb(0.00, 0.00, 0.00)" stroke-width="0.5" stroke-linecap="butt" stroke-linejoin="miter" fill="none" d="M0.00,0.00 L4.10,0.00 L4.10,0.57 L-5.38,0.57 L-5.38,2.00 L-3.95,2.00 L-3.95,2.00 L5.10,2.00 L5.10,2.00 L11.37,2.00 L11.37,-2.00 L19.44,-2.00 L19.44,1.47 L16.76,1.47 L16.76,-2.00 L12.29,-2.00 L12.29,-2.00 L12.65,-2.00 L12.65,0.93 L17.48,0.93 L17.48,-2.00 L16.61,-2.00 L16.61,2.00 L23.74,2.00 L23.74,2.00 L20.55,2.00 L20.55,2.00 L12.13,2.00 L12.13,2.00 L4.32,2.00 L4.32,2.00 L9.70,2.00 L9.70,-2.00 L0.02,-2.00 L0.02,-0.64 L-6.22,-0.64 L-6.22,-2.00 L-10.73,-2.00 L-10.73,-2.00 L-10.47,-2.00 L-10.47,-2.00 L-14.82,-2.00 L-14.82,-1.02 L-16.09,-1.02 L-16.09,2.00 L-18.91,2.00 L-18.91,-2.00 L-28.87,-2.00 L-28.87,2.00 L-20.28,2.00 L-20.28,-1.35 L-21.17,-1.35 L-21.17,-2.00 L-28.43,-2.00 L-28.43,2.00 L-33.48,2.00 L-33.48,-2.00 L-33.73,-2.00 L-33.73,-2.00 L-37.49,-2.00 L-37.49,2.00 L-44.03,2.00 L-44.03,2.00 L-34.38,2.00 L-34.38,-2.00 L-43.69,-2.00 L-43.69,-2.00 L-37.17,-2.00 L-37.17,2.00 L-44.90,2.00 L-44.90,2.00 L-36.52,2.00 L-36.52,-2.00 L-28.41,-2.00 L-28.41,2.00 L-22.02,2.00 L-22.02,1.69 L-20.57,1.69 L-20.57,-2.00 L-21.42,-2.00 L-21.42,-2.00 L-26.50,-2.00 L-26.50,-0.25 L-24.97,-0.25 L-24.97,2.00 L-25.84,2.00 L-25.84,2.00 L-27.52,2.00 L-27.52,-2.00 L-20.75,-2.00 L-20.75,2.00 L-25.93,2.00 L-25.93,2.00 L-18.77,2.00 L-18.77,-0.55 L-17.21,-0.55 L-17.21,-2.00 L-9.45,-2.00 L-9.45,-2.00 L-13.22,-2.00 L-13.22,-0.89" /></g><g transform="translate(0.00, 6.00) translate(0.00, 6.00) translate(0.00, 6.00) translate(0.00, 6.00) translate(0.00, 6.00) translate(0.00, 6.00) translate(0.00, 6.00) translate(0.00, 6.00) translate(0.00, 6.00) translate(0.00, 6.00) translate(0.00, 6.00) translate(0.00, 6.00) translate(0.00, 6.00) translate(0.00, 6.00) translate(0.00, 6.00) translate(0.00, 6.00) translate(0.00, 6.00) translate(0.00, 6.00) translate(0.00, 6.00) translate(0.00, 6.00) translate(0.00, 6.00) translate(0.00, 6.00) translate(0.00, 6.00) translate(0.00, 6.00) translate(0.00, 6.00) translate(0.00, 6.00) translate(0.00, 6.00) translate(0.00, 6.00) translate(0.00, 6.00)"><path stroke="rgb(0.00, 0.00, 0.00)" stroke-width="0.5" stroke-linecap="butt" stroke-linejoin="miter" fill="none" d="M0.00,0.00 L8.86,0.00 L8.86,-2.00 L5.96,-2.00 L5.96,-0.27 L0.43,-0.27 L0.43,-2.00 L10.11,-2.00 L10.11,-2.00 L15.49,-2.00 L15.49,-2.00 L19.42,-2.00 L19.42,-2.00 L14.78,-2.00 L14.78,-2.00 L10.27,-2.00 L10.27,-2.00 L18.59,-2.00 L18.59,-2.00 L26.67,-2.00 L26.67,2.00 L26.28,2.00 L26.28,2.00 L26.31,2.00 L26.31,2.00 L23.87,2.00 L23.87,-0.70 L30.06,-0.70 L30.06,1.91 L27.55,1.91 L27.55,2.00 L19.43,2.00 L19.43,1.29 L18.65,1.29 L18.65,-0.11 L27.11,-0.11 L27.11,1.53 L23.75,1.53 L23.75,-0.65 L31.23,-0.65 L31.23,2.00 L22.77,2.00 L22.77,-1.38 L13.12,-1.38 L13.12,2.00 L11.99,2.00 L11.99,-2.00 L7.55,-2.00 L7.55,1.32 L5.20,1.32 L5.20,2.00 L12.66,2.00 L12.66,2.00 L15.55,2.00 L15.55,-2.00 L7.44,-2.00 L7.44,-0.72 L3.90,-0.72 L3.90,0.80 L-3.57,0.80 L-3.57,-2.00 L-7.92,-2.00 L-7.92,2.00 L-10.50,2.00 L-10.50,-2.00 L-17.70,-2.00 L-17.70,-2.00 L-26.74,-2.00 L-26.74,1.33 L-32.95,1.33 L-32.95,-2.00 L-36.67,-2.00 L-36.67,2.00 L-38.60,2.00 L-38.60,-2.00 L-34.43,-2.00 L-34.43,-0.58 L-39.06,-0.58 L-39.06,2.00 L-35.34,2.00 L-35.34,-2.00 L-38.02,-2.00 L-38.02,0.73 L-43.18,0.73 L-43.18,2.00 L-34.20,2.00 L-34.20,2.00 L-38.87,2.00 L-38.87,-2.00 L-45.41,-2.00 L-45.41,-0.54 L-50.94,-0.54 L-50.94,-2.00 L-57.10,-2.00 L-57.10,-1.32 L-59.49,-1.32 L-59.49,1.65 L-66.85,1.65 L-66.85,-2.00 L-68.06,-2.00 L-68.06,-2.00" /></g><g transform="translate(0.00, 6.00) translate(0.00, 6.00) translate(0.00, 6.00) translate(0.00, 6.00) translate(0.00, 6.00) translate(0.00, 6.00) translate(0.00, 6.00) translate(0.00, 6.00) translate(0.00, 6.00) translate(0.00, 6.00) translate(0.00, 6.00) translate(0.00, 6.00) translate(0.00, 6.00) translate(0.00, 6.00) translate(0.00, 6.00) translate(0.00, 6.00) translate(0.00, 6.00) translate(0.00, 6.00) translate(0.00, 6.00) translate(0.00, 6.00) translate(0.00, 6.00) translate(0.00, 6.00) translate(0.00, 6.00) translate(0.00, 6.00) translate(0.00, 6.00) translate(0.00, 6.00) translate(0.00, 6.00) translate(0.00, 6.00) translate(0.00, 6.00) translate(0.00, 6.00)"><path stroke="rgb(0.00, 0.00, 0.00)" stroke-width="0.5" stroke-linecap="butt" stroke-linejoin="miter" fill="none" d="M0.00,0.00 L-3.43,0.00 L-3.43,-2.00 L-9.83,-2.00 L-9.83,-0.15 L-16.72,-0.15 L-16.72,-2.00 L-16.92,-2.00 L-16.92,-2.00 L-19.70,-2.00 L-19.70,-2.00 L-28.57,-2.00 L-28.57,-2.00 L-27.28,-2.00 L-27.28,2.00 L-30.51,2.00 L-30.51,-2.00 L-28.19,-2.00 L-28.19,-2.00 L-26.23,-2.00 L-26.23,-2.00 L-24.90,-2.00 L-24.90,2.00 L-23.25,2.00 L-23.25,-2.00 L-31.86,-2.00 L-31.86,1.83 L-37.35,1.83 L-37.35,-2.00 L-33.39,-2.00 L-33.39,-0.95 L-24.59,-0.95 L-24.59,0.52 L-33.07,0.52 L-33.07,2.00 L-27.54,2.00 L-27.54,2.00 L-22.89,2.00 L-22.89,-2.00 L-21.53,-2.00 L-21.53,1.26 L-23.99,1.26 L-23.99,2.00 L-16.89,2.00 L-16.89,2.00 L-21.94,2.00 L-21.94,-2.00 L-14.34,-2.00 L-14.34,2.00 L-16.82,2.00 L-16.82,2.00 L-20.11,2.00 L-20.11,2.00 L-23.70,2.00 L-23.70,2.00 L-20.19,2.00 L-20.19,2.00 L-18.28,2.00 L-18.28,-2.00 L-26.06,-2.00 L-26.06,2.00 L-32.83,2.00 L-32.83,2.00 L-38.64,2.00 L-38.64,2.00 L-37.59,2.00 L-37.59,-2.00 L-47.34,-2.00 L-47.34,-2.00 L-56.05,-2.00 L-56.05,-2.00 L-62.44,-2.00 L-62.44,2.00 L-62.28,2.00 L-62.28,2.00 L-71.87,2.00 L-71.87,-2.00 L-79.84,-2.00 L-79.84,-0.07 L-88.10,-0.07 L-88.10,-1.52 L-88.72,-1.52 L-88.72,-0.34 L-88.52,-0.34 L-88.52,-2.00 L-78.77,-2.00 L-78.77,2.00 L-84.56,2.00 L-84.56,2.00 L-77.62,2.00 L-77.62,2.00 L-70.39,2.00 L-70.39,2.00 L-76.79,2.00 L-76.79,2.00 L-85.42,2.00 L-85.42,0.70 L-78.61,0.70 L-78.61,2.00 L-75.40,2.00 L-75.40,2.00" /></g><g transform="translate(0.00, 6.00) translate(0.00, 6.00) translate(0.00, 6.00) translate(0.00, 6.00) translate(0.00, 6.00) translate(0.00, 6.00) translate(0.00, 6.00) translate(0.00, 6.00) translate(0.00, 6.00) translate(0.00, 6.00) translate(0.00, 6.00) translate(0.00, 6.00) translate(0.00, 6.00) translate(0.00, 6.00) translate(0.00, 6.00) translate(0.00, 6.00) translate(0.00, 6.00) translate(0.00, 6.00) translate(0.00, 6.00) translate(0.00, 6.00) translate(0.00, 6.00) translate(0.00, 6.00) translate(0.00, 6.00) translate(0.00, 6.00) translate(0.00, 6.00) translate(0.00, 6.00) translate(0.00, 6.00) translate(0.00, 6.00) translate(0.00, 6.00) translate(0.00, 6.00) translate(0.00, 6.00)"><path stroke="rgb(0.00, 0.00, 0.00)" stroke-width="0.5" stroke-linecap="butt" stroke-linejoin="miter" fill="none" d="M0.00,0.00 L9.51,0.00 L9.51,-2.00 L0.44,-2.00 L0.44,-2.00 L-9.56,-2.00 L-9.56,-1.65 L-19.12,-1.65 L-19.12,2.00 L-10.32,2.00 L-10.32,-0.02 L-1.51,-0.02 L-1.51,2.00 L2.33,2.00 L2.33,2.00 L-1.76,2.00 L-1.76,-2.00 L2.21,-2.00 L2.21,1.32 L9.81,1.32 L9.81,-0.67 L8.94,-0.67 L8.94,-2.00 L16.96,-2.00 L16.96,-0.02 L18.70,-0.02 L18.70,-2.00 L20.48,-2.00 L20.48,2.00 L15.47,2.00 L15.47,2.00 L16.81,2.00 L16.81,2.00 L20.80,2.00 L20.80,2.00 L16.80,2.00 L16.80,2.00 L11.99,2.00 L11.99,-0.64 L20.08,-0.64 L20.08,0.43 L16.91,0.43 L16.91,-2.00 L22.36,-2.00 L22.36,-2.00 L13.39,-2.00 L13.39,-1.64 L22.85,-1.64 L22.85,1.89 L26.19,1.89 L26.19,-2.00 L26.42,-2.00 L26.42,2.00 L30.96,2.00 L30.96,-2.00 L34.66,-2.00 L34.66,-1.50 L38.99,-1.50 L38.99,-2.00 L43.11,-2.00 L43.11,-1.39 L42.51,-1.39 L42.51,0.19 L38.48,0.19 L38.48,-2.00 L37.20,-2.00 L37.20,-2.00 L43.02,-2.00 L43.02,1.24 L36.77,1.24 L36.77,2.00 L29.98,2.00 L29.98,-1.45 L27.95,-1.45 L27.95,2.00 L36.00,2.00 L36.00,-1.76 L36.89,-1.76 L36.89,2.00 L40.18,2.00 L40.18,2.00 L44.36,2.00 L44.36,2.00 L48.06,2.00 L48.06,-2.00 L42.56,-2.00 L42.56,-2.00 L39.30,-2.00 L39.30,-2.00 L37.57,-2.00 L37.57,-2.00 L44.44,-2.00 L44.44,-2.00 L41.53,-2.00 L41.53,2.00 L49.63,2.00 L49.63,-1.26 L55.14,-1.26 L55.14,2.00 L59.33,2.00 L59.33,-2.00" /></g><g transform="translate(0.00, 6.00) translate(0.00, 6.00) translate(0.00, 6.00) translate(0.00, 6.00) translate(0.00, 6.00) translate(0.00, 6.00) translate(0.00, 6.00) translate(0.00, 6.00) translate(0.00, 6.00) translate(0.00, 6.00) translate(0.00, 6.00) translate(0.00, 6.00) translate(0.00, 6.00) translate(0.00, 6.00) translate(0.00, 6.00) translate(0.00, 6.00) translate(0.00, 6.00) translate(0.00, 6.00) translate(0.00, 6.00) translate(0.00, 6.00) translate(0.00, 6.00) translate(0.00, 6.00) translate(0.00, 6.00) translate(0.00, 6.00) translate(0.00, 6.00) translate(0.00, 6.00) translate(0.00, 6.00) translate(0.00, 6.00) translate(0.00, 6.00) translate(0.00, 6.00) translate(0.00, 6.00) translate(0.00, 6.00)"><path stroke="rgb(0.00, 0.00, 0.00)" stroke-width="0.5" stroke-linecap="butt" stroke-linejoin="miter" fill="none" d="M0.00,0.00 L0.61,0.00 L0.61,-2.00 L-3.73,-2.00 L-3.73,-2.00 L-7.86,-2.00 L-7.86,-2.00 L-7.15,-2.00 L-7.15,-2.00 L-13.21,-2.00 L-13.21,2.00 L-3.98,2.00 L-3.98,2.00 L-7.38,2.00 L-7.38,2.00 L-10.37,2.00 L-10.37,2.00 L-6.71,2.00 L-6.71,-2.00 L-3.61,-2.00 L-3.61,-2.00 L-3.02,-2.00 L-3.02,-2.00 L0.64,-2.00 L0.64,-2.00 L0.15,-2.00 L0.15,-2.00 L-6.13,-2.00 L-6.13,-2.00 L-7.72,-2.00 L-7.72,2.00 L1.64,2.00 L1.64,2.00 L11.12,2.00 L11.12,-2.00 L14.77,-2.00 L14.77,-2.00 L5.91,-2.00 L5.91,2.00 L11.29,2.00 L11.29,-2.00 L14.67,-2.00 L14.67,2.00 L16.76,2.00 L16.76,-2.00 L13.55,-2.00 L13.55,-2.00 L22.01,-2.00 L22.01,-2.00 L21.04,-2.00 L21.04,-2.00 L16.42,-2.00 L16.42,-2.00 L7.61,-2.00 L7.61,-1.47 L5.01,-1.47 L5.01,-2.00 L6.71,-2.00 L6.71,-2.00 L6.80,-2.00 L6.80,0.15 L3.57,0.15 L3.57,2.00 L8.88,2.00 L8.88,2.00 L2.39,2.00 L2.39,2.00 L2.02,2.00 L2.02,2.00 L-7.83,2.00 L-7.83,0.90 L-16.19,0.90 L-16.19,2.00 L-13.06,2.00 L-13.06,2.00 L-5.02,2.00 L-5.02,-2.00 L4.35,-2.00 L4.35,-1.05 L9.66,-1.05 L9.66,-2.00 L7.06,-2.00 L7.06,-2.00 L13.58,-2.00 L13.58,-2.00 L9.74,-2.00 L9.74,2.00 L1.75,2.00 L1.75,2.00 L-3.41,2.00 L-3.41,2.00 L-4.98,2.00 L-4.98,2.00 L-8.66,2.00 L-8.66,2.00 L-0.91,2.00 L-0.91,2.00 L1.89,2.00 L1.89,1.91 L-7.16,1.91 L-7.16,2.00" /></g><g transform="translate(0.00, 6.00) translate(0.00, 6.00) translate(0.00, 6.00) translate(0.00, 6.00) translate(0.00, 6.00) translate(0.00, 6.00) translate(0.00, 6.00) translate(0.00, 6.00) translate(0.00, 6.00) translate(0.00, 6.00) translate(0.00, 6.00) translate(0.00, 6.00) translate(0.00, 6.00) translate(0.00, 6.00) translate(0.00, 6.00) translate(0.00, 6.00) translate(0.00, 6.00) translate(0.00, 6.00) translate(0.00, 6.00) translate(0.00, 6.00) translate(0.00, 6.00) translate(0.00, 6.00) translate(0.00, 6.00) translate(0.00, 6.00) translate(0.00, 6.00) translate(0.00, 6.00) translate(0.00, 6.00) translate(0.00, 6.00) translate(0.00, 6.00) translate(0.00, 6.00) translate(0.00, 6.00) translate(0.00, 6.00) translate(0.00, 6.00)"><path stroke="rgb(0.00, 0.00, 0.00)" stroke-width="0.5" stroke-linecap="butt" stroke-linejoin="miter" fill="none" d="M0.00,0.00 L-5.04,0.00 L-5.04,1.48 L-1.79,1.48 L-1.79,-2.00 L2.29,-2.00 L2.29,2.00 L9.11,2.00 L9.11,-2.00 L10.73,-2.00 L10.73,-0.66 L14.50,-0.66 L14.50,2.00 L20.08,2.00 L20.08,-2.00 L21.99,-2.00 L21.99,-2.00 L22.09,-2.00 L22.09,1.16 L28.68,1.16 L28.68,2.00 L22.03,2.00 L22.03,2.00 L27.89,2.00 L27.89,2.00 L31.44,2.00 L31.44,2.00 L24.67,2.00 L24.67,-2.00 L15.01,-2.00 L15.01,-2.00 L16.93,-2.00 L16.93,2.00 L21.47,2.00 L21.47,-2.00 L21.81,-2.00 L21.81,-0.45 L19.23,-0.45 L19.23,-2.00 L24.52,-2.00 L24.52,-2.00 L19.23,-2.00 L19.23,-2.00 L24.69,-2.00 L24.69,-2.00 L30.09,-2.00 L30.09,2.00 L35.06,2.00 L35.06,-2.00 L30.27,-2.00 L30.27,1.60 L23.34,1.60 L23.34,1.21 L21.84,1.21 L21.84,2.00 L29.37,2.00 L29.37,-1.41 L23.20,-1.41 L23.20,2.00 L25.87,2.00 L25.87,2.00 L19.14,2.00 L19.14,2.00 L10.92,2.00 L10.92,2.00 L5.17,2.00 L5.17,2.00 L4.66,2.00 L4.66,2.00 L1.78,2.00 L1.78,-2.00 L-1.35,-2.00 L-1.35,-0.09 L-10.27,-0.09 L-10.27,-2.00 L-14.30,-2.00 L-14.30,2.00 L-16.87,2.00 L-16.87,1.99 L-18.22,1.99 L-18.22,-2.00 L-11.56,-2.00 L-11.56,2.00 L-19.16,2.00 L-19.16,-0.30 L-11.51,-0.30 L-11.51,-2.00 L-5.51,-2.00 L-5.51,2.00 L-8.11,2.00 L-8.11,0.16 L-11.11,0.16 L-11.11,2.00 L-20.97,2.00 L-20.97,-2.00 L-21.56,-2.00 L-21.56,-2.00 L-22.10,-2.00 L-22.10,-2.00 L-17.91,-2.00 L-17.91,-2.00" /></g><g transform="translate(0.00, 6.00) translate(0.00, 6.00) translate(0.00, 6.00) translate(0.00, 6.00) translate(0.00, 6.00) translate(0.00, 6.00) translate(0.00, 6.00) translate(0.00, 6.00) translate(0.00, 6.00) translate(0.00, 6.00) translate(0.00, 6.00) translate(0.00, 6.00) translate(0.00, 6.00) translate(0.00, 6.00) translate(0.00, 6.00) translate(0.00, 6.00) translate(0.00, 6.00) translate(0.00, 6.00) translate(0.00, 6.00) translate(0.00, 6.00) translate(0.00, 6.00) translate(0.00, 6.00) translate(0.00, 6.00) translate(0.00, 6.00) translate(0.00, 6.00) translate(0.00, 6.00) translate(0.00, 6.00) translate(0.00, 6.00) translate(0.00, 6.00) translate(0.00, 6.00) translate(0.00, 6.00) translate(0.00, 6.00) translate(0.00, 6.00) translate(0.00, 6.00)"><path stroke="rgb(0.00, 0.00, 0.00)" stroke-width="0.5" stroke-linecap="butt" stroke-linejoin="miter" fill="none" d="M0.00,0.00 L-3.35,0.00 L-3.35,2.00 L-4.45,2.00 L-4.45,2.00 L0.13,2.00 L0.13,2.00 L-0.51,2.00 L-0.51,2.00 L-2.46,2.00 L-2.46,2.00 L-9.11,2.00 L-9.11,2.00 L-14.18,2.00 L-14.18,-2.00 L-11.66,-2.00 L-11.66,0.03 L-13.33,0.03 L-13.33,1.43 L-14.27,1.43 L-14.27,-2.00 L-7.79,-2.00 L-7.79,2.00 L-2.09,2.00 L-2.09,2.00 L5.07,2.00 L5.07,-2.00 L11.54,-2.00 L11.54,-2.00 L6.12,-2.00 L6.12,-2.00 L-1.13,-2.00 L-1.13,-2.00 L-9.13,-2.00 L-9.13,-2.00 L-7.36,-2.00 L-7.36,-2.00 L-12.77,-2.00 L-12.77,-2.00 L-11.38,-2.00 L-11.38,-2.00 L-4.35,-2.00 L-4.35,-2.00 L2.31,-2.00 L2.31,-2.00 L7.76,-2.00 L7.76,-2.00 L4.39,-2.00 L4.39,-2.00 L-4.98,-2.00 L-4.98,2.00 L3.26,2.00 L3.26,-2.00 L8.06,-2.00 L8.06,-2.00 L7.97,-2.00 L7.97,0.97 L10.76,0.97 L10.76,2.00 L2.37,2.00 L2.37,2.00 L9.77,2.00 L9.77,0.07 L7.47,0.07 L7.47,-2.00 L10.63,-2.00 L10.63,-2.00 L16.31,-2.00 L16.31,-2.00 L24.76,-2.00 L24.76,-2.00 L16.20,-2.00 L16.20,0.59 L16.40,0.59 L16.40,-1.71 L8.66,-1.71 L8.66,2.00 L3.32,2.00 L3.32,1.48 L-6.43,1.48 L-6.43,-2.00 L-2.47,-2.00 L-2.47,-2.00 L0.06,-2.00 L0.06,-0.69 L2.03,-0.69 L2.03,-2.00 L-7.65,-2.00 L-7.65,-2.00 L-15.26,-2.00 L-15.26,2.00 L-18.79,2.00 L-18.79,2.00 L-15.22,2.00 L-15.22,-2.00 L-20.58,-2.00 L-20.58,-2.00 L-16.85,-2.00 L-16.85,-2.00 L-19.55,-2.00 L-19.55,0.47" /></g><g transform="translate(0.00, 6.00) translate(0.00, 6.00) translate(0.00, 6.00) translate(0.00, 6.00) translate(0.00, 6.00) translate(0.00, 6.00) translate(0.00, 6.00) translate(0.00, 6.00) translate(0.00, 6.00) translate(0.00, 6.00) translate(0.00, 6.00) translate(0.00, 6.00) translate(0.00, 6.00) translate(0.00, 6.00) translate(0.00, 6.00) translate(0.00, 6.00) translate(0.00, 6.00) translate(0.00, 6.00) translate(0.00, 6.00) translate(0.00, 6.00) translate(0.00, 6.00) translate(0.00, 6.00) translate(0.00, 6.00) translate(0.00, 6.00) translate(0.00, 6.00) translate(0.00, 6.00) translate(0.00, 6.00) translate(0.00, 6.00) translate(0.00, 6.00) translate(0.00, 6.00) translate(0.00, 6.00) translate(0.00, 6.00) translate(0.00, 6.00) translate(0.00, 6.00) translate(0.00, 6.00)"><path stroke="rgb(0.00, 0.00, 0.00)" stroke-width="0.5" stroke-linecap="butt" stroke-linejoin="miter" fill="none" d="M0.00,0.00 L5.41,0.00 L5.41,2.00 L11.24,2.00 L11.24,-2.00 L14.74,-2.00 L14.74,2.00 L11.67,2.00 L11.67,-2.00 L5.67,-2.00 L5.67,-2.00 L3.35,-2.00 L3.35,2.00 L-4.96,2.00 L-4.96,-2.00 L0.46,-2.00 L0.46,0.89 L3.07,0.89 L3.07,2.00 L7.03,2.00 L7.03,-0.73 L-1.04,-0.73 L-1.04,-2.00 L2.53,-2.00 L2.53,-2.00 L-6.31,-2.00 L-6.31,-2.00 L-5.23,-2.00 L-5.23,2.00 L-4.82,2.00 L-4.82,2.00 L-8.52,2.00 L-8.52,-2.00 L-14.16,-2.00 L-14.16,2.00 L-4.81,2.00 L-4.81,2.00 L1.36,2.00 L1.36,2.00 L-6.07,2.00 L-6.07,-2.00 L-9.53,-2.00 L-9.53,-1.44 L-0.39,-1.44 L-0.39,2.00 L2.30,2.00 L2.30,2.00 L11.65,2.00 L11.65,2.00 L21.26,2.00 L21.26,2.00 L30.62,2.00 L30.62,2.00 L30.36,2.00 L30.36,-2.00 L32.99,-2.00 L32.99,-2.00 L27.77,-2.00 L27.77,2.00 L30.02,2.00 L30.02,2.00 L29.46,2.00 L29.46,-0.47 L35.81,-0.47 L35.81,-2.00 L36.86,-2.00 L36.86,-1.48 L38.15,-1.48 L38.15,-2.00 L37.83,-2.00 L37.83,-2.00 L44.58,-2.00 L44.58,2.00 L45.66,2.00 L45.66,2.00 L36.64,2.00 L36.64,2.00 L29.86,2.00 L29.86,2.00 L32.32,2.00 L32.32,2.00 L37.61,2.00 L37.61,-2.00 L43.11,-2.00 L43.11,-1.10 L38.23,-1.10 L38.23,2.00 L46.87,2.00 L46.87,2.00 L45.34,2.00 L45.34,-1.56 L43.15,-1.56 L43.15,-2.00 L36.08,-2.00 L36.08,1.01 L27.54,1.01 L27.54,-2.00 L33.77,-2.00 L33.77,-2.00 L39.74,-2.00 L39.74,-2.00" /></g><g transform="translate(0.00, 6.00) translate(0.00, 6.00) translate(0.00, 6.00) translate(0.00, 6.00) translate(0.00, 6.00) translate(0.00, 6.00) translate(0.00, 6.00) translate(0.00, 6.00) translate(0.00, 6.00) translate(0.00, 6.00) translate(0.00, 6.00) translate(0.00, 6.00) translate(0.00, 6.00) translate(0.00, 6.00) translate(0.00, 6.00) translate(0.00, 6.00) translate(0.00, 6.00) translate(0.00, 6.00) translate(0.00, 6.00) translate(0.00, 6.00) translate(0.00, 6.00) translate(0.00, 6.00) translate(0.00, 6.00) translate(0.00, 6.00) translate(0.00, 6.00) translate(0.00, 6.00) translate(0.00, 6.00) translate(0.00, 6.00) translate(0.00, 6.00) translate(0.00, 6.00) translate(0.00, 6.00) translate(0.00, 6.00) translate(0.00, 6.00) translate(0.00, 6.00) translate(0.00, 6.00) translate(0.00, 6.00)"><path stroke="rgb(0.00, 0.00, 0.00)" stroke-width="0.5" stroke-linecap="butt" stroke-linejoin="miter" fill="none" d="M0.00,0.00 L9.75,0.00 L9.75,-2.00 L13.41,-2.00 L13.41,0.24 L14.27,0.24 L14.27,-2.00 L21.11,-2.00 L21.11,-2.00 L13.88,-2.00 L13.88,2.00 L23.09,2.00 L23.09,-2.00 L27.88,-2.00 L27.88,2.00 L33.57,2.00 L33.57,-2.00 L37.73,-2.00 L37.73,-2.00 L34.79,-2.00 L34.79,-2.00 L36.45,-2.00 L36.45,2.00 L29.44,2.00 L29.44,2.00 L33.98,2.00 L33.98,2.00 L31.77,2.00 L31.77,-2.00 L31.06,-2.00 L31.06,2.00 L30.93,2.00 L30.93,-1.68 L34.22,-1.68 L34.22,-2.00 L27.53,-2.00 L27.53,2.00 L18.52,2.00 L18.52,0.54 L22.81,0.54 L22.81,2.00 L32.17,2.00 L32.17,2.00 L27.39,2.00 L27.39,0.82 L33.96,0.82 L33.96,0.09 L34.01,0.09 L34.01,2.00 L42.33,2.00 L42.33,2.00 L38.18,2.00 L38.18,1.70 L34.23,1.70 L34.23,-2.00 L38.10,-2.00 L38.10,2.00 L42.11,2.00 L42.11,2.00 L40.20,2.00 L40.20,-2.00 L33.00,-2.00 L33.00,-2.00 L23.69,-2.00 L23.69,2.00 L30.75,2.00 L30.75,2.00 L30.54,2.00 L30.54,2.00 L23.30,2.00 L23.30,-2.00 L27.01,-2.00 L27.01,-2.00 L21.68,-2.00 L21.68,-2.00 L27.66,-2.00 L27.66,-2.00 L25.76,-2.00 L25.76,-2.00 L27.77,-2.00 L27.77,2.00 L22.54,2.00 L22.54,-2.00 L16.80,-2.00 L16.80,2.00 L7.50,2.00 L7.50,-2.00 L3.20,-2.00 L3.20,2.00 L5.53,2.00 L5.53,2.00 L5.21,2.00 L5.21,0.98 L4.51,0.98 L4.51,2.00 L4.82,2.00 L4.82,2.00 L1.30,2.00 L1.30,2.00 L-4.01,2.00 L-4.01,-1.53" /></g><g transform="translate(0.00, 6.00) translate(0.00, 6.00) translate(0.00, 6.00) translate(0.00, 6.00) translate(0.00, 6.00) translate(0.00, 6.00) translate(0.00, 6.00) translate(0.00, 6.00) translate(0.00, 6.00) translate(0.00, 6.00) translate(0.00, 6.00) translate(0.00, 6.00) translate(0.00, 6.00) translate(0.00, 6.00) translate(0.00, 6.00) translate(0.00, 6.00) translate(0.00, 6.00) translate(0.00, 6.00) translate(0.00, 6.00) translate(0.00, 6.00) translate(0.00, 6.00) translate(0.00, 6.00) translate(0.00, 6.00) translate(0.00, 6.00) translate(0.00, 6.00) translate(0.00, 6.00) translate(0.00, 6.00) translate(0.00, 6.00) translate(0.00, 6.00) translate(0.00, 6.00) translate(0.00, 6.00) translate(0.00, 6.00) translate(0.00, 6.00) translate(0.00, 6.00) translate(0.00, 6.00) translate(0.00, 6.00) translate(0.00, 6.00)"><path stroke="rgb(0.00, 0.00, 0.00)" stroke-width="0.5" stroke-linecap="butt" stroke-linejoin="miter" fill="none" d="M0.00,0.00 L-7.75,0.00 L-7.75,-2.00 L-5.45,-2.00 L-5.45,2.00 L-6.06,2.00 L-6.06,-2.00 L-8.88,-2.00 L-8.88,2.00 L-8.15,2.00 L-8.15,1.55 L-2.42,1.55 L-2.42,-2.00 L-1.89,-2.00 L-1.89,-2.00 L-11.70,-2.00 L-11.70,-1.71 L-19.59,-1.71 L-19.59,2.00 L-24.16,2.00 L-24.16,2.00 L-20.01,2.00 L-20.01,2.00 L-15.11,2.00 L-15.11,0.42 L-23.93,0.42 L-23.93,2.00 L-15.10,2.00 L-15.10,2.00 L-9.74,2.00 L-9.74,2.00 L-8.78,2.00 L-8.78,0.79 L0.19,0.79 L0.19,1.56 L-4.12,1.56 L-4.12,2.00 L-1.34,2.00 L-1.34,-2.00 L-4.21,-2.00 L-4.21,-1.63 L-9.64,-1.63 L-9.64,2.00 L-8.30,2.00 L-8.30,-2.00 L-1.62,-2.00 L-1.62,-2.00 L1.61,-2.00 L1.61,-2.00 L-0.08,-2.00 L-0.08,-0.40 L7.33,-0.40 L7.33,-2.00 L5.37,-2.00 L5.37,2.00 L10.15,2.00 L10.15,-2.00 L7.15,-2.00 L7.15,2.00 L16.39,2.00 L16.39,-2.00 L23.19,-2.00 L23.19,2.00 L19.86,2.00 L19.86,-2.00 L21.73,-2.00 L21.73,2.00 L25.59,2.00 L25.59,2.00 L19.96,2.00 L19.96,2.00 L17.68,2.00 L17.68,-2.00 L21.63,-2.00 L21.63,-2.00 L25.52,-2.00 L25.52,-1.44 L34.26,-1.44 L34.26,2.00 L39.64,2.00 L39.64,-2.00 L30.19,-2.00 L30.19,-2.00 L25.16,-2.00 L25.16,-2.00 L33.54,-2.00 L33.54,2.00 L26.42,2.00 L26.42,-2.00 L18.27,-2.00 L18.27,2.00 L20.96,2.00 L20.96,-2.00 L21.74,-2.00 L21.74,2.00 L17.93,2.00 L17.93,-2.00 L16.38,-2.00 L16.38,2.00 L9.24,2.00 L9.24,2.00" /></g><g transform="translate(0.00, 6.00) translate(0.00, 6.00) translate(0.00, 6.00) translate(0.00, 6.00) translate(0.00, 6.00) translate(0.00, 6.00) translate(0.00, 6.00) translate(0.00, 6.00) translate(0.00, 6.00) translate(0.00, 6.00) translate(0.00, 6.00) translate(0.00, 6.00) translate(0.00, 6.00) translate(0.00, 6.00) translate(0.00, 6.00) translate(0.00, 6.00) translate(0.00, 6.00) translate(0.00, 6.00) translate(0.00, 6.00) translate(0.00, 6.00) translate(0.00, 6.00) translate(0.00, 6.00) translate(0.00, 6.00) translate(0.00, 6.00) translate(0.00, 6.00) translate(0.00, 6.00) translate(0.00, 6.00) translate(0.00, 6.00) translate(0.00, 6.00) translate(0.00, 6.00) translate(0.00, 6.00) translate(0.00, 6.00) translate(0.00, 6.00) translate(0.00, 6.00) translate(0.00, 6.00) translate(0.00, 6.00) translate(0.00, 6.00) translate(0.00, 6.00)"><path stroke="rgb(0.00, 0.00, 0.00)" stroke-width="0.5" stroke-linecap="butt" stroke-linejoin="miter" fill="none" d="M0.00,0.00 L-9.41,0.00 L-9.41,-2.00 L-9.15,-2.00 L-9.15,-2.00 L-14.90,-2.00 L-14.90,-0.74 L-13.24,-0.74 L-13.24,2.00 L-20.82,2.00 L-20.82,0.96 L-20.46,0.96 L-20.46,2.00 L-12.54,2.00 L-12.54,2.00 L-14.42,2.00 L-14.42,-2.00 L-11.57,-2.00 L-11.57,-1.45 L-16.23,-1.45 L-16.23,-2.00 L-18.96,-2.00 L-18.96,-2.00 L-14.90,-2.00 L-14.90,2.00 L-21.24,2.00 L-21.24,2.00 L-12.54,2.00 L-12.54,-1.88 L-9.16,-1.88 L-9.16,-2.00 L-8.92,-2.00 L-8.92,-2.00 L-1.91,-2.00 L-1.91,2.00 L-10.75,2.00 L-10.75,-2.00 L-9.56,-2.00 L-9.56,-1.48 L-15.75,-1.48 L-15.75,2.00 L-16.68,2.00 L-16.68,2.00 L-20.81,2.00 L-20.81,-0.65 L-20.89,-0.65 L-20.89,-2.00 L-29.16,-2.00 L-29.16,2.00 L-28.40,2.00 L-28.40,-2.00 L-23.88,-2.00 L-23.88,-2.00 L-14.33,-2.00 L-14.33,-2.00 L-21.97,-2.00 L-21.97,-2.00 L-18.31,-2.00 L-18.31,-2.00 L-16.18,-2.00 L-16.18,-2.00 L-19.19,-2.00 L-19.19,-2.00 L-19.57,-2.00 L-19.57,2.00 L-27.38,2.00 L-27.38,2.00 L-35.16,2.00 L-35.16,2.00 L-37.73,2.00 L-37.73,-2.00 L-30.43,-2.00 L-30.43,-2.00 L-35.43,-2.00 L-35.43,-2.00 L-31.49,-2.00 L-31.49,-2.00 L-32.70,-2.00 L-32.70,0.38 L-38.57,0.38 L-38.57,-0.85 L-47.89,-0.85 L-47.89,-2.00 L-57.86,-2.00 L-57.86,2.00 L-56.60,2.00 L-56.60,1.14 L-49.26,1.14 L-49.26,2.00 L-48.65,2.00 L-48.65,2.00 L-56.52,2.00 L-56.52,2.00 L-48.47,2.00 L-48.47,-0.99 L-42.38,-0.99 L-42.38,-2.00 L-33.73,-2.00 L-33.73,-2.00 L-42.70,-2.00 L-42.70,2.00" /></g><g transform="translate(0.00, 6.00) translate(0.00, 6.00) translate(0.00, 6.00) translate(0.00, 6.00) translate(0.00, 6.00) translate(0.00, 6.00) translate(0.00, 6.00) translate(0.00, 6.00) translate(0.00, 6.00) translate(0.00, 6.00) translate(0.00, 6.00) translate(0.00, 6.00) translate(0.00, 6.00) translate(0.00, 6.00) translate(0.00, 6.00) translate(0.00, 6.00) translate(0.00, 6.00) translate(0.00, 6.00) translate(0.00, 6.00) translate(0.00, 6.00) translate(0.00, 6.00) translate(0.00, 6.00) translate(0.00, 6.00) translate(0.00, 6.00) translate(0.00, 6.00) translate(0.00, 6.00) translate(0.00, 6.00) translate(0.00, 6.00) translate(0.00, 6.00) translate(0.00, 6.00) translate(0.00, 6.00) translate(0.00, 6.00) translate(0.00, 6.00) translate(0.00, 6.00) translate(0.00, 6.00) translate(0.00, 6.00) translate(0.00, 6.00) translate(0.00, 6.00) translate(0.00, 6.00)"><path stroke="rgb(0.00, 0.00, 0.00)" stroke-width="0.5" stroke-linecap="butt" stroke-linejoin="miter" fill="none" d="M0.00,0.00 L-5.71,0.00 L-5.71,2.00 L3.11,2.00 L3.11,-2.00 L-4.02,-2.00 L-4.02,-2.00 L-9.23,-2.00 L-9.23,2.00 L-14.63,2.00 L-14.63,-2.00 L-23.54,-2.00 L-23.54,-2.00 L-31.31,-2.00 L-31.31,-2.00 L-22.74,-2.00 L-22.74,2.00 L-20.76,2.00 L-20.76,0.96 L-21.29,0.96 L-21.29,2.00 L-16.38,2.00 L-16.38,2.00 L-13.36,2.00 L-13.36,-1.30 L-17.23,-1.30 L-17.23,-2.00 L-10.54,-2.00 L-10.54,2.00 L-6.86,2.00 L-6.86,-2.00 L-5.69,-2.00 L-5.69,-2.00 L-3.68,-2.00 L-3.68,-2.00 L-8.27,-2.00 L-8.27,-1.07 L-9.19,-1.07 L-9.19,-2.00 L-2.64,-2.00 L-2.64,-2.00 L-4.57,-2.00 L-4.57,2.00 L-9.97,2.00 L-9.97,2.00 L-3.03,2.00 L-3.03,2.00 L3.59,2.00 L3.59,-2.00 L12.66,-2.00 L12.66,-2.00 L12.74,-2.00 L12.74,-2.00 L4.57,-2.00 L4.57,-2.00 L0.75,-2.00 L0.75,-1.63 L3.54,-1.63 L3.54,-2.00 L-2.68,-2.00 L-2.68,-2.00 L-11.85,-2.00 L-11.85,2.00 L-16.24,2.00 L-16.24,2.00 L-26.18,2.00 L-26.18,2.00 L-22.84,2.00 L-22.84,2.00 L-28.12,2.00 L-28.12,-2.00 L-25.63,-2.00 L-25.63,-2.00 L-23.38,-2.00 L-23.38,-2.00 L-19.54,-2.00 L-19.54,2.00 L-25.27,2.00 L-25.27,-2.00 L-31.23,-2.00 L-31.23,2.00 L-24.62,2.00 L-24.62,2.00 L-23.55,2.00 L-23.55,-2.00 L-19.60,-2.00 L-19.60,1.21 L-27.78,1.21 L-27.78,2.00 L-29.44,2.00 L-29.44,-1.33 L-29.11,-1.33 L-29.11,2.00 L-30.99,2.00 L-30.99,2.00 L-30.99,2.00 L-30.99,-2.00 L-21.24,-2.00 L-21.24,-2.00 L-24.34,-2.00 L-24.34,2.00" /></g><g transform="translate(0.00, 6.00) translate(0.00, 6.00) translate(0.00, 6.00) translate(0.00, 6.00) translate(0.00, 6.00) translate(0.00, 6.00) translate(0.00, 6.00) translate(0.00, 6.00) translate(0.00, 6.00) translate(0.00, 6.00) translate(0.00, 6.00) translate(0.00, 6.00) translate(0.00, 6.00) translate(0.00, 6.00) translate(0.00, 6.00) translate(0.00, 6.00) translate(0.00, 6.00) translate(0.00, 6.00) translate(0.00, 6.00) translate(0.00, 6.00) translate(0.00, 6.00) translate(0.00, 6.00) translate(0.00, 6.00) translate(0.00, 6.00) translate(0.00, 6.00) translate(0.00, 6.00) translate(0.00, 6.00) translate(0.00, 6.00) translate(0.00, 6.00) translate(0.00, 6.00) translate(0.00, 6.00) translate(0.00, 6.00) translate(0.00, 6.00) translate(0.00, 6.00) translate(0.00, 6.00) translate(0.00, 6.00) translate(0.00, 6.00) translate(0.00, 6.00) translate(0.00, 6.00) translate(0.00, 6.00)"><path stroke="rgb(0.00, 0.00, 0.00)" stroke-width="0.5" stroke-linecap="butt" stroke-linejoin="miter" fill="none" d="M0.00,0.00 L-2.59,0.00 L-2.59,2.00 L-5.08,2.00 L-5.08,-2.00 L-10.51,-2.00 L-10.51,-2.00 L-16.87,-2.00 L-16.87,-2.00 L-24.82,-2.00 L-24.82,2.00 L-23.83,2.00 L-23.83,1.33 L-26.23,1.33 L-26.23,-2.00 L-23.00,-2.00 L-23.00,-2.00 L-17.62,-2.00 L-17.62,-1.65 L-8.29,-1.65 L-8.29,-2.00 L0.79,-2.00 L0.79,-2.00 L0.62,-2.00 L0.62,1.18 L2.84,1.18 L2.84,2.00 L4.89,2.00 L4.89,2.00 L7.06,2.00 L7.06,-2.00 L7.43,-2.00 L7.43,-2.00 L4.32,-2.00 L4.32,2.00 L-5.33,2.00 L-5.33,1.40 L-7.77,1.40 L-7.77,-2.00 L1.98,-2.00 L1.98,2.00 L1.94,2.00 L1.94,2.00 L-6.49,2.00 L-6.49,-2.00 L-2.94,-2.00 L-2.94,-2.00 L0.48,-2.00 L0.48,-2.00 L-4.73,-2.00 L-4.73,-2.00 L2.73,-2.00 L2.73,-0.19 L-1.14,-0.19 L-1.14,2.00 L-9.16,2.00 L-9.16,-1.79 L-7.50,-1.79 L-7.50,-2.00 L-4.39,-2.00 L-4.39,2.00 L-1.60,2.00 L-1.60,-0.19 L-9.45,-0.19 L-9.45,-2.00 L0.48,-2.00 L0.48,-2.00 L-1.33,-2.00 L-1.33,2.00 L6.61,2.00 L6.61,-2.00 L10.99,-2.00 L10.99,2.00 L6.06,2.00 L6.06,2.00 L-0.37,2.00 L-0.37,2.00 L-9.53,2.00 L-9.53,2.00 L-16.36,2.00 L-16.36,2.00 L-24.04,2.00 L-24.04,-1.47 L-16.98,-1.47 L-16.98,-2.00 L-13.59,-2.00 L-13.59,-1.82 L-21.74,-1.82 L-21.74,2.00 L-15.62,2.00 L-15.62,2.00 L-18.53,2.00 L-18.53,-2.00 L-24.60,-2.00 L-24.60,-0.11 L-19.26,-0.11 L-19.26,2.00 L-12.93,2.00 L-12.93,-2.00 L-21.30,-2.00 L-21.30,-2.00" /></g></g></svg>