<svg version="1.1" xmlns="http://www.w3.org/2000/svg" xmlns:xlink="http://www.w3.org/1999/xlink" width="1500" height="1500" viewBox="0,0,1500,1500"><g fill="none" fill-rule="nonzero" stroke="none" stroke-width="1" stroke-linecap="butt" stroke-linejoin="miter" stroke-miterlimit="10" stroke-dasharray="" stroke-dashoffset="0" font-family="none" font-weight="none" font-size="none" text-anchor="none" style="mix-blend-mode: normal"><path d="M354.21808,727.4618c0,-9.33474 7.5673,-16.90203 16.90203,-16.90203c9.33474,0 16.90203,7.5673 16.90203,16.90203c0,9.33474 -7.5673,16.90203 -16.90203,16.90203c-9.33474,0 -16.90203,-7.5673 -16.90203,-16.90203zM462.08453,453.33585c0,-5.03452 4.08128,-9.1158 9.1158,-9.1158c5.03452,0 9.1158,4.08128 9.1158,9.1158c0,4.8101 -3.72554,8.75005 -8.4485,9.09175c1.59949,1.75421 2.57483,4.0874 2.57483,6.6484c0,5.45132 -4.41917,9.87049 -9.87049,9.87049c-5.45132,0 -9.87049,-4.41917 -9.87049,-9.87049c0,-5.33699 4.23574,-9.68467 9.52888,-9.86469c-1.33889,-1.58668 -2.14583,-3.63683 -2.14583,-5.87546zM157.2684,88.93969c0,-4.36561 3.53903,-7.90464 7.90464,-7.90464c4.36561,0 7.90464,3.53903 7.90464,7.90464c0,4.36561 -3.53903,7.90464 -7.90464,7.90464c-4.36561,0 -7.90464,-3.53903 -7.90464,-7.90464zM527.3878,153.78142c0,-4.24827 3.44391,-7.69218 7.69218,-7.69218c4.24827,0 7.69218,3.44391 7.69218,7.69218c0,4.24827 -3.44391,7.69218 -7.69218,7.69218c-4.24827,0 -7.69218,-3.44391 -7.69218,-7.69218zM540.76719,134.23183c0,-4.66784 3.78403,-8.45188 8.45188,-8.45188c4.66784,0 8.45188,3.78403 8.45188,8.45188c0,4.66784 -3.78403,8.45188 -8.45188,8.45188c-4.66784,0 -8.45188,-3.78403 -8.45188,-8.45188zM510.75173,670.11522c0,-3.41305 2.76683,-6.17988 6.17988,-6.17988c3.41305,0 6.17988,2.76683 6.17988,6.17988c0,3.41305 -2.76683,6.17988 -6.17988,6.17988c-3.41305,0 -6.17988,-2.76683 -6.17988,-6.17988zM274.70981,350.92741c0,-6.30863 5.11415,-11.42278 11.42278,-11.42278c6.30863,0 11.42278,5.11415 11.42278,11.42278c0,6.30863 -5.11415,11.42278 -11.42278,11.42278c-6.30863,0 -11.42278,-5.11415 -11.42278,-11.42278zM211.75738,188.00921c0,-2.77854 2.25245,-5.03099 5.03099,-5.03099c2.77854,0 5.03099,2.25245 5.03099,5.03099c0,2.77854 -2.25245,5.03099 -5.03099,5.03099c-2.77854,0 -5.03099,-2.25245 -5.03099,-5.03099zM603.80178,746.43478c0,-4.17975 3.38836,-7.56811 7.56811,-7.56811c4.17975,0 7.56811,3.38836 7.56811,7.56811c0,4.17975 -3.38836,7.56811 -7.56811,7.56811c-4.17975,0 -7.56811,-3.38836 -7.56811,-7.56811zM157.03728,296.21099c0,-6.76681 5.48558,-12.25239 12.25239,-12.25239c6.76681,0 12.25239,5.48558 12.25239,12.25239c0,6.76681 -5.48558,12.25239 -12.25239,12.25239c-6.76681,0 -12.25239,-5.48558 -12.25239,-12.25239zM602.09879,220.84499c0,-3.71245 3.00953,-6.72198 6.72198,-6.72198c3.71245,0 6.72198,3.00953 6.72198,6.72198c0,3.71245 -3.00953,6.72198 -6.72198,6.72198c-3.71245,0 -6.72198,-3.00953 -6.72198,-6.72198zM298.1157,442.51801c0,-3.07322 2.49133,-5.56455 5.56455,-5.56455c3.07322,0 5.56455,2.49133 5.56455,5.56455c0,3.07322 -2.49133,5.56455 -5.56455,5.56455c-3.07322,0 -5.56455,-2.49133 -5.56455,-5.56455zM749.88767,227.42163c0,-4.5181 3.66264,-8.18075 8.18075,-8.18075c4.5181,0 8.18075,3.66264 8.18075,8.18075c0,4.5181 -3.66264,8.18075 -8.18075,8.18075c-4.5181,0 -8.18075,-3.66264 -8.18075,-8.18075zM146.25731,316.36181c0,-3.42858 2.77941,-6.208 6.208,-6.208c3.42858,0 6.208,2.77941 6.208,6.208c0,3.42858 -2.77941,6.208 -6.208,6.208c-3.42858,0 -6.208,-2.77941 -6.208,-6.208zM380.52287,146.55173c0,-3.51746 2.85147,-6.36893 6.36893,-6.36893c3.51746,0 6.36893,2.85147 6.36893,6.36893c0,3.51746 -2.85147,6.36893 -6.36893,6.36893c-3.51746,0 -6.36893,-2.85147 -6.36893,-6.36893zM635.48488,214.99069c0,-3.02923 2.45567,-5.4849 5.4849,-5.4849c3.02923,0 5.4849,2.45567 5.4849,5.4849c0,3.02923 -2.45567,5.4849 -5.4849,5.4849c-3.02923,0 -5.4849,-2.45567 -5.4849,-5.4849zM177.16627,102.79494c0,-2.80683 2.27538,-5.08221 5.08221,-5.08221c2.80683,0 5.08221,2.27538 5.08221,5.08221c0,2.80683 -2.27538,5.08221 -5.08221,5.08221c-2.80683,0 -5.08221,-2.27538 -5.08221,-5.08221zM478.56148,74.14505c0,3.67902 -2.93047,6.67359 -6.58452,6.77681l0,-13.55363c3.65405,0.10323 6.58452,3.0978 6.58452,6.77681zM635.86253,637.05083c0,-3.47269 1.89424,-6.50295 4.70585,-8.11391l0,16.22782c-2.8116,-1.61096 -4.70585,-4.64122 -4.70585,-8.11391zM600.01794,637.93277c0,-4.24338 3.43994,-7.68331 7.68331,-7.68331c4.24338,0 7.68331,3.43994 7.68331,7.68331c0,4.24338 -3.43994,7.68331 -7.68331,7.68331c-4.24338,0 -7.68331,-3.43994 -7.68331,-7.68331zM139.07265,215.71343c0,-5.32452 4.31637,-9.64089 9.64089,-9.64089c5.32452,0 9.64089,4.31637 9.64089,9.64089c0,5.32452 -4.31637,9.64089 -9.64089,9.64089c-5.32452,0 -9.64089,-4.31637 -9.64089,-9.64089zM39.87107,166.42178c0,2.89886 -2.1715,5.29055 -4.97659,5.63715l0,-11.2743c2.80509,0.3466 4.97659,2.73829 4.97659,5.63715zM269.14507,599.09247c0,-3.27448 2.65449,-5.92897 5.92897,-5.92897c3.27448,0 5.92897,2.65449 5.92897,5.92897c0,3.27448 -2.65449,5.92897 -5.92897,5.92897c-3.27448,0 -5.92897,-2.65449 -5.92897,-5.92897zM286.3832,199.11508c0,-5.51488 4.47069,-9.98557 9.98557,-9.98557c4.71653,0 8.66931,3.27 9.7149,7.66657c0.34603,-0.0713 0.70442,-0.10875 1.07156,-0.10875c2.91739,0 5.28241,2.36501 5.28241,5.28241c0,2.91739 -2.36501,5.28241 -5.28241,5.28241c-1.33843,0 -2.5606,-0.49778 -3.49147,-1.3183c-1.82232,1.94878 -4.41641,3.16681 -7.29498,3.16681c-5.51488,0 -9.98557,-4.47069 -9.98557,-9.98557zM183.97533,44.72104c0,-3.70667 3.00485,-6.71152 6.71152,-6.71152c3.70667,0 6.71152,3.00485 6.71152,6.71152c0,3.70667 -3.00485,6.71152 -6.71152,6.71152c-3.70667,0 -6.71152,-3.00485 -6.71152,-6.71152zM190.64813,431.65804c0,-4.35725 3.53225,-7.88949 7.88949,-7.88949c4.35725,0 7.88949,3.53225 7.88949,7.88949c0,0.57417 -0.06134,1.13402 -0.17781,1.67335h-15.42336c-0.11648,-0.53933 -0.17781,-1.09917 -0.17781,-1.67335zM555.97509,231.32405c0,-3.32429 2.69487,-6.01915 6.01915,-6.01915c3.32429,0 6.01915,2.69487 6.01915,6.01915c0,3.32429 -2.69487,6.01915 -6.01915,6.01915c-3.32429,0 -6.01915,-2.69487 -6.01915,-6.01915zM36.45804,128.66092c0,2.23021 -0.56654,4.32809 -1.56355,6.15758l0,-12.31517c0.99701,1.82949 1.56355,3.92738 1.56355,6.15758zM67.51243,119.41441c0,-2.93749 2.38131,-5.3188 5.3188,-5.3188c2.93749,0 5.3188,2.38131 5.3188,5.3188c0,2.93749 -2.38131,5.3188 -5.3188,5.3188c-2.93749,0 -5.3188,-2.38131 -5.3188,-5.3188zM326.62492,650.32546c0,-3.13877 2.54447,-5.68324 5.68324,-5.68324c3.13877,0 5.68324,2.54447 5.68324,5.68324c0,3.13877 -2.54447,5.68324 -5.68324,5.68324c-3.13877,0 -5.68324,-2.54447 -5.68324,-5.68324zM686.8714,278.58241c0,-3.42461 2.7762,-6.20081 6.20081,-6.20081c3.42461,0 6.20081,2.7762 6.20081,6.20081c0,3.42461 -2.7762,6.20081 -6.20081,6.20081c-3.42461,0 -6.20081,-2.7762 -6.20081,-6.20081zM105.82169,215.48325c0,-3.20935 2.6017,-5.81105 5.81105,-5.81105c3.20935,0 5.81105,2.6017 5.81105,5.81105c0,3.20935 -2.6017,5.81105 -5.81105,5.81105c-3.20935,0 -5.81105,-2.6017 -5.81105,-5.81105zM555.13727,161.52512c0,-3.03546 2.46072,-5.49618 5.49618,-5.49618c3.03546,0 5.49618,2.46072 5.49618,5.49618c0,3.03546 -2.46072,5.49618 -5.49618,5.49618c-3.03546,0 -5.49618,-2.46072 -5.49618,-5.49618zM363.964,286.25461c0,-4.57463 3.70847,-8.2831 8.2831,-8.2831c4.57463,0 8.2831,3.70847 8.2831,8.2831c0,4.57463 -3.70847,8.2831 -8.2831,8.2831c-4.57463,0 -8.2831,-3.70847 -8.2831,-8.2831zM318.14086,264.54615c0,-3.23043 2.61878,-5.84921 5.84921,-5.84921c3.23043,0 5.84921,2.61878 5.84921,5.84921c0,3.23043 -2.61878,5.84921 -5.84921,5.84921c-3.23043,0 -5.84921,-2.61878 -5.84921,-5.84921zM724.00121,81.69375c-1.3175,0 -2.5725,-0.26765 -3.71357,-0.75154h7.42714c-1.14107,0.48389 -2.39606,0.75154 -3.71357,0.75154zM324.32179,41.92176c-3.56565,0 -6.58715,-2.32976 -7.6253,-5.55007l15.2506,0c-1.03816,3.22032 -4.05966,5.55007 -7.6253,5.55007zM121.19006,111.44441c0,-3.11479 2.52504,-5.63983 5.63983,-5.63983c3.11479,0 5.63983,2.52504 5.63983,5.63983c0,3.11479 -2.52504,5.63983 -5.63983,5.63983c-3.11479,0 -5.63983,-2.52504 -5.63983,-5.63983zM402.99968,187.11663c0,-3.39723 2.754,-6.15123 6.15123,-6.15123c2.10257,0 3.95876,1.05491 5.06815,2.66433v6.9738c-1.1094,1.60942 -2.96558,2.66433 -5.06815,2.66433c-3.39723,0 -6.15123,-2.754 -6.15123,-6.15123zM293.93664,303.51434c0,-3.63213 2.94442,-6.57655 6.57655,-6.57655c3.63213,0 6.57655,2.94442 6.57655,6.57655c0,3.63213 -2.94442,6.57655 -6.57655,6.57655c-3.63213,0 -6.57655,-2.94442 -6.57655,-6.57655zM311.68039,485.0334c0,-3.8932 3.15606,-7.04925 7.04925,-7.04925c3.8932,0 7.04925,3.15606 7.04925,7.04925c0,3.8932 -3.15606,7.04925 -7.04925,7.04925c-3.8932,0 -7.04925,-3.15606 -7.04925,-7.04925zM635.27022,723.10474c0,-3.7192 2.1622,-6.93339 5.29815,-8.45413l0,16.90826c-3.13595,-1.52074 -5.29815,-4.73493 -5.29815,-8.45413zM57.21248,275.75281c0,-5.79463 4.69747,-10.4921 10.4921,-10.4921c5.79463,0 10.4921,4.69747 10.4921,10.4921c0,5.79463 -4.69747,10.4921 -10.4921,10.4921c-5.79463,0 -10.4921,-4.69747 -10.4921,-10.4921zM642.45751,137.27089c0,-4.48132 3.63283,-8.11415 8.11415,-8.11415c4.48132,0 8.11415,3.63283 8.11415,8.11415c0,4.48132 -3.63283,8.11415 -8.11415,8.11415c-4.48132,0 -8.11415,-3.63283 -8.11415,-8.11415zM119.73397,430.82133c2.80713,0 5.39592,0.93479 7.47207,2.51006h-14.94415c2.07615,-1.57527 4.66495,-2.51006 7.47207,-2.51006zM529.37877,731.46491c0,-7.01358 5.68563,-12.69921 12.69921,-12.69921c7.01358,0 12.69921,5.68563 12.69921,12.69921c0,7.01358 -5.68563,12.69921 -12.69921,12.69921c-7.01358,0 -12.69921,-5.68563 -12.69921,-12.69921zM306.91633,291.21613c0,-8.64351 7.00695,-15.65045 15.65045,-15.65045c8.64351,0 15.65045,7.00695 15.65045,15.65045c0,8.64351 -7.00695,15.65045 -15.65045,15.65045c-8.64351,0 -15.65045,-7.00695 -15.65045,-15.65045zM468.28468,92.23054c0,-5.34252 4.33097,-9.67349 9.67349,-9.67349c5.34252,0 9.67349,4.33097 9.67349,9.67349c0,5.34252 -4.33097,9.67349 -9.67349,9.67349c-5.34252,0 -9.67349,-4.33097 -9.67349,-9.67349zM492.87427,258.05772c0,-3.19452 2.58967,-5.7842 5.7842,-5.7842c3.19452,0 5.7842,2.58967 5.7842,5.7842c0,3.19452 -2.58967,5.7842 -5.7842,5.7842c-3.19452,0 -5.7842,-2.58967 -5.7842,-5.7842zM416.87171,703.90973c0,-4.93445 4.00016,-8.93462 8.93462,-8.93462c4.93445,0 8.93462,4.00016 8.93462,8.93462c0,4.93445 -4.00016,8.93462 -8.93462,8.93462c-4.93445,0 -8.93462,-4.00016 -8.93462,-8.93462zM174.4405,339.48833c0,-4.47635 3.6288,-8.10514 8.10514,-8.10514c4.47635,0 8.10514,3.6288 8.10514,8.10514c0,4.47635 -3.6288,8.10514 -8.10514,8.10514c-4.47635,0 -8.10514,-3.6288 -8.10514,-8.10514zM146.77265,148.14029c0,-6.63285 5.37699,-12.00984 12.00984,-12.00984c6.63285,0 12.00984,5.37699 12.00984,12.00984c0,6.63285 -5.37699,12.00984 -12.00984,12.00984c-6.63285,0 -12.00984,-5.37699 -12.00984,-12.00984zM301.01123,91.41807c0,-3.89008 3.15353,-7.04361 7.04361,-7.04361c3.89008,0 7.04361,3.15353 7.04361,7.04361c0,3.89008 -3.15353,7.04361 -7.04361,7.04361c-3.89008,0 -7.04361,-3.15353 -7.04361,-7.04361zM503.53666,58.18588c0,-6.08773 4.93508,-11.02281 11.02281,-11.02281c0.19731,0 0.39342,0.00518 0.58818,0.01542v22.01476c-0.19476,0.01024 -0.39087,0.01542 -0.58818,0.01542c-6.08773,0 -11.02281,-4.93508 -11.02281,-11.02281zM594.35149,262.0786c0,-4.08064 3.30801,-7.38866 7.38866,-7.38866c4.08064,0 7.38866,3.30801 7.38866,7.38866c0,4.08064 -3.30801,7.38866 -7.38866,7.38866c-4.08064,0 -7.38866,-3.30801 -7.38866,-7.38866zM386.07448,593.65619c0,-2.80174 2.27126,-5.07301 5.07301,-5.07301c2.80174,0 5.07301,2.27126 5.07301,5.07301c0,2.80174 -2.27126,5.07301 -5.07301,5.07301c-2.80174,0 -5.07301,-2.27126 -5.07301,-5.07301zM506.73194,718.31532c0,-4.47586 3.6284,-8.10426 8.10426,-8.10426c4.47586,0 8.10426,3.6284 8.10426,8.10426c0,4.47586 -3.6284,8.10426 -8.10426,8.10426c-4.47586,0 -8.10426,-3.6284 -8.10426,-8.10426zM502.15589,396.14078c0,-3.19055 2.58645,-5.777 5.777,-5.777c0.4762,0 0.93895,0.05762 1.38164,0.16626v11.22148c-0.4427,0.10864 -0.90544,0.16626 -1.38164,0.16626c-3.19055,0 -5.777,-2.58645 -5.777,-5.777zM552.39307,282.76547c0,-3.66291 2.96938,-6.63229 6.63229,-6.63229c3.66291,0 6.63229,2.96938 6.63229,6.63229c0,3.66291 -2.96938,6.63229 -6.63229,6.63229c-3.66291,0 -6.63229,-2.96938 -6.63229,-6.63229zM364.93653,312.94163c0,-4.88083 3.9567,-8.83753 8.83753,-8.83753c4.88083,0 8.83753,3.9567 8.83753,8.83753c0,4.88083 -3.9567,8.83753 -8.83753,8.83753c-4.88083,0 -8.83753,-3.9567 -8.83753,-8.83753zM37.96652,227.99669c0,2.57543 -1.20031,4.87052 -3.07204,6.35636l0,-12.71271c1.87172,1.48584 3.07204,3.78092 3.07204,6.35636z" stroke="#000000"/><path d="M337.31604,727.4618c0,-18.66947 15.1346,-33.80407 33.80407,-33.80407c18.66947,0 33.80407,15.1346 33.80407,33.80407c0,18.66947 -15.1346,33.80407 -33.80407,33.80407c-18.66947,0 -33.80407,-15.1346 -33.80407,-33.80407zM471.20033,435.10425c6.00756,0 11.33646,2.90568 14.65799,7.38831v21.68659c-0.53382,0.72043 -1.11949,1.40013 -1.7515,2.03358c0.13582,0.9348 0.20614,1.89083 0.20614,2.86328c0,10.90265 -8.83834,19.74099 -19.74099,19.74099c-10.90265,0 -19.74099,-8.83834 -19.74099,-19.74099c0,-6.56691 3.20649,-12.38491 8.13921,-15.97374c0.12507,-9.96139 8.23908,-17.99802 18.23014,-17.99802zM149.36376,88.93969c0,-8.73123 7.07806,-15.80929 15.80929,-15.80929c8.73123,0 15.80929,7.07806 15.80929,15.80929c0,1.32376 -0.1627,2.60952 -0.46919,3.83837c0.56392,-0.097 1.14372,-0.14755 1.73534,-0.14755c5.61366,0 10.16443,4.55077 10.16443,10.16443c0,5.61366 -4.55077,10.16443 -10.16443,10.16443c-5.4917,0 -9.96619,-4.35519 -10.15802,-9.8001c-2.0894,1.01833 -4.43669,1.58971 -6.91742,1.58971c-8.73123,0 -15.80929,-7.07806 -15.80929,-15.80929zM519.69562,153.78142c0,-7.74716 5.72639,-14.15685 13.17736,-15.22724c-0.36385,-1.37967 -0.55766,-2.82838 -0.55766,-4.32235c0,-9.33569 7.56807,-16.90376 16.90376,-16.90376c9.33569,0 16.90376,7.56807 16.90376,16.90376c0,8.99544 -7.02647,16.34976 -15.89034,16.87388c0.1524,0.86898 0.23187,1.76307 0.23187,2.67571c0,8.49655 -6.88781,15.38436 -15.38436,15.38436c-8.49655,0 -15.38436,-6.88781 -15.38436,-15.38436zM504.57186,670.11522c0,-6.8261 5.53365,-12.35975 12.35975,-12.35975c6.8261,0 12.35975,5.53365 12.35975,12.35975c0,6.8261 -5.53365,12.35975 -12.35975,12.35975c-6.8261,0 -12.35975,-5.53365 -12.35975,-12.35975zM263.28704,350.92741c0,-12.61725 10.2283,-22.84555 22.84555,-22.84555c12.61725,0 22.84555,10.2283 22.84555,22.84555c0,12.61725 -10.2283,22.84555 -22.84555,22.84555c-12.61725,0 -22.84555,-10.2283 -22.84555,-22.84555zM206.72639,188.00921c0,-5.55708 4.5049,-10.06198 10.06198,-10.06198c5.55708,0 10.06198,4.5049 10.06198,10.06198c0,5.55708 -4.5049,10.06198 -10.06198,10.06198c-5.55708,0 -10.06198,-4.5049 -10.06198,-10.06198zM596.23367,746.43478c0,-8.3595 6.77671,-15.13622 15.13622,-15.13622c8.3595,0 15.13622,6.77671 15.13622,15.13622c0,8.3595 -6.77671,15.13622 -15.13622,15.13622c-8.3595,0 -15.13622,-6.77671 -15.13622,-15.13622zM144.78489,296.21099c0,-13.53361 10.97116,-24.50478 24.50478,-24.50478c13.53361,0 24.50478,10.97116 24.50478,24.50478c0,13.53361 -10.97116,24.50478 -24.50478,24.50478c-1.7183,0 -3.39529,-0.17686 -5.01377,-0.51336c-1.61745,4.97741 -6.29384,8.5754 -11.81059,8.5754c-6.85716,0 -12.41599,-5.55883 -12.41599,-12.41599c0,-4.72657 2.64111,-8.83628 6.52805,-10.93383c-1.1558,-2.84526 -1.79248,-5.95678 -1.79248,-9.217zM595.37681,220.84499c0,-7.42489 6.01907,-13.44396 13.44396,-13.44396c7.42489,0 13.44396,6.01907 13.44396,13.44396c0,7.42489 -6.01907,13.44396 -13.44396,13.44396c-7.42489,0 -13.44396,-6.01907 -13.44396,-13.44396zM292.55115,442.51801c0,-6.14643 4.98267,-11.1291 11.1291,-11.1291c6.14643,0 11.1291,4.98267 11.1291,11.1291c0,6.14643 -4.98267,11.1291 -11.1291,11.1291c-6.14643,0 -11.1291,-4.98267 -11.1291,-11.1291zM741.70693,227.42163c0,-9.0362 7.32529,-16.36149 16.36149,-16.36149c3.77363,0 7.24888,1.27753 10.01683,3.42369v25.87561c-2.76796,2.14616 -6.2432,3.42369 -10.01683,3.42369c-9.0362,0 -16.36149,-7.32529 -16.36149,-16.36149zM374.15395,146.55173c0,-7.03492 5.70293,-12.73785 12.73785,-12.73785c7.03492,0 12.73785,5.70293 12.73785,12.73785c0,7.03492 -5.70293,12.73785 -12.73785,12.73785c-7.03492,0 -12.73785,-5.70293 -12.73785,-12.73785zM629.99998,214.99069c0,-6.05845 4.91135,-10.9698 10.9698,-10.9698c6.05845,0 10.9698,4.91135 10.9698,10.9698c0,6.05845 -4.91135,10.9698 -10.9698,10.9698c-6.05845,0 -10.9698,-4.91135 -10.9698,-10.9698zM485.34104,74.14505c0,0.06561 -0.00047,0.13112 -0.0014,0.19651c7.02325,2.90117 11.9655,9.81791 11.9655,17.88898c0,10.68504 -8.66194,19.34698 -19.34698,19.34698c-10.68504,0 -19.34698,-8.66194 -19.34698,-19.34698c0,-3.50813 0.93371,-6.79818 2.56619,-9.63519c-0.41578,-0.52109 -0.79395,-1.0735 -1.13042,-1.65313h11.93l0,-42.14778c4.43238,3.72082 7.25002,9.30264 7.25002,15.54256c0,2.69767 -0.52663,5.27234 -1.48269,7.62681c4.49923,2.20639 7.59676,6.83209 7.59676,12.18125zM626.51769,637.05083c0,-8.72067 5.97274,-16.04634 14.05069,-18.10944v36.21889c-8.07794,-2.06311 -14.05069,-9.38877 -14.05069,-18.10944zM592.33463,637.93277c0,-8.48675 6.87987,-15.36662 15.36662,-15.36662c8.48675,0 15.36662,6.87987 15.36662,15.36662c0,8.48675 -6.87987,15.36662 -15.36662,15.36662c-8.48675,0 -15.36662,-6.87987 -15.36662,-15.36662zM129.43176,215.71343c0,-10.64903 8.63275,-19.28178 19.28178,-19.28178c10.64903,0 19.28178,8.63275 19.28178,19.28178c0,10.64903 -8.63275,19.28178 -19.28178,19.28178c-10.64903,0 -19.28178,-8.63275 -19.28178,-19.28178zM49.63288,115.13459c-1.45639,0 -2.89034,-0.09611 -4.29583,-0.28234c2.53764,3.99153 4.00749,8.72844 4.00749,13.80866c0,10.17167 -5.89245,18.96709 -14.45006,23.15898v-43.95811l35.19212,0c-5.57721,4.54656 -12.69709,7.2728 -20.45372,7.2728zM45.55139,166.42178c0,6.03797 -4.71038,10.97578 -10.6569,11.33919l0,-22.67838c5.94653,0.36341 10.6569,5.30122 10.6569,11.33919zM263.2161,599.09247c0,-6.54896 5.30898,-11.85794 11.85794,-11.85794c6.54896,0 11.85794,5.30898 11.85794,11.85794c0,6.54896 -5.30898,11.85794 -11.85794,11.85794c-6.54896,0 -11.85794,-5.30898 -11.85794,-11.85794zM276.39763,199.11508c0,-11.02975 8.94138,-19.97114 19.97114,-19.97114c10.125,0 18.49019,7.53465 19.79443,17.30281c0.98742,1.60705 1.55684,3.49852 1.55684,5.52299c0,3.98805 -2.20971,7.46 -5.47156,9.25827c-3.64913,4.77662 -9.40455,7.85821 -15.87971,7.85821c-11.02975,0 -19.97114,-8.94138 -19.97114,-19.97114zM177.26381,44.72104c0,-3.15596 1.08915,-6.05753 2.91208,-8.34935l21.02192,0c1.82293,2.29182 2.91208,5.19339 2.91208,8.34935c0,7.41334 -6.0097,13.42304 -13.42304,13.42304c-7.41334,0 -13.42304,-6.0097 -13.42304,-13.42304zM182.75864,431.65804c0,-8.71449 7.06449,-15.77898 15.77898,-15.77898c8.71449,0 15.77898,7.06449 15.77898,15.77898c0,0.56522 -0.02972,1.12349 -0.08768,1.67335h-31.38261c-0.05796,-0.54986 -0.08768,-1.10813 -0.08768,-1.67335zM549.95594,231.32405c0,-6.64857 5.38973,-12.03831 12.03831,-12.03831c6.64857,0 12.03831,5.38973 12.03831,12.03831c0,6.64857 -5.38973,12.03831 -12.03831,12.03831c-6.64857,0 -12.03831,-5.38973 -12.03831,-12.03831zM62.19363,119.41441c0,-5.87499 4.76262,-10.6376 10.6376,-10.6376c5.87499,0 10.6376,4.76262 10.6376,10.6376c0,5.87499 -4.76262,10.6376 -10.6376,10.6376c-5.87499,0 -10.6376,-4.76262 -10.6376,-10.6376zM320.94168,650.32546c0,-6.27754 5.08895,-11.36649 11.36649,-11.36649c6.27754,0 11.36649,5.08895 11.36649,11.36649c0,6.27754 -5.08895,11.36649 -11.36649,11.36649c-6.27754,0 -11.36649,-5.08895 -11.36649,-11.36649zM680.67058,278.58241c0,-6.84923 5.5524,-12.40163 12.40163,-12.40163c6.84923,0 12.40163,5.5524 12.40163,12.40163c0,6.84923 -5.5524,12.40163 -12.40163,12.40163c-6.84923,0 -12.40163,-5.5524 -12.40163,-12.40163zM100.01064,215.48325c0,-6.41871 5.20339,-11.6221 11.6221,-11.6221c6.41871,0 11.6221,5.20339 11.6221,11.6221c0,6.41871 -5.20339,11.6221 -11.6221,11.6221c-6.41871,0 -11.6221,-5.20339 -11.6221,-11.6221zM549.64109,161.52512c0,-6.07091 4.92145,-10.99236 10.99236,-10.99236c6.07091,0 10.99236,4.92145 10.99236,10.99236c0,6.07091 -4.92145,10.99236 -10.99236,10.99236c-6.07091,0 -10.99236,-4.92145 -10.99236,-10.99236zM355.6809,286.25461c0,-9.14926 7.41694,-16.56621 16.56621,-16.56621c9.14926,0 16.56621,7.41694 16.56621,16.56621c0,4.73365 -1.98539,9.0036 -5.16888,12.02254c4.70829,3.17529 7.80469,8.55829 7.80469,14.66449c0,9.76167 -7.9134,17.67506 -17.67506,17.67506c-9.76167,0 -17.67506,-7.9134 -17.67506,-17.67506c0,-5.38057 2.40421,-10.19961 6.19695,-13.44145c-4.01725,-3.02288 -6.61504,-7.83086 -6.61504,-13.24558zM323.99007,252.84773c5.84152,0 10.68303,4.28154 11.55757,9.87765c10.80834,4.93241 18.32005,15.83435 18.32005,28.49074c0,17.28701 -14.01389,31.3009 -31.3009,31.3009c-7.04746,0 -13.55094,-2.32908 -18.7827,-6.25951c-1.04577,0.26763 -2.14172,0.40992 -3.2709,0.40992c-7.26426,0 -13.1531,-5.88884 -13.1531,-13.1531c0,-3.72225 1.54617,-7.08337 4.0313,-9.47614c-0.08307,-0.92959 -0.1255,-1.87088 -0.1255,-2.82208c0,-13.8361 8.97732,-25.57544 21.42492,-29.71099c1.33869,-4.98643 5.89028,-8.6574 11.29926,-8.6574zM724.00121,91.21329c-7.35308,0 -13.73259,-4.1684 -16.90439,-10.27107l33.80878,0c-3.1718,6.10268 -9.5513,10.27107 -16.90439,10.27107zM324.32179,49.93192c-8.01122,0 -14.64902,-5.88034 -15.83261,-13.56023l31.66521,0c-1.18358,7.67989 -7.82138,13.56023 -15.83261,13.56023zM115.55023,111.44441c0,-6.22958 5.05007,-11.27965 11.27965,-11.27965c6.22958,0 11.27965,5.05007 11.27965,11.27965c0,6.22958 -5.05007,11.27965 -11.27965,11.27965c-6.22958,0 -11.27965,-5.05007 -11.27965,-11.27965zM509.71432,13.86507c0,-4.55774 1.97713,-8.6537 5.12051,-11.47699h0.31281v23.22746c-3.32446,-2.82877 -5.43332,-7.04334 -5.43332,-11.75047zM396.84845,187.11663c0,-6.79446 5.508,-12.30246 12.30246,-12.30246c1.80682,0 3.52267,0.38951 5.06815,1.08913v22.42666c-1.54549,0.69962 -3.26133,1.08913 -5.06815,1.08913c-6.79446,0 -12.30246,-5.508 -12.30246,-12.30246zM304.63113,485.0334c0,-7.78639 6.31212,-14.09851 14.09851,-14.09851c7.78639,0 14.09851,6.31212 14.09851,14.09851c0,7.78639 -6.31212,14.09851 -14.09851,14.09851c-7.78639,0 -14.09851,-6.31212 -14.09851,-14.09851zM625.87992,723.10474c0,-8.96678 6.28406,-16.46585 14.68845,-18.33348v36.66695c-8.40439,-1.86763 -14.68845,-9.36669 -14.68845,-18.33348zM46.72038,275.75281c0,-11.58926 9.39495,-20.98421 20.98421,-20.98421c11.58926,0 20.98421,9.39495 20.98421,20.98421c0,11.58926 -9.39495,20.98421 -20.98421,20.98421c-11.58926,0 -20.98421,-9.39495 -20.98421,-20.98421zM634.34336,137.27089c0,-8.96264 7.26566,-16.2283 16.2283,-16.2283c8.96264,0 16.2283,7.26566 16.2283,16.2283c0,8.96264 -7.26566,16.2283 -16.2283,16.2283c-8.96264,0 -16.2283,-7.26566 -16.2283,-16.2283zM119.73397,418.44801c10.16139,0 18.89235,6.12444 22.70293,14.88338l-45.40587,0c3.81059,-8.75894 12.54154,-14.88338 22.70293,-14.88338zM542.07798,706.06649c14.02716,0 25.39842,11.37126 25.39842,25.39842c0,14.02716 -11.37126,25.39842 -25.39842,25.39842c-13.03437,0 -23.77548,-9.81859 -25.23063,-22.46304c-0.65894,0.08155 -1.33014,0.12355 -2.01115,0.12355c-8.95172,0 -16.20853,-7.2568 -16.20853,-16.20853c0,-8.95172 7.2568,-16.20853 16.20853,-16.20853c5.86296,0 10.99885,3.1129 13.84508,7.77609c3.88896,-2.41913 8.47965,-3.81639 13.3967,-3.81639zM487.09008,258.05772c0,-6.38905 5.17935,-11.56839 11.56839,-11.56839c6.38905,0 11.56839,5.17935 11.56839,11.56839c0,6.38905 -5.17935,11.56839 -11.56839,11.56839c-6.38905,0 -11.56839,-5.17935 -11.56839,-11.56839zM407.93709,703.90973c0,-9.86891 8.00033,-17.86924 17.86924,-17.86924c9.86891,0 17.86924,8.00033 17.86924,17.86924c0,9.86891 -8.00033,17.86924 -17.86924,17.86924c-9.86891,0 -17.86924,-8.00033 -17.86924,-17.86924zM166.33536,339.48833c0,-8.95269 7.25759,-16.21028 16.21028,-16.21028c8.95269,0 16.21028,7.25759 16.21028,16.21028c0,8.95269 -7.25759,16.21028 -16.21028,16.21028c-8.95269,0 -16.21028,-7.25759 -16.21028,-16.21028zM134.76281,148.14029c0,-13.2657 10.75398,-24.01968 24.01968,-24.01968c13.2657,0 24.01968,10.75398 24.01968,24.01968c0,13.2657 -10.75398,24.01968 -24.01968,24.01968c-13.2657,0 -24.01968,-10.75398 -24.01968,-24.01968zM293.96762,91.41807c0,-7.78015 6.30706,-14.08721 14.08721,-14.08721c7.78015,0 14.08721,6.30706 14.08721,14.08721c0,7.78015 -6.30706,14.08721 -14.08721,14.08721c-7.78015,0 -14.08721,-6.30706 -14.08721,-14.08721zM492.51385,58.18588c0,-12.17546 9.87016,-22.04561 22.04561,-22.04561c0.19667,0 0.39274,0.00258 0.58818,0.00769l0,44.07584c-0.19544,0.00512 -0.39151,0.00769 -0.58818,0.00769c-12.17546,0 -22.04561,-9.87016 -22.04561,-22.04561zM586.96284,262.0786c0,-8.16128 6.61603,-14.77731 14.77731,-14.77731c8.16128,0 14.77731,6.61603 14.77731,14.77731c0,8.16128 -6.61603,14.77731 -14.77731,14.77731c-8.16128,0 -14.77731,-6.61603 -14.77731,-14.77731zM381.00147,593.65619c0,-5.60349 4.54252,-10.14601 10.14601,-10.14601c5.60349,0 10.14601,4.54252 10.14601,10.14601c0,5.60349 -4.54252,10.14601 -10.14601,10.14601c-5.60349,0 -10.14601,-4.54252 -10.14601,-10.14601zM496.37889,396.14078c0,-6.3811 5.1729,-11.554 11.554,-11.554c0.46755,0 0.92862,0.02777 1.38164,0.08176v22.94449c-0.45302,0.05398 -0.91409,0.08176 -1.38164,0.08176c-6.3811,0 -11.554,-5.1729 -11.554,-11.554zM545.76078,282.76547c0,-7.32583 5.93875,-13.26458 13.26458,-13.26458c7.32583,0 13.26458,5.93875 13.26458,13.26458c0,5.16193 -2.94854,9.6352 -7.25327,11.82744h-12.02263c-4.30473,-2.19224 -7.25327,-6.66551 -7.25327,-11.82744zM46.07767,227.99669c0,7.20018 -4.69083,13.30476 -11.18319,15.42442l0,-30.84884c6.49235,2.11966 11.18319,8.22424 11.18319,15.42442zM67.55401,433.33138v-6.25208c3.73357,0.89821 6.93196,3.17055 9.03022,6.25208z" stroke="#000000"/><path d="M320.41401,727.4618c0,-28.00421 22.7019,-50.7061 50.7061,-50.7061c12.43336,0 23.82154,4.475 32.64174,11.90222c4.8387,-6.9805 12.90771,-11.55204 22.04447,-11.55204c14.80336,0 26.80385,12.00049 26.80385,26.80385c0,14.80336 -12.00049,26.80385 -26.80385,26.80385c-1.38166,0 -2.7389,-0.10454 -4.06424,-0.30614c-1.52555,26.63334 -23.60651,47.76046 -50.62197,47.76046c-28.00421,0 -50.7061,-22.7019 -50.7061,-50.7061zM471.20033,425.98844c8.73537,0 16.51416,4.09565 21.52083,10.47142h-6.86284l0,53.20091c-5.38378,5.5661 -12.93093,9.02671 -21.28635,9.02671c-16.35397,0 -29.61148,-13.25751 -29.61148,-29.61148c0,-8.62149 3.68451,-16.38241 9.56481,-21.79404c2.75486,-12.19035 13.65187,-21.29352 26.67503,-21.29352zM141.45911,88.93969c0,-13.09684 10.61709,-23.71393 23.71393,-23.71393c13.09684,0 23.71393,10.61709 23.71393,23.71393c0,0.04192 -0.00011,0.08381 -0.00033,0.12568c5.095,2.46795 8.60847,7.68845 8.60847,13.72957c0,8.42049 -6.82615,15.24664 -15.24664,15.24664c-1.74172,0 -3.41523,-0.29205 -4.97423,-0.82986c10.50565,6.29471 17.53776,17.79042 17.53776,30.92856c0,19.89855 -16.13097,36.02952 -36.02952,36.02952c-19.89855,0 -36.02952,-16.13097 -36.02952,-36.02952c0,-7.34877 2.20012,-14.18368 5.97761,-19.88197c-0.62394,0.06975 -1.25813,0.10557 -1.90069,0.10557c-9.34437,0 -16.91948,-7.57511 -16.91948,-16.91948c0,-9.34437 7.57511,-16.91948 16.91948,-16.91948c9.34437,0 16.91948,7.57511 16.91948,16.91948c0,1.44554 -0.18128,2.84874 -0.52234,4.1881c4.70899,-2.2574 9.98457,-3.52175 15.55547,-3.52175c0.48794,0 0.97362,0.0097 1.45685,0.02892c-10.72891,-2.27038 -18.78022,-11.79494 -18.78022,-23.19999zM170.18706,112.12254c-1.61626,0.34791 -3.29375,0.53108 -5.01401,0.53108c-0.04235,0 -0.08468,-0.00011 -0.12698,-0.00033c2.90281,0.50884 5.68604,1.36515 8.30521,2.52448c-1.19622,-0.86101 -2.26262,-1.89109 -3.16422,-3.05523zM512.00344,153.78142c0,-8.67682 4.78879,-16.23516 11.86759,-20.17622c0.33263,-13.71399 11.55399,-24.729 25.34804,-24.729c14.00353,0 25.35563,11.3521 25.35563,25.35563c0,5.16928 -1.5469,9.97727 -4.20304,13.9863c4.09288,3.00029 6.75033,7.8433 6.75033,13.307c0,9.10637 -7.38217,16.48854 -16.48854,16.48854c-4.83888,0 -9.19092,-2.08441 -12.20722,-5.40433c-3.76773,2.67561 -8.37329,4.24864 -13.34625,4.24864c-12.74482,0 -23.07655,-10.33172 -23.07655,-23.07655zM623.46493,654.74971c-4.12229,3.86566 -9.66652,6.233 -15.76368,6.233c-12.73013,0 -23.04993,-10.31981 -23.04993,-23.04993c0,-12.73013 10.31981,-23.04993 23.04993,-23.04993c5.70711,0 10.92979,2.07415 14.95533,5.50975c4.23373,-5.72185 10.59329,-9.77555 17.9118,-10.99425l0,55.30498c-6.86658,-1.14344 -12.88899,-4.78257 -17.10344,-9.95362zM633.91318,749.15296c-1.34313,11.25776 -10.9239,19.98615 -22.54329,19.98615c-12.53925,0 -22.70432,-10.16507 -22.70432,-22.70432c0,-12.53925 10.16507,-22.70432 22.70432,-22.70432c1.76969,0 3.4921,0.20247 5.14531,0.58551c-0.01699,-0.40163 -0.02557,-0.80543 -0.02557,-1.21124c0,-14.1685 10.45979,-25.89398 24.07874,-27.87583v55.75165c-2.32233,-0.33795 -4.55279,-0.95922 -6.65519,-1.82761zM498.39198,670.11522c0,-10.23916 8.30048,-18.53963 18.53963,-18.53963c10.23916,0 18.53963,8.30048 18.53963,18.53963c0,10.23916 -8.30048,18.53963 -18.53963,18.53963c-10.23916,0 -18.53963,-8.30048 -18.53963,-18.53963zM251.86426,350.92741c0,-17.93168 13.77289,-32.64654 31.31712,-34.14302c-4.78564,-7.35672 -7.56595,-16.13781 -7.56595,-25.56827c0,-25.93052 21.02084,-46.95136 46.95136,-46.95136c15.84253,0 29.8524,7.84651 38.3554,19.8653c3.39613,-1.74188 7.24574,-2.72477 11.32492,-2.72477c13.7239,0 24.84931,11.12542 24.84931,24.84931c0,3.75309 -0.83203,7.31185 -2.3217,10.50189c3.45603,4.47768 5.51193,10.09132 5.51193,16.18514c0,14.6425 -11.87009,26.51259 -26.51259,26.51259c-9.09478,0 -17.11999,-4.57939 -21.89559,-11.55816c-8.03299,6.4277 -18.22346,10.27141 -29.31168,10.27141c-1.59145,0 -3.1644,-0.07918 -4.71513,-0.23381c1.64326,4.00715 2.54926,8.39464 2.54926,12.99374c0,18.92588 -15.34245,34.26833 -34.26833,34.26833c-18.92588,0 -34.26833,-15.34245 -34.26833,-34.26833zM201.6954,188.00921c0,-8.33562 6.75735,-15.09297 15.09297,-15.09297c8.33562,0 15.09297,6.75735 15.09297,15.09297c0,8.33562 -6.75735,15.09297 -15.09297,15.09297c-8.33562,0 -15.09297,-6.75735 -15.09297,-15.09297zM270.48146,792.48221c0,6.06568 -2.60126,11.52381 -6.74909,15.31969v-30.63939c4.14783,3.79588 6.74909,9.25401 6.74909,15.31969zM132.5325,296.21099c0,-20.30042 16.45674,-36.75717 36.75717,-36.75717c20.30042,0 36.75717,16.45674 36.75717,36.75717c0,9.12088 -3.32206,17.46585 -8.8222,23.89094c5.85489,4.4401 9.63644,11.47164 9.63644,19.3864c0,13.42904 -10.88639,24.31542 -24.31542,24.31542c-13.42904,0 -24.31542,-10.88639 -24.31542,-24.31542c0,-1.94137 0.22752,-3.8296 0.65734,-5.63948c-2.00196,0.73546 -4.16522,1.13696 -6.42225,1.13696c-10.28574,0 -18.62399,-8.33824 -18.62399,-18.62399c0,-2.35625 0.43757,-4.6103 1.23588,-6.68533c-1.6425,-4.16984 -2.5447,-8.71231 -2.5447,-13.4655zM588.65483,220.84499c0,-11.13734 9.0286,-20.16594 20.16594,-20.16594c6.91306,0 13.01366,3.47855 16.64694,8.78077c2.27181,-6.36694 8.35478,-10.92384 15.50208,-10.92384c9.08768,0 16.4547,7.36702 16.4547,16.4547c0,9.08768 -7.36702,16.4547 -16.4547,16.4547c-5.03152,0 -9.53559,-2.25831 -12.55388,-5.81663c-2.14773,8.82817 -10.10605,15.38216 -19.59513,15.38216c-0.05763,0 -0.1152,-0.00024 -0.17272,-0.00072c8.85941,2.90303 15.25807,11.23847 15.25807,21.06839c0,12.24193 -9.92404,22.16597 -22.16597,22.16597c-12.24193,0 -22.16597,-9.92404 -22.16597,-22.16597c0,-12.24193 9.92404,-22.16597 22.16597,-22.16597c0.17265,0 0.34485,0.00197 0.51656,0.0059c-7.91478,-2.72328 -13.60188,-10.23426 -13.60188,-19.07353zM286.9866,442.51801c0,-9.21965 7.474,-16.69366 16.69366,-16.69366c9.21965,0 16.69366,7.474 16.69366,16.69366c0,9.21965 -7.474,16.69366 -16.69366,16.69366c-9.21965,0 -16.69366,-7.474 -16.69366,-16.69366zM733.52618,227.42163c0,-13.5543 10.98793,-24.54224 24.54224,-24.54224c3.56798,0 6.95813,0.76139 10.01683,2.13055v44.82337c-3.0587,1.36916 -6.44885,2.13055 -10.01683,2.13055c-13.5543,0 -24.54224,-10.98793 -24.54224,-24.54224zM367.78502,146.55173c0,-10.55238 8.5544,-19.10678 19.10678,-19.10678c10.55238,0 19.10678,8.5544 19.10678,19.10678c0,10.55238 -8.5544,19.10678 -19.10678,19.10678c-10.55238,0 -19.10678,-8.5544 -19.10678,-19.10678zM87.51888,113.16852c0.8168,1.91831 1.26876,4.02932 1.26876,6.24588c0,8.81248 -7.14392,15.9564 -15.9564,15.9564c-4.11033,0 -7.85767,-1.55416 -10.68644,-4.10688c-0.70467,10.59913 -5.68109,20.0297 -13.22301,26.58548c1.46857,2.51819 2.30992,5.44703 2.30992,8.57238c0,9.17573 -7.25209,16.65764 -16.33722,17.02668v-75.58667l56.33959,0c-1.12164,1.85351 -2.36365,3.62603 -3.71519,5.30673zM486.29956,41.00403c4.30689,-7.06862 11.19123,-12.39437 19.34745,-14.67165c-2.30635,-3.59788 -3.64368,-7.87642 -3.64368,-12.46731c0,-4.17663 1.10687,-8.09474 3.04328,-11.47699h10.10103v78.55414h23.40504c-6.02591,6.35135 -14.54702,10.31208 -23.99321,10.31208c-2.62953,0 -5.18737,-0.30692 -7.63967,-0.88688c0.03903,0.61602 0.05884,1.23726 0.05884,1.86312c0,16.02756 -12.99291,29.02047 -29.02047,29.02047c-14.74014,0 -26.91356,-10.98941 -28.77413,-25.2221v-7.59674c0.22109,-1.69124 0.58779,-3.33668 1.08712,-4.92333c-0.36529,-0.10843 -0.72771,-0.22353 -1.08712,-0.34517v-2.22146l22.79293,0l0,-54.10564c6.23176,2.95876 11.29806,7.97334 14.32261,14.16745zM54.18882,227.99669c0,11.71132 -8.2734,21.49029 -19.29434,23.81104l0,-47.62209c11.02094,2.32075 19.29434,12.09972 19.29434,23.81104zM84.43465,431.67969c4.84554,-14.86391 18.81807,-25.60501 35.29932,-25.60501c17.08569,0 31.47528,11.54339 35.79529,27.2567h-87.97524l0,-14.01769c7.40987,1.16462 13.63827,5.88814 16.88063,12.366zM174.86915,431.65804c0,-13.07174 10.59674,-23.66847 23.66847,-23.66847c13.07174,0 23.66847,10.59674 23.66847,23.66847c0,0.56258 -0.01963,1.12058 -0.05824,1.67335h-47.22047c-0.03861,-0.55277 -0.05824,-1.11076 -0.05824,-1.67335zM148.71354,186.79076c15.97355,0 28.92267,12.94912 28.92267,28.92267c0,15.97355 -12.94912,28.92267 -28.92267,28.92267c-11.27066,0 -21.03562,-6.44669 -25.80861,-15.85378c-3.03932,2.57867 -6.97411,4.13409 -11.27219,4.13409c-9.62806,0 -17.43315,-7.80509 -17.43315,-17.43315c0,-9.62806 7.80509,-17.43315 17.43315,-17.43315c4.376,0 8.37542,1.61233 11.43661,4.27534c4.83039,-9.23348 14.50143,-15.53468 25.6442,-15.53468zM78.80811,382.15703c0,10.41953 -4.31435,19.83139 -11.2541,26.54662v-53.09323c6.93974,6.71522 11.2541,16.12708 11.2541,26.54662zM257.28712,599.09247c0,-9.82344 7.96347,-17.78691 17.78691,-17.78691c9.82344,0 17.78691,7.96347 17.78691,17.78691c0,9.82344 -7.96347,17.78691 -17.78691,17.78691c-9.82344,0 -17.78691,-7.96347 -17.78691,-17.78691zM266.41206,199.11508c0,-16.54463 13.41207,-29.95671 29.95671,-29.95671c16.54463,0 29.95671,13.41207 29.95671,29.95671c0,16.54463 -13.41207,29.95671 -29.95671,29.95671c-16.54463,0 -29.95671,-13.41207 -29.95671,-29.95671zM724.00121,100.73282c-12.71367,0 -23.48698,-8.3077 -27.18742,-19.79061h54.37484c-3.70044,11.48291 -14.47375,19.79061 -27.18742,19.79061zM170.55229,44.72104c0,-2.36547 0.40791,-4.63567 1.15724,-6.74408c-3.62511,1.36704 -7.55383,2.11501 -11.65725,2.11501c-5.49955,0 -10.68529,-1.34353 -15.24693,-3.72028h64.2087c1.16065,2.54357 1.80735,5.37094 1.80735,8.34935c0,11.12001 -9.01455,20.13456 -20.13456,20.13456c-11.12001,0 -20.13456,-9.01455 -20.13456,-20.13456zM543.93678,231.32405c0,-9.97286 8.0846,-18.05746 18.05746,-18.05746c9.97286,0 18.05746,8.0846 18.05746,18.05746c0,9.97286 -8.0846,18.05746 -18.05746,18.05746c-9.97286,0 -18.05746,-8.0846 -18.05746,-18.05746zM315.25843,650.32546c0,-9.41631 7.63342,-17.04973 17.04973,-17.04973c9.41631,0 17.04973,7.63342 17.04973,17.04973c0,9.41631 -7.63342,17.04973 -17.04973,17.04973c-9.41631,0 -17.04973,-7.63342 -17.04973,-17.04973zM674.46977,278.58241c0,-10.27384 8.3286,-18.60244 18.60244,-18.60244c10.27384,0 18.60244,8.3286 18.60244,18.60244c0,6.81251 -3.66202,12.76971 -9.12494,16.0105h-18.95499c-5.46293,-3.24078 -9.12494,-9.19799 -9.12494,-16.0105zM324.32179,57.94208c-12.44112,0 -22.67406,-9.45437 -23.9061,-21.57039h47.81219c-1.23203,12.11602 -11.46497,21.57039 -23.9061,21.57039zM390.69722,187.11663c0,-10.19169 8.262,-18.45369 18.45369,-18.45369c1.7576,0 3.45781,0.24572 5.06815,0.70467v35.49804c-1.61034,0.45895 -3.31055,0.70467 -5.06815,0.70467c-10.19169,0 -18.45369,-8.262 -18.45369,-18.45369zM297.58188,485.0334c0,-11.67959 9.46818,-21.14776 21.14776,-21.14776c11.67959,0 21.14776,9.46818 21.14776,21.14776c0,11.67959 -9.46818,21.14776 -21.14776,21.14776c-11.67959,0 -21.14776,-9.46818 -21.14776,-21.14776zM36.22828,275.75281c0,-17.38389 14.09242,-31.47631 31.47631,-31.47631c17.38389,0 31.47631,14.09242 31.47631,31.47631c0,17.38389 -14.09242,31.47631 -31.47631,31.47631c-0.05022,0 -0.10041,-0.00012 -0.15057,-0.00035v-9.90023l-22.7678,0c-5.30624,-5.63433 -8.55794,-13.22529 -8.55794,-21.57573zM626.22921,137.27089c0,-13.44396 10.89849,-24.34245 24.34245,-24.34245c13.44396,0 24.34245,10.89849 24.34245,24.34245c0,13.44396 -10.89849,24.34245 -24.34245,24.34245c-13.44396,0 -24.34245,-10.89849 -24.34245,-24.34245zM542.07798,693.36728c21.04074,0 38.09763,17.05689 38.09763,38.09763c0,21.04074 -17.05689,38.09763 -38.09763,38.09763c-17.89486,0 -32.90809,-12.3377 -36.99744,-28.97085c-8.5705,-3.7587 -14.55713,-12.31841 -14.55713,-22.27638c0,-13.42758 10.88521,-24.31279 24.31279,-24.31279c4.10801,0 7.97806,1.01884 11.37125,2.81761c4.83151,-2.21691 10.20668,-3.45286 15.87053,-3.45286zM481.30588,258.05772c0,-9.58357 7.76902,-17.35259 17.35259,-17.35259c9.58357,0 17.35259,7.76902 17.35259,17.35259c0,9.58357 -7.76902,17.35259 -17.35259,17.35259c-9.58357,0 -17.35259,-7.76902 -17.35259,-17.35259zM286.92401,91.41807c0,-11.67023 9.46059,-21.13082 21.13082,-21.13082c11.67023,0 21.13082,9.46059 21.13082,21.13082c0,11.67023 -9.46059,21.13082 -21.13082,21.13082c-11.67023,0 -21.13082,-9.46059 -21.13082,-21.13082zM375.92847,593.65619c0,-8.40523 6.81379,-15.21902 15.21902,-15.21902c8.40523,0 15.21902,6.81379 15.21902,15.21902c0,8.40523 -6.81379,15.21902 -15.21902,15.21902c-8.40523,0 -15.21902,-6.81379 -15.21902,-15.21902zM490.60189,396.14078c0,-9.57165 7.75935,-17.331 17.331,-17.331c0.46505,0 0.92583,0.01832 1.38164,0.05427v34.55347c-0.45581,0.03595 -0.91659,0.05427 -1.38164,0.05427c-9.57165,0 -17.331,-7.75935 -17.331,-17.331zM539.12849,282.76547c0,-10.98874 8.90813,-19.89687 19.89687,-19.89687c10.98874,0 19.89687,8.90813 19.89687,19.89687c0,4.42965 -1.44753,8.5212 -3.89538,11.82744h-32.00299c-2.44784,-3.30624 -3.89538,-7.3978 -3.89538,-11.82744z" stroke="#000000"/><path d="M303.51197,727.4618c0,-22.3279 10.82362,-42.12781 27.51026,-54.43912c-11.95681,-0.66674 -21.44704,-10.5737 -21.44704,-22.69721c0,-12.55507 10.1779,-22.73297 22.73297,-22.73297c12.55507,0 22.73297,10.1779 22.73297,22.73297c0,4.60696 -1.3704,8.89384 -3.7258,12.47524c6.26358,-1.91609 12.91378,-2.94704 19.80477,-2.94704c14.36392,0 27.68162,4.47943 38.63237,12.11758c4.82694,-2.43102 10.28053,-3.79998 16.05384,-3.79998c19.73781,0 35.73847,16.00066 35.73847,35.73847c0,15.46114 -9.81799,28.62916 -23.55954,33.60964c-4.85739,32.56894 -32.94388,57.55057 -66.86514,57.55057c-37.33894,0 -67.60814,-30.26919 -67.60814,-67.60814zM471.20033,416.87264c14.04882,0 26.24196,7.94512 32.33127,19.58722h-17.67328l0,64.46025h2.05862c-6.53875,4.80166 -14.61065,7.63786 -23.34497,7.63786c-21.80529,0 -39.48197,-17.67668 -39.48197,-39.48197c0,-11.03318 4.52562,-21.00935 11.8218,-28.17343c5.08351,-14.01636 18.51662,-24.02993 34.28853,-24.02993zM133.55447,88.93969c0,-17.46246 14.15612,-31.61858 31.61858,-31.61858c0.61428,0 1.22447,0.01752 1.83009,0.05208c-1.08325,-2.02352 -1.91476,-4.20202 -2.45266,-6.49366c-1.47901,0.14998 -2.97963,0.22681 -4.4982,0.22681c-13.07191,0 -24.81417,-5.6929 -32.88273,-14.73466h89.03964c0.85916,2.62794 1.32373,5.43439 1.32373,8.34935c0,14.52582 -11.53656,26.35714 -25.94705,26.83131c3.23053,4.89754 5.13546,10.74667 5.20385,17.03644c3.58079,3.66472 5.78762,8.67772 5.78762,14.20616c0,5.92324 -2.53327,11.2548 -6.57548,14.97035c6.76321,8.27724 10.81999,18.85236 10.81999,30.37499c0,19.33361 -11.42101,35.9997 -27.8843,43.61954c5.22111,6.57901 8.33955,14.90213 8.33955,23.9536c0,13.01982 -6.45221,24.53264 -16.33355,31.51539c26.30155,0.87214 47.35567,22.46843 47.35567,48.98217c0,9.84206 -2.90113,19.00653 -7.89488,26.68489c2.89723,4.85398 4.56187,10.52881 4.56187,16.59245c0,17.90538 -14.51518,32.42056 -32.42056,32.42056c-17.27909,0 -31.40099,-13.51752 -32.36776,-30.55461c-0.27099,-0.11487 -0.54074,-0.23211 -0.80921,-0.35169c-9.75649,-1.21366 -17.75643,-8.08712 -20.61126,-17.23182c-5.3499,-7.85287 -8.47731,-17.3411 -8.47731,-27.55979c0,-17.94844 9.64824,-33.64341 24.04121,-42.18139c-11.15399,-1.26458 -20.8652,-7.28742 -27.0547,-15.98959c-1.80386,0.44908 -3.69103,0.68744 -5.63388,0.68744c-12.83742,0 -23.2442,-10.40678 -23.2442,-23.2442c0,-12.83742 10.40678,-23.2442 23.2442,-23.2442c2.04367,0 4.02574,0.26374 5.91402,0.75905c2.55399,-3.49823 5.68266,-6.55023 9.24713,-9.01711c-9.84989,-8.79737 -16.05077,-21.59489 -16.05077,-35.8407c0,-6.35929 1.23565,-12.42998 3.47996,-17.98508c-4.63179,-3.1269 -8.03999,-7.92834 -9.35616,-13.53586c-7.36948,11.98939 -18.53326,21.39626 -31.81873,26.54799c-2.87296,9.81482 -8.58705,18.41624 -16.19158,24.85354c-0.8045,11.57111 -10.27279,20.75585 -21.96214,21.11147v-81.27056l71.09142,0l0,-57.10723c5.36795,9.43677 8.43392,20.35362 8.43392,31.98656c0,3.55445 -0.28624,7.04204 -0.83693,10.44099c3.71974,-2.70287 8.2972,-4.297 13.247,-4.297c2.34738,0 4.61102,0.35852 6.73915,1.0238c-0.00969,-0.32189 -0.01457,-0.64498 -0.01457,-0.96921zM504.31125,153.78142c0,-9.6419 4.43498,-18.24796 11.37627,-23.8895c2.13003,-16.62166 16.33062,-29.4676 33.53154,-29.4676c18.67137,0 33.80751,15.13614 33.80751,33.80751c0,5.61509 -1.36891,10.91045 -3.79122,15.57057c2.14276,3.39305 3.38281,7.41307 3.38281,11.72273c0,12.14183 -9.84289,21.98472 -21.98472,21.98472c-3.88459,0 -7.53387,-1.0075 -10.70078,-2.77545c-4.4035,2.43177 -9.46647,3.81576 -14.85269,3.81576c-16.9931,0 -30.76873,-13.77563 -30.76873,-30.76873zM632.72027,674.33867c0,-0.68025 0.01297,-1.35746 0.03869,-2.03141c-4.30807,-1.52111 -8.25392,-3.80947 -11.6734,-6.70095c-4.04592,1.96043 -8.58674,3.05971 -13.38431,3.05971c-16.9735,0 -30.73325,-13.75974 -30.73325,-30.73325c0,-16.9735 13.75974,-30.73325 30.73325,-30.73325c4.28471,0 8.36464,0.87682 12.07012,2.46082c5.60491,-5.20735 12.81052,-8.71524 20.797,-9.70384v160.48906c-0.73983,-0.08016 -1.47322,-0.1818 -2.19952,-0.30429c-5.00084,9.83105 -15.21339,16.56593 -26.99896,16.56593c-11.90652,0 -22.20757,-6.87382 -27.15128,-16.86958c-9.12609,13.52793 -24.59445,22.42412 -42.14063,22.42412c-24.57928,0 -45.08119,-17.45731 -49.78313,-40.64935c-6.08981,-5.89347 -9.8757,-14.15316 -9.8757,-23.29709c0,-12.94628 7.58913,-24.12002 18.56132,-29.31514c-5.36298,-4.53442 -8.76837,-11.312 -8.76837,-18.88495c0,-13.65221 11.0673,-24.71951 24.71951,-24.71951c13.65221,0 24.71951,11.0673 24.71951,24.71951c0,3.80539 -0.85987,7.40994 -2.39591,10.62996c0.93442,-0.05118 1.87557,-0.07711 2.82278,-0.07711c25.17841,0 46.07825,18.31874 50.09863,42.35534c4.3328,-3.55632 9.67047,-5.9334 15.52252,-6.64076c2.54893,-14.10782 12.97681,-25.47513 26.56282,-29.38112c-1.00717,-4.05487 -1.54169,-8.29644 -1.54169,-12.66286zM633.96042,88.0886c-8.39082,0 -16.16389,-2.64486 -22.53102,-7.14638h45.06204c-6.36713,4.50152 -14.1402,7.14638 -22.53102,7.14638zM240.44148,350.92741c0,-16.90722 9.18308,-31.66961 22.83358,-39.57152c-2.14612,-6.3202 -3.31009,-13.09405 -3.31009,-20.13976c0,-22.21604 11.57237,-41.72921 29.01788,-52.84029c-18.53093,-3.46448 -32.55637,-19.72471 -32.55637,-39.26076c0,-22.05951 17.88277,-39.94228 39.94228,-39.94228c22.05951,0 39.94228,17.88277 39.94228,39.94228c0,11.68567 -5.01823,22.19928 -13.01725,29.50337c19.94437,0.22696 37.64815,9.78055 48.95433,24.50374c18.29806,0.00055 33.13139,14.83423 33.13139,33.13241c0,3.01617 -0.40303,5.9382 -1.15816,8.71519c3.11504,5.26604 4.90282,11.41016 4.90282,17.97183c0,19.52334 -15.82679,35.35013 -35.35013,35.35013c-6.25995,0 -12.13985,-1.62714 -17.23985,-4.48156c-7.34044,4.75053 -15.73857,8.00614 -24.76344,9.33589c-1.15724,24.20406 -21.14753,43.47243 -45.63818,43.47243c-25.2345,0 -45.69111,-20.45661 -45.69111,-45.69111zM196.66441,188.00921c0,-11.11415 9.0098,-20.12396 20.12396,-20.12396c11.11415,0 20.12396,9.0098 20.12396,20.12396c0,11.11415 -9.0098,20.12396 -20.12396,20.12396c-11.11415,0 -20.12396,-9.0098 -20.12396,-20.12396zM277.40185,792.48221c0,10.17521 -5.49,19.06817 -13.66948,23.87834v-47.75669c8.17948,4.81018 13.66948,13.70313 13.66948,23.87834zM608.82077,193.95707c6.21907,0 11.945,2.1114 16.50006,5.65647c3.98051,-4.05042 9.52137,-6.56245 15.64895,-6.56245c12.11691,0 21.9396,9.8227 21.9396,21.9396c0,12.11691 -9.8227,21.9396 -21.9396,21.9396c-3.29485,0 -6.42006,-0.7263 -9.22427,-2.02754c-1.9362,3.15074 -4.50375,5.87185 -7.52643,7.98712c4.41176,5.1633 7.0757,11.86491 7.0757,19.18872c0,16.32257 -13.23206,29.55463 -29.55463,29.55463c-6.09513,0 -11.75932,-1.84509 -16.4645,-5.00719c-0.41178,2.82449 -1.26861,5.5046 -2.49702,7.96688h-47.50654c-1.77654,-3.56095 -2.77589,-7.57749 -2.77589,-11.82744c0,-14.65165 11.87751,-26.52916 26.52916,-26.52916c4.82549,0 9.35007,1.28835 13.24853,3.53985c0.2008,-2.60591 0.73956,-5.11715 1.57251,-7.48995c-3.49896,1.9826 -7.54338,3.11445 -11.85216,3.11445c-13.29715,0 -24.07661,-10.77947 -24.07661,-24.07661c0,-13.29715 10.77947,-24.07661 24.07661,-24.07661c8.38707,0 15.77251,4.28845 20.08319,10.79222c1.40282,-13.53142 12.8409,-24.08258 26.74333,-24.08258zM585.82398,234.78484c-0.13494,0.93739 -0.32388,1.85733 -0.56356,2.75656c0.54971,-0.36993 1.11253,-0.72187 1.68761,-1.05498c-0.39542,-0.55197 -0.77047,-1.11953 -1.12405,-1.70158zM281.42205,442.51801c0,-12.29287 9.96534,-22.25821 22.25821,-22.25821c12.29287,0 22.25821,9.96534 22.25821,22.25821c0,5.48384 -1.98315,10.50449 -5.27139,14.3839c14.66908,0.99545 26.25958,13.20992 26.25958,28.1315c0,15.57278 -12.62423,28.19702 -28.19702,28.19702c-15.57278,0 -28.19702,-12.62423 -28.19702,-28.19702c0,-8.1523 3.45966,-15.49656 8.99086,-20.64465c-10.30627,-1.94687 -18.10144,-10.99847 -18.10144,-21.87074zM725.34544,227.42163c0,-18.07241 14.65058,-32.72299 32.72299,-32.72299c3.49388,0 6.85987,0.54757 10.01683,1.56157l0,62.32283c-3.15696,1.014 -6.52295,1.56157 -10.01683,1.56157c-18.07241,0 -32.72299,-14.65058 -32.72299,-32.72299zM361.41609,146.55173c0,-14.06985 11.40586,-25.47571 25.47571,-25.47571c14.06985,0 25.47571,11.40586 25.47571,25.47571c0,6.10016 -2.14404,11.69956 -5.71965,16.08573c0.82305,-0.08316 1.65807,-0.12575 2.50305,-0.12575c1.73732,0 3.43259,0.18006 5.06815,0.52253l0,48.16477c-1.63557,0.34247 -3.33083,0.52253 -5.06815,0.52253c-13.58892,0 -24.60492,-11.016 -24.60492,-24.60492c0,-5.76396 1.98196,-11.06501 5.30156,-15.25881c-0.96971,0.11204 -1.956,0.16963 -2.95575,0.16963c-14.06985,0 -25.47571,-11.40586 -25.47571,-25.47571zM486.27651,24.35979c2.57116,-2.15212 5.39136,-4.01654 8.41109,-5.54375c-0.26008,-1.61192 -0.39525,-3.26566 -0.39525,-4.95097c0,-4.05616 0.78295,-7.92946 2.20598,-11.47699h18.64932v78.55414h37.18436c-7.59446,12.57878 -21.29472,21.05672 -36.99512,21.32817c-4.42151,16.50277 -19.48106,28.65412 -37.37871,28.65412c-11.42371,0 -21.69118,-4.95048 -28.77413,-12.82317v-37.15912l22.79293,0l0,-65.03354c5.35673,1.81625 10.21105,4.72109 14.29955,8.45112zM62.29997,227.99669c0,2.12497 -0.20429,4.20223 -0.59429,6.21321c1.95923,-0.28041 3.96212,-0.4255 5.9989,-0.4255c23.17851,0 41.96841,18.7899 41.96841,41.96841c0,23.17851 -18.7899,41.96841 -41.96841,41.96841c-0.05021,0 -0.1004,-0.00009 -0.15057,-0.00026v-20.39242h-32.65953l0,-101.38747c15.52557,2.421 27.40549,15.85096 27.40549,32.05563zM198.53762,400.10007c17.42898,0 31.55796,14.12898 31.55796,31.55796c0,0.56133 -0.01466,1.11923 -0.0436,1.67335h-162.49796l0,-93.20462c14.13502,8.65562 23.56628,24.24155 23.56628,42.03027c0,12.66002 -4.77694,24.20433 -12.62669,32.9288c0.1209,0.0656 0.2413,0.13198 0.3612,0.19916c8.91444,-13.0318 23.8981,-21.58362 40.87915,-21.58362c22.21826,0 41.0171,14.64029 47.27583,34.80019c0.04193,-0.00044 0.08388,-0.00081 0.12585,-0.0011c1.58417,-15.9464 15.03868,-28.40038 31.40197,-28.40038zM251.35815,599.09247c0,-13.09792 10.61796,-23.71588 23.71588,-23.71588c13.09792,0 23.71588,10.61796 23.71588,23.71588c0,13.09792 -10.61796,23.71588 -23.71588,23.71588c-13.09792,0 -23.71588,-10.61796 -23.71588,-23.71588zM761.76115,95.23914c0,-2.66032 0.34313,-5.24049 0.98754,-7.69868c-1.22891,-0.15184 -2.44417,-0.34776 -3.64414,-0.58613c-5.77069,13.68897 -19.31486,23.29803 -35.10335,23.29803c-18.01247,0 -33.10381,-12.5068 -37.06376,-29.31014h81.14781v32.81769c-3.96456,-5.11947 -6.3241,-11.54457 -6.3241,-18.52077zM668.26895,278.58241c0,-13.69846 11.1048,-24.80325 24.80325,-24.80325c13.69846,0 24.80325,11.1048 24.80325,24.80325c0,6.10235 -2.20375,11.69 -5.85882,16.0105h-37.88887c-3.65507,-4.3205 -5.85882,-9.90814 -5.85882,-16.0105zM324.32179,65.95224c-1.729,0 -3.42602,-0.13695 -5.08079,-0.4006c9.9953,4.32844 16.98825,14.28079 16.98825,25.86643c0,15.5603 -12.61412,28.17442 -28.17442,28.17442c-15.5603,0 -28.17442,-12.61412 -28.17442,-28.17442c0,-15.5603 12.61412,-28.17442 28.17442,-28.17442c1.36473,0 2.70679,0.09703 4.01967,0.28457c-10.89915,-4.51211 -18.76707,-14.86544 -19.70031,-27.15653h63.8952c-1.25632,16.54611 -15.07978,29.58055 -31.9476,29.58055zM618.11506,137.27089c0,-17.92529 14.53132,-32.4566 32.4566,-32.4566c17.92529,0 32.4566,14.53132 32.4566,32.4566c0,17.92529 -14.53132,32.4566 -32.4566,32.4566c-17.92529,0 -32.4566,-14.53132 -32.4566,-32.4566zM475.52168,258.05772c0,-12.77809 10.35869,-23.13679 23.13679,-23.13679c12.77809,0 23.13679,10.35869 23.13679,23.13679c0,12.77809 -10.35869,23.13679 -23.13679,23.13679c-12.77809,0 -23.13679,-10.35869 -23.13679,-23.13679zM370.85546,593.65619c0,-11.20698 9.08505,-20.29202 20.29202,-20.29202c11.20698,0 20.29202,9.08505 20.29202,20.29202c0,11.20698 -9.08505,20.29202 -20.29202,20.29202c-11.20698,0 -20.29202,-9.08505 -20.29202,-20.29202zM484.82489,396.14078c0,-12.7622 10.34581,-23.10801 23.10801,-23.10801c0.46387,0 0.92454,0.01367 1.38164,0.04062l0,46.13476c-0.4571,0.02695 -0.91778,0.04062 -1.38164,0.04062c-12.7622,0 -23.10801,-10.34581 -23.10801,-23.10801zM200.87931,500.92012h13.82144c-3.74702,3.25016 -8.54785,5.31744 -13.82144,5.62081zM105.9859,36.37169l10.22976,0c-3.00386,3.5411 -6.44109,6.70299 -10.22976,9.40375z" stroke="#000000"/><path d="M286.60994,727.4618c0,-22.90305 9.11073,-43.67817 23.90569,-58.89886c-4.1345,-4.93519 -6.62369,-11.29564 -6.62369,-18.23748c0,-15.69384 12.72237,-28.41622 28.41622,-28.41622c13.40689,0 24.64523,9.28465 27.63591,21.77483c3.65677,-0.48313 7.38729,-0.73245 11.17604,-0.73245c18.79251,0 36.15237,6.1339 50.18669,16.5088c1.47976,-0.148 2.98079,-0.22378 4.49952,-0.22378c24.67227,0 44.67309,20.00082 44.67309,44.67309c0,13.5053 -5.99291,25.61087 -15.46448,33.80247c-5.05883,41.83954 -40.69075,74.25977 -83.89482,74.25977c-46.67368,0 -84.51017,-37.83649 -84.51017,-84.51017zM471.20033,407.75684c3.75474,0 7.40344,0.45402 10.89419,1.31014c-1.94944,-3.88918 -3.04663,-8.27956 -3.04663,-12.9262c0,-15.95275 12.93226,-28.88501 28.88501,-28.88501c0.46317,0 0.9238,0.0109 1.38164,0.03246v57.70509c-0.45784,0.02156 -0.91847,0.03246 -1.38164,0.03246c-0.34257,0 -0.68375,-0.00596 -1.02344,-0.01779c0.8498,1.06979 1.65253,2.17864 2.40508,3.32343v8.12844l-23.45622,0l0,64.46025l16.4194,0c-9.05297,10.70852 -22.58527,17.50835 -37.70574,17.50835c-27.25661,0 -49.35247,-22.09585 -49.35247,-49.35247c0,-13.77605 5.64438,-26.23379 14.74667,-35.18673c7.29728,-15.44589 23.01773,-26.13243 41.23415,-26.13243zM204.69627,88.93969c0,0.622 -0.01437,1.24065 -0.04279,1.85563c1.91809,3.57385 3.00607,7.65968 3.00607,11.99962c0,2.98128 -0.5134,5.84265 -1.45662,8.50052c7.9149,10.17208 12.62876,22.95796 12.62876,36.84482c0,5.07678 -0.63001,10.00641 -1.8161,14.71499c13.78806,0.122 24.92773,11.33707 24.92773,25.15394c0,13.89269 -11.26225,25.15495 -25.15495,25.15495c-10.63795,0 -19.73359,-6.60341 -23.41152,-15.93483c-0.03349,0.02365 -0.06701,0.04726 -0.10056,0.07084c2.34676,5.67323 3.6417,11.89202 3.6417,18.41326c0,8.40533 -2.15129,16.3082 -5.93329,23.18803c23.12594,8.75919 39.56691,31.11436 39.56691,57.30953c0,11.75546 -3.31104,22.73759 -9.05141,32.06467c1.0231,3.56088 1.57115,7.32277 1.57115,11.21267c0,22.38173 -18.14398,40.5257 -40.5257,40.5257c-18.0066,0 -33.27029,-11.7438 -38.54965,-27.98999c-17.7899,-8.07495 -31.03677,-24.40535 -34.84985,-44.10046c-8.9036,11.45285 -22.45034,19.117 -37.81404,20.16629c19.12605,10.44366 32.10038,30.74025 32.10038,54.06716c0,0.44953 -0.00482,0.89793 -0.01441,1.34516c5.198,-1.41747 10.66858,-2.17414 16.31589,-2.17414c20.04025,0 37.85498,9.52852 49.16084,24.3022c7.22955,-8.22714 17.82979,-13.41966 29.6428,-13.41966c21.78623,0 39.44745,17.66123 39.44745,39.44745c0,0.56059 -0.01169,1.11845 -0.03485,1.67335h-170.39621l0,-136.00284h-32.65953v-189.46675l71.09142,0l0,-71.4901l117.21161,0c0.68351,2.66936 1.04693,5.46691 1.04693,8.34935c0,14.34972 -9.00682,26.59578 -21.67559,31.3933c1.37895,4.02165 2.12742,8.33609 2.12742,12.82535zM84.56243,226.0596c-1.28151,-3.27757 -1.98494,-6.84481 -1.98494,-10.57635c0,-15.63447 12.3486,-28.38478 27.82454,-29.02966c0.3461,-0.45248 0.70003,-0.89865 1.0616,-1.33831c-7.97613,-10.19307 -12.73034,-23.02883 -12.73034,-36.975c0,-0.33361 0.00272,-0.66657 0.00814,-0.99889c-5.33017,4.07073 -11.18064,7.49474 -17.43429,10.15493c-5.54349,11.15547 -14.22491,20.47642 -24.88938,26.80798c-2.41215,3.02806 -5.4301,5.55212 -8.87042,7.38877c12.20882,5.92814 20.99652,17.80077 22.60028,31.8551c5.02141,0.23018 9.85866,1.1663 14.41481,2.71142zM123.37766,49.22589c3.13449,6.88589 5.33289,14.28787 6.43262,22.04337c2.49599,-4.98537 6.01519,-9.36947 10.28225,-12.87696c-5.95268,-2.31576 -11.4031,-5.63688 -16.14272,-9.75479c-0.18957,0.19725 -0.38029,0.39338 -0.57215,0.58839zM496.61907,153.78142c0,-7.13425 1.94247,-13.81482 5.32737,-19.54167c-7.06986,4.04577 -15.25901,6.35825 -23.98827,6.35825c-10.77821,0 -20.733,-3.52546 -28.77413,-9.48613v-50.16965l22.79293,0v-75.62386c4.89624,1.29848 9.50178,3.31107 13.69837,5.91952c0.34463,-0.21248 0.69177,-0.42127 1.04137,-0.62632c0.23728,-2.83979 0.78234,-5.59211 1.60173,-8.22349h26.82921v78.55414h49.62333c-1.93495,4.26266 -4.39675,8.23538 -7.30228,11.83503c19.38989,3.83698 34.00976,20.93846 34.00976,41.45459c0,6.89962 -1.6535,13.41305 -4.58585,19.16564c0.79413,2.56861 1.22174,5.29819 1.22174,8.12765c0,15.17728 -12.30362,27.4809 -27.4809,27.4809c-2.69817,0 -5.30551,-0.38885 -7.76905,-1.11357c-5.31865,2.77866 -11.36805,4.34988 -17.78442,4.34988c-21.24137,0 -38.46091,-17.21954 -38.46091,-38.46091zM408.23393,54.33699c0,-6.32581 1.1583,-12.38109 3.27437,-17.9653h2.71075l0,41.88578c-3.81916,-7.12577 -5.98512,-15.27018 -5.98512,-23.92048zM756.14716,107.27698c-8.46882,7.75968 -19.7544,12.49491 -32.14595,12.49491c-23.29213,0 -42.67664,-16.73048 -46.79179,-38.82968h90.87584l0,43.59872c-5.45923,-4.46763 -9.64709,-10.43078 -11.9381,-17.26396zM633.96042,97.85694c-14.76895,0 -28.00686,-6.55517 -36.96294,-16.91473l73.92589,0c-8.95608,10.35956 -22.19399,16.91473 -36.96294,16.91473zM627.0165,780.89913c-4.76867,2.16841 -10.06659,3.37619 -15.64661,3.37619c-9.04129,0 -17.34199,-3.17088 -23.85069,-8.46124c-11.53077,11.81291 -27.62952,19.14689 -45.44121,19.14689c-33.2428,0 -60.519,-25.54608 -63.26812,-58.07778c-2.87272,-5.56252 -4.49498,-11.87575 -4.49498,-18.56788c0,-13.2064 6.31773,-24.93721 16.09576,-32.33501c-2.78016,-4.63749 -4.37843,-10.06464 -4.37843,-15.86508c0,-17.06526 13.83413,-30.89939 30.89939,-30.89939c16.42914,0 29.86353,12.82199 30.84227,29.00503c23.85503,2.12077 43.91612,17.43389 52.83801,38.59407c3.6852,-9.96141 10.65289,-18.331 19.59003,-23.79576c-0.29777,-2.24694 -0.48154,-4.52987 -0.54532,-6.84278c-0.59097,-0.38672 -1.17265,-0.78646 -1.74462,-1.19883c-3.25137,0.89417 -6.67528,1.37175 -10.21074,1.37175c-21.21688,0 -38.41656,-17.19968 -38.41656,-38.41656c0,-21.21688 17.19968,-38.41656 38.41656,-38.41656c2.90631,0 5.73725,0.32273 8.45892,0.93431c6.83782,-5.43398 15.23327,-8.99219 24.4082,-9.8965v206.22601l-10.5282,0c-1.52534,-5.09718 -2.5521,-10.40968 -3.02367,-15.88091zM229.01871,350.92741c0,-16.16535 6.7159,-30.76211 17.50978,-41.15238c-1.44698,-5.94918 -2.21396,-12.16448 -2.21396,-18.55891c0,-20.51869 7.89729,-39.19288 20.81816,-53.14882c-11.39641,-9.15063 -18.69176,-23.19947 -18.69176,-38.95222c0,-27.57439 22.35346,-49.92784 49.92784,-49.92784c27.57439,0 49.92784,22.35346 49.92784,49.92784c0,5.84407 -1.00407,11.45363 -2.84911,16.66558c18.32099,5.06012 33.94616,16.61573 44.24192,32.03321c15.22477,6.12176 25.9732,21.02604 25.9732,38.44074c0,2.24465 -0.17857,4.4476 -0.52228,6.5954c3.08255,6.02768 4.82137,12.85659 4.82137,20.09162c0,24.40417 -19.78349,44.18766 -44.18766,44.18766c-2.70611,0 -5.3554,-0.24326 -7.9272,-0.7091c-7.51657,4.99921 -15.94701,8.73337 -24.98733,10.89848c-7.04465,23.5545 -28.88088,40.72263 -54.72695,40.72263c-31.54313,0 -57.11388,-25.57076 -57.11388,-57.11388zM284.32224,792.48221c0,14.12262 -8.46068,26.26913 -20.58987,31.64736v-63.29473c12.12918,5.37823 20.58987,17.52475 20.58987,31.64736zM122.76976,256.34797c-4.92641,-3.15189 -9.24166,-7.17511 -12.72839,-11.85231c-0.06999,-0.00378 -0.13992,-0.0078 -0.20978,-0.01208c3.88061,5.21954 6.81413,11.18506 8.54627,17.64229c1.35086,-2.01375 2.81803,-3.94292 4.3919,-5.7779zM608.82077,187.23509c6.29604,0 12.18774,1.73119 17.22506,4.74351c4.29493,-2.79109 9.4201,-4.41242 14.92395,-4.41242c15.14614,0 27.42451,12.27837 27.42451,27.42451c0,15.14614 -12.27837,27.42451 -27.42451,27.42451c-2.01124,0 -3.97191,-0.2165 -5.85998,-0.62748c-0.4625,0.5798 -0.94378,1.14396 -1.44291,1.69156c3.18919,5.46262 5.01655,11.81757 5.01655,18.59932c0,14.04958 -7.84272,26.26739 -19.38905,32.51431h-91.25915c-1.40289,-3.67367 -2.17133,-7.66082 -2.17133,-11.82744c0,-12.22681 6.61711,-22.9081 16.46553,-28.65809c-6.38824,-5.51875 -10.43095,-13.67893 -10.43095,-22.78333c0,-16.62143 13.47433,-30.09576 30.09576,-30.09576c6.12177,0 11.81664,1.82778 16.56865,4.96739c5.44357,-11.22282 16.94709,-18.96058 30.25787,-18.96058zM303.68026,414.69525c15.36609,0 27.82276,12.45667 27.82276,27.82276c0,3.18787 -0.53614,6.25053 -1.52317,9.10271c13.94936,4.695 23.99607,17.88057 23.99607,33.41269c0,19.46598 -15.78029,35.24627 -35.24627,35.24627c-19.46598,0 -35.24627,-15.78029 -35.24627,-35.24627c0,-6.95195 2.01269,-13.43381 5.48714,-18.89467c-5.86732,-3.66159 -10.27157,-9.44852 -12.13533,-16.28336v-14.67472c3.21933,-11.80601 14.01861,-20.4854 26.84507,-20.4854zM717.16469,227.42163c0,-22.59051 18.31322,-40.90373 40.90373,-40.90373c3.45579,0 6.81148,0.42856 10.01683,1.23542v79.33663c-3.20535,0.80686 -6.56105,1.23542 -10.01683,1.23542c-22.59051,0 -40.90373,-18.31322 -40.90373,-40.90373zM355.04716,146.55173c0,-17.58731 14.25733,-31.84464 31.84464,-31.84464c11.60594,0 21.76176,6.20869 27.32726,15.48586l0,87.26422c-1.64878,0.27337 -3.34186,0.41559 -5.06815,0.41559c-16.98615,0 -30.75615,-13.77 -30.75615,-30.75615c0,-3.31275 0.52375,-6.50318 1.49296,-9.49299c-14.2178,-3.19109 -24.84055,-15.89096 -24.84055,-31.0719zM245.42918,599.09247c0,-16.3724 13.27245,-29.64485 29.64485,-29.64485c16.3724,0 29.64485,13.27245 29.64485,29.64485c0,16.3724 -13.27245,29.64485 -29.64485,29.64485c-16.3724,0 -29.64485,-13.27245 -29.64485,-29.64485zM662.06814,278.58241c0,-17.12307 13.88099,-31.00407 31.00407,-31.00407c17.12307,0 31.00407,13.88099 31.00407,31.00407c0,5.85836 -1.62483,11.33721 -4.44843,16.0105h-53.11128c-2.8236,-4.67329 -4.44843,-10.15214 -4.44843,-16.0105zM337.31283,71.80847c3.76398,5.60485 5.96003,12.35077 5.96003,19.6096c0,19.45038 -15.76765,35.21803 -35.21803,35.21803c-19.45038,0 -35.21803,-15.76765 -35.21803,-35.21803c0,-14.22493 8.43356,-26.48009 20.57342,-32.03823c-5.22204,-6.33088 -8.53684,-14.29343 -9.06491,-23.00815h79.95296c-0.99951,16.49486 -11.98256,30.29502 -26.98545,35.43679zM610.00091,137.27089c0,-22.40661 18.16414,-40.57075 40.57075,-40.57075c22.40661,0 40.57075,18.16414 40.57075,40.57075c0,22.40661 -18.16414,40.57075 -40.57075,40.57075c-22.40661,0 -40.57075,-18.16414 -40.57075,-40.57075zM469.73749,258.05772c0,-15.97262 12.94837,-28.92098 28.92098,-28.92098c15.97262,0 28.92098,12.94837 28.92098,28.92098c0,15.97262 -12.94837,28.92098 -28.92098,28.92098c-15.97262,0 -28.92098,-12.94837 -28.92098,-28.92098zM365.78246,593.65619c0,-14.00872 11.35631,-25.36503 25.36503,-25.36503c14.00872,0 25.36503,11.35631 25.36503,25.36503c0,14.00872 -11.35631,25.36503 -25.36503,25.36503c-14.00872,0 -25.36503,-11.35631 -25.36503,-25.36503zM200.87931,500.92012h21.71793c-5.03462,6.62376 -12.85669,11.01332 -21.71793,11.42042z" stroke="#000000"/><path d="M269.70791,727.4618c0,-27.66724 11.07942,-52.74674 29.04352,-71.04375c-0.35656,-1.97688 -0.54272,-4.01299 -0.54272,-6.09258c0,-18.83261 15.26685,-34.09946 34.09946,-34.09946c9.80993,0 18.65234,4.14248 24.87338,10.77361c4.55663,-0.62636 9.2098,-0.95002 13.93857,-0.95002c25.97159,0 49.66291,9.76299 67.60417,25.81916c18.15945,4.49275 32.6689,18.24193 38.2338,35.95299c1.53379,-1.90281 3.20803,-3.68767 5.00696,-5.33882c-1.36818,-3.86812 -2.11269,-8.03096 -2.11269,-12.3677c0,-20.47831 16.60095,-37.07926 37.07926,-37.07926c15.40547,0 28.61663,9.39495 34.21656,22.76794c5.44602,0.64596 10.71593,1.86632 15.74745,3.59879c-3.38064,-6.41196 -5.29425,-13.71746 -5.29425,-21.46991c0,-25.46025 20.63961,-46.09987 46.09987,-46.09987c1.38292,0 2.75163,0.06089 4.10357,0.18015c8.16521,-6.06573 18.03688,-9.96358 28.76355,-10.84209v215.60908l-26.9749,0c-0.40126,-1.6341 -0.76033,-3.28478 -1.076,-4.95082c-0.38138,0.00946 -0.76392,0.01422 -1.14758,0.01422c-6.48837,0 -12.6589,-1.36084 -18.24174,-3.81269c-3.62997,3.27809 -7.57701,6.21169 -11.78957,8.74929l-40.33441,0v10.87273c-33.9234,-0.46859 -62.48919,-23.10626 -71.86487,-54.08049c-11.51907,43.35494 -51.03834,75.30172 -98.01919,75.30172c-32.48319,0 -61.39935,-15.27224 -79.95982,-39.02805c0.05462,0.87173 0.08234,1.75076 0.08234,2.63626c0,18.01501 -11.47263,33.35044 -27.51026,39.09867l0,-78.19733c4.02957,1.44428 7.77094,3.4938 11.11456,6.039c-3.33408,-10.04813 -5.13903,-20.79365 -5.13903,-31.96074zM471.20033,398.64104c0.72416,0 1.44504,0.01407 2.16237,0.04196c-0.06085,-0.83947 -0.09181,-1.68723 -0.09181,-2.54222c0,-19.1433 15.51871,-34.66201 34.66201,-34.66201c0.46272,0 0.92333,0.00907 1.38164,0.02703v74.95406l-23.45622,0l0,64.46025l28.65549,0c-10.51925,16.46328 -28.95581,27.37884 -49.94184,27.37884c-32.70794,0 -59.22296,-26.51502 -59.22296,-59.22296c0,-16.84934 7.03642,-32.05524 18.33109,-42.83953c6.11821,-10.70553 15.74983,-19.14442 27.32392,-23.74575h7.40393v-2.34555c4.10369,-0.98335 8.38721,-1.50413 12.79238,-1.50413zM212.60091,88.93969c0,2.48915 -0.19175,4.93351 -0.5613,7.31913c0.28513,1.30562 0.48662,2.6425 0.59857,4.00476c11.32398,12.72898 18.20334,29.49946 18.20334,47.87671c0,4.2972 -0.37615,8.50655 -1.09732,12.59692c5.38258,2.56161 9.88702,6.66978 12.9388,11.74998c9.80379,-19.72789 30.1615,-33.28552 53.68576,-33.28552c33.08926,0 59.91341,26.82415 59.91341,59.91341c0,1.47043 -0.05297,2.92849 -0.15711,4.37237c22.71577,8.69458 41.19199,25.95811 51.47372,47.83563c2.48941,2.51916 4.7115,5.30306 6.62026,8.30568v24.79286h4.40855l0,56.81415c-8.37068,13.24189 -22.44345,22.52046 -38.76827,24.38567c-9.55403,7.36756 -20.56664,12.93604 -32.53056,16.19817c-6.56192,12.97328 -17.12788,23.57711 -30.07293,30.18657c11.67378,5.20181 19.81173,16.90646 19.81173,30.51183c0,1.44407 -0.09168,2.86673 -0.26954,4.26247c14.32093,6.77627 24.22713,21.35773 24.22713,38.25292c0,23.35917 -18.93635,42.29552 -42.29552,42.29552c-21.37481,0 -39.04632,-15.85572 -41.89446,-36.4471l0,-11.69686c0.61275,-4.43004 1.91161,-8.64089 3.78584,-12.52182c-1.38012,-1.31843 -2.64739,-2.754 -3.78584,-4.29075l0,-29.04102h-5.26245c1.54309,-5.40328 4.41328,-10.2467 8.23553,-14.15522c-28.38029,-2.59657 -51.75639,-22.49528 -59.48894,-49.05678c-5.0432,6.21154 -11.5877,11.15489 -19.08095,14.27746c24.88684,1.39981 44.63618,22.02415 44.63618,47.26119c0,0.56011 -0.00973,1.11794 -0.02902,1.67335h-178.29152l0,-136.00284h-32.65953v-189.46675l71.09142,0l0,-71.4901l124.10338,0c0.56796,2.6937 0.86668,5.48664 0.86668,8.34935c0,14.58621 -7.75512,27.36111 -19.36708,34.42643c0.66327,3.15978 1.01204,6.43527 1.01204,9.79222zM76.82439,213.45595c0.73997,-12.90675 8.50037,-23.93269 19.52104,-29.31768c-2.39477,-4.14467 -4.38869,-8.55001 -5.92879,-13.16302c-0.99631,0.46129 -2.00175,0.9062 -3.01598,1.33439c-5.97041,8.71398 -13.67886,16.14345 -22.62571,21.78878c5.22082,5.37712 9.21053,11.95613 11.51431,19.28223c0.17861,0.02435 0.35699,0.04946 0.53512,0.07531zM488.92689,153.78142c0,-1.54848 0.07626,-3.07915 0.22522,-4.58845c-3.62207,0.7077 -7.3647,1.07852 -11.19395,1.07852c-10.47026,0 -20.29299,-2.7724 -28.77413,-7.62315v-61.70612l22.79293,0v-78.55414h43.17069v78.55414h61.52953c-1.06726,2.91244 -2.3335,5.72892 -3.78226,8.43296c16.07917,8.50436 27.03542,25.40102 27.03542,44.85665c0,8.973 -2.33049,17.40169 -6.4192,24.7138c0.06586,0.85118 0.0994,1.71142 0.0994,2.5795c0,18.21274 -14.76434,32.97708 -32.97708,32.97708c-1.17383,0 -2.33333,-0.06133 -3.47548,-0.18096c-1.36899,0.74713 -2.78,1.42694 -4.22857,2.03498c2.89663,-0.74876 5.93422,-1.14709 9.06485,-1.14709c4.83562,0 9.44927,0.95037 13.66435,2.67452c7.28173,-10.49691 19.41924,-17.37054 33.16218,-17.37054c6.68472,0 12.9896,1.62627 18.54058,4.50476c1.97904,-0.89997 4.06291,-1.6097 6.22824,-2.10583c-18.51431,-6.89157 -31.70282,-24.72619 -31.70282,-45.64116c0,-12.68014 4.84763,-24.22805 12.79073,-32.89158c-12.3695,-4.30775 -22.85194,-12.64384 -29.87612,-23.43709h183.28388v52.88736c-5.46417,-3.39851 -10.15365,-7.92522 -13.74278,-13.25448c-8.79109,5.52253 -19.1932,8.71633 -30.34127,8.71633c-9.77593,0 -18.97823,-2.45598 -27.02355,-6.78459c1.48021,4.65668 2.27891,9.61709 2.27891,14.76404c0,25.0804 -18.96489,45.73131 -43.33641,48.39446c10.66028,5.4456 17.95903,16.53311 17.95903,29.32534c0,17.24987 -13.27172,31.39996 -30.16118,32.79629c1.52619,4.48411 2.35409,9.29118 2.35409,14.29162c0,12.847 -5.46465,24.41765 -14.19628,32.51431h-110.85701c-0.86215,-2.77345 -1.42908,-5.67693 -1.66404,-8.67369c-5.77847,4.29943 -12.94026,6.84368 -20.69628,6.84368c-19.16714,0 -34.70518,-15.53804 -34.70518,-34.70518c0,-19.16714 15.53804,-34.70518 34.70518,-34.70518c11.30518,0 21.34783,5.4055 27.68434,13.77289c-0.30498,-1.88875 -0.46349,-3.82656 -0.46349,-5.80138c0,-14.7696 8.86597,-27.46844 21.56614,-33.06473c-3.93546,1.09175 -8.08233,1.6752 -12.36548,1.6752c-25.48965,0 -46.15309,-20.66344 -46.15309,-46.15309zM398.09207,54.33699c0,-6.25361 0.94334,-12.28689 2.69548,-17.9653h13.4315v59.22848c-10.011,-10.84529 -16.12699,-25.34 -16.12699,-41.26318zM604.19463,683.90127c-0.95096,-0.07152 -1.89388,-0.1719 -2.82787,-0.30025c0.48154,0.59574 0.95429,1.19889 1.41805,1.80924c0.46079,-0.51157 0.93082,-1.01465 1.40982,-1.50898zM237.44542,210.02018c-5.39985,5.0697 -12.66582,8.17497 -20.65705,8.17497c-3.59233,0 -7.0381,-0.62752 -10.23367,-1.77891c-0.06255,5.25356 -0.82544,10.33866 -2.19966,15.16628c12.35452,6.71735 22.56823,16.87397 29.35583,29.18455c3.29653,-9.62217 8.11203,-18.53927 14.16036,-26.46512c-5.14674,-7.08143 -8.78032,-15.33366 -10.42581,-24.28176zM102.94802,327.92299c-2.19596,1.48638 -4.49078,2.83776 -6.87252,4.04222c9.40718,10.15431 15.99627,22.95679 18.52412,37.16428c1.69643,-0.11588 3.40851,-0.17477 5.13434,-0.17477c10.58228,0 20.64743,2.2141 29.75747,6.20432c-3.546,-3.28744 -6.60095,-7.09712 -9.04259,-11.30676c-16.442,-7.01953 -29.80508,-19.85877 -37.50083,-35.9293zM173.187,391.67425c2.18085,-1.3856 4.48277,-2.59769 6.88633,-3.61684c-4.83424,-0.24207 -9.4825,-1.19005 -13.8438,-2.74298c2.4519,1.97215 4.77587,4.09689 6.95747,6.35981zM708.98394,227.42163c0,-27.10861 21.97587,-49.08448 49.08448,-49.08448c3.43264,0 6.78299,0.35236 10.01683,1.02289v96.12318c-3.23385,0.67053 -6.58419,1.02289 -10.01683,1.02289c-11.22085,0 -21.56231,-3.76516 -29.82988,-10.101c1.32099,3.81541 2.03855,7.91256 2.03855,12.1773c0,5.73196 -1.29623,11.16118 -3.61156,16.0105l-67.18665,0c-2.31532,-4.84932 -3.61156,-10.27853 -3.61156,-16.0105c0,-20.54769 16.65719,-37.20488 37.20488,-37.20488c7.3983,0 14.29224,2.15943 20.08589,5.88238c-2.6836,-6.06627 -4.17416,-12.7782 -4.17416,-19.83828zM348.67824,146.55173c0,-21.10477 17.10879,-38.21356 38.21356,-38.21356c10.70902,0 20.38916,4.40512 27.32726,11.50217v103.83855c-1.65686,0.22754 -3.34877,0.34512 -5.06815,0.34512c-20.38338,0 -36.90738,-16.524 -36.90738,-36.90738c0,-1.73577 0.11982,-3.44355 0.35165,-5.11553c-14.02219,-5.66052 -23.91695,-19.39942 -23.91695,-35.44936zM239.50021,599.09247c0,-19.64688 15.92694,-35.57382 35.57382,-35.57382c19.64688,0 35.57382,15.92694 35.57382,35.57382c0,19.64688 -15.92694,35.57382 -35.57382,35.57382c-19.64688,0 -35.57382,-15.92694 -35.57382,-35.57382zM347.43856,76.05817c1.85812,4.76081 2.87791,9.94127 2.87791,15.3599c0,23.34046 -18.92118,42.26163 -42.26163,42.26163c-23.34046,0 -42.26163,-18.92118 -42.26163,-42.26163c0,-13.76352 6.57943,-25.99032 16.76467,-33.7068c-3.62536,-6.34814 -5.84507,-13.60265 -6.23516,-21.33958h95.99817c-0.8634,17.12439 -10.68981,31.88553 -24.88232,39.68648zM360.70945,593.65619c0,-16.81046 13.62757,-30.43804 30.43804,-30.43804c16.81046,0 30.43804,13.62757 30.43804,30.43804c0,16.81046 -13.62757,30.43804 -30.43804,30.43804c-16.81046,0 -30.43804,-13.62757 -30.43804,-30.43804zM768.08526,294.59291h-11.04902c3.45385,-1.45833 7.16611,-2.42479 11.04902,-2.8116zM200.87931,500.92012h28.67344c-5.81422,9.94964 -16.43254,16.7493 -28.67344,17.21743z" stroke="#000000"/><path d="M294.79138,637.05832c0.21722,-0.61423 0.44909,-1.22154 0.6952,-1.8215c-6.02732,3.41126 -12.99254,5.35844 -20.41254,5.35844c-22.92136,0 -41.50279,-18.58143 -41.50279,-41.50279c0,-22.92136 18.58143,-41.50279 41.50279,-41.50279c22.92136,0 41.50279,18.58143 41.50279,41.50279c0,5.78721 -1.1845,11.29776 -3.3243,16.30244c5.65881,-3.0936 12.15186,-4.85215 19.05564,-4.85215c4.05652,0 7.97124,0.60714 11.65824,1.73551c5.04957,-1.18583 10.22381,-2.04818 15.49965,-2.56401c-2.44915,-4.82242 -3.82961,-10.27903 -3.82961,-16.05807c0,-19.61221 15.89884,-35.51104 35.51104,-35.51104c19.61221,0 35.51104,15.89884 35.51104,35.51104c0,9.55424 -3.77315,18.22721 -9.91065,24.61011c18.8789,7.89787 35.27504,20.54893 47.69233,36.45707c3.54183,2.78582 6.77537,5.94597 9.64099,9.42082c2.90841,-21.06568 20.98493,-37.28811 42.85041,-37.28811c13.61381,0 25.75883,6.28865 33.6886,16.11949c1.19749,0.11417 2.38805,0.2521 3.5712,0.4133c-0.18076,-1.79414 -0.27334,-3.61431 -0.27334,-5.4561c0,-29.3728 23.54616,-53.24611 52.79282,-53.77424c2.77478,-2.02303 5.71482,-3.83302 8.79605,-5.40591h25.06143v218.02742l-99.5642,0l0,23.573c-27.40886,-0.32444 -51.83439,-13.05339 -67.924,-32.83427c-20.58208,34.86737 -58.53957,58.25727 -101.96006,58.25727c-30.29252,0 -57.92607,-11.38438 -78.85563,-30.10812c-6.0371,11.05421 -16.25696,19.49658 -28.53211,23.19961v-147.56626l-5.29861,0c6.85125,-21.36762 19.6115,-40.08966 36.35761,-54.24295zM464.57197,538.16946c-38.15926,0 -69.09345,-30.93419 -69.09345,-69.09345c0,-20.25853 8.71876,-38.48068 22.60864,-51.11882c3.95855,-5.93106 8.88414,-11.16167 14.55139,-15.46646h25.7694l0,-11.68289c3.12685,-0.6363 6.33681,-1.04394 9.61167,-1.2047c3.12499,-19.2251 19.80522,-33.90136 39.91327,-33.90136c0.4624,0 0.92299,0.00776 1.38164,0.02316v80.73493l-23.45622,0l0,64.46025h31.84704l0,12.32592c-12.67398,15.22915 -31.77158,24.92341 -53.13339,24.92341zM220.50556,88.93969c0,0.69676 -0.01288,1.39051 -0.03841,2.08104c13.89232,14.99548 22.38422,35.06583 22.38422,57.11956c0,2.11411 -0.07804,4.20999 -0.23138,6.28492c9.29309,-11.16459 21.99903,-19.38808 36.51618,-23.06884c-12.35288,-8.96005 -20.38658,-23.51099 -20.38658,-39.93829c0,-13.55163 5.46721,-25.82632 14.31628,-34.73873c-2.78036,-6.24993 -4.45114,-13.10254 -4.7622,-20.30765l112.03624,0c-0.78428,18.16683 -10.21285,34.0926 -24.27586,43.76747c0.84769,3.62228 1.29602,7.39824 1.29602,11.27892c0,20.23158 -12.18547,37.6171 -29.61749,45.2176c5.27236,2.65269 10.16281,5.95311 14.56688,9.79677c0.06434,-24.56738 19.99988,-44.4632 44.58233,-44.4632c9.59199,0 18.47647,3.02921 25.74899,8.18317c-0.2321,-0.84783 -0.44813,-1.70231 -0.64775,-2.56307c-14.74349,-13.00867 -24.04284,-32.04452 -24.04284,-53.25235c0,-6.20668 0.79649,-12.22732 2.29282,-17.9653h23.97603l0,193.50842c-0.26824,0.03145 -0.53723,0.06044 -0.80695,0.08693c0.27159,0.40204 0.54058,0.80597 0.80695,1.21178v53.24279h4.40855l0,71.12484c-5.41418,5.69812 -11.90278,10.3656 -19.14116,13.67779c-13.15478,12.97237 -29.5749,22.64207 -47.91581,27.66456c-5.25502,7.46813 -11.75609,13.99614 -19.201,19.28182c6.23248,6.78291 10.09065,15.78216 10.25689,25.68016c15.1758,8.41611 25.4479,24.59978 25.4479,43.18262c0,27.25237 -22.09241,49.34478 -49.34478,49.34478c-21.69429,0 -40.11872,-13.99991 -46.73162,-33.45806h4.83716l0,-67.58874h-11.01723c0.38724,-1.60168 0.87347,-3.16472 1.45186,-4.68229c-4.87575,-1.17914 -9.57706,-2.80515 -14.05814,-4.83224c0.36406,2.56134 0.55239,5.17927 0.55239,7.84119c0,0.55977 -0.00833,1.11759 -0.02487,1.67335h-186.18517l0,-136.00284h-32.65953v-189.46675l71.09142,0l0,-71.4901l130.94189,0c0.48601,2.70963 0.73969,5.49987 0.73969,8.34935c0,14.85877 -6.89799,28.10643 -17.66636,36.71536c0.33264,2.45366 0.50444,4.95841 0.50444,7.50329zM753.72198,131.83228c-8.94754,4.46618 -19.04075,6.97868 -29.72077,6.97868c-5.74303,0 -11.31636,-0.72651 -16.63312,-2.09265c0.00175,0.18398 0.00263,0.36817 0.00263,0.55257c0,24.3514 -15.32436,45.1236 -36.85553,53.19903c5.52602,6.651 8.8489,15.19784 8.8489,24.52077c0,17.22055 -11.33713,31.79318 -26.95476,36.66125c0.60951,2.97768 0.96314,6.04857 1.0369,9.18872c6.78325,-15.1271 21.97411,-25.66394 39.62598,-25.66394c2.862,0 5.6593,0.27699 8.36656,0.80563c-0.41862,-2.7927 -0.63558,-5.65137 -0.63558,-8.56072c0,-31.62671 25.63851,-57.26523 57.26523,-57.26523c3.41711,0 6.76432,0.2993 10.01683,0.87311l0,112.78424c-3.25252,0.57381 -6.59972,0.87311 -10.01683,0.87311c-7.65367,0 -14.95664,-1.5015 -21.63043,-4.22599c-0.21175,4.97305 -1.26026,9.72946 -3.00833,14.13205l-80.7149,0c-1.64417,-4.14091 -2.66947,-8.59484 -2.96173,-13.24762c-1.93469,4.8168 -4.57321,9.27511 -7.78827,13.24762h-160.77997c-13.61401,-6.52294 -23.01569,-20.43113 -23.01569,-36.53519c0,-22.36167 18.12771,-40.48938 40.48938,-40.48938c8.04461,0 15.54127,2.34609 21.84309,6.3914c1.09142,-6.19152 3.5348,-11.91683 7.01438,-16.86016c-24.18143,-3.39954 -43.2075,-22.86108 -45.94304,-47.24943c-1.19694,0.06296 -2.40211,0.09483 -3.61474,0.09483c-10.28859,0 -20.04124,-2.29459 -28.77413,-6.39995v-72.60281l22.79293,0v-78.55414h43.17069v78.55414h252.93761v61.56834c-5.38187,-2.73224 -10.2345,-6.35654 -14.36328,-10.67828zM452.20951,187.11663c0,5.61085 -1.07318,10.97105 -3.02548,15.88653v-31.77305c1.9523,4.91547 3.02548,10.27567 3.02548,15.88653zM366.0923,187.11663c0,-0.37248 0.00473,-0.74386 0.01413,-1.11407c-0.40165,-0.21206 -0.79967,-0.43007 -1.19395,-0.65391c0.33863,1.69544 0.61593,3.41301 0.82949,5.1503c0.16638,0.07142 0.33254,0.14323 0.49849,0.21545c-0.09813,-1.18626 -0.14817,-2.38617 -0.14817,-3.59776zM229.87132,220.71591c-4.04472,1.61939 -8.45981,2.51023 -13.08296,2.51023c-0.33462,0 -0.66814,-0.00467 -1.00052,-0.01394c-0.03152,0.28511 -0.06481,0.56969 -0.09987,0.85372c4.71889,3.04112 9.12017,6.53258 13.14308,10.41364c1.27203,-2.09705 2.61245,-4.14802 4.01817,-6.1498c-1.13514,-2.46399 -2.13113,-5.0053 -2.9779,-7.61386zM598.78108,166.55352c-0.40247,3.08331 -1.17002,6.05186 -2.25783,8.86085c3.38753,-0.91474 6.92647,-1.4607 10.57109,-1.59215c-2.56085,-3.04294 -4.8081,-6.35853 -6.69196,-9.89697c-0.51809,0.89112 -1.05878,1.76747 -1.6213,2.62827zM768.08526,294.59291h-23.56822c6.62099,-5.14669 14.72769,-8.47245 23.56822,-9.22542zM200.87931,691.30127v-23.66171c3.44735,7.18144 5.43412,15.197 5.57536,23.66171zM200.87931,500.92012l35.22654,0c-6.35045,13.24374 -19.68169,22.50378 -35.22654,23.01295z" stroke="#000000"/><path d="M263.81267,645.17932c-20.75966,-5.05504 -36.1704,-23.77126 -36.1704,-46.08685c0,-26.19584 21.23592,-47.43176 47.43176,-47.43176c26.19584,0 47.43176,21.23592 47.43176,47.43176c0,0.72873 -0.01643,1.45363 -0.04895,2.17434c8.94841,-3.45297 18.35637,-5.98156 28.10684,-7.46873c-0.00016,-0.04727 -0.00024,-0.09457 -0.00024,-0.14188c0,-22.41395 18.1701,-40.58405 40.58405,-40.58405c22.41395,0 40.58405,18.1701 40.58405,40.58405c0,4.18163 -0.63243,8.21556 -1.80686,12.01134c17.96447,8.68955 33.71464,21.2366 46.17478,36.56544c8.90493,-13.01572 23.87111,-21.55676 40.83215,-21.55676c10.75139,0 20.70121,3.4319 28.81375,9.25999c0.33361,0.01184 0.66682,0.02528 0.99961,0.04033c3.18051,-24.60866 20.9149,-44.65439 44.28989,-51.2239l49.53352,0v218.02742l-99.5642,0v36.27301c-23.87923,-0.24728 -45.78428,-8.73299 -63.00804,-22.75c-24.73665,31.86726 -63.41141,52.37503 -106.87602,52.37503c-31.77592,0 -60.9918,-10.96082 -84.07306,-29.30788c-6.53013,5.96473 -14.4941,10.386 -23.31467,12.68657v-154.75549h-22.93924c4.69066,-16.94263 12.59653,-32.5493 23.01953,-46.12194zM464.57197,548.03995c-43.61058,0 -78.96394,-35.35336 -78.96394,-78.96394c0,-24.01199 10.71774,-45.52072 27.63033,-60.00329c1.76387,-2.30626 3.66227,-4.50416 5.68347,-6.58199h39.48612v-20.96302c1.95479,-0.34588 3.93646,-0.61389 5.9417,-0.80072c6.34687,-17.94576 23.46366,-30.80221 43.58324,-30.80221c0.46216,0 0.92274,0.00678 1.38164,0.02026v86.51484l-23.45622,0l0,64.46025h31.84704v26.57021c-14.02753,12.76683 -32.67158,20.54962 -53.13339,20.54962zM452.3849,258.05772c0,-25.55619 20.71739,-46.27358 46.27358,-46.27358c6.34179,0 12.3856,1.27575 17.88882,3.58461c0.30672,-0.87369 0.63791,-1.73585 0.99277,-2.58568c-20.45836,-6.07265 -36.46489,-22.49592 -41.9499,-43.20015c-7.71827,-0.23197 -15.15249,-1.59408 -22.14283,-3.9265c3.14793,6.48569 4.91341,13.76677 4.91341,21.4602c0,10.67671 -3.40016,20.55927 -9.17671,28.62393v-134.79834l22.79293,0v-78.55414h43.17069v78.55414h252.93761v69.92562c-5.14633,-2.21872 -9.92361,-5.13069 -14.21421,-8.61826c-9.17156,3.91443 -19.26769,6.08092 -29.86984,6.08092c-3.16879,0 -6.29238,-0.19353 -9.35958,-0.56943c-3.36313,20.69856 -16.5147,38.11277 -34.54994,47.33783c3.04205,5.97101 4.7573,12.73109 4.7573,19.89179c0,5.34056 -0.95409,10.45828 -2.70113,15.19201c3.38004,-0.75963 6.89059,-1.17426 10.49273,-1.20496c-0.01207,-0.51724 -0.01814,-1.03597 -0.01814,-1.55611c0,-36.14481 29.30116,-65.44597 65.44597,-65.44597c3.40598,0 6.75119,0.26018 10.01683,0.76175v131.8555h-297.82785c-10.87633,-8.467 -17.87251,-21.68407 -17.87251,-36.53519zM353.62297,412.538c-3.18259,3.48436 -6.6314,6.7214 -10.31426,9.67895c2.28395,4.44941 3.84056,9.33363 4.51285,14.49569c16.36147,9.87173 27.30211,27.81859 27.30211,48.32076c0,31.14556 -25.24847,56.39403 -56.39403,56.39403c-25.62916,0 -47.26518,-17.09666 -54.12539,-40.50732h12.23093l0,-67.58874h-209.28117l0,-136.00284h-32.65953v-189.46675l71.09142,0l0,-71.4901h137.74779c0.42481,2.72083 0.64531,5.50934 0.64531,8.34935c0,14.70437 -5.91096,28.02817 -15.48637,37.72488c12.557,13.39563 21.31904,30.3917 24.57073,49.27281c3.26216,-2.08107 6.68553,-3.93179 10.24719,-5.52926c-7.51999,-9.57693 -12.00456,-21.65045 -12.00456,-34.7714c0,-13.38784 4.66887,-25.68521 12.46721,-35.3527c-2.27463,-6.17368 -3.6259,-12.79407 -3.88633,-19.69368h153.93219l0,248.04993h4.40855l0,87.1003c-16.58617,19.81898 -39.19154,34.42817 -65.00464,41.01608zM211.62252,663.90727c0,2.62144 -0.11435,5.21618 -0.33834,7.77949c2.05666,6.17864 3.21279,12.76871 3.31272,19.61451h-13.71759v-69.61754c6.84983,12.54054 10.74321,26.92737 10.74321,42.22354zM386.8918,95.60032c0.73908,0 1.47449,0.01574 2.2059,0.04689c-5.03396,-8.49288 -8.56299,-17.98287 -10.21974,-28.10262c-3.96259,6.41406 -9.02468,12.07693 -14.92334,16.72564c0.29633,2.34087 0.44905,4.72652 0.44905,7.14784c0,3.35384 -0.29301,6.63925 -0.85481,9.83201c6.99327,-3.61077 14.92998,-5.64977 23.34294,-5.64977zM200.87931,500.92012l41.56122,0c-6.74537,16.5164 -22.74885,28.26867 -41.56122,28.80755z" stroke="#000000"/><path d="M483.8916,625.36907c9.23829,-6.83277 20.66735,-10.87275 33.04001,-10.87275c6.22396,0 12.20914,1.02232 17.79678,2.9082c2.31316,-0.14681 4.64502,-0.2248 6.99355,-0.23196c5.08568,-16.17899 15.95796,-29.79431 30.19085,-38.41994l68.65558,0v218.02742l-99.5642,0v48.97284c-20.91915,-0.19253 -40.49539,-6.00508 -57.29184,-16.0008c-27.82635,30.61071 -67.96506,49.82803 -112.59222,49.82803c-34.99775,0 -67.23506,-11.81883 -92.93842,-31.68297c-3.91834,2.01654 -8.07826,3.62969 -12.42488,4.7846c-0.66867,0.32348 -1.34355,0.63613 -2.02443,0.93772v-162.31818h-40.40655c4.26882,-17.50792 11.56758,-33.82882 21.30926,-48.37567c-13.85394,-9.63864 -22.92178,-25.67693 -22.92178,-43.83313c0,-29.47032 23.89041,-53.36073 53.36073,-53.36073c23.57934,0 43.5866,15.29386 50.64313,36.50293c7.4088,-2.31383 15.06103,-4.07636 22.90864,-5.23955c6.65667,-16.97578 23.18544,-28.99598 42.52167,-28.99598c24.03706,0 43.73567,18.57507 45.52467,42.15403c17.97239,8.59559 33.99382,20.61585 47.21944,35.21591zM464.57197,557.91044c-38.73958,0 -71.68745,-24.7973 -83.83667,-59.38497c-6.18481,28.55734 -31.59683,49.95121 -62.00566,49.95121c-29.5527,0 -54.38599,-20.20619 -61.43787,-47.55657h19.54341l0,-67.58874h-209.28117l0,-136.00284h-32.65953v-189.46675l71.09142,0l0,-71.4901h308.23316l0,248.04993h4.40855v118.0691h39.78035v-30.20566c1.18059,-0.18484 2.36953,-0.34451 3.56625,-0.47844c8.72956,-16.45288 26.03548,-27.65885 45.95869,-27.65885c0.46198,0 0.92255,0.00603 1.38164,0.018v92.29409l-23.45622,0l0,64.46025h31.84704v30.09079h10.55048c-16.13966,16.59254 -38.7081,26.89954 -63.68387,26.89954zM205.92241,535.1505c-1.64709,0.89795 -3.32897,1.74012 -5.0431,2.52397v-36.75435h47.76183c-6.50544,18.24787 -22.89214,31.80513 -42.71873,34.23038zM222.64868,663.90727c0,5.09178 -0.38349,10.094 -1.12315,14.97934c0.74429,4.0322 1.15843,8.18011 1.21336,12.41466l-21.85959,0l0,-89.42139c13.62148,16.98989 21.76937,38.55712 21.76937,62.02739zM470.58072,178.98379c-2.29038,-0.19218 -4.55554,-0.47303 -6.79204,-0.8391c0.47588,2.92023 0.72329,5.91719 0.72329,8.97194c0,14.83116 -5.83206,28.30018 -15.32794,38.23881v-144.41322l22.79293,0v-78.55414h43.17069v78.55414h252.93761v213.65069h-318.90122l0,-65.15797c0.93342,1.90941 1.82492,3.84305 2.6733,5.79974c7.2999,-14.94124 21.54399,-25.86927 38.52935,-28.58117c-8.71286,-7.3725 -15.57896,-16.85984 -19.80597,-27.66971zM352.12195,429.76124c0.1354,0.51556 0.26279,1.03436 0.38202,1.55627c10.3547,6.52431 18.69084,15.95987 23.8595,27.15778c2.19421,-18.45267 10.04465,-35.17004 21.76877,-48.36955c-13.52352,8.61341 -28.61565,14.98283 -44.75197,18.58384c-0.41653,0.36053 -0.83598,0.71776 -1.25833,1.07167zM747.77403,154.50888c3.09073,-0.43241 6.24297,-0.67294 9.44428,-0.70916c-0.86408,-0.51486 -1.7158,-1.0483 -2.55462,-1.59977c-2.25236,0.86354 -4.55046,1.63473 -6.88966,2.30893zM252.71729,42.33547c-0.5207,1.3666 -1.07076,2.71872 -1.64941,4.05557c-0.31718,11.68461 -3.9526,22.541 -9.99799,31.66089c1.42447,1.67078 2.79894,3.38548 4.12112,5.14179c1.30389,-10.06499 4.96851,-19.38938 10.42034,-27.39967c-1.37573,-4.32353 -2.35468,-8.82399 -2.89406,-13.45858zM375.08803,90.44804c-0.54731,-1.26925 -1.06666,-2.55338 -1.55725,-3.85164c-0.7031,0.65699 -1.41935,1.30007 -2.14834,1.9288c0.04186,0.93189 0.06359,1.86902 0.06478,2.81097c1.19823,-0.33446 2.41228,-0.63096 3.6408,-0.88813zM688.75108,202.54284c0.48538,-1.35218 1.0092,-2.68605 1.57014,-4.00027c-0.76029,0.49424 -1.53035,0.97472 -2.30983,1.44107c0.26884,0.84345 0.51563,1.69674 0.73968,2.5592zM736.886,156.88757c-4.20265,0.63387 -8.50535,0.96247 -12.8848,0.96247c-1.11289,0 -2.22081,-0.02122 -3.32341,-0.06327c-0.79548,2.72279 -1.74526,5.37974 -2.83926,7.96074c5.82855,-3.80971 12.23018,-6.8155 19.04746,-8.85993zM458.40795,322.72945h1.47422c-0.45039,1.97067 -0.94212,3.92559 -1.47422,5.8638zM546.00019,531.0109v1.71738c-1.13035,-0.53071 -2.23682,-1.10385 -3.31736,-1.71738z" stroke="#000000"/><path d="M494.89415,612.36142c4.48196,-1.71122 9.21426,-2.9157 14.12684,-3.5434c9.43497,-2.53673 19.30412,-4.01374 29.472,-4.29559c4.82869,-9.98408 11.75421,-18.76464 20.20467,-25.76982l81.8707,0v218.02742l-99.5642,0l0,61.67254c-18.0869,-0.1498 -35.27233,-4.08072 -50.80456,-11.04099c-17.69085,17.5633 -39.24566,31.23981 -63.27677,39.64189h-111.60546c-17.7303,-6.1991 -34.1126,-15.26939 -48.58959,-26.65353c-0.98732,0.43727 -1.98598,0.8536 -2.99541,1.24844v-170.34711l-62.85307,0l0,-105.85821c5.67493,5.60318 10.74502,11.8175 15.10353,18.53618c-0.13148,-1.61155 -0.1985,-3.24133 -0.1985,-4.88677c0,-32.5038 26.15561,-58.89864 58.56774,-59.2854c-10.1654,-8.24617 -17.99016,-19.26513 -22.32287,-31.90547c-6.69783,14.33466 -19.09356,25.47341 -34.27339,30.50244c-5.25227,3.57779 -10.90478,6.6116 -16.87649,9.02035l0,-46.50428h75.95587l0,-67.58874h-209.28117l0,-136.00284h-32.65953v-189.46675l71.09142,0l0,-71.4901h308.23316l0,248.04993h4.40855v118.0691h39.78035v-79.76127h17.48943c-2.60303,12.73248 -6.75216,24.90197 -12.2427,36.30377c10.59726,-12.63174 26.4999,-20.66246 44.27822,-20.66246c0.46183,0 0.9224,0.00542 1.38164,0.0162v98.0729l-23.45622,0l0,64.46025h31.84704v30.09079h28.29483v7.59569c-2.67468,-1.10662 -5.24065,-2.4228 -7.67744,-3.92807c-18.07891,20.30986 -44.42091,33.1024 -73.75077,33.1024c-11.93031,0 -23.36625,-2.11661 -33.9528,-5.99479c2.45874,3.04139 4.57311,6.37269 6.28381,9.9346c22.13612,9.36153 41.86275,23.30466 57.99117,40.64067zM379.97589,519.95903c-12.1422,21.24696 -35.02192,35.56691 -61.24625,35.56691c-1.18537,0 -2.36391,-0.02926 -3.53493,-0.08709c3.1795,2.92371 6.03874,6.1903 8.51907,9.74114c9.69844,-2.82839 19.75744,-4.81097 30.09179,-5.86254c9.27135,-10.07697 22.56923,-16.39133 37.34192,-16.39133c3.00169,0 5.94249,0.2607 8.801,0.7607c-7.83592,-6.79293 -14.59096,-14.7997 -19.97259,-23.72779zM470.15596,195.05286c-0.68025,5.281 -2.03022,10.35222 -3.96199,15.12574c3.40109,-2.3106 7.06129,-4.26832 10.92797,-5.8205c-2.54686,-2.91614 -4.87721,-6.02625 -6.96598,-9.30524zM471.97696,2.38807h43.17069v78.55414h252.93761v213.65069h-318.90122v-213.65069l22.79293,0zM509.31454,322.72945l0,3.94121c-1.12364,-1.27126 -2.19927,-2.58594 -3.22406,-3.94121z" stroke="#000000"/><path d="" stroke="none"/></g></svg>