<svg version="1.1" xmlns="http://www.w3.org/2000/svg" xmlns:xlink="http://www.w3.org/1999/xlink" width="1500" height="1500" viewBox="0,0,1500,1500"><g fill="none" fill-rule="nonzero" stroke="none" stroke-width="1" stroke-linecap="butt" stroke-linejoin="miter" stroke-miterlimit="10" stroke-dasharray="" stroke-dashoffset="0" font-family="none" font-weight="none" font-size="none" text-anchor="none" style="mix-blend-mode: normal"><path d="M680.06242,722.89357c4.24192,0 7.76721,3.0682 8.47771,7.10643h-16.95541c0.71049,-4.03822 4.23579,-7.10643 8.47771,-7.10643zM680.06242,740.1101c-0.46991,0 -0.93102,-0.03765 -1.38048,-0.1101h2.76097c-0.44947,0.07245 -0.91058,0.1101 -1.38048,0.1101zM358.35649,415.89792c0,-6.40574 2.92948,-12.12726 7.52182,-15.89792h26.07635c4.59233,3.77067 7.52182,9.49219 7.52182,15.89792c0,11.35497 -9.20502,20.55999 -20.55999,20.55999c-11.35497,0 -20.55999,-9.20502 -20.55999,-20.55999zM623.37621,445.68738c0,-2.07384 0.55899,-4.01712 1.53453,-5.68738l19.51747,0c0.97553,1.67027 1.53453,3.61354 1.53453,5.68738c0,1.52732 -0.30319,2.98383 -0.85267,4.31262l-20.88118,0c-0.54948,-1.32879 -0.85267,-2.7853 -0.85267,-4.31262zM592.83239,580.73894c0,-0.24754 0.00511,-0.49389 0.01524,-0.73894h35.14671c0.01013,0.24505 0.01524,0.4914 0.01524,0.73894c0,3.39824 -0.96373,6.5714 -2.63278,9.26106h-20.49505l0,7.43754c-6.99989,-2.3208 -12.04936,-8.92002 -12.04936,-16.6986zM50.76385,123.64437c3.89763,0 7.16132,2.71421 8.00407,6.35563h-9.03882l0,-6.29109c0.33892,-0.04259 0.68427,-0.06454 1.03475,-0.06454zM253.59626,37.43279c0,-2.79487 0.93572,-5.3712 2.51096,-7.43279l19.48483,0c1.57525,2.06159 2.51096,4.63792 2.51096,7.43279c0,0.88052 -0.09287,1.73934 -0.26936,2.56721l-23.96804,0c-0.17649,-0.82787 -0.26936,-1.6867 -0.26936,-2.56721zM284.89302,69.24964c0,3.92687 -1.07399,7.60289 -2.94426,10.75036l-36.26152,0c-1.87027,-3.14747 -2.94426,-6.82349 -2.94426,-10.75036c0,-3.31817 0.76684,-6.45723 2.13297,-9.24964h37.88411c1.36613,2.79241 2.13297,5.93147 2.13297,9.24964zM263.818,90.32466c-1.26418,0 -2.50236,-0.11131 -3.70528,-0.32466h7.41057c-1.20292,0.21335 -2.4411,0.32466 -3.70528,0.32466zM293.75267,624.82886c10.585,0 19.72135,6.20242 23.97291,15.17114h-47.94583c4.25156,-8.96872 13.38791,-15.17114 23.97291,-15.17114zM84.80871,757.09922c2.50723,0 4.75137,1.12641 6.25397,2.90078l-12.50794,0c1.5026,-1.77437 3.74674,-2.90078 6.25397,-2.90078zM757.9718,27.22536c2.98592,0 5.72923,1.03877 7.88825,2.77464h-15.77651c2.15903,-1.73587 4.90233,-2.77464 7.88825,-2.77464zM366.46289,188.51396c0,-5.22871 4.2387,-9.46741 9.46741,-9.46741c5.22871,0 9.46741,4.2387 9.46741,9.46741c0,5.22871 -4.2387,9.46741 -9.46741,9.46741c-5.22871,0 -9.46741,-4.2387 -9.46741,-9.46741zM153.83608,783.70757c0,-1.31006 0.25219,-2.56122 0.71068,-3.70757h18.55673c0.45849,1.14635 0.71068,2.39751 0.71068,3.70757c0,2.38502 -0.83587,4.57482 -2.23064,6.29243l-15.51682,0c-1.39477,-1.71761 -2.23064,-3.9074 -2.23064,-6.29243zM173.49558,467.6215c0,-7.58237 6.14673,-13.7291 13.7291,-13.7291c2.98429,0 5.74618,0.95217 7.99846,2.56929c1.89512,-0.97927 4.04621,-1.53231 6.32648,-1.53231c7.62173,0 13.80036,6.17863 13.80036,13.80036c0,4.6544 -2.30416,8.77064 -5.83404,11.27026h-15.93265c-0.05636,-0.03991 -0.1124,-0.08023 -0.16813,-0.12095c-0.08123,0.04111 -0.16292,0.08143 -0.24507,0.12095h-11.89083c-4.60519,-2.21591 -7.78368,-6.92602 -7.78368,-12.3785zM272.04303,509.03556c1.65794,0 3.23555,0.34397 4.66535,0.96444h-9.33069c1.4298,-0.62047 3.0074,-0.96444 4.66535,-0.96444zM283.77293,520.76546c0,3.749 -1.75878,7.08721 -4.49625,9.23454l-26.97915,0c-0.00013,-0.02072 -0.0002,-0.04146 -0.0002,-0.06221c0,-1.76531 0.47936,-3.41865 1.31502,-4.83697c-1.25682,-1.13924 -2.04621,-2.7848 -2.04621,-4.61473c0,-0.16358 0.00631,-0.32569 0.01869,-0.48609h32.16351c0.0163,0.25305 0.02458,0.50829 0.02458,0.76546zM330.78959,515.12256c0,-1.8197 0.37568,-3.55167 1.0537,-5.12256h23.76845c0.67802,1.57089 1.0537,3.30285 1.0537,5.12256c0,5.35867 -3.25781,9.95644 -7.90089,11.92077c-0.02769,1.05399 -0.27248,2.05391 -0.6913,2.95667h-13.63589c-0.44536,-0.95998 -0.69394,-2.02981 -0.69394,-3.15771c0,-1.01036 0.19947,-1.97414 0.56118,-2.85409c-2.17952,-2.31564 -3.51502,-5.43468 -3.51502,-8.86565zM678.9586,360.10965c0,-0.0366 0.00019,-0.07315 0.00058,-0.10965h72.27339c-0.55578,3.61291 -1.81399,6.99419 -3.63078,10l-47.15368,0c-0.94071,-1.55637 -1.73166,-3.2134 -2.35289,-4.95113c-1.34584,2.42857 -3.65339,4.25033 -6.40853,4.95113h-5.04674c-4.41547,-1.12313 -7.68136,-5.12535 -7.68136,-9.89035zM365.96231,150.05462c0,-0.01823 0.00008,-0.03643 0.00023,-0.05462h12.44914c0.00016,0.01819 0.00023,0.0364 0.00023,0.05462c0,3.43787 -2.78694,6.22481 -6.22481,6.22481c-3.43787,0 -6.22481,-2.78694 -6.22481,-6.22481zM417.18327,210.38168c0,-4.0028 3.24491,-7.2477 7.2477,-7.2477c4.0028,0 7.2477,3.24491 7.2477,7.2477c0,4.0028 -3.24491,7.2477 -7.2477,7.2477c-4.0028,0 -7.2477,-3.24491 -7.2477,-7.2477zM642.02537,363.82237c-2.45677,0 -4.53884,-1.60427 -5.25578,-3.82237h10.51157c-0.71694,2.2181 -2.79901,3.82237 -5.25578,3.82237zM544.11334,195.76966c0,-6.4517 5.23013,-11.68183 11.68183,-11.68183c6.4517,0 11.68183,5.23013 11.68183,11.68183c0,1.49196 -0.27969,2.9186 -0.78951,4.23034l-21.78465,0c-0.50981,-1.31174 -0.78951,-2.73838 -0.78951,-4.23034zM396.08144,308.95835c0,-7.35775 2.90156,-14.03781 7.62286,-18.95835h39.52705c4.7213,4.92054 7.62286,11.6006 7.62286,18.95835c0,0.34878 -0.00652,0.69604 -0.01944,1.04165h-54.73387c-0.01292,-0.34562 -0.01944,-0.69287 -0.01944,-1.04165zM185.27772,416.07257c0,-2.08115 0.21413,-4.11228 0.62156,-6.07257l58.13618,0c0.40743,1.96029 0.62156,3.99142 0.62156,6.07257c0,1.33143 -0.08764,2.64239 -0.25747,3.92743h-58.86436c-0.16983,-1.28504 -0.25747,-2.596 -0.25747,-3.92743zM214.96737,386.38292c5.14924,0 9.99231,1.31086 14.21371,3.61708h-28.42742c4.2214,-2.30622 9.06447,-3.61708 14.21371,-3.61708zM596.42434,15.77151c0,5.13252 -4.16073,9.29326 -9.29326,9.29326c-3.85924,0 -7.16905,-2.3524 -8.57374,-5.70152c0.00012,0.0253 0.00017,0.05061 0.00017,0.07594c0,4.03114 -1.46697,7.71965 -3.89618,10.56081l-24.72691,0c-2.42921,-2.84116 -3.89618,-6.52967 -3.89618,-10.56081c0,-3.51955 1.11825,-6.77792 3.01884,-9.43919l26.4816,0c1.03106,1.44373 1.83188,3.06319 2.34882,4.80474c0.18657,-1.80504 0.8898,-3.45676 1.95927,-4.80474h14.56862c1.25775,1.5853 2.00895,3.59068 2.00895,5.77151zM541.80006,375.07137c3.40409,0 6.33615,2.02102 7.66174,4.92863h-15.32348c1.32559,-2.90761 4.25765,-4.92863 7.66174,-4.92863zM583.58594,363.5016c0,-1.19561 0.10838,-2.36591 0.31586,-3.5016h38.0869c0.20748,1.13569 0.31586,2.30599 0.31586,3.5016c0,2.27962 -0.39401,4.46721 -1.11765,6.4984l-36.48332,0c-0.72364,-2.03118 -1.11765,-4.21877 -1.11765,-6.4984zM707.25953,19.43721c-6.78859,0 -12.68382,-3.82491 -15.64819,-9.43721l31.29637,0c-2.96437,5.6123 -8.8596,9.43721 -15.64819,9.43721zM640.3998,161.67757c4.83531,0 8.82148,3.63564 9.374,8.32243l-18.74801,0c0.55253,-4.68679 4.53869,-8.32243 9.374,-8.32243zM150.1042,616.53239c3.7067,0 7.10989,1.29943 9.77891,3.46761h-19.55782c2.66902,-2.16818 6.07221,-3.46761 9.77891,-3.46761zM165.62436,632.05255c0,2.90459 -0.7979,5.62281 -2.18647,7.94745h-26.66738c-0.65444,-1.09562 -1.17768,-2.27866 -1.54801,-3.52743v-6.47257h30.26734c0.08873,0.67159 0.13452,1.35672 0.13452,2.05255zM148.62084,685.47504c-5.46181,0 -10.43946,-2.07296 -14.1891,-5.47504h28.37819c-3.74963,3.40208 -8.72728,5.47504 -14.1891,5.47504zM360.64724,92.79687c1.64915,0 3.25296,0.19409 4.78985,0.56067c-0.56719,-1.06861 -1.04648,-2.191 -1.42824,-3.35754h87.3482c0.04503,0.63586 0.06793,1.27784 0.06793,1.92517c0,6.96088 -2.64802,13.30329 -6.99166,18.07483l-39.73391,0c-2.76729,-3.03989 -4.84635,-6.71737 -5.99091,-10.78616c-3.79664,3.43472 -8.83101,5.52664 -14.35397,5.52664c-1.84987,0 -3.64493,-0.23468 -5.35702,-0.6759c0.93277,1.83676 1.59788,3.83235 1.94398,5.93542l-40.58847,0c1.60597,-9.75873 10.08074,-17.20313 20.29423,-17.20313zM384.35452,61.93452c8.75149,0 16.2762,5.2525 19.59363,12.777c4.92687,-5.89497 12.33461,-9.64496 20.61821,-9.64496c4.02758,0 7.84811,0.8865 11.2771,2.47503v2.45842h4.24028c3.61561,2.56358 6.56952,5.99903 8.55533,10h-85.42886c1.60267,-10.23536 10.45907,-18.06548 21.1443,-18.06548zM360.64724,133.93317c-4.52232,0 -8.70376,-1.4595 -12.09899,-3.93317h24.19797c-3.39522,2.47367 -7.57666,3.93317 -12.09899,3.93317zM702.10234,161.0594c-1.18336,0 -2.27455,-0.3946 -3.14918,-1.0594h6.29836c-0.87463,0.6648 -1.96582,1.0594 -3.14918,1.0594zM527.30335,727.46409c0,-10.73861 8.70536,-19.44397 19.44397,-19.44397c10.73861,0 19.44397,8.70536 19.44397,19.44397c0,0.85947 -0.05576,1.70591 -0.16387,2.53591h-38.56021c-0.10811,-0.83 -0.16387,-1.67644 -0.16387,-2.53591zM678.70653,515.63615c1.61711,0 3.07433,0.68455 4.09769,1.77968v2.58416h-9.56657c0.56562,-2.49841 2.7994,-4.36385 5.46888,-4.36385zM661.6201,721.96314c-1.7929,0 -3.4096,-0.75442 -4.54995,-1.96314h9.09991c-1.14036,1.20872 -2.75705,1.96314 -4.54995,1.96314zM136.96027,525.70297c2.68584,0 5.04003,1.41995 6.35282,3.5501c4.10616,-5.54269 10.69467,-9.13562 18.12235,-9.13562c7.75627,0 14.59748,3.91786 18.65259,9.88254l-49.88405,0c1.18939,-2.53867 3.7675,-4.29703 6.7563,-4.29703zM568.88709,228.45031c0,-8.83561 6.00012,-16.26982 14.14805,-18.45031h9.89997c8.14793,2.18049 14.14805,9.6147 14.14805,18.45031c0,0.52171 -0.02092,1.03854 -0.06197,1.54969h-35.42658v8.25832c-1.71917,-2.8668 -2.70753,-6.22198 -2.70753,-9.80802zM591.55483,145.64257c0,-2.18668 0.85661,-4.17329 2.25257,-5.64257h11.88162c1.39596,1.46927 2.25257,3.45588 2.25257,5.64257c0,1.6013 -0.45936,3.0953 -1.2535,4.35743h-13.87976c-0.79414,-1.26213 -1.2535,-2.75613 -1.2535,-4.35743zM731.17543,601.61405c0,-0.56451 0.09283,-1.10734 0.26406,-1.61405h0.97822l0,4.92715c-0.77362,-0.88575 -1.24229,-2.04469 -1.24229,-3.3131zM566.30679,104.96231c0,-1.71753 0.23001,-3.38134 0.66091,-4.96231h29.07966v10l-29.05895,0c-0.44424,-1.60343 -0.68163,-3.29284 -0.68163,-5.03769zM585.13183,86.13728c4.29682,0 8.2574,1.43957 11.42576,3.86272l-22.85153,0c3.16836,-2.42315 7.12895,-3.86272 11.42576,-3.86272zM352.92534,71.92971c0,-3.25562 2.6392,-5.89483 5.89483,-5.89483c3.25562,0 5.89483,2.6392 5.89483,5.89483c0,3.25562 -2.6392,5.89483 -5.89483,5.89483c-3.25562,0 -5.89483,-2.6392 -5.89483,-5.89483zM335.17561,158.84842c0,-3.2793 1.00037,-6.32495 2.71259,-8.84842h26.13254c1.71222,2.52348 2.71259,5.56912 2.71259,8.84842c0,0.38728 -0.01395,0.77129 -0.04138,1.15158h-31.47497c-0.02743,-0.38028 -0.04138,-0.7643 -0.04138,-1.15158zM350.95448,174.62728c-4.36014,0 -8.30723,-1.76849 -11.1631,-4.62728l22.3262,0c-2.85587,2.8588 -6.80296,4.62728 -11.1631,4.62728zM721.62006,670.70621c-16.90234,0 -30.60439,-13.70205 -30.60439,-30.60439c0,-0.03395 0.00006,-0.06789 0.00017,-0.10182h29.87067l0,10l29.70189,0c-1.26548,3.70458 -3.22161,7.0891 -5.71483,10h-16.96707l0,10h0.28041c-2.11542,0.4625 -4.31267,0.70621 -6.56685,0.70621zM721.62006,609.49743c1.89629,0 3.7523,0.17247 5.5532,0.50257h-11.1064c1.8009,-0.3301 3.65691,-0.50257 5.5532,-0.50257zM691.16404,280.23616c0,-3.24928 2.63406,-5.88334 5.88334,-5.88334c3.24928,0 5.88334,2.63406 5.88334,5.88334c0,3.24928 -2.63406,5.88334 -5.88334,5.88334c-3.24928,0 -5.88334,-2.63406 -5.88334,-5.88334zM243.05838,248.43837c-10.51568,0 -19.13387,-8.12417 -19.92039,-18.43837l39.84078,0c-0.78652,10.31419 -9.40471,18.43837 -19.92039,18.43837zM773.72118,542.13174c6.63281,0 12.54839,3.0708 16.40262,7.86826l-32.80524,0c3.85423,-4.79746 9.76981,-7.86826 16.40262,-7.86826zM773.72118,584.1898c-4.72543,0 -9.08682,-1.55862 -12.59814,-4.1898h25.19629c-3.51132,2.63119 -7.87271,4.1898 -12.59814,4.1898zM158.48414,248.74698c2.03127,0 3.95767,0.44894 5.68542,1.25302l-11.37083,0c1.72774,-0.80408 3.65415,-1.25302 5.68542,-1.25302zM719.62071,279.80071c0,-4.04922 2.0071,-7.62966 5.0807,-9.80071l13.8203,0c3.0736,2.17106 5.0807,5.75149 5.0807,9.80071c0,0.06656 -0.00054,0.13299 -0.00162,0.19929l-23.97845,0c-0.00108,-0.0663 -0.00162,-0.13273 -0.00162,-0.19929zM203.44684,135.94423c2.83496,0 5.28284,1.65723 6.42775,4.05577l-12.85549,0c1.1449,-2.39854 3.59279,-4.05577 6.42775,-4.05577zM612.32021,10.14842c0,-0.04963 0.00068,-0.09911 0.00204,-0.14842l10.58032,0c0.00136,0.04931 0.00204,0.09878 0.00204,0.14842c0,2.9228 -2.3694,5.2922 -5.2922,5.2922c-2.9228,0 -5.2922,-2.3694 -5.2922,-5.2922zM150.15583,461.80303c-7.22755,0 -13.27713,-5.04349 -14.82131,-11.80303h29.64262c-1.54418,6.75955 -7.59376,11.80303 -14.82131,11.80303zM462.97036,643.25765c-2.66681,0 -5.03482,-1.27928 -6.52384,-3.25765l13.04767,0c-1.48902,1.97836 -3.85703,3.25765 -6.52384,3.25765zM629.78838,149.29118c-4.54968,0 -8.483,-2.63897 -10.35276,-6.46971c-1.11161,0.6694 -2.41384,1.05444 -3.806,1.05444c-2.80909,0 -5.25202,-1.56769 -6.50164,-3.8759l31.95953,0c-1.03546,5.2953 -5.70065,9.29118 -11.29912,9.29118zM386.71799,174.05452c0,-1.39563 0.16317,-2.75315 0.47147,-4.05452l34.10053,0c0.3083,1.30137 0.47147,2.65889 0.47147,4.05452c0,9.67699 -7.84475,17.52174 -17.52174,17.52174c-9.67699,0 -17.52174,-7.84475 -17.52174,-17.52174zM404.23972,156.53278c3.92304,0 7.54495,1.28927 10.46515,3.46722h-20.9303c2.9202,-2.17795 6.54211,-3.46722 10.46515,-3.46722zM780.84316,211.99325c0,-0.69179 0.09833,-1.36061 0.28178,-1.99325h13.7242c0.18345,0.63264 0.28178,1.30146 0.28178,1.99325c0,3.94545 -3.19842,7.14388 -7.14388,7.14388c-3.94545,0 -7.14388,-3.19842 -7.14388,-7.14388zM479.72207,2.95342c0,-1.00213 0.06917,-1.98811 0.20299,-2.95342l42.21814,0c0.13382,0.96531 0.20299,1.95129 0.20299,2.95342c0,11.77032 -9.54173,21.31206 -21.31206,21.31206c-4.80056,0 -9.23041,-1.58721 -12.79339,-4.26548h9.16709v-10l-16.49327,0c-0.77248,-2.20574 -1.19249,-4.57711 -1.19249,-7.04658zM465.83257,445.32836c3.40002,0 6.35921,1.8874 7.887,4.67164h-15.35311v-0.69126c1.61415,-2.40078 4.35566,-3.98038 7.4661,-3.98038zM529.80711,239.85857c0,-7.85862 6.37067,-14.22929 14.22929,-14.22929c7.85862,0 14.22929,6.37067 14.22929,14.22929c0,0.0472 -0.00023,0.09434 -0.00069,0.14143h-28.45721c-0.00046,-0.04709 -0.00069,-0.09423 -0.00069,-0.14143zM544.0364,254.08786c-2.08158,0 -4.05876,-0.44697 -5.8408,-1.25017v-2.8377h15.822c-2.56839,2.52806 -6.09264,4.08786 -9.9812,4.08786zM755.63478,362.63853c0,-0.8908 0.04524,-1.77103 0.13354,-2.63853h51.22741c0.0883,0.86749 0.13354,1.74773 0.13354,2.63853c0,2.5581 -0.37306,5.02908 -1.06775,7.36147l-49.359,0c-0.69469,-2.3324 -1.06775,-4.80337 -1.06775,-7.36147zM96.58325,244.54648c0,-1.69452 0.53693,-3.26363 1.44994,-4.54648h12.79935c0.91301,1.28285 1.44994,2.85196 1.44994,4.54648c0,2.1187 -0.83939,4.04134 -2.20376,5.45352h-11.29171c-1.36437,-1.41218 -2.20376,-3.33483 -2.20376,-5.45352zM618.70558,316.31945c0,-2.98092 2.41652,-5.39744 5.39744,-5.39744c2.98092,0 5.39744,2.41652 5.39744,5.39744c0,2.98092 -2.41652,5.39744 -5.39744,5.39744c-2.98092,0 -5.39744,-2.41652 -5.39744,-5.39744zM718.89463,775.88283c0,-3.21792 2.60864,-5.82656 5.82656,-5.82656c3.21792,0 5.82656,2.60864 5.82656,5.82656c0,1.60752 -0.651,3.063 -1.70374,4.11717l-8.24564,0c-1.05274,-1.05418 -1.70374,-2.50965 -1.70374,-4.11717zM554.43731,446.47095c0,-2.27072 0.39448,-4.4493 1.11864,-6.47095h36.13409c0.72417,2.02165 1.11864,4.20023 1.11864,6.47095c0,1.20555 -0.11119,2.38514 -0.32388,3.52905l-37.72363,0c-0.21269,-1.14392 -0.32388,-2.3235 -0.32388,-3.52905zM573.623,427.28526c3.59886,0 6.96628,0.9909 9.84433,2.71474h-19.68865c2.87804,-1.72385 6.24547,-2.71474 9.84433,-2.71474zM106.64534,529.93139c-2.52918,0 -4.96635,-0.3939 -7.25353,-1.12371l0,-8.80768l26.61623,0c-4.32709,6.01474 -11.3875,9.93139 -19.3627,9.93139zM355.42359,340.89647c-1.33009,0 -2.58459,-0.32364 -3.68905,-0.89647h7.37809c-1.10446,0.57283 -2.35896,0.89647 -3.68905,0.89647zM701.44717,539.46528c0,-3.47899 0.9994,-6.72457 2.72676,-9.46528h30.09934c1.72736,2.74072 2.72676,5.98629 2.72676,9.46528c0,3.94318 -1.28388,7.58649 -3.45642,10.53472h-28.64004c-2.17254,-2.94823 -3.45642,-6.59154 -3.45642,-10.53472zM224.98681,440v-10h16.2075c-2.10106,3.9483 -5.0676,7.366 -8.64654,10zM606.13219,570h-9.64189c2.3773,-3.07932 5.75285,-5.3486 9.64189,-6.32306zM69.51154,610h9.23664c-2.31942,3.14735 -5.51949,5.60585 -9.23664,7.01189zM457.02094,630l-0.4228,0c0.13455,-0.16798 0.27561,-0.33053 0.4228,-0.48725zM310.78029,680c-0.98025,4.82197 -4.60645,8.68257 -9.29681,10l-7.10749,0c-4.69036,-1.31743 -8.31656,-5.17803 -9.29681,-10zM235.83467,690c0.19248,-3.65424 1.30794,-7.06384 3.1176,-10l36.21398,0c1.80965,2.93616 2.92512,6.34576 3.1176,10zM662.10061,450c1.93283,-4.59366 5.69187,-8.22997 10.36818,-10h12.9166c4.67631,1.77003 8.43535,5.40634 10.36818,10z" stroke="#000000"/><path d="M663.17766,728.12132c-0.51029,0.06338 -1.03012,0.09603 -1.55757,0.09603c-5.4007,0 -10.00197,-3.42273 -11.75297,-8.21735h43.0063c2.42556,2.69986 4.01001,6.17066 4.34092,10h-34.30386c0.05503,-0.63677 0.14472,-1.26363 0.26717,-1.87868zM680.06242,748.71837c-6.41789,0 -12.01558,-3.51168 -14.97641,-8.71837l29.95282,0c-2.96083,5.20669 -8.55852,8.71837 -14.97641,8.71837zM290.33847,36.48673c1.34753,1.09213 2.62635,2.26572 3.82897,3.51327h-51.92898v-10h46.97049c0.65418,2.05772 1.04398,4.23326 1.12952,6.48673zM305.96804,69.24964c0,3.71533 -0.4807,7.31838 -1.38329,10.75036l-81.5335,0c-0.90259,-3.43198 -1.38329,-7.03503 -1.38329,-10.75036c0,-3.1776 0.35162,-6.27308 1.01808,-9.24964l82.26392,0c0.66646,2.97656 1.01808,6.07204 1.01808,9.24964zM263.818,111.39968c-3.73775,0 -7.36186,-0.48652 -10.81247,-1.39968h8.59106v-10h-26.60657c-3.09952,-2.90691 -5.75935,-6.27708 -7.86902,-10l73.394,0c-7.24061,12.7775 -20.96189,21.39968 -36.697,21.39968zM251.25296,509.88614c2.20821,-4.21116 5.65839,-7.66874 9.86395,-9.88614l21.85225,0c4.2434,2.23736 7.71777,5.73731 9.92325,10h-41.82012c0.05987,-0.03845 0.1201,-0.07641 0.18067,-0.11386zM295.50283,520.76546c0,3.27877 -0.67262,6.40043 -1.88741,9.23454l-50.86022,0c-0.00007,-0.02073 -0.0001,-0.04147 -0.0001,-0.06221c0,-3.49893 0.9416,-6.77793 2.58522,-9.59744c0.00131,-0.11382 0.00414,-0.22728 0.00848,-0.34034h50.14178c0.00815,0.25415 0.01225,0.50933 0.01225,0.76546zM337.7965,415.89792c0,-5.63603 1.13389,-11.00723 3.18599,-15.89792h75.86799c1.32293,3.15289 2.26425,6.50549 2.76618,10h-10.60737v10l10.82513,0c-0.73538,7.42492 -3.44576,14.26915 -7.59846,20h-66.63895c-4.90732,-6.77225 -7.80051,-15.09929 -7.80051,-24.10208zM378.91648,374.77794c7.28828,0 14.1337,1.89615 20.06984,5.22206h-24.19014v10l-27.82122,0c7.53921,-9.28715 19.04728,-15.22206 31.94152,-15.22206zM612.08295,445.68738c0,-1.96446 0.25079,-3.87035 0.7221,-5.68738h98.38576c1.6414,3.0957 2.8503,6.45588 3.54617,10l-102.24278,0c-0.2699,-1.39598 -0.41125,-2.83779 -0.41125,-4.31262zM634.66947,423.10086c6.38015,0 12.14244,2.64538 16.24986,6.89914h-32.49972c4.10742,-4.25375 9.86971,-6.89914 16.24986,-6.89914zM678.92709,420.5769c5.70403,0 11.10241,1.30861 15.9113,3.642v5.7811l-40.38595,0c6.47365,-5.85631 15.05762,-9.4231 24.47465,-9.4231zM678.92709,493.5659c-5.64172,0 -10.98443,-1.28018 -15.7535,-3.5659h31.507c-4.76907,2.28572 -10.11178,3.5659 -15.7535,3.5659zM575.2438,580.73894c0,-0.24692 0.00254,-0.49324 0.00761,-0.73894l70.33917,0c0.00506,0.2457 0.00761,0.49202 0.00761,0.73894c0,3.20521 -0.42867,6.3103 -1.23182,9.26106h-39.48461v10h34.97948c-2.59717,3.96167 -5.97243,7.3674 -9.90858,10l-39.06333,0c-9.43367,-6.30947 -15.64553,-17.05984 -15.64553,-29.26106zM610.42099,545.56175c11.67282,0 22.01773,5.68547 28.41657,14.43825h-32.70537v10l-29.21906,0c4.53947,-14.17573 17.82519,-24.43825 33.50785,-24.43825zM257.05925,733.64507c-6.14062,0 -11.97713,-1.30203 -17.24852,-3.64507h34.49703c-5.27139,2.34304 -11.1079,3.64507 -17.24852,3.64507zM293.75267,598.31358c4.59981,0 9.06284,0.58564 13.31859,1.68642h-26.63718c4.25575,-1.10078 8.71878,-1.68642 13.31859,-1.68642zM345.27859,638.74944c3.18645,-2.41917 7.16044,-3.85487 11.46977,-3.85487c5.00708,0 9.56146,1.93828 12.95374,5.10544h-127.76386c0.75678,-3.47264 1.85379,-6.81819 3.25434,-10h8.00455l0,-10h-2.22487c2.74162,-3.73562 5.96075,-7.09893 9.56745,-10h18.91251l0,10h57.08088c4.05925,5.53096 7.07172,11.87808 8.7455,18.74944zM84.80871,781.67393c-2.59223,0 -5.04384,-0.60204 -7.22265,-1.67393h14.4453c-2.17881,1.07189 -4.63042,1.67393 -7.22265,1.67393zM375.9303,207.44878c-10.01844,0 -18.21962,-7.78063 -18.89049,-17.62885c-0.33445,0.06533 -0.67079,0.12539 -1.00892,0.18007h-9.01932l0,-10l-19.47753,0c-2.61746,-2.89641 -4.70519,-6.28066 -6.11042,-10l117.62755,0c0.15326,1.33026 0.23203,2.68319 0.23203,4.05452c0,8.8841 -3.30594,16.99605 -8.75473,23.17276c4.95909,2.30258 8.39791,7.3269 8.39791,13.1544c0,8.00559 -6.48981,14.49541 -14.49541,14.49541c-8.00559,0 -14.49541,-6.48981 -14.49541,-14.49541c0,-0.59634 0.03601,-1.18427 0.10598,-1.76174c-1.88719,0.31443 -3.8254,0.47804 -5.80182,0.47804c-6.49162,0 -12.57097,-1.76512 -17.78429,-4.8416c-3.00989,2.01635 -6.63017,3.19239 -10.52513,3.19239zM319.39675,158.84842c0,-3.07174 0.43887,-6.04097 1.25734,-8.84842h109.06958c2.74582,2.90794 4.99936,6.2857 6.62736,10h-116.93365c-0.01371,-0.38217 -0.02062,-0.76607 -0.02062,-1.15158zM327.50163,137.73276c-1.76222,-2.393 -3.2715,-4.98373 -4.48842,-7.73276h69.84587l0,8.95258c-0.28152,0.35393 -0.56875,0.70312 -0.86155,1.04742l-66.35608,0c0.58523,-0.78468 1.20609,-1.54122 1.86018,-2.26724zM342.06727,76.65389c3.20896,-20.46649 20.9198,-36.12236 42.28725,-36.12236c5.79912,0 11.32891,1.15318 16.37255,3.24273c7.18318,-3.56319 15.27731,-5.56633 23.83929,-5.56633c17.71097,0 33.42,8.5713 43.20527,21.79207h-31.92817l0,10h37.77656c1.42419,3.18152 2.54796,6.52688 3.33521,10l-140.37496,0c1.7325,-1.25188 3.56639,-2.37214 5.48699,-3.34611zM478.2836,91.92517c0,6.34162 -1.09891,12.42658 -3.1167,18.07483l-155.52031,0c0.5984,-7.39114 3.15058,-14.23017 7.13945,-20h151.4637c0.02251,0.63895 0.03386,1.28073 0.03386,1.92517zM143.84704,783.70757c0,-1.26686 0.11792,-2.50617 0.34338,-3.70757h39.26944c0.22546,1.2014 0.34338,2.44072 0.34338,3.70757c0,2.1985 -0.35512,4.31405 -1.01112,6.29243l-37.93394,0c-0.656,-1.97838 -1.01112,-4.09393 -1.01112,-6.29243zM214.96737,356.69327c6.86359,0 13.45519,1.16451 19.588,3.30673l-39.17601,0c6.13282,-2.14222 12.72442,-3.30673 19.588,-3.30673zM274.34667,416.07257c0,1.31964 -0.04305,2.62923 -0.12782,3.92743h-89.33057v-10h89.15167c0.20281,1.99661 0.30671,4.02245 0.30671,6.07257zM271.40554,465.23186c-4.02916,0 -7.5717,-2.08349 -9.60901,-5.23186l19.21802,0c-2.03731,3.14837 -5.57985,5.23186 -9.60901,5.23186zM228.67406,473.86206c-0.40313,2.14374 -1.05412,4.20002 -1.92206,6.13794h-64.04366c-0.78743,-1.55648 -1.431,-3.19811 -1.91322,-4.9074c-3.31145,1.23705 -6.8964,1.91335 -10.63929,1.91335c-2.13899,0 -4.22639,-0.22087 -6.24065,-0.64105c0.93302,1.16812 1.81227,2.38107 2.634,3.6351h-79.80771c2.4439,-3.72959 5.39656,-7.0958 8.75937,-10h36.73122l0,-10h-17.7985c3.89751,-1.02983 7.99057,-1.57845 12.21177,-1.57845c5.99987,0 11.74087,1.10837 17.02941,3.13153c-1.97024,-3.48173 -3.27367,-7.39058 -3.73679,-11.55308h137.57514v7.49439c-7.73641,7.94499 -17.67931,13.73078 -28.83902,16.36767zM549.48722,320.66129c7.99835,0 15.14818,3.63294 19.88939,9.33871h-39.77878c4.74121,-5.70577 11.89104,-9.33871 19.88939,-9.33871zM602.94525,324.78298c7.07882,0 13.71396,1.89967 19.42341,5.21702l-38.84683,0c5.70946,-3.31735 12.34459,-5.21702 19.42341,-5.21702zM642.02537,369.34477c-0.26741,0 -0.5326,-0.0095 -0.79525,-0.02819c-0.03441,0.22847 -0.07082,0.45628 -0.1092,0.68342h-73.04385v10h-0.16955c-1.80779,-3.8325 -3.00529,-8.00948 -3.46715,-12.40557c-3.03914,2.15915 -6.56521,3.67771 -10.38132,4.3588c2.07601,2.20563 3.56344,4.97153 4.21135,8.04677h-32.94069c1.1378,-5.40045 4.8646,-9.84694 9.82142,-11.98048c-3.11571,-2.08064 -5.75394,-4.82023 -7.71547,-8.01952l125.50448,0c-0.81768,5.29276 -5.39303,9.34477 -10.91478,9.34477zM602.94525,402.22023c-11.1325,0 -21.16765,-4.69831 -28.23077,-12.22023h56.46155c-7.06312,7.52193 -17.09827,12.22023 -28.23077,12.22023zM541.80006,400.31948c-1.12252,0 -2.21938,-0.10988 -3.2804,-0.31948l6.5608,0c-1.06102,0.20959 -2.15788,0.31948 -3.2804,0.31948zM369.60336,515.12256c0,5.53764 -1.73953,10.669 -4.70196,14.87744h-42.34778c-2.07046,-2.94131 -3.54357,-6.33343 -4.24296,-10h3.17388l0,-10h-3.12589c0.73793,-3.67461 2.25426,-7.06772 4.36965,-10h2.64323v10h43.72485c0.33252,1.65583 0.50699,3.36882 0.50699,5.12256zM668.75388,360.10965c0,-0.03657 0.0001,-0.07312 0.00029,-0.10965h164.05593c0.04411,0.87394 0.06643,1.75363 0.06643,2.63853c0,2.49941 -0.17807,4.95724 -0.52222,7.36147l-161.53355,0c-0.17976,-0.67429 -0.34704,-1.35368 -0.50158,-2.03789c-1.00841,-2.41717 -1.5653,-5.06978 -1.5653,-7.85246zM720.1255,300.858c-0.49294,-0.26945 -0.97537,-0.55571 -1.44654,-0.858h25.86518c-1.78923,1.14793 -3.74098,2.06464 -5.81308,2.70794c8.51682,2.35481 16.20516,6.70475 22.53043,12.51524c6.13726,-2.60761 12.88465,-4.05846 19.96853,-4.07893l0,8.85575h-99.05346c9.3077,-10.876 22.78139,-18.08071 37.94893,-19.142zM708.06558,284.37489c-0.86678,2.30645 -2.43701,4.26862 -4.4493,5.62511h-13.1378c-3.13555,-2.11369 -5.19778,-5.69793 -5.19778,-9.76384c0,-4.38668 2.40046,-8.2127 5.95946,-10.23616h11.61444c2.29267,1.30349 4.10456,3.355 5.10369,5.82255c0.34049,-2.03949 0.93838,-3.99185 1.75913,-5.82255h43.78825c1.34146,2.99215 2.08757,6.3093 2.08757,9.80071c0,0.06649 -0.00027,0.13292 -0.00081,0.19929h-42.5818v10h-3.1101c-0.83184,-1.76763 -1.45416,-3.65334 -1.83496,-5.62511zM496.33973,239.06895c1.66443,0 3.25153,0.33111 4.69902,0.93105h-9.39804c1.44749,-0.59994 3.03459,-0.93105 4.69902,-0.93105zM496.33973,263.63117c-3.40865,0 -6.49296,-1.38868 -8.71803,-3.63117l17.43607,0c-2.22508,2.24248 -5.30938,3.63117 -8.71803,3.63117zM739.68778,211.65544c-2.87242,0 -5.60705,-0.59001 -8.08928,-1.65544l16.17857,0c-2.48224,1.06544 -5.21686,1.65544 -8.08928,1.65544zM532.43151,195.76966c0,-12.90339 10.46027,-23.36366 23.36366,-23.36366c11.40257,0 20.8973,8.16847 22.95174,18.97298c2.95824,-0.73479 6.05269,-1.12475 9.23822,-1.12475c9.79341,0 18.72597,3.68574 25.48623,9.74577h-80.65783c-0.25093,-1.372 -0.38201,-2.78586 -0.38201,-4.23034zM626.18121,228.45031c0,0.51905 -0.01035,1.03568 -0.03086,1.54969h-54.55572v10l-56.01646,0c-0.00023,-0.04712 -0.00034,-0.09426 -0.00034,-0.14143c0,-13.95079 10.0383,-25.55701 23.28586,-27.98962c-0.56511,-0.59413 -1.09927,-1.21798 -1.5999,-1.86895l84.17379,0c3.02299,5.46934 4.74365,11.75888 4.74365,18.45031zM587.98513,266.64639c-8.59355,0 -16.52427,-2.83794 -22.90608,-7.62773c-5.20498,5.71309 -12.70511,9.2985 -21.04265,9.2985c-7.84937,0 -14.95652,-3.17784 -20.10507,-8.31716h14.26427v-10h81.33046c-2.6845,3.92157 -6.08133,7.31705 -10.00405,10h-20.46478v6.63163c-0.35617,0.00982 -0.71355,0.01476 -1.07209,0.01476zM478.24058,308.95835c0,0.34799 -0.00325,0.69521 -0.00971,1.04165h-94.60394v-10h-14.20287c0.56804,-3.4528 1.45898,-6.79681 2.64078,-10l102.80597,0c2.17952,5.90746 3.36977,12.29391 3.36977,18.95835zM605.7176,15.77151c0,5.71022 -2.57504,10.81901 -6.62723,14.22849l-131.00169,0c-2.47806,-3.015 -4.55032,-6.37617 -6.1333,-10h35.45245v-10l-38.41807,0c-0.38133,-2.29218 -0.57974,-4.64621 -0.57974,-7.04658c0,-0.99277 0.03394,-1.97761 0.10072,-2.95342h85.5548v10h60.73854c0.59293,1.81681 0.91351,3.75672 0.91351,5.77151zM501.03413,45.57754c-7.6742,0 -14.87472,-2.02809 -21.09482,-5.57754l42.18965,0c-6.2201,3.54945 -13.42062,5.57754 -21.09482,5.57754zM621.521,171.11697c0,-4.02757 1.26121,-7.76057 3.41023,-10.8256c-0.40357,-0.08665 -0.80321,-0.18388 -1.19862,-0.29138h31.92731c2.07036,2.8371 3.36874,6.27342 3.58617,10h-31.07211v10h-4.43677c-1.41439,-2.64754 -2.21622,-5.67164 -2.21622,-8.88303zM599.74821,162.02933c-2.86647,0 -5.56104,-0.736 -7.90504,-2.02933h15.81008c-2.344,1.29333 -5.03857,2.02933 -7.90504,2.02933zM583.36144,145.64257c0,-1.0454 0.09789,-2.06794 0.28501,-3.05895c-4.33566,-0.16821 -8.48319,-1.06957 -12.32211,-2.58362h72.66238v10h-60.03961c-0.38177,-1.38748 -0.58568,-2.84864 -0.58568,-4.35743zM547.48176,104.96231c0,-1.68215 0.11032,-3.33853 0.32411,-4.96231h48.2415v10l-48.2315,0c-0.22035,-1.64789 -0.33411,-3.3295 -0.33411,-5.03769zM181.14452,632.05255c0,1.66106 -0.13047,3.29164 -0.38173,4.88207c0.83999,0.9838 1.6356,2.00662 2.38374,3.06538h-47.92404v-10l45.85524,0c0.04429,0.67847 0.06678,1.36288 0.06678,2.05255zM702.10234,166.26836c-4.27882,0 -7.95516,-2.57955 -9.55873,-6.26836l19.11746,0c-1.60357,3.68881 -5.27991,6.26836 -9.55873,6.26836zM507.85938,727.46409c0,-10.72141 4.33875,-20.42944 11.35621,-27.46409h30.67674v-10h7.31844c16.39514,4.56936 28.42451,19.61192 28.42451,37.46409c0,0.85198 -0.0274,1.69756 -0.08136,2.53591h-77.61317c-0.05396,-0.83835 -0.08136,-1.68393 -0.08136,-2.53591zM546.74732,766.35203c-7.86684,0 -15.18809,-2.33594 -21.30797,-6.35203h42.61595c-6.11988,4.01609 -13.44113,6.35203 -21.30797,6.35203zM678.70653,510.02894c1.44616,0 2.82839,0.27374 4.09769,0.77222v9.19884h-15.24398c0.61862,-5.60844 5.37298,-9.97106 11.14628,-9.97106zM660.41129,640.10182c0,-0.03395 0.00003,-0.06789 0.00008,-0.10182h60.47514l0,10l61.14613,0c-0.55898,3.43787 -1.40433,6.77963 -2.51079,10h-51.61535l0,10h47.13598c-2.00211,3.56972 -4.35164,6.91833 -7.0028,10h-92.83921c-9.21763,-10.71446 -14.78917,-24.65567 -14.78917,-39.89818zM735.36642,580.44273c-0.0664,-0.14713 -0.13197,-0.29471 -0.19672,-0.44273h77.10294c-1.58755,3.62938 -3.67259,6.99145 -6.16891,10l-119.65402,0c6.92294,-4.86872 14.90057,-8.33892 23.52228,-10h23.29614c0.7038,0.1356 1.4033,0.28325 2.09829,0.44273zM683.67074,539.46528c0,-3.03102 0.3793,-5.97344 1.09301,-8.7824c-1.74694,1.12331 -3.82598,1.77492 -6.05722,1.77492c-2.651,0 -5.08717,-0.91985 -7.00672,-2.4578h127.89417c6.49033,5.0711 11.45367,12.00608 14.08508,20h-121.60368v10h-1.87828c-4.11046,-5.79972 -6.52638,-12.88508 -6.52638,-20.53472zM81.47834,684.21544c-4.0186,0 -7.66167,-1.60789 -10.32094,-4.21544h20.64188c-2.65927,2.60754 -6.30233,4.21544 -10.32094,4.21544zM519.05155,59.96749c0.32808,0 0.6536,0.01095 0.97622,0.03251h-1.95245c0.32262,-0.02156 0.64814,-0.03251 0.97622,-0.03251zM158.48414,235.25681c10.49543,0 19.59117,5.99278 24.05206,14.74319l-48.10413,0c2.04929,-4.01985 5.07671,-7.45773 8.76862,-10h13.27418v-4.66951c0.66338,-0.04884 1.33342,-0.07369 2.00927,-0.07369zM203.44684,128.82578c6.81142,0 12.50561,4.78338 13.90666,11.17422l-27.81332,0c1.40105,-6.39084 7.09525,-11.17422 13.90666,-11.17422zM607.02801,10.14842c0,-0.04955 0.00034,-0.09903 0.00102,-0.14842h21.16676c0.00068,0.04939 0.00102,0.09886 0.00102,0.14842c0,5.8456 -4.7388,10.5844 -10.5844,10.5844c-5.8456,0 -10.5844,-4.7388 -10.5844,-10.5844zM773.69928,211.99325c0,-0.67643 0.04701,-1.34187 0.13793,-1.99325l28.29964,0c0.09092,0.65138 0.13793,1.31683 0.13793,1.99325c0,7.89091 -6.39684,14.28775 -14.28775,14.28775c-7.89091,0 -14.28775,-6.39684 -14.28775,-14.28775zM350.02801,689.75723c0.87116,0 1.72283,0.08344 2.54746,0.24277h-5.09492c0.82463,-0.15933 1.6763,-0.24277 2.54746,-0.24277zM350.02801,716.45729c-4.85098,0 -9.09765,-2.58733 -11.43532,-6.45729l22.87063,0c-2.33766,3.86996 -6.58434,6.45729 -11.43532,6.45729zM88.73364,244.54648c0,-1.58096 0.23369,-3.10734 0.66841,-4.54648h45.70335c-4.08694,3.88562 -9.36101,6.53427 -15.22215,7.34589c-0.16464,0.91468 -0.4085,1.80184 -0.72424,2.65411l-29.45226,0c-0.62931,-1.69869 -0.9731,-3.53596 -0.9731,-5.45352zM613.30814,316.31945c0,-5.96185 4.83303,-10.79488 10.79488,-10.79488c5.96185,0 10.79488,4.83303 10.79488,10.79488c0,5.96185 -4.83303,10.79488 -10.79488,10.79488c-5.96185,0 -10.79488,-4.83303 -10.79488,-10.79488zM713.06808,775.88283c0,-6.43584 5.21728,-11.65311 11.65311,-11.65311c6.43584,0 11.65311,5.21728 11.65311,11.65311c0,1.44942 -0.26462,2.83704 -0.74819,4.11717h-21.80985c-0.48357,-1.28014 -0.74819,-2.66775 -0.74819,-4.11717zM535.25162,446.47095c0,-2.20538 0.18605,-4.36731 0.54332,-6.47095h75.65612c0.35727,2.10363 0.54332,4.26556 0.54332,6.47095c0,1.18977 -0.05415,2.3669 -0.16012,3.52905l-76.42252,0c-0.10597,-1.16215 -0.16012,-2.33928 -0.16012,-3.52905zM573.623,408.09957c4.17588,0 8.19596,0.66706 11.9595,1.90043l-23.91899,0c3.76354,-1.23337 7.78362,-1.90043 11.9595,-1.90043zM573.623,484.84233c-6.77868,0 -13.14681,-1.75775 -18.67346,-4.84233h37.34692c-5.52665,3.08458 -11.89478,4.84233 -18.67346,4.84233zM355.42359,348.92014c-6.30273,0 -11.75679,-3.63354 -14.38173,-8.92014l28.76346,0c-2.62494,5.2866 -8.079,8.92014 -14.38173,8.92014zM418.5261,717.47141c3.03429,0 5.85058,0.93334 8.17745,2.52859h-16.3549c2.32687,-1.59525 5.14316,-2.52859 8.17745,-2.52859zM743.04507,20h30.48149c3.32788,2.61487 5.98104,6.04965 7.65514,10l-46.4198,0c1.77811,-4.19579 4.66072,-7.80995 8.28317,-10.47783zM562.31997,40v10h-9.2512v0.63021c-6.34667,-1.875 -11.88481,-5.63436 -15.96654,-10.63021zM49.72911,130v-10h4.22078v-4.26244c6.95515,1.36663 12.33638,7.12172 13.14084,14.26244zM432.47529,140h16.08313c-4.97092,2.48559 -10.38118,4.22289 -16.08313,5.06427zM265.27241,240v10l-55.87448,0c-3.72677,-5.81159 -5.98965,-12.65173 -6.26821,-20h79.85731c-0.13133,3.46446 -0.70374,6.81597 -1.66268,10zM452.46192,330v-10h24.66525c-0.70897,3.46366 -1.74488,6.80821 -3.07407,10zM237.41229,340h7.06714c-1.8227,1.8779 -4.30181,3.11515 -7.06714,3.34155zM413.15936,340v10l-25.96423,0c-3.3427,-2.95652 -6.32153,-6.31509 -8.86075,-10zM195.73401,390l0,-10h-27.93691c2.83456,-3.70102 6.09486,-7.05874 9.70771,-10h74.92512c6.64484,5.40963 12.09706,12.22804 15.90142,20zM716.87599,390v10h-25.65913c-3.86251,-2.87042 -7.33598,-6.23492 -10.3269,-10zM224.98681,440v-10h47.71745c-0.83192,3.46124 -1.967,6.80446 -3.37557,10zM458.36647,450v-10h18.34324c3.21681,2.44741 5.58396,5.95409 6.58143,10zM146.32111,510v-10l29.72776,0c6.20961,2.1268 11.80764,5.57137 16.46038,10zM99.39181,530v-10l101.02269,0c1.81467,3.11532 3.26657,6.46794 4.29781,10zM732.41772,600v10l-64.10534,0c2.02143,-3.57208 4.39152,-6.92083 7.06404,-10zM69.51154,620v-10h31.83045c-1.1051,3.56689 -2.68531,6.92488 -4.66667,10zM457.02094,620v10h-9.55872c1.49028,-4.53647 4.91557,-8.19522 9.29961,-10zM742.103,690v7.79935c-2.53529,0.90008 -5.14747,1.6378 -7.82404,2.20065h-25.31781c-8.35366,-1.75666 -16.08015,-5.21673 -22.79925,-10zM569.12617,750v-10l14.44433,0c-1.22508,3.59961 -2.96313,6.96199 -5.12705,10zM316.44157,570c-3.0856,4.9264 -8.01314,8.58137 -13.81773,10l-10.79548,0c-5.80458,-1.41863 -10.73213,-5.0736 -13.81773,-10zM214.56527,690c0.09057,-3.45155 0.59255,-6.80062 1.45872,-10l122.35791,0c-2.36006,3.66801 -5.15997,7.02618 -8.3252,10zM69.29869,760c1.56503,-4.58917 5.10957,-8.26183 9.61566,-10l11.78872,0c4.50609,1.73817 8.05063,5.41083 9.61566,10zM384.96714,270c4.06574,-4.01827 8.75729,-7.40471 13.91533,-10h49.17072c5.15804,2.59529 9.84959,5.98173 13.91533,10zM741.66341,10c-1.93678,8.10825 -6.6656,15.1325 -13.11371,20l-42.58035,0c-6.44811,-4.8675 -11.17693,-11.89175 -13.11371,-20zM550.57204,90c1.59289,-3.67422 3.75455,-7.04457 6.37392,-10h56.37172c2.61937,2.95543 4.78103,6.32578 6.37392,10zM121.49062,620c1.59049,-3.77135 3.90483,-7.16269 6.76898,-10h43.68921c2.86414,2.83731 5.17848,6.22865 6.76898,10zM187.8743,680c-1.43815,3.60445 -3.3584,6.96434 -5.68105,10h-67.14481c-2.32265,-3.03566 -4.24289,-6.39555 -5.68105,-10zM478.54128,640c-1.40528,4.46781 -4.68039,8.10694 -8.90792,10h-13.32599c-4.22754,-1.89306 -7.50264,-5.53219 -8.90792,-10zM538.95661,430c1.76008,-3.69785 4.09441,-7.06962 6.88767,-10h55.55744c2.79327,2.93038 5.12759,6.30215 6.88767,10z" stroke="#000000"/><path d="M651.79525,699.7212c-2.62529,-3.07175 -5.05143,-6.31882 -7.25842,-9.7212h97.56617v10l-90.74673,0c0.14494,-0.0949 0.29128,-0.18784 0.43898,-0.2788zM629.8069,640.10182c0,-0.03394 0.00002,-0.06788 0.00006,-0.10182h91.07955l0,10h92.01938c-0.3636,3.39203 -0.91193,6.72878 -1.63473,10h-83.36467l0,10h48.15273v10h-137.15349c-5.83044,-12.06511 -9.09883,-25.59996 -9.09883,-39.89818zM557.6552,580.73894c0,-0.24671 0.00169,-0.49303 0.00507,-0.73894h276.87568c-0.95646,3.46186 -2.20059,6.8043 -3.70505,10h-225.94914v10h127.53596v10h-165.91267c-5.59062,-8.37389 -8.84985,-18.43686 -8.84985,-29.26106zM665.8943,539.46528c0,-2.31462 0.14746,-4.5948 0.43349,-6.83166c-0.74453,-0.80873 -1.41083,-1.69061 -1.98688,-2.63362h163.05937c3.75184,6.06042 6.50601,12.80351 8.03322,20h-143.35812v10h-22.08412c-2.6393,-6.32042 -4.09697,-13.25734 -4.09697,-20.53472zM665.95839,510.26783c-0.35342,-0.08586 -0.7055,-0.17515 -1.0562,-0.26783h17.90203v10h-20.87409c0.27081,-3.70671 1.74274,-7.07993 4.02825,-9.73217zM516.06593,446.47095c0,-2.18763 0.12205,-4.34676 0.3597,-6.47095l214.52883,0c1.05346,3.21252 1.81767,6.55612 2.26185,10h-217.04396c-0.07061,-1.1673 -0.10642,-2.344 -0.10642,-3.52905zM531.96886,406.74991c-3.58986,-1.51902 -6.75532,-3.84475 -9.2691,-6.74991h38.22537v-10h155.95087v10h-62.61469c-0.96316,-1.51635 -1.87824,-3.06625 -2.7431,-4.64753c-1.05554,1.60646 -2.18864,3.15741 -3.39396,4.64753h-23.63498v10l-95.39585,0c0.91788,-1.11937 1.87714,-2.20352 2.87543,-3.25009zM519.68031,371.30465c-2.78144,-3.33988 -5.01212,-7.15458 -6.55259,-11.30465h345.45184c0.0294,0.87589 0.04422,1.75548 0.04422,2.63853c0,2.48293 -0.11715,4.9385 -0.34623,7.36147h-290.20047v10h-51.28623c0.43053,-3.11611 1.42973,-6.05061 2.88947,-8.69535zM549.48722,307.73754c8.20032,0 15.80603,2.54582 22.06989,6.89021c9.05099,-5.82483 19.82493,-9.20409 31.38814,-9.20409c2.93232,0 5.81389,0.21731 8.62947,0.63672c2.96955,-3.62212 7.47903,-5.93325 12.5283,-5.93325c8.94277,0 16.19232,7.24955 16.19232,16.19232c0,0.86407 -0.06768,1.71233 -0.19803,2.53977c2.51318,2.0938 4.8468,4.39582 6.97436,6.87956c3.74209,-9.57851 9.22092,-18.28716 16.04935,-25.73878h120.16175v10h-2.05274v10h-131.47199v10h-135.36184c1.73852,-3.68895 4.04161,-7.05942 6.79785,-10h37.97557v-10h-22.76434c4.0869,-1.46461 8.49125,-2.26246 13.08194,-2.26246zM680.26747,285.72488c-0.56473,-1.72758 -0.8701,-3.57249 -0.8701,-5.48872c0,-3.81602 1.21102,-7.34919 3.26971,-10.23616h83.56575c0.88027,3.11574 1.35127,6.40322 1.35127,9.80071c0,0.06647 -0.00018,0.1329 -0.00054,0.19929h-54.57291v10h-38.92909c1.99297,-1.51549 4.05689,-2.94248 6.18592,-4.27512zM437.09796,2.95342c0,-0.98989 0.0225,-1.97452 0.067,-2.95342h106.90058v10l89.42278,0c0.00045,0.04942 0.00068,0.09889 0.00068,0.14842c0,8.7684 -7.1082,15.8766 -15.8766,15.8766c-1.49747,0 -2.94652,-0.20732 -4.32002,-0.59482c-0.58989,1.59722 -1.32188,3.1256 -2.18062,4.5698h-160.19843v-10h46.49449v-10l-59.92598,0c-0.25368,-2.31396 -0.38389,-4.66506 -0.38389,-7.04658zM645.27925,228.45031c0,0.5182 -0.00688,1.03479 -0.02055,1.54969h-73.66407v10h-89.76571c3.37206,-4.30505 8.61836,-7.07161 14.51081,-7.07161c1.89482,0 3.72283,0.28608 5.44318,0.8174c1.31676,-9.18305 5.55628,-17.42258 11.74577,-23.74579l128.71499,0c1.96809,5.7895 3.03559,11.99524 3.03559,18.45031zM587.98513,285.74443c-8.97672,0 -17.47126,-2.06443 -25.03475,-5.74443h1.6311l0,-10h-50.77336c-1.68212,-1.68693 -3.22394,-3.51384 -4.60648,-5.46172c-3.31989,3.23825 -7.8579,5.23344 -12.86191,5.23344c-0.21705,0 -0.43322,-0.00375 -0.64845,-0.0112c0.04337,0.07975 0.08662,0.15957 0.12973,0.23948h-144.70638c1.88479,-3.49307 4.01516,-6.83412 6.36797,-10h180.71299v-10h102.89285c-1.43041,3.52134 -3.2009,6.86827 -5.27072,10h-46.76051v10h38.37728c-10.27349,9.75732 -24.16225,15.74443 -39.44937,15.74443zM544.0364,282.54645c-5.11207,0 -10.01425,-0.8986 -14.55722,-2.54645l29.11445,0c-4.54297,1.64785 -9.44516,2.54645 -14.55722,2.54645zM505.62696,308.95835c0,0.34773 -0.00216,0.69495 -0.00647,1.04165h-121.99356v-10h-41.83547c0.36868,-3.39987 0.94477,-6.73751 1.71536,-10h142.15425v-10l14.71705,0c3.3927,9.00621 5.24883,18.76552 5.24883,28.95835zM317.2365,415.89792c0,-5.4969 0.71906,-10.82585 2.06826,-15.89792h119.22343c0.86091,3.23644 1.46525,6.57748 1.78993,10h-31.30884v10l31.45293,0c-0.22435,3.41678 -0.72691,6.75759 -1.48527,10h-15.25578v10h-101.59793c-3.14618,-7.40422 -4.88673,-15.54989 -4.88673,-24.10208zM357.55692,358.01653c-0.27368,-0.3671 -0.54437,-0.73657 -0.81203,-1.10836c-0.43743,0.02366 -0.87796,0.03565 -1.3213,0.03565c-10.81272,0 -19.96029,-7.12938 -22.99837,-16.94381h80.73415v10h-45.61142v10h-14.73994c1.54897,-0.72473 3.13303,-1.38697 4.74892,-1.98347zM411.27855,227.69721c-0.55936,-0.42553 -1.09747,-0.87754 -1.61248,-1.35417c-1.78387,0.18294 -3.59416,0.27668 -5.42635,0.27668c-2.69008,0 -5.33297,-0.20207 -7.91431,-0.59187v-6.02785h-17.64181c-1.27059,-0.70825 -2.50876,-1.46768 -3.71171,-2.2755v-7.7245h-17.61746c-1.35891,-1.17589 -2.60512,-2.47854 -3.72025,-3.88956c-0.88694,0.0495 -1.78039,0.07457 -2.67971,0.07457c-1.53107,0 -3.04515,-0.07269 -4.539,-0.2148v-5.97021h10.15148l0,-10h-9.55538l0,-10h-38.41682c-1.57558,-3.14925 -2.81031,-6.49871 -3.65581,-10h151.71193c0.10207,1.33812 0.15405,2.69025 0.15405,4.05452c0,12.13598 -4.1127,23.31139 -11.0204,32.20852c0.25569,1.3336 0.38955,2.71049 0.38955,4.11864c0,7.21702 -3.51617,13.61279 -8.92886,17.56767c11.24187,1.89808 21.70785,6.07948 30.9044,12.05065l-89.3636,0c9.62822,-6.25145 20.64785,-10.54117 32.49252,-12.30279zM263.818,132.4747c-6.09844,0 -11.99522,-0.86342 -17.57476,-2.4747h35.14952c-5.57954,1.61127 -11.47632,2.4747 -17.57476,2.4747zM200.59294,69.24964c0,-3.14201 0.22919,-6.23049 0.67177,-9.24964h140.58091v-10h0.29692v-10h-5.1663c3.45529,-3.77539 7.35588,-7.13644 11.61861,-10h98.40484v10h115.32027v10h-9.2512v10h-117.2253l0,10h58.89419v10l-293.23446,0c-0.59848,-3.49391 -0.91026,-7.08573 -0.91026,-10.75036zM520.74968,195.76966c0,-19.35509 15.6904,-35.04549 35.04549,-35.04549c9.96555,0 18.95959,4.15955 25.34065,10.83719c2.24581,-0.26754 4.53148,-0.40518 6.84931,-0.40518c8.8247,0 17.18343,1.99511 24.64971,5.55887c-0.36287,-1.80964 -0.55324,-3.68163 -0.55324,-5.59808c0,-1.20103 0.07477,-2.3846 0.2199,-3.5463c-0.22549,-0.13264 -0.44935,-0.26776 -0.67152,-0.40534c-3.52165,1.9483 -7.5722,3.05738 -11.88178,3.05738c-7.63881,0 -14.46377,-3.48452 -18.97209,-8.95077c-2.85129,-0.21748 -5.64336,-0.64669 -8.36054,-1.27194h94.03696c1.32004,3.08954 2.10658,6.46147 2.24383,10h-40.52238v10h-7.51878l0,10h11.23444v10l-110.88725,0c-0.16686,-1.38681 -0.25272,-2.79855 -0.25272,-4.23034zM528.65672,104.96231c0,-1.67207 0.07267,-3.32717 0.21501,-4.96231h67.17563v10l-67.16902,0c-0.14671,-1.65965 -0.22162,-3.33992 -0.22162,-5.03769zM367.95349,680.07016c-1.15493,2.9812 -2.48435,5.87545 -3.97573,8.67021c0.41447,0.40251 0.81157,0.82279 1.19009,1.25963h-274.51134c-0.04946,-0.11162 -0.09861,-0.22341 -0.14745,-0.33537c-0.26058,0.11672 -0.52384,0.22855 -0.78965,0.33537h-16.48217c-4.79935,-1.92861 -8.76599,-5.49159 -11.21098,-10h306.0896c-0.05404,0.02355 -0.10816,0.04694 -0.16237,0.07016zM336.86927,718.20234c-0.9586,0.61947 -1.93137,1.21889 -2.91772,1.79766h-21.22493v-10l56.10859,0c-1.52159,4.15052 -4.37792,7.65718 -8.04902,10h-21.51635c-0.84553,-0.5396 -1.64783,-1.14093 -2.40056,-1.79766zM298.90823,739.2459c1.023,0.15686 2.01379,0.41151 2.96252,0.7541l-85.77829,0c-3.54522,-2.9754 -6.76191,-6.32949 -9.58782,-10l101.10922,0c-2.58967,3.36367 -5.50752,6.46161 -8.70564,9.2459zM304.03632,416.07257c0,8.28901 -1.13228,16.31357 -3.25062,23.92743h-75.7989v-10h63.85256v-10h-103.95107v-10h118.94428c0.13511,2.0067 0.20375,4.03162 0.20375,6.07257zM305.34,509.3505c0.48717,-3.26761 1.38161,-6.40221 2.63005,-9.3505h17.40148v10l56.83473,0c0.22099,1.67616 0.33503,3.38604 0.33503,5.12256c0,1.65195 -0.1032,3.2798 -0.30351,4.87744h-4.99964v10h-144.02521c-0.00004,-0.02073 -0.00007,-0.04147 -0.00007,-0.06221c0,-3.49416 0.62602,-6.8421 1.77202,-9.93779h86.49966l0,-10h-82.954c1.09107,-3.39915 2.68494,-6.57306 4.69408,-9.43416c-6.83388,2.28445 -14.03679,3.76302 -21.49591,4.32289c-1.02624,0.57394 -2.07942,1.10545 -3.15717,1.59217c0.72962,1.14997 1.42548,2.32347 2.08619,3.5191h-74.33662v-10l154.1346,0c2.06894,2.82606 3.72644,5.97229 4.88429,9.3505zM324.67546,578.03248c1.45464,0.61432 2.8872,1.27067 4.29615,1.96752h-52.16658v-10h48.11258v-10h6.2355c-0.39206,6.72191 -2.73777,12.91924 -6.47764,18.03248zM370.02263,628.678c4.87451,2.57275 8.91227,6.51826 11.59875,11.322h-166.61178c0.48657,-3.40774 1.18913,-6.74584 2.09335,-10h36.09418l0,-10h-32.57673c1.48803,-3.46732 3.21544,-6.80759 5.16142,-10h53.67039l0,10h87.43274c1.20712,2.81275 2.25671,5.70912 3.13767,8.678zM84.80871,789.86549c-8.05593,0 -15.20649,-3.87631 -19.68826,-9.86549h39.37652c-4.48177,5.98918 -11.63234,9.86549 -19.68826,9.86549zM661.47387,85.25677c-6.21047,0 -11.96688,-1.94404 -16.6939,-5.25677h33.38781c-4.72702,3.31274 -10.48344,5.25677 -16.6939,5.25677zM660.59852,27.02585c-2.82807,-5.21018 -4.80894,-10.94708 -5.75776,-17.02585h88.20431l0,10l47.11201,0c1.89462,3.06951 3.36241,6.43044 4.32059,10l-145.86593,0c3.63282,-1.79127 7.69315,-2.8474 11.98678,-2.97415zM133.85799,783.70757c0,-1.25538 0.07719,-2.49274 0.22709,-3.70757h59.48009c0.1499,1.21484 0.22709,2.45219 0.22709,3.70757c0,2.15837 -0.22818,4.26345 -0.66174,6.29243h-58.6108c-0.43356,-2.02898 -0.66174,-4.13405 -0.66174,-6.29243zM163.82513,753.74043c0.29442,0 0.58785,0.00425 0.88023,0.01268v6.24689h-19.21234c5.06735,-3.92411 11.42699,-6.25957 18.33211,-6.25957zM739.68778,160.33912c8.82468,0 16.78226,3.7125 22.3961,9.66088l-44.7922,0c5.61384,-5.94837 13.57142,-9.66088 22.3961,-9.66088zM739.68778,221.91871c-9.89382,0 -18.69771,-4.66656 -24.33068,-11.91871h48.66136c-5.63297,7.25215 -14.43686,11.91871 -24.33068,11.91871zM203.44684,121.70733c10.75431,0 19.65193,7.94939 21.13738,18.29267l-42.27475,0c1.48545,-10.34328 10.38307,-18.29267 21.13738,-18.29267zM80.88402,244.54648c0,-0.81068 0.04096,-1.61179 0.12094,-2.40137c-0.44473,-0.70106 -0.869,-1.41637 -1.27199,-2.1451h76.74191v-10h26.47979c0.06357,0.04833 0.12699,0.09684 0.19026,0.14553c-0.00134,-0.0485 -0.00262,-0.09701 -0.00385,-0.14553l119.83459,0c-0.08608,3.41181 -0.45726,6.75279 -1.09062,10h-36.61264v10h-183.75372c-0.41502,-1.75034 -0.63468,-3.57628 -0.63468,-5.45352zM546.74732,669.13217c12.64972,0 24.35899,4.02653 33.91605,10.86783h-47.92175v10h-30.70688c10.70034,-12.75714 26.75928,-20.86783 44.71258,-20.86783zM605.07924,727.46409c0,0.84967 -0.01817,1.6951 -0.05413,2.53591h-106.8648l0,-10h-9.27183c0.91354,-7.15237 3.12237,-13.89992 6.38383,-20h54.62002v-10h41.56758c4.87458,5.81156 8.63709,12.5874 10.96002,20h-15.99685v10l18.18309,0c0.31216,2.44399 0.47308,4.93525 0.47308,7.46409zM546.74732,785.79601c-20.16862,0 -37.94654,-10.2358 -48.42236,-25.79601h96.84472c-5.75096,8.54215 -13.70257,15.47968 -23.04227,20h-18.05261v5.34021c-2.40019,0.30081 -4.84574,0.4558 -7.32748,0.4558zM766.55541,211.99325c0,-0.67209 0.03094,-1.33696 0.09146,-1.99325h42.68032c0.06053,0.65629 0.09146,1.32116 0.09146,1.99325c0,7.55058 -3.90465,14.18919 -9.80487,18.00675l-23.25351,0c-5.90023,-3.81756 -9.80487,-10.45616 -9.80487,-18.00675zM465.83257,427.3478c4.18331,0 8.14417,0.9524 11.67758,2.6522l-23.35516,0c3.53341,-1.6998 7.49427,-2.6522 11.67758,-2.6522zM465.83257,481.28949c-2.88249,0 -5.65936,-0.45219 -8.26356,-1.28949h16.52712c-2.6042,0.8373 -5.38107,1.28949 -8.26356,1.28949zM707.24152,775.88283c0,-7.04438 4.16704,-13.11549 10.17061,-15.88283h14.61812c6.00357,2.76734 10.17061,8.83845 10.17061,15.88283c0,1.41818 -0.16889,2.79691 -0.48765,4.11717l-33.98403,0c-0.31876,-1.32027 -0.48765,-2.699 -0.48765,-4.11717zM724.72119,793.36249c-3.85539,0 -7.41924,-1.24818 -10.30952,-3.36249h20.61903c-2.89027,2.11431 -6.45413,3.36249 -10.30952,3.36249zM418.5261,710.23173c7.57991,0 14.25291,3.88296 18.13838,9.76827h-36.27675c3.88547,-5.88531 10.55846,-9.76827 18.13838,-9.76827zM242.23846,40v-10h71.14962c2.46525,3.10928 4.64416,6.45589 6.49688,10zM543.01245,90v-10l92.7923,0c1.56762,3.17619 2.84542,6.52103 3.79884,10zM209.87515,100v-10h294.16087v10h0.70664c-0.33831,3.39998 -0.88796,6.73775 -1.63564,10h-186.58595v10h-79.09684v6.71888c-8.50091,-3.91063 -15.9855,-9.65196 -21.94868,-16.71888h46.12103v-10zM392.85908,130v10l-87.88752,0c-1.52934,-3.19103 -2.79242,-6.53396 -3.76046,-10zM49.72911,130v-10h4.22078v-10h8.20887c7.35711,3.8429 12.53268,11.29099 13.18244,20zM432.47529,140h56.7601c-5.88921,7.90909 -13.19508,14.70098 -21.54196,20h-156.19712v-10h120.97898zM643.98673,140v10h-92.93418c-3.81264,-2.88946 -7.24703,-6.25191 -10.21581,-10zM265.07508,180v-7.30427c4.74761,1.876 9.1983,4.34076 13.26206,7.30427zM705.26583,260l-3.69161,0c1.10076,-1.66647 2.33649,-3.23596 3.69161,-4.6929zM452.46192,330v-10l52.42945,0c-0.45722,3.40379 -1.12285,6.74155 -1.98366,10zM138.84929,290h49.08136c-4.10945,4.35707 -9.17526,7.80227 -14.86183,10h-29.16936c-1.74508,-0.67444 -3.43171,-1.46635 -5.05017,-2.36605zM178.26034,340h-9.64521c3.09573,-1.89031 6.31585,-3.59697 9.64521,-5.10483zM237.41229,340h23.90732c8.71748,5.32307 16.4486,12.10247 22.85517,20h-138.41481c2.89811,-3.57258 6.06728,-6.91635 9.47619,-10h82.17613zM374.79618,380v10h-51.87565c3.5407,-7.6428 8.60006,-14.43858 14.79076,-20l140.74884,0c-4.19598,3.78258 -8.78395,7.13868 -13.69559,10zM195.73401,390l0,-10h-50.16327v-10h145.63927c3.76112,6.21072 6.78478,12.91786 8.94955,20zM694.83839,420v10l-176.38119,0c1.03842,-3.48308 2.39772,-6.82784 4.0436,-10zM458.36647,450v-10h30.32646c1.87667,2.98988 3.18304,6.37405 3.76659,10zM257.51309,450v10h34.95537c-4.19808,7.39075 -9.42285,14.12207 -15.48034,20l-236.94203,0c1.36225,-3.47407 2.98848,-6.81563 4.85401,-10h67.33198l0,-10l-60.25988,0c3.09518,-3.66745 6.55266,-7.01918 10.31726,-10zM376.69354,460v10l-27.42176,0c-4.94385,-2.7147 -9.47528,-6.08733 -13.4764,-10zM601.48068,480v10l9.80057,0c-4.8473,4.19722 -10.40284,7.59833 -16.46329,10h-42.38992c-2.6456,-1.04841 -5.19498,-2.28728 -7.63122,-3.69969v-6.30031h-8.83207c-3.41953,-2.96094 -6.4866,-6.31806 -9.12981,-10zM99.39181,530v-10h125.77126c1.1475,3.22747 2.05676,6.56786 2.70665,10zM606.13219,560v10h-47.38343c2.47909,-11.99051 9.0267,-22.49302 18.13531,-30h7.4402v-5.13208c3.60946,-2.0579 7.48537,-3.70206 11.56318,-4.86792h29.06707c15.33081,4.38312 27.808,15.5268 34.00053,30zM69.51154,620v-10h121.60979c1.689,3.13489 3.02909,6.48555 3.96831,10zM457.02094,620v10h-17.99916c0.78667,-3.71403 2.41546,-7.1171 4.67715,-10zM135.22249,640v-10l66.65795,0c2.03722,3.15203 3.80225,6.49645 5.26182,10zM569.12617,750v-10h34.60278c-0.75731,3.45814 -1.82141,6.80146 -3.16233,10zM704.45637,740c-1.33127,3.82181 -3.53533,7.23472 -6.37344,10h-36.04101c-2.83811,-2.76528 -5.04217,-6.17819 -6.37344,-10zM649.46216,730c-2.99901,-2.55385 -5.18408,-6.03501 -6.11174,-10h123.53412c-8.14481,4.62419 -17.06617,8.03893 -26.51987,10zM644.95601,500c-3.66379,-2.90322 -6.94724,-6.26552 -9.76345,-10h103.99868c5.8972,2.38282 11.27093,5.78961 15.9008,10zM344.39638,590c3.66149,3.02624 7.04749,6.37399 10.11476,10l-121.51693,0c3.06727,-3.62601 6.45327,-6.97376 10.11476,-10zM60.80497,760c0.81595,-3.7188 2.47409,-7.12215 4.76435,-10l38.4788,0c2.29026,2.87785 3.94839,6.2812 4.76435,10zM717.1723,160c-1.21771,4.43234 -4.3385,8.07686 -8.42881,10l-13.28229,0c-4.09031,-1.92314 -7.2111,-5.56766 -8.42881,-10zM486.95946,640c-0.75336,3.70627 -2.34409,7.10831 -4.56607,10h-38.84605c-2.22198,-2.89169 -3.81271,-6.29373 -4.56607,-10z" stroke="#000000"/><path d="M680.06242,765.93489c-7.166,0 -13.82071,-2.18904 -19.33193,-5.93489h85.7182c-1.32504,0.27296 -2.65791,0.52451 -3.99821,0.75427c3.47734,4.07124 5.57693,9.3547 5.57693,15.12855c0,1.40489 -0.12431,2.78075 -0.36252,4.11717h-45.88741c-0.23821,-1.33643 -0.36252,-2.71228 -0.36252,-4.11717c0,-5.39414 1.83252,-10.36027 4.90897,-14.30981c-2.53329,-0.31577 -5.04254,-0.70894 -7.52531,-1.17707c-5.39219,3.50371 -11.82652,5.53895 -18.7362,5.53895zM624.52322,727.46409c0,0.84855 -0.01359,1.69392 -0.04056,2.53591h-126.32234l0,-10h-28.83535c0.66426,-6.97642 2.25009,-13.68412 4.63439,-20h75.93298v-10h192.21067v10h-135.47017v10h-20.20975v10h37.74661c0.2339,2.4565 0.35353,4.94632 0.35353,7.46409zM546.74732,805.23998c-9.91723,0 -19.40093,-1.85614 -28.12266,-5.23998h35.79603v-10h38.57726c-12.92703,9.57646 -28.92744,15.23998 -46.25063,15.23998zM546.74732,649.68819c2.36342,0 4.70221,0.10542 7.01194,0.31181l-14.02388,0c2.30973,-0.20639 4.64852,-0.31181 7.01194,-0.31181zM604.28968,675.1377c-2.37899,-7.97861 -3.96635,-16.29849 -4.67096,-24.86851c-9.87102,-1.52107 -19.06512,-5.09389 -27.13301,-10.26918h148.4008l0,10h122.75673c-0.26994,3.37375 -0.67667,6.70894 -1.21463,10h-114.52212l0,10h48.15273v10h-243.31761v10h-54.16893c1.93144,-3.50724 4.12565,-6.84941 6.55611,-10h13.56469l0,-10h-4.35844c4.17138,-3.80682 8.75874,-7.16554 13.68594,-10h60.63623l0,-7.18309c13.88092,4.06758 26.15232,11.90175 35.63247,22.32079zM540.0666,580.73894c0,-15.18313 4.80958,-29.24291 12.98831,-40.73894h31.26937v-10h266.72421c2.70794,6.30632 4.667,13.01029 5.76527,20h-164.73837v10h-85.94319v10h-57.20902v10h307.22826c-0.69348,3.41295 -1.59362,6.75082 -2.68676,10l-248.58291,0v10h127.53596v10l-185.99624,0c-4.08044,-8.91018 -6.35487,-18.82001 -6.35487,-29.26106zM395.47921,515.12256c0,1.64487 -0.07674,3.27181 -0.22683,4.87744h-18.01424v10h-277.84633v-10h222.09274l0,-10h-175.16344v-10h179.05042v10l69.85735,0c0.16558,1.6851 0.25033,3.39393 0.25033,5.12256zM355.9473,565.42318c5.91872,4.29176 11.37665,9.18012 16.28552,14.57682h-95.4278v-10h48.11258v-10h44.60051c-4.18925,2.41272 -8.74813,4.25571 -13.57082,5.42318zM203.78132,783.70757c0,2.14098 -0.16839,4.24263 -0.49265,6.29243l-78.92708,0c-0.32426,-2.0498 -0.49265,-4.15145 -0.49265,-6.29243c0,-1.2501 0.05741,-2.48679 0.16973,-3.70757h79.57291c0.11233,1.22079 0.16973,2.45748 0.16973,3.70757zM175.74895,136.43285c2.2375,-9.38234 9.1186,-16.96308 18.0796,-20.17852c-1.36212,-2.02419 -2.63875,-4.11069 -3.82471,-6.25433h71.59274v-10h-51.72143v-10h294.16087v10h92.01134v10h-279.52629v10h-79.09684l0,10h155.43485v10h-220.69851v-2.96835c1.17367,-0.26349 2.37103,-0.46432 3.58838,-0.5988zM664.37729,228.45031c0,0.51778 -0.00515,1.03436 -0.01541,1.54969h-92.76726v10l-233.2488,0c2.85558,-3.52057 5.92516,-6.8605 9.18895,-10h48.79064l0,-10h-21.35352v-10h-28.55642v-10h10.15148l0,-10h-9.55538l0,-10h-81.93649v-10h233.292c-7.52166,7.11238 -16.07059,13.14962 -25.4009,17.86583c-1.41946,7.10258 -3.91242,13.81766 -7.30251,19.9689c8.74529,3.6534 16.91581,8.40816 24.33819,14.09096c1.39829,-4.21543 3.27609,-8.21221 5.56875,-11.92569l166.56367,0c1.46538,5.90857 2.24301,12.08862 2.24301,18.45031zM646.41851,277.65968c2.71555,-2.6978 5.57099,-5.25497 8.55446,-7.65968h171.46074c5.79952,2.82566 11.29415,6.17989 16.42119,10h-129.84426v10l-77.30341,0c1.66527,-2.2322 3.41318,-4.39914 5.23919,-6.49628c-2.4205,2.32908 -4.99424,4.50005 -7.7046,6.49628h-95.55551l0,10h245.59646v10h-2.05274v10h-131.47199v10h-197.29612v-10h106.7077v-10h-175.54269v-10h-69.3436c0.27348,-3.37898 0.70031,-6.71464 1.27351,-10h170.10423v-10h78.92041l0,-10h-237.05726v-10h210.67138v-10l123.09996,0c-1.00964,3.4403 -2.25487,6.77985 -3.71703,10h-68.5213v10h63.04312c-1.73597,2.67328 -3.63459,5.23118 -5.68184,7.65968zM724.72119,799.18905c-7.56487,0 -14.28793,-3.60418 -18.54571,-9.18905l37.09141,0c-4.25777,5.58487 -10.98084,9.18905 -18.54571,9.18905zM637.95707,16.01734c-1.69864,5.89894 -5.89342,10.74051 -11.36713,13.30748c-0.03438,0.22544 -0.06991,0.4505 -0.1066,0.67518h-175.57001v-10h46.49449v-10h-116.8785v-10h163.53622v10h198.97953l0,10h55.9599v10l-166.24866,0c2.14981,-2.36089 4.58681,-4.45566 7.25577,-6.2291c-0.82623,-2.52493 -1.51421,-5.11243 -2.05501,-7.75356zM633.61864,514.29869c-1.71439,-1.35916 -3.36628,-2.79373 -4.95067,-4.29869h54.13625v10h-131.22732c-7.56281,-2.26431 -14.63534,-5.66355 -21.01985,-10l86.13187,0c-0.29141,0.19793 -0.58424,0.3939 -0.8785,0.5879c6.19469,0.46926 12.1653,1.74073 17.80821,3.71079zM508.56474,378.09965c-0.02008,-0.02597 -0.04014,-0.05197 -0.06017,-0.07798c-0.54154,0.66597 -1.09074,1.32547 -1.64748,1.97834h-132.06091v10h-179.06217l0,-10h-50.16327v-10h363.65476v-10h373.47857v10h-314.627v10h-59.7627c0.06576,-0.63892 0.14939,-1.27254 0.25037,-1.90035zM512.49453,400.0662c-0.0125,-0.02205 -0.02498,-0.04412 -0.03743,-0.0662h48.46803v-10h155.95087v10h-92.38672v10l-118.40581,0c1.88435,-3.48223 4.03014,-6.80227 6.41107,-9.9338zM509.07505,194.94129c0.16009,-9.20915 2.98431,-17.76882 7.73493,-24.94129h14.60145v-10h-5.68406c1.45706,-1.22607 2.99009,-2.36474 4.59103,-3.40795c-4.12384,-4.37651 -7.72936,-9.24685 -10.71845,-14.51291c-3.37485,6.38155 -7.37365,12.38226 -11.91517,17.92086h-196.18846v-10h120.97898v-10h211.51144v10h-110.81429v10h143.32177c0.97679,3.17518 1.54613,6.52886 1.64697,10h-49.96719v10h-7.51878l0,10h11.23444v10h-128.48402c1.7743,-1.80846 3.66839,-3.49898 5.66942,-5.05871zM203.4209,297.8681c-0.98954,-0.56632 -1.96581,-1.15319 -2.92822,-1.76003c-0.64498,0.79894 -1.31229,1.5791 -2.00098,2.33954c1.63269,-0.2266 3.27599,-0.42 4.9292,-0.57951zM319.28329,359.26469c1.48675,-1.565 3.03446,-3.07154 4.63932,-4.5158c-2.18547,-4.74319 -4.0419,-9.66924 -5.54005,-14.74889h94.7768v10h-45.61142v10h-239.21946v-10h109.08381v-10h68.75412c4.97285,5.95522 9.37332,12.40497 13.11688,19.26469zM532.44087,297.69023c1.4786,-0.51625 2.98781,-0.96722 4.5242,-1.34946c-1.61013,-0.19953 -3.1994,-0.4663 -4.76493,-0.79743c0.08712,0.71353 0.16739,1.42919 0.24072,2.14689zM816.56254,211.99325c0,6.82562 -2.39313,13.0923 -6.38611,18.00675l-44.37878,0c-1.2107,-1.49009 -2.27432,-3.1045 -3.16874,-4.82112c-2.97873,2.01086 -6.23554,3.64115 -9.70068,4.82112l-26.48089,0c-10.07547,-3.43096 -18.38963,-10.66918 -23.22783,-20l113.2746,0c0.04537,0.65853 0.06844,1.3232 0.06844,1.99325zM462.97036,667.73773c-7.31535,0 -14.06861,-2.40655 -19.51131,-6.47114v-1.26659h40.61326c-5.69011,4.82653 -13.05606,7.73773 -21.10195,7.73773zM418.5261,702.99204c11.73226,0 21.835,6.97686 26.38558,17.00796l-52.77116,0c4.55058,-10.0311 14.65332,-17.00796 26.38558,-17.00796zM418.5261,760.90952c-2.49593,0 -4.91811,-0.31576 -7.22877,-0.90952h14.45753c-2.31066,0.59376 -4.73284,0.90952 -7.22877,0.90952zM242.23846,40v-10h204.76124v10h115.32027v10h-9.2512v10h-117.2253l0,10h58.89419v10l-314.54071,0c-0.41726,-3.27827 -0.64624,-6.61533 -0.67575,-10h16.42526v-10h145.89917v-10h0.29692v-10zM543.01245,90v-10h149.09309c-3.16309,4.05414 -7.11344,7.46407 -11.62124,10zM49.72911,130v-10h4.22078v-10h21.35121c4.79296,5.37619 7.84547,12.33771 8.27296,20zM265.27241,240v10h-194.85842v-10h86.06089v-10l166.48456,0c-0.06408,3.38915 -0.33914,6.72668 -0.81259,10zM705.26583,250v10h-35.6094c7.39725,-4.20801 15.32959,-7.58381 23.66966,-10zM138.84929,300v-10h155.19542c-4.68892,3.88912 -9.82956,7.25257 -15.33154,10zM178.26034,330v10h-54.49201c2.93182,-3.511 6.0626,-6.85011 9.375,-10zM409.00928,410v10l67.59945,0c6.09799,1.91287 11.49655,5.40618 15.71574,10h-68.60331v10h-198.73436v-10h63.85256v-10h-103.95107v-10h131.63601v-10h167.88724c-5.814,3.89963 -12.0222,7.25709 -18.55221,10zM694.83839,420v10h-196.18639c0.7489,-3.42446 1.72645,-6.7634 2.91586,-10zM458.36647,450v-10h391.00236c-4.18599,3.68163 -8.67322,7.02888 -13.41996,10zM39.4847,460v-10h218.02839v10h119.18046v10h-90.72326v10h-246.81086v-10h73.07264l0,-10zM377.14555,490v-10l53.29579,0c-4.84897,3.90255 -10.14999,7.26619 -15.8121,10zM601.48068,480v10l213.77936,0c5.01727,2.85482 9.71221,6.21086 14.01669,10h-284.47991v-10h-34.38584c-2.18641,-3.16902 -4.14067,-6.51055 -5.83821,-10zM232.34789,600v-10h147.93608c2.27687,3.20591 4.38004,6.54382 6.29579,10zM380.97472,550l0.98677,0c-0.32408,0.35506 -0.65303,0.7056 -0.98677,1.0515zM69.51154,620v-10h209.94067l0,10l115.65379,0c1.98535,6.42708 3.37617,13.11516 4.10824,20h-263.99175v-10h117.97463l0,-10zM457.02094,620v10h-26.29496c0.55777,-3.55648 1.68983,-6.92244 3.29831,-10zM433.91782,640h61.32693c-0.53522,3.55335 -1.64328,6.91904 -3.22712,10h-58.09455c-0.00175,-0.00341 -0.00351,-0.00683 -0.00526,-0.01024zM312.72662,720v-10l69.40522,0c-2.31666,3.48363 -4.8338,6.82245 -7.53494,10zM191.97181,740v-10l172.93135,0c-4.03428,3.65158 -8.35077,6.99712 -12.91284,10zM569.12617,750v-10h54.39206c-0.55302,3.41289 -1.32814,6.75133 -2.31005,10zM721.28689,740v10h-70.27185c-1.94091,-3.04145 -3.41725,-6.40811 -4.32902,-10zM164.70536,750v10h-33.04629c2.91889,-3.95371 6.54931,-7.35006 10.70221,-10zM554.0748,780v10h-53.57811c-10.45855,-7.74779 -18.90542,-18.0568 -24.41355,-30h141.32836c-3.39415,7.35949 -7.90418,14.09846 -13.31316,20zM638.52664,730c-3.4042,-3.14806 -6.62924,-6.48706 -9.65809,-10h185.50304c-3.02885,3.51294 -6.25389,6.85194 -9.65809,10zM491.00541,480c-5.47616,5.3684 -12.66204,8.99919 -20.66528,10l-9.01511,0c-8.00323,-1.00081 -15.18911,-4.6316 -20.66528,-10zM395.89737,680c-0.95345,3.40566 -2.07265,6.74207 -3.34834,10h-332.23671c-2.75584,-2.84109 -4.9447,-6.23526 -6.38408,-10zM788.39644,80c-7.27935,5.52108 -16.10536,9.10922 -25.71359,10l-9.4221,0c-9.60823,-0.89078 -18.43424,-4.47892 -25.71359,-10zM52.46738,760c0.57764,-3.55814 1.72831,-6.92407 3.35424,-10h57.9742c1.62593,3.07593 2.7766,6.44186 3.35424,10zM114.09582,780c-1.92328,3.82188 -4.57265,7.21559 -7.767,10h-43.0402c-3.19435,-2.78441 -5.84373,-6.17812 -7.767,-10zM686.8077,170c-2.5446,-2.7492 -4.35716,-6.18578 -5.12797,-10h84.77374c3.31692,2.8546 6.17255,6.23029 8.43984,10z" stroke="#000000"/><path d="" stroke="none"/></g></svg>