<svg version="1.1" xmlns="http://www.w3.org/2000/svg" xmlns:xlink="http://www.w3.org/1999/xlink" width="500" height="500" viewBox="0,0,500,500"><g fill="none" fill-rule="nonzero" stroke="#000000" stroke-width="1" stroke-linecap="butt" stroke-linejoin="miter" stroke-miterlimit="10" stroke-dasharray="" stroke-dashoffset="0" font-family="none" font-weight="none" font-size="none" text-anchor="none" style="mix-blend-mode: normal"><path d=""/><path d="M50,50c0,-13.08824 8.38141,-24.2189 20.06977,-28.31751c-0.0462,-0.55471 -0.06977,-1.11585 -0.06977,-1.68249c0,-11.04569 8.95431,-20 20,-20c11.04569,0 20,8.95431 20,20c0,5.10978 -1.91624,9.772 -5.06931,13.30724c3.20161,4.77216 5.06931,10.51435 5.06931,16.69276c0,16.56854 -13.43146,30 -30,30c-16.56854,0 -30,-13.43146 -30,-30zM-10,80c0,-11.04569 8.95431,-20 20,-20c11.04569,0 20,8.95431 20,20c0,11.04569 -8.95431,20 -20,20c-11.04569,0 -20,-8.95431 -20,-20z"/></g></svg>