<svg id="svg5_1652793100697" xmlns="http://www.w3.org/2000/svg" viewBox="0 0 200.00 200.00" width="200.00" height="200.00"><g transform="translate(100.00, 100.00)"><path stroke="rgb(0.00, 0.00, 0.00)" stroke-width="0.3" stroke-linecap="butt" stroke-linejoin="miter" fill="none" d="M0.00,50.00 Q -22.56 -24.21, 48.89 10.48" /><path stroke="rgb(0.00, 0.00, 0.00)" stroke-width="0.3" stroke-linecap="butt" stroke-linejoin="miter" fill="none" d="M3.14,49.90 Q 3.74 -10.33, 22.16 44.82" /><path stroke="rgb(0.00, 0.00, 0.00)" stroke-width="0.3" stroke-linecap="butt" stroke-linejoin="miter" fill="none" d="M6.27,49.60 Q 24.98 -8.84, 34.50 36.19" /><path stroke="rgb(0.00, 0.00, 0.00)" stroke-width="0.3" stroke-linecap="butt" stroke-linejoin="miter" fill="none" d="M9.38,49.11 Q 6.94 -12.31, 49.35 -8.06" /><path stroke="rgb(0.00, 0.00, 0.00)" stroke-width="0.3" stroke-linecap="butt" stroke-linejoin="miter" fill="none" d="M12.45,48.43 Q 1.13 -18.77, 49.84 -3.96" /><path stroke="rgb(0.00, 0.00, 0.00)" stroke-width="0.3" stroke-linecap="butt" stroke-linejoin="miter" fill="none" d="M15.47,47.55 Q -10.22 -18.42, 27.51 41.75" /><path stroke="rgb(0.00, 0.00, 0.00)" stroke-width="0.3" stroke-linecap="butt" stroke-linejoin="miter" fill="none" d="M18.42,46.48 Q 20.65 -17.83, 19.24 46.15" /><path stroke="rgb(0.00, 0.00, 0.00)" stroke-width="0.3" stroke-linecap="butt" stroke-linejoin="miter" fill="none" d="M21.31,45.23 Q -22.78 23.72, 49.78 -4.64" /><path stroke="rgb(0.00, 0.00, 0.00)" stroke-width="0.3" stroke-linecap="butt" stroke-linejoin="miter" fill="none" d="M24.11,43.80 Q -0.91 -12.86, 49.42 -7.58" /><path stroke="rgb(0.00, 0.00, 0.00)" stroke-width="0.3" stroke-linecap="butt" stroke-linejoin="miter" fill="none" d="M26.81,42.20 Q -8.95 -19.46, 49.78 4.68" /><path stroke="rgb(0.00, 0.00, 0.00)" stroke-width="0.3" stroke-linecap="butt" stroke-linejoin="miter" fill="none" d="M29.41,40.43 Q 3.21 -19.60, 49.84 -3.94" /><path stroke="rgb(0.00, 0.00, 0.00)" stroke-width="0.3" stroke-linecap="butt" stroke-linejoin="miter" fill="none" d="M31.90,38.50 Q 11.74 -11.08, 45.63 20.45" /><path stroke="rgb(0.00, 0.00, 0.00)" stroke-width="0.3" stroke-linecap="butt" stroke-linejoin="miter" fill="none" d="M34.25,36.42 Q -14.98 20.40, 35.87 34.84" /><path stroke="rgb(0.00, 0.00, 0.00)" stroke-width="0.3" stroke-linecap="butt" stroke-linejoin="miter" fill="none" d="M36.48,34.20 Q -10.49 -15.28, 48.19 13.34" /><path stroke="rgb(0.00, 0.00, 0.00)" stroke-width="0.3" stroke-linecap="butt" stroke-linejoin="miter" fill="none" d="M38.55,31.84 Q -13.70 -5.98, 41.92 -27.26" /><path stroke="rgb(0.00, 0.00, 0.00)" stroke-width="0.3" stroke-linecap="butt" stroke-linejoin="miter" fill="none" d="M40.48,29.35 Q -17.67 -0.84, 47.92 14.28" /><path stroke="rgb(0.00, 0.00, 0.00)" stroke-width="0.3" stroke-linecap="butt" stroke-linejoin="miter" fill="none" d="M42.24,26.75 Q -0.33 23.45, 25.67 -42.91" /><path stroke="rgb(0.00, 0.00, 0.00)" stroke-width="0.3" stroke-linecap="butt" stroke-linejoin="miter" fill="none" d="M43.84,24.04 Q -7.77 -7.62, 17.78 -46.73" /><path stroke="rgb(0.00, 0.00, 0.00)" stroke-width="0.3" stroke-linecap="butt" stroke-linejoin="miter" fill="none" d="M45.26,21.24 Q 13.37 17.85, 44.26 -23.26" /><path stroke="rgb(0.00, 0.00, 0.00)" stroke-width="0.3" stroke-linecap="butt" stroke-linejoin="miter" fill="none" d="M46.51,18.35 Q -19.02 -13.52, 49.03 -9.79" /><path stroke="rgb(0.00, 0.00, 0.00)" stroke-width="0.3" stroke-linecap="butt" stroke-linejoin="miter" fill="none" d="M47.57,15.39 Q -13.07 7.08, 14.04 -47.99" /><path stroke="rgb(0.00, 0.00, 0.00)" stroke-width="0.3" stroke-linecap="butt" stroke-linejoin="miter" fill="none" d="M48.45,12.37 Q 18.57 7.83, 27.13 -42.00" /><path stroke="rgb(0.00, 0.00, 0.00)" stroke-width="0.3" stroke-linecap="butt" stroke-linejoin="miter" fill="none" d="M49.13,9.30 Q -15.66 -1.19, 24.24 -43.73" /><path stroke="rgb(0.00, 0.00, 0.00)" stroke-width="0.3" stroke-linecap="butt" stroke-linejoin="miter" fill="none" d="M49.61,6.20 Q 7.00 24.83, 6.03 -49.64" /><path stroke="rgb(0.00, 0.00, 0.00)" stroke-width="0.3" stroke-linecap="butt" stroke-linejoin="miter" fill="none" d="M49.91,3.07 Q 15.12 9.70, 38.00 -32.50" /><path stroke="rgb(0.00, 0.00, 0.00)" stroke-width="0.3" stroke-linecap="butt" stroke-linejoin="miter" fill="none" d="M50.00,-0.08 Q 22.00 8.46, 0.87 -49.99" /><path stroke="rgb(0.00, 0.00, 0.00)" stroke-width="0.3" stroke-linecap="butt" stroke-linejoin="miter" fill="none" d="M49.90,-3.22 Q 18.28 -16.38, 21.28 -45.24" /><path stroke="rgb(0.00, 0.00, 0.00)" stroke-width="0.3" stroke-linecap="butt" stroke-linejoin="miter" fill="none" d="M49.60,-6.35 Q 16.43 5.88, 44.67 -22.46" /><path stroke="rgb(0.00, 0.00, 0.00)" stroke-width="0.3" stroke-linecap="butt" stroke-linejoin="miter" fill="none" d="M49.10,-9.45 Q 2.27 -17.88, -28.10 -41.36" /><path stroke="rgb(0.00, 0.00, 0.00)" stroke-width="0.3" stroke-linecap="butt" stroke-linejoin="miter" fill="none" d="M48.41,-12.52 Q -18.52 -2.75, -8.79 -49.22" /><path stroke="rgb(0.00, 0.00, 0.00)" stroke-width="0.3" stroke-linecap="butt" stroke-linejoin="miter" fill="none" d="M47.52,-15.54 Q -0.25 -4.00, -10.68 -48.85" /><path stroke="rgb(0.00, 0.00, 0.00)" stroke-width="0.3" stroke-linecap="butt" stroke-linejoin="miter" fill="none" d="M46.45,-18.49 Q -15.04 2.58, 2.46 -49.94" /><path stroke="rgb(0.00, 0.00, 0.00)" stroke-width="0.3" stroke-linecap="butt" stroke-linejoin="miter" fill="none" d="M45.20,-21.38 Q -17.65 -16.21, -7.18 -49.48" /><path stroke="rgb(0.00, 0.00, 0.00)" stroke-width="0.3" stroke-linecap="butt" stroke-linejoin="miter" fill="none" d="M43.77,-24.18 Q 12.13 -12.17, 25.32 -43.12" /><path stroke="rgb(0.00, 0.00, 0.00)" stroke-width="0.3" stroke-linecap="butt" stroke-linejoin="miter" fill="none" d="M42.16,-26.88 Q 24.01 -20.33, -37.03 -33.60" /><path stroke="rgb(0.00, 0.00, 0.00)" stroke-width="0.3" stroke-linecap="butt" stroke-linejoin="miter" fill="none" d="M40.39,-29.48 Q -15.33 22.60, 19.18 -46.18" /><path stroke="rgb(0.00, 0.00, 0.00)" stroke-width="0.3" stroke-linecap="butt" stroke-linejoin="miter" fill="none" d="M38.46,-31.96 Q 1.65 -5.73, -22.55 -44.63" /><path stroke="rgb(0.00, 0.00, 0.00)" stroke-width="0.3" stroke-linecap="butt" stroke-linejoin="miter" fill="none" d="M36.37,-34.31 Q 11.96 -23.60, -27.25 -41.92" /><path stroke="rgb(0.00, 0.00, 0.00)" stroke-width="0.3" stroke-linecap="butt" stroke-linejoin="miter" fill="none" d="M34.14,-36.53 Q 1.32 10.67, 0.36 -50.00" /><path stroke="rgb(0.00, 0.00, 0.00)" stroke-width="0.3" stroke-linecap="butt" stroke-linejoin="miter" fill="none" d="M31.78,-38.60 Q -3.82 -24.48, -46.18 -19.16" /><path stroke="rgb(0.00, 0.00, 0.00)" stroke-width="0.3" stroke-linecap="butt" stroke-linejoin="miter" fill="none" d="M29.29,-40.52 Q 23.03 -21.17, -31.34 -38.96" /><path stroke="rgb(0.00, 0.00, 0.00)" stroke-width="0.3" stroke-linecap="butt" stroke-linejoin="miter" fill="none" d="M26.69,-42.28 Q -15.10 -22.17, -34.66 -36.04" /><path stroke="rgb(0.00, 0.00, 0.00)" stroke-width="0.3" stroke-linecap="butt" stroke-linejoin="miter" fill="none" d="M23.97,-43.88 Q 9.36 -8.15, -6.37 -49.59" /><path stroke="rgb(0.00, 0.00, 0.00)" stroke-width="0.3" stroke-linecap="butt" stroke-linejoin="miter" fill="none" d="M21.17,-45.30 Q 4.67 8.07, -49.98 -1.46" /><path stroke="rgb(0.00, 0.00, 0.00)" stroke-width="0.3" stroke-linecap="butt" stroke-linejoin="miter" fill="none" d="M18.28,-46.54 Q 16.52 -2.31, -8.02 -49.35" /><path stroke="rgb(0.00, 0.00, 0.00)" stroke-width="0.3" stroke-linecap="butt" stroke-linejoin="miter" fill="none" d="M15.32,-47.60 Q 17.39 -18.17, -13.96 -48.01" /><path stroke="rgb(0.00, 0.00, 0.00)" stroke-width="0.3" stroke-linecap="butt" stroke-linejoin="miter" fill="none" d="M12.30,-48.46 Q 2.56 6.41, -7.23 -49.47" /><path stroke="rgb(0.00, 0.00, 0.00)" stroke-width="0.3" stroke-linecap="butt" stroke-linejoin="miter" fill="none" d="M9.23,-49.14 Q 7.33 -13.75, -15.70 -47.47" /><path stroke="rgb(0.00, 0.00, 0.00)" stroke-width="0.3" stroke-linecap="butt" stroke-linejoin="miter" fill="none" d="M6.12,-49.62 Q -16.24 -9.62, -48.08 -13.71" /><path stroke="rgb(0.00, 0.00, 0.00)" stroke-width="0.3" stroke-linecap="butt" stroke-linejoin="miter" fill="none" d="M2.99,-49.91 Q 13.68 12.70, -14.14 -47.96" /><path stroke="rgb(0.00, 0.00, 0.00)" stroke-width="0.3" stroke-linecap="butt" stroke-linejoin="miter" fill="none" d="M-0.15,-50.00 Q 18.69 -3.49, -49.99 0.93" /><path stroke="rgb(0.00, 0.00, 0.00)" stroke-width="0.3" stroke-linecap="butt" stroke-linejoin="miter" fill="none" d="M-3.30,-49.89 Q 15.19 -2.76, -17.79 -46.73" /><path stroke="rgb(0.00, 0.00, 0.00)" stroke-width="0.3" stroke-linecap="butt" stroke-linejoin="miter" fill="none" d="M-6.42,-49.59 Q 11.83 20.11, -19.77 -45.93" /><path stroke="rgb(0.00, 0.00, 0.00)" stroke-width="0.3" stroke-linecap="butt" stroke-linejoin="miter" fill="none" d="M-9.53,-49.08 Q 10.11 22.03, -41.42 28.01" /><path stroke="rgb(0.00, 0.00, 0.00)" stroke-width="0.3" stroke-linecap="butt" stroke-linejoin="miter" fill="none" d="M-12.59,-48.39 Q -12.55 19.27, -49.93 2.71" /><path stroke="rgb(0.00, 0.00, 0.00)" stroke-width="0.3" stroke-linecap="butt" stroke-linejoin="miter" fill="none" d="M-15.61,-47.50 Q -0.33 -0.35, -43.71 24.28" /><path stroke="rgb(0.00, 0.00, 0.00)" stroke-width="0.3" stroke-linecap="butt" stroke-linejoin="miter" fill="none" d="M-18.57,-46.43 Q -1.57 1.81, -43.78 -24.15" /><path stroke="rgb(0.00, 0.00, 0.00)" stroke-width="0.3" stroke-linecap="butt" stroke-linejoin="miter" fill="none" d="M-21.45,-45.17 Q -4.87 -16.54, -41.65 27.67" /><path stroke="rgb(0.00, 0.00, 0.00)" stroke-width="0.3" stroke-linecap="butt" stroke-linejoin="miter" fill="none" d="M-24.24,-43.73 Q -22.13 16.21, -40.95 -28.68" /><path stroke="rgb(0.00, 0.00, 0.00)" stroke-width="0.3" stroke-linecap="butt" stroke-linejoin="miter" fill="none" d="M-26.94,-42.12 Q 14.11 -15.12, -48.92 -10.32" /><path stroke="rgb(0.00, 0.00, 0.00)" stroke-width="0.3" stroke-linecap="butt" stroke-linejoin="miter" fill="none" d="M-29.54,-40.34 Q -15.04 23.19, -30.56 -39.57" /><path stroke="rgb(0.00, 0.00, 0.00)" stroke-width="0.3" stroke-linecap="butt" stroke-linejoin="miter" fill="none" d="M-32.01,-38.41 Q 14.96 12.15, -37.02 33.61" /><path stroke="rgb(0.00, 0.00, 0.00)" stroke-width="0.3" stroke-linecap="butt" stroke-linejoin="miter" fill="none" d="M-34.37,-36.32 Q 21.08 -3.13, -49.93 -2.70" /><path stroke="rgb(0.00, 0.00, 0.00)" stroke-width="0.3" stroke-linecap="butt" stroke-linejoin="miter" fill="none" d="M-36.58,-34.09 Q 7.01 8.90, -47.52 15.56" /><path stroke="rgb(0.00, 0.00, 0.00)" stroke-width="0.3" stroke-linecap="butt" stroke-linejoin="miter" fill="none" d="M-38.65,-31.72 Q -1.30 -17.42, -48.75 -11.09" /><path stroke="rgb(0.00, 0.00, 0.00)" stroke-width="0.3" stroke-linecap="butt" stroke-linejoin="miter" fill="none" d="M-40.57,-29.23 Q 21.19 -24.37, -46.30 -18.87" /><path stroke="rgb(0.00, 0.00, 0.00)" stroke-width="0.3" stroke-linecap="butt" stroke-linejoin="miter" fill="none" d="M-42.32,-26.62 Q -8.76 -22.61, -7.14 49.49" /><path stroke="rgb(0.00, 0.00, 0.00)" stroke-width="0.3" stroke-linecap="butt" stroke-linejoin="miter" fill="none" d="M-43.91,-23.91 Q -6.86 2.91, -46.55 18.25" /><path stroke="rgb(0.00, 0.00, 0.00)" stroke-width="0.3" stroke-linecap="butt" stroke-linejoin="miter" fill="none" d="M-45.33,-21.10 Q 10.13 3.04, -34.61 36.08" /><path stroke="rgb(0.00, 0.00, 0.00)" stroke-width="0.3" stroke-linecap="butt" stroke-linejoin="miter" fill="none" d="M-46.57,-18.21 Q -17.36 4.56, -33.45 37.16" /><path stroke="rgb(0.00, 0.00, 0.00)" stroke-width="0.3" stroke-linecap="butt" stroke-linejoin="miter" fill="none" d="M-47.62,-15.25 Q -1.67 -1.45, -17.76 46.74" /><path stroke="rgb(0.00, 0.00, 0.00)" stroke-width="0.3" stroke-linecap="butt" stroke-linejoin="miter" fill="none" d="M-48.48,-12.22 Q 5.52 8.71, -43.64 24.40" /><path stroke="rgb(0.00, 0.00, 0.00)" stroke-width="0.3" stroke-linecap="butt" stroke-linejoin="miter" fill="none" d="M-49.16,-9.15 Q -10.88 -23.31, -46.91 17.30" /><path stroke="rgb(0.00, 0.00, 0.00)" stroke-width="0.3" stroke-linecap="butt" stroke-linejoin="miter" fill="none" d="M-49.63,-6.04 Q -5.19 -8.31, 2.30 49.95" /><path stroke="rgb(0.00, 0.00, 0.00)" stroke-width="0.3" stroke-linecap="butt" stroke-linejoin="miter" fill="none" d="M-49.92,-2.91 Q 24.31 5.86, 16.64 47.15" /><path stroke="rgb(0.00, 0.00, 0.00)" stroke-width="0.3" stroke-linecap="butt" stroke-linejoin="miter" fill="none" d="M-50.00,0.23 Q 9.43 11.51, -6.31 49.60" /><path stroke="rgb(0.00, 0.00, 0.00)" stroke-width="0.3" stroke-linecap="butt" stroke-linejoin="miter" fill="none" d="M-49.89,3.37 Q -15.13 21.62, -25.42 43.06" /><path stroke="rgb(0.00, 0.00, 0.00)" stroke-width="0.3" stroke-linecap="butt" stroke-linejoin="miter" fill="none" d="M-49.58,6.50 Q -10.59 18.28, 9.17 49.15" /><path stroke="rgb(0.00, 0.00, 0.00)" stroke-width="0.3" stroke-linecap="butt" stroke-linejoin="miter" fill="none" d="M-49.07,9.60 Q 22.63 21.42, 11.27 48.71" /><path stroke="rgb(0.00, 0.00, 0.00)" stroke-width="0.3" stroke-linecap="butt" stroke-linejoin="miter" fill="none" d="M-48.37,12.67 Q -13.27 -7.29, -38.48 31.93" /><path stroke="rgb(0.00, 0.00, 0.00)" stroke-width="0.3" stroke-linecap="butt" stroke-linejoin="miter" fill="none" d="M-47.48,15.68 Q -12.78 -23.96, -10.76 48.83" /><path stroke="rgb(0.00, 0.00, 0.00)" stroke-width="0.3" stroke-linecap="butt" stroke-linejoin="miter" fill="none" d="M-46.40,18.64 Q -1.89 -24.45, 0.24 50.00" /><path stroke="rgb(0.00, 0.00, 0.00)" stroke-width="0.3" stroke-linecap="butt" stroke-linejoin="miter" fill="none" d="M-45.13,21.52 Q -7.42 2.92, -22.43 44.68" /><path stroke="rgb(0.00, 0.00, 0.00)" stroke-width="0.3" stroke-linecap="butt" stroke-linejoin="miter" fill="none" d="M-43.69,24.31 Q 24.56 19.06, -38.92 31.38" /><path stroke="rgb(0.00, 0.00, 0.00)" stroke-width="0.3" stroke-linecap="butt" stroke-linejoin="miter" fill="none" d="M-42.08,27.01 Q -19.76 14.09, 28.04 41.40" /><path stroke="rgb(0.00, 0.00, 0.00)" stroke-width="0.3" stroke-linecap="butt" stroke-linejoin="miter" fill="none" d="M-40.30,29.60 Q -14.38 8.59, 17.96 46.66" /><path stroke="rgb(0.00, 0.00, 0.00)" stroke-width="0.3" stroke-linecap="butt" stroke-linejoin="miter" fill="none" d="M-38.36,32.07 Q 11.02 -16.49, 40.47 29.36" /><path stroke="rgb(0.00, 0.00, 0.00)" stroke-width="0.3" stroke-linecap="butt" stroke-linejoin="miter" fill="none" d="M-36.27,34.42 Q 11.99 13.25, 29.59 40.30" /><path stroke="rgb(0.00, 0.00, 0.00)" stroke-width="0.3" stroke-linecap="butt" stroke-linejoin="miter" fill="none" d="M-34.03,36.63 Q 14.44 14.59, 26.09 42.65" /><path stroke="rgb(0.00, 0.00, 0.00)" stroke-width="0.3" stroke-linecap="butt" stroke-linejoin="miter" fill="none" d="M-31.66,38.70 Q -10.46 21.40, 39.49 30.67" /><path stroke="rgb(0.00, 0.00, 0.00)" stroke-width="0.3" stroke-linecap="butt" stroke-linejoin="miter" fill="none" d="M-29.17,40.61 Q 18.59 -21.14, 41.50 27.89" /><path stroke="rgb(0.00, 0.00, 0.00)" stroke-width="0.3" stroke-linecap="butt" stroke-linejoin="miter" fill="none" d="M-26.56,42.37 Q 21.10 20.49, 29.85 40.11" /><path stroke="rgb(0.00, 0.00, 0.00)" stroke-width="0.3" stroke-linecap="butt" stroke-linejoin="miter" fill="none" d="M-23.84,43.95 Q 18.30 10.70, -20.27 45.71" /><path stroke="rgb(0.00, 0.00, 0.00)" stroke-width="0.3" stroke-linecap="butt" stroke-linejoin="miter" fill="none" d="M-21.03,45.36 Q 20.27 4.90, 47.51 15.59" /><path stroke="rgb(0.00, 0.00, 0.00)" stroke-width="0.3" stroke-linecap="butt" stroke-linejoin="miter" fill="none" d="M-18.14,46.59 Q 22.60 -14.05, 22.84 44.48" /><path stroke="rgb(0.00, 0.00, 0.00)" stroke-width="0.3" stroke-linecap="butt" stroke-linejoin="miter" fill="none" d="M-15.17,47.64 Q 6.39 21.38, 14.18 47.95" /><path stroke="rgb(0.00, 0.00, 0.00)" stroke-width="0.3" stroke-linecap="butt" stroke-linejoin="miter" fill="none" d="M-12.15,48.50 Q 12.83 19.04, 45.87 19.89" /><path stroke="rgb(0.00, 0.00, 0.00)" stroke-width="0.3" stroke-linecap="butt" stroke-linejoin="miter" fill="none" d="M-9.08,49.17 Q 11.08 -2.77, 49.90 -3.17" /><path stroke="rgb(0.00, 0.00, 0.00)" stroke-width="0.3" stroke-linecap="butt" stroke-linejoin="miter" fill="none" d="M-5.97,49.64 Q 2.62 -13.06, 49.56 -6.63" /><path stroke="rgb(0.00, 0.00, 0.00)" stroke-width="0.3" stroke-linecap="butt" stroke-linejoin="miter" fill="none" d="M-2.84,49.92 Q 4.36 -4.99, 37.62 32.94" /></g></svg>