<svg version="1.1" xmlns="http://www.w3.org/2000/svg" xmlns:xlink="http://www.w3.org/1999/xlink" width="500" height="500" viewBox="0,0,500,500"><g fill="none" fill-rule="nonzero" stroke="#000000" stroke-width="1" stroke-linecap="butt" stroke-linejoin="miter" stroke-miterlimit="10" stroke-dasharray="" stroke-dashoffset="0" font-family="none" font-weight="none" font-size="none" text-anchor="none" style="mix-blend-mode: normal"><path d="M17.84244,0l0.86011,4l0.62854,4l0.39529,4l0.19825,4l0.06636,4l-0.00055,4l-0.11426,4l-0.3981,4l-0.83584,4l-1.33773,4l-1.79283,4l-2.09893,4l-2.18135,4l-2.00223,4l-1.56175,4l-0.89427,4l-0.0613,4l0.8568,4l1.76844,4l2.58008,4l3.20974,4l3.5945,4l3.69604,4l3.50426,4l3.03777,4l2.3177,4l1.35529,4l0.23886,4l-0.88278,4l-1.84711,4l-2.51264,4l-2.78255,4l-2.61903,4l-2.04909,4l-1.16215,4l-0.0992,4l0.96642,4l1.85856,4l2.43955,4l2.65911,4l2.58807,4l2.29168,4l1.81377,4l1.21316,4l0.55661,4l-0.08881,4l-0.66957,4l-1.1815,4l-1.61477,4l-1.92977,4l-2.08835,4l-2.07208,4l-1.89431,4l-1.60364,4l-1.27471,4l-0.98139,4l-0.57919,4l-0.27571,4l0.1125,4l0.49371,4l0.77858,4l0.89344,4l0.78847,4l0.4442,4l-0.11912,4l-0.82823,4l-1.54746,4l-2.14793,4l-2.55121,4l-2.709,4l-2.60648,4l-2.26254,4l-1.71551,4l-0.93782,4l0.10221,4l1.31276,4l2.52861,4l3.5664,4l4.26384,4l4.50715,4l4.2481,4l3.51186,4l2.39461,4l1.05053,4l-0.33262,4l-1.57101,4l-2.53295,4l-3.1915,4l-3.58567,4l-3.69746,4l-3.5158,4l-3.05909,4l-2.39646,4l-1.65537,4l-0.92125,4l-0.2336,4l0.38818,4l0.93079,4l1.38243,4"/><path d="M22.35792,0l-0.11271,4l-0.12772,4l-0.09715,4l-0.00923,4l0.12975,4l0.28203,4l0.35273,4l0.25662,4l0.00537,4l-0.3282,4l-0.6496,4l-0.8693,4l-0.91912,4l-0.76098,4l-0.39058,4l0.16364,4l0.84834,4l1.59289,4l2.31674,4l2.93682,4l3.37352,4l3.5606,4l3.4665,4l3.09291,4l2.46987,4l1.65055,4l0.67613,4l-0.39262,4l-1.43605,4l-2.31546,4l-2.90821,4l-3.12907,4l-2.94598,4l-2.38752,4l-1.54141,4l-0.544,4l0.43978,4l1.24711,4l1.74789,4l1.90993,4l1.82717,4l1.57005,4l1.18123,4l0.72306,4l0.26372,4l-0.14203,4l-0.45396,4l-0.65343,4l-0.75706,4l-0.78967,4l-0.75704,4l-0.66751,4l-0.54691,4l-0.44003,4l-0.39975,4l-0.3773,4l-0.35173,4l-0.25983,4l-0.08953,4l0.0877,4l0.20497,4l0.20882,4l0.06238,4l-0.25343,4l-0.73674,4l-1.35541,4l-2.02794,4l-2.61293,4l-2.99903,4l-3.13901,4l-3.01763,4l-2.64616,4l-2.04911,4l-1.20311,4l-0.08419,4l1.21453,4l2.52469,4l3.65671,4l4.44115,4l4.75809,4l4.55507,4l3.85353,4l2.74522,4l1.38241,4l-0.04409,4l-1.33864,4l-2.34636,4l-3.01138,4l-3.3905,4l-3.49773,4l-3.3235,4l-2.88529,4l-2.22951,4l-1.45876,4l-0.68883,4l0.01423,4l0.61657,4l1.10149,4l1.4622,4"/><path d="M25.70634,0l-0.93964,4l-0.71262,4l-0.41659,4l-0.07999,4l0.26236,4l0.58798,4l0.85296,4l0.97596,4l0.94089,4l0.79461,4l0.60968,4l0.45748,4l0.39758,4l0.4717,4l0.69637,4l1.06018,4l1.52473,4l2.03439,4l2.52379,4l2.92194,4l3.15489,4l3.15512,4l2.89815,4l2.39714,4l1.69237,4l0.85045,4l-0.05109,4l-0.95771,4l-1.80248,4l-2.48747,4l-2.91791,4l-3.02912,4l-2.80303,4l-2.27508,4l-1.5318,4l-0.69916,4l0.07904,4l0.6737,4l0.95724,4l0.99312,4l0.87652,4l0.66392,4l0.39578,4l0.11396,4l-0.13574,4l-0.30416,4l-0.37413,4l-0.34195,4l-0.20937,4l0.00355,4l0.25016,4l0.47161,4l0.61252,4l0.62333,4l0.47834,4l0.2744,4l0.0963,4l0.0134,4l-0.01275,4l-0.03008,4l-0.08138,4l-0.19866,4l-0.40334,4l-0.7086,4l-1.11999,4l-1.63009,4l-2.20246,4l-2.74141,4l-3.11191,4l-3.24929,4l-3.13111,4l-2.75597,4l-2.14784,4l-1.32414,4l-0.26137,4l0.97816,4l2.24655,4l3.36479,4l4.16234,4l4.51437,4l4.36757,4l3.7445,4l2.73699,4l1.49042,4l0.1855,4l-0.9921,4l-1.89613,4l-2.47587,4l-2.79877,4l-2.89403,4l-2.75021,4l-2.37421,4l-1.79944,4l-1.08791,4l-0.34951,4l0.31232,4l0.84812,4l1.23888,4l1.48126,4"/><path d="M29.89537,0l-1.41774,4l-1.03308,4l-0.5874,4l-0.10784,4l0.37565,4l0.83451,4l1.23988,4l1.53726,4l1.67228,4l1.64896,4l1.52375,4l1.37114,4l1.25873,4l1.23437,4l1.32128,4l1.51763,4l1.79735,4l2.11508,4l2.41597,4l2.63709,4l2.70635,4l2.55881,4l2.18127,4l1.6001,4l0.87631,4l0.08853,4l-0.68292,4l-1.3642,4l-1.9134,4l-2.29286,4l-2.46752,4l-2.40368,4l-2.1089,4l-1.63029,4l-1.05124,4l-0.47823,4l-0.01718,4l0.24185,4l0.26422,4l0.13785,4l-0.05566,4l-0.26654,4l-0.44802,4l-0.5667,4l-0.61034,4l-0.58282,4l-0.4679,4l-0.24632,4l0.06999,4l0.44716,4l0.82876,4l1.14444,4l1.3247,4l1.3169,4l1.12076,4l0.84815,4l0.6045,4l0.40864,4l0.24414,4l0.08534,4l-0.08974,4l-0.29562,4l-0.54131,4l-0.83461,4l-1.18463,4l-1.58845,4l-2.06472,4l-2.53226,4l-2.87746,4l-3.00801,4l-2.89693,4l-2.5438,4l-1.97313,4l-1.22846,4l-0.3249,4l0.70988,4l1.75654,4l2.66809,4l3.31114,4l3.59108,4l3.46832,4l2.9654,4l2.16424,4l1.19229,4l0.20211,4l-0.6537,4l-1.26534,4l-1.62071,4l-1.80327,4l-1.83149,4l-1.6916,4l-1.39252,4l-0.96741,4l-0.46213,4l0.08173,4l0.60651,4l1.04448,4l1.3531,4l1.50143,4"/><path d="M36.8049,0l-1.66749,4l-1.20845,4l-0.6823,4l-0.11402,4l0.45496,4l0.98468,4l1.42472,4l1.72031,4l1.83865,4l1.806,4l1.67391,4l1.51074,4l1.37917,4l1.32272,4l1.36617,4l1.49661,4l1.70396,4l1.94357,4l2.16406,4l2.30039,4l2.27339,4l2.03081,4l1.57406,4l0.95078,4l0.24366,4l-0.45225,4l-1.04979,4l-1.48295,4l-1.71538,4l-1.74371,4l-1.6085,4l-1.34292,4l-0.99408,4l-0.606,4l-0.25353,4l-0.01013,4l0.07843,4l0.00757,4l-0.18621,4l-0.4603,4l-0.76188,4l-1.02443,4l-1.19076,4l-1.22677,4l-1.16586,4l-0.98368,4l-0.73798,4l-0.37534,4l0.07479,4l0.56143,4l1.01856,4l1.37808,4l1.58733,4l1.62842,4l1.51002,4l1.27224,4l1.00112,4l0.73992,4l0.49672,4l0.26927,4l0.05195,4l-0.16208,4l-0.38202,4l-0.62173,4l-0.89999,4l-1.23544,4l-1.63223,4l-2.04745,4l-2.38247,4l-2.53923,4l-2.47634,4l-2.1856,4l-1.68653,4l-1.04069,4l-0.35287,4l0.33518,4l0.97585,4l1.52031,4l1.90077,4l2.0546,4l1.95459,4l1.62315,4l1.11275,4l0.53478,4l-0.00146,4l-0.39214,4l-0.58705,4l-0.63576,4l-0.61031,4l-0.50206,4l-0.30785,4l-0.05452,4l0.22307,4l0.50645,4l0.78484,4l1.04741,4l1.27954,4l1.45035,4l1.5296,4"/><path d="M46.82825,0l-1.80153,4l-1.33127,4l-0.77497,4l-0.16064,4l0.45315,4l0.96548,4l1.29321,4l1.42414,4l1.39215,4l1.25414,4l1.0653,4l0.90293,4l0.83851,4l0.84329,4l0.9591,4l1.1668,4l1.43892,4l1.73216,4l1.98645,4l2.12093,4l2.05897,4l1.77664,4l1.28578,4l0.65627,4l-0.00483,4l-0.59081,4l-1.01469,4l-1.22135,4l-1.19532,4l-0.96366,4l-0.59232,4l-0.17464,4l0.18924,4l0.42929,4l0.51633,4l0.436,4l0.23087,4l-0.02275,4l-0.34492,4l-0.738,4l-1.14551,4l-1.4912,4l-1.70829,4l-1.75686,4l-1.70065,4l-1.4509,4l-1.14943,4l-0.71987,4l-0.20106,4l0.34281,4l0.84788,4l1.2701,4l1.56751,4l1.71229,4l1.68835,4l1.5041,4l1.22396,4l0.93412,4l0.67847,4l0.47054,4l0.30713,4l0.17514,4l0.05402,4l-0.08355,4l-0.26962,4l-0.53419,4l-0.89002,4l-1.30246,4l-1.68284,4l-1.94702,4l-2.03351,4l-1.91913,4l-1.63851,4l-1.25953,4l-0.84214,4l-0.4437,4l-0.12143,4l0.16979,4l0.3158,4l0.3368,4l0.24466,4l0.08656,4l-0.10253,4l-0.25734,4l-0.3096,4l-0.21809,4l-0.01044,4l0.22777,4l0.47397,4l0.73901,4l1.00598,4l1.23638,4l1.41356,4l1.53807,4l1.6168,4l1.65791,4l1.66924,4l1.6578,4l1.62787,4"/><path d="M59.00355,0l-1.91657,4l-1.50246,4l-0.96416,4l-0.34653,4l0.21949,4l0.60931,4l0.78446,4l0.76489,4l0.6034,4l0.36888,4l0.12833,4l-0.02242,4l-0.03117,4l0.11357,4l0.42159,4l0.82321,4l1.27523,4l1.71483,4l2.05585,4l2.21238,4l2.15484,4l1.8765,4l1.39183,4l0.78684,4l0.18212,4l-0.31346,4l-0.6184,4l-0.68893,4l-0.52559,4l-0.17477,4l0.27641,4l0.71342,4l1.01839,4l1.10757,4l0.98364,4l0.73405,4l0.4126,4l0.05332,4l-0.34341,4l-0.79682,4l-1.25952,4l-1.65949,4l-1.93126,4l-2.03495,4l-2.0213,4l-1.81519,4l-1.53656,4l-1.12286,4l-0.61064,4l-0.05356,4l0.4862,4l0.94977,4l1.2952,4l1.50311,4l1.55416,4l1.45066,4l1.2303,4l0.97427,4l0.76187,4l0.63451,4l0.59147,4l0.60962,4l0.65086,4l0.6674,4l0.60789,4l0.42771,4l0.10718,4l-0.32232,4l-0.79254,4l-1.22574,4l-1.54744,4l-1.74988,4l-1.85512,4l-1.87142,4l-1.80512,4l-1.67238,4l-1.50431,4l-1.35169,4l-1.23435,4l-1.14929,4l-1.15607,4l-1.16625,4l-1.08535,4l-0.88334,4l-0.54771,4l-0.1135,4l0.34185,4l0.77885,4l1.18627,4l1.56387,4l1.87631,4l2.09562,4l2.22052,4l2.2629,4l2.23971,4l2.16929,4l2.07058,4l1.96306,4l1.86485,4"/><path d="M71.53155,0l-2.11617,4l-1.78844,4l-1.29509,4l-0.7391,4l-0.28808,4l-0.02483,4l0.04283,4l-0.0501,4l-0.25611,4l-0.48595,4l-0.68305,4l-0.77238,4l-0.69378,4l-0.40786,4l0.09597,4l0.74042,4l1.40485,4l1.97682,4l2.37421,4l2.55836,4l2.51675,4l2.2541,4l1.78937,4l1.21124,4l0.63833,4l0.17584,4l-0.10167,4l-0.15817,4l-0.00098,4l0.31987,4l0.71931,4l1.0936,4l1.34716,4l1.4127,4l1.26276,4l0.9486,4l0.54387,4l0.09833,4l-0.33452,4l-0.75048,4l-1.15772,4l-1.52343,4l-1.80062,4l-1.95173,4l-1.98361,4l-1.87596,4l-1.66386,4l-1.32442,4l-0.8899,4l-0.41004,4l0.05697,4l0.45742,4l0.75245,4l0.92065,4l0.96634,4l0.91476,4l0.80963,4l0.69912,4l0.62862,4l0.6614,4l0.78358,4l0.99539,4l1.241,4l1.45032,4l1.5508,4l1.4832,4l1.22374,4l0.79065,4l0.22823,4l-0.38037,4l-0.97565,4l-1.546,4l-2.06365,4l-2.4877,4l-2.78048,4l-2.92923,4l-2.91322,4l-2.77124,4l-2.54236,4l-2.28086,4l-2.03193,4l-1.7928,4l-1.51801,4l-1.11801,4l-0.62081,4l-0.08522,4l0.45425,4l0.96633,4l1.42674,4l1.82672,4l2.13371,4l2.33151,4l2.43063,4l2.45042,4l2.41298,4l2.33971,4l2.25027,4l2.16167,4l2.08532,4"/><path d="M82.69467,0l-2.4728,4l-2.21045,4l-1.7578,4l-1.27228,4l-0.90298,4l-0.70128,4l-0.65779,4l-0.7336,4l-0.87487,4l-1.01933,4l-1.1039,4l-1.06913,4l-0.86351,4l-0.45213,4l0.16633,4l0.93173,4l1.70834,4l2.35018,4l2.78969,4l2.99417,4l2.95461,4l2.68566,4l2.22145,4l1.64262,4l1.03392,4l0.54802,4l0.21515,4l0.09271,4l0.18372,4l0.45132,4l0.82348,4l1.20301,4l1.48332,4l1.57105,4l1.41658,4l1.05713,4l0.61058,4l0.14936,4l-0.28606,4l-0.66322,4l-0.9804,4l-1.25489,4l-1.47528,4l-1.61851,4l-1.6698,4l-1.62672,4l-1.48453,4l-1.24609,4l-0.93778,4l-0.60117,4l-0.28414,4l-0.03611,4l0.09339,4l0.10274,4l0.04484,4l-0.03121,4l-0.07031,4l-0.0263,4l0.12889,4l0.40089,4l0.77364,4l1.22477,4l1.68674,4l2.09961,4l2.37573,4l2.44739,4l2.27861,4l1.867,4l1.25968,4l0.52969,4l-0.28447,4l-1.14431,4l-1.98536,4l-2.73249,4l-3.31704,4l-3.68666,4l-3.81152,4l-3.69299,4l-3.36609,4l-2.89486,4l-2.36081,4l-1.84463,4l-1.39977,4l-0.99684,4l-0.55412,4l-0.07625,4l0.40821,4l0.86951,4l1.27863,4l1.61462,4l1.85831,4l1.99726,4l2.06839,4l2.08981,4l2.08704,4l2.07528,4l2.06161,4l2.04676,4l2.027,4"/><path d="M91.89152,0l-2.97228,4l-2.72164,4l-2.26772,4l-1.78207,4l-1.39876,4l-1.15705,4l-1.04229,4l-1.01549,4l-1.03088,4l-1.03987,4l-0.99525,4l-0.85575,4l-0.59029,4l-0.17906,4l0.38892,4l1.09698,4l1.86972,4l2.55027,4l3.01809,4l3.23448,4l3.18092,4l2.8607,4l2.32092,4l1.66563,4l1.01589,4l0.47737,4l0.12921,4l0.01384,4l0.13193,4l0.44238,4l0.86713,4l1.30137,4l1.62947,4l1.74782,4l1.60294,4l1.23576,4l0.76155,4l0.26447,4l-0.203,4l-0.59737,4l-0.89597,4l-1.10041,4l-1.22915,4l-1.29643,4l-1.30194,4l-1.24119,4l-1.11805,4l-0.94573,4l-0.74741,4l-0.55527,4l-0.4023,4l-0.36259,4l-0.4643,4l-0.66332,4l-0.88352,4l-1.05112,4l-1.09718,4l-0.97248,4l-0.65607,4l-0.15885,4l0.47744,4l1.18568,4l1.88364,4l2.49055,4l2.93531,4l3.14952,4l3.08898,4l2.75574,4l2.18634,4l1.42541,4l0.51425,4l-0.48823,4l-1.49828,4l-2.42194,4l-3.17008,4l-3.67215,4l-3.88266,4l-3.79019,4l-3.42519,4l-2.86199,4l-2.20972,4l-1.58486,4l-1.07841,4l-0.70982,4l-0.3892,4l-0.05078,4l0.29135,4l0.60873,4l0.87175,4l1.06655,4l1.18339,4l1.24086,4l1.27274,4l1.30738,4l1.36102,4l1.43678,4l1.52722,4l1.61842,4l1.69414,4"/><path d="M100,0l-3.46434,4l-3.18631,4l-2.67847,4l-2.10568,4l-1.61025,4l-1.24037,4l-0.99044,4l-0.83138,4l-0.72829,4l-0.64853,4l-0.56066,4l-0.43239,4l-0.23011,4l0.07999,4l0.5255,4l1.11229,4l1.79632,4l2.44449,4l2.8862,4l3.03972,4l2.89078,4l2.47273,4l1.8534,4l1.13582,4l0.46525,4l-0.04529,4l-0.32844,4l-0.35329,4l-0.12942,4l0.29291,4l0.82747,4l1.36236,4l1.77611,4l1.961,4l1.8805,4l1.54324,4l1.0687,4l0.53056,4l-0.00945,4l-0.4888,4l-0.85525,4l-1.08035,4l-1.17331,4l-1.16501,4l-1.07663,4l-0.93336,4l-0.75952,4l-0.58143,4l-0.42648,4l-0.31966,4l-0.29297,4l-0.41274,4l-0.7014,4l-1.07915,4l-1.4628,4l-1.75706,4l-1.87832,4l-1.77004,4l-1.41109,4l-0.81853,4l-0.04524,4l0.82735,4l1.70293,4l2.48472,4l3.08988,4l3.46044,4l3.56199,4l3.37973,4l2.9243,4l2.2322,4l1.35371,4l0.35836,4l-0.6639,4l-1.6147,4l-2.40045,4l-2.94504,4l-3.20161,4l-3.15884,4l-2.8454,4l-2.33088,4l-1.71806,4l-1.12534,4l-0.65777,4l-0.36502,4l-0.18968,4l-0.03987,4l0.07006,4l0.13433,4l0.16922,4l0.19642,4l0.22781,4l0.25874,4l0.3072,4l0.39904,4l0.5434,4l0.73235,4l0.94536,4l1.15518,4l1.33376,4"/><path d="M108,0l-3.66266,4l-3.37266,4l-2.82687,4l-2.15504,4l-1.52428,4l-1.01431,4l-0.64274,4l-0.39526,4l-0.2444,4l-0.15892,4l-0.10666,4l-0.05355,4l0.03891,4l0.21341,4l0.50968,4l0.94897,4l1.50345,4l2.02858,4l2.3283,4l2.34079,4l2.08013,4l1.59744,4l0.96909,4l0.28522,4l-0.34715,4l-0.80145,4l-0.99401,4l-0.89749,4l-0.53417,4l0.02861,4l0.69039,4l1.33192,4l1.83243,4l2.08394,4l2.0722,4l1.78762,4l1.35085,4l0.81192,4l0.2337,4l-0.31435,4l-0.7647,4l-1.06315,4l-1.18366,4l-1.14346,4l-0.99877,4l-0.79087,4l-0.55457,4l-0.32871,4l-0.14957,4l-0.04116,4l-0.02615,4l-0.1751,4l-0.5076,4l-0.97291,4l-1.47334,4l-1.89873,4l-2.15214,4l-2.16606,4l-1.91054,4l-1.3944,4l-0.66203,4l0.21407,4l1.1442,4l2.03489,4l2.79811,4l3.35753,4l3.65732,4l3.66764,4l3.38747,4l2.84468,4l2.09344,4l1.20903,4l0.28043,4l-0.59881,4l-1.34075,4l-1.87351,4l-2.15098,4l-2.16051,4l-1.92768,4l-1.51544,4l-1.0174,4l-0.54372,4l-0.19584,4l-0.03186,4l-0.04644,4l-0.16838,4l-0.35252,4l-0.55475,4l-0.72541,4l-0.82369,4l-0.82537,4l-0.7295,4l-0.55546,4l-0.31766,4l-0.02955,4l0.28922,4l0.61456,4l0.9178,4l1.16803,4"/><path d="M116,0l-3.46434,4l-3.18626,4l-2.65836,4l-1.95471,4l-1.23686,4l-0.63151,4l-0.18749,4l0.08756,4l0.21246,4l0.2264,4l0.17762,4l0.11744,4l0.09768,4l0.16778,4l0.36812,4l0.71542,4l1.1361,4l1.47719,4l1.58045,4l1.43309,4l1.07532,4l0.56656,4l-0.01585,4l-0.58662,4l-1.07047,4l-1.39166,4l-1.47143,4l-1.27599,4l-0.83084,4l-0.20566,4l0.50036,4l1.17362,4l1.70454,4l1.98185,4l2.00071,4l1.79266,4l1.411,4l0.90311,4l0.33081,4l-0.23576,4l-0.72541,4l-1.07495,4l-1.24065,4l-1.21301,4l-1.033,4l-0.77791,4l-0.49839,4l-0.23115,4l-0.00386,4l0.17749,4l0.31445,4l0.30256,4l0.06011,4l-0.38254,4l-0.93193,4l-1.47258,4l-1.89504,4l-2.11348,4l-2.07566,4l-1.7676,4l-1.21181,4l-0.45959,4l0.41589,4l1.32735,4l2.18093,4l2.88307,4l3.35644,4l3.55851,4l3.4766,4l3.12685,4l2.55468,4l1.83522,4l1.05616,4l0.30348,4l-0.34976,4l-0.84265,4l-1.12816,4l-1.18682,4l-1.03531,4l-0.72796,4l-0.35049,4l-0.00496,4l0.21519,4l0.20256,4l-0.04076,4l-0.42348,4l-0.8604,4l-1.27083,4l-1.58026,4l-1.73584,4l-1.71375,4l-1.51963,4l-1.18882,4l-0.77072,4l-0.30526,4l0.17366,4l0.63007,4l1.02505,4l1.32091,4"/><path d="M124.0442,0l-2.93412,4l-2.68596,4l-2.21653,4l-1.58526,4l-0.89259,4l-0.29871,4l0.09942,4l0.28837,4l0.30288,4l0.20098,4l0.04881,4l-0.0879,4l-0.14876,4l-0.08361,4l0.13897,4l0.50369,4l0.88124,4l1.12199,4l1.11188,4l0.86574,4l0.43863,4l-0.08972,4l-0.637,4l-1.12119,4l-1.45107,4l-1.57348,4l-1.48566,4l-1.21274,4l-0.77388,4l-0.21465,4l0.39016,4l0.95361,4l1.3873,4l1.62302,4l1.65105,4l1.48801,4l1.15593,4l0.69641,4l0.16494,4l-0.37481,4l-0.85698,4l-1.22045,4l-1.41725,4l-1.42353,4l-1.25387,4l-0.97367,4l-0.65195,4l-0.31599,4l0.02671,4l0.36606,4l0.67891,4l0.87084,4l0.81453,4l0.49592,4l-0.0153,4l-0.61144,4l-1.17991,4l-1.62037,4l-1.85483,4l-1.83529,4l-1.54905,4l-1.01911,4l-0.29638,4l0.54429,4l1.40845,4l2.18678,4l2.77789,4l3.12556,4l3.21143,4l3.04785,4l2.67099,4l2.13307,4l1.4909,4l0.82049,4l0.21099,4l-0.25907,4l-0.53676,4l-0.60378,4l-0.4801,4l-0.22179,4l0.08764,4l0.35354,4l0.463,4l0.31399,4l-0.08949,4l-0.63042,4l-1.21538,4l-1.74322,4l-2.1256,4l-2.29915,4l-2.24332,4l-1.98567,4l-1.56345,4l-1.0202,4l-0.40649,4l0.22029,4l0.80246,4l1.28614,4l1.62636,4"/><path d="M132.59967,0l-2.24231,4l-2.06566,4l-1.69884,4l-1.22388,4l-0.73927,4l-0.3198,4l-0.07648,4l-0.00849,4l-0.10182,4l-0.28101,4l-0.4725,4l-0.60295,4l-0.6086,4l-0.44432,4l-0.09609,4l0.36989,4l0.80391,4l1.04698,4l1.05165,4l0.82782,4l0.42494,4l-0.07828,4l-0.57519,4l-0.97162,4l-1.21825,4l-1.28371,4l-1.1579,4l-0.86693,4l-0.47748,4l-0.05437,4l0.3564,4l0.71781,4l1.00132,4l1.16857,4l1.1825,4l1.03223,4l0.73251,4l0.31677,4l-0.16878,4l-0.67028,4l-1.13082,4l-1.49519,4l-1.71328,4l-1.74925,4l-1.60947,4l-1.30586,4l-0.90372,4l-0.44508,4l0.04011,4l0.52091,4l0.96749,4l1.33719,4l1.50573,4l1.38427,4l0.98669,4l0.3914,4l-0.29133,4l-0.94366,4l-1.45786,4l-1.74892,4l-1.76415,4l-1.4907,4l-0.95423,4l-0.21493,4l0.63227,4l1.46052,4l2.15018,4l2.63765,4l2.89052,4l2.8955,4l2.6388,4l2.14185,4l1.49062,4l0.82386,4l0.24495,4l-0.17263,4l-0.39852,4l-0.42394,4l-0.27779,4l-0.0208,4l0.26572,4l0.49773,4l0.54772,4l0.33726,4l-0.10547,4l-0.69478,4l-1.32326,4l-1.8803,4l-2.27223,4l-2.45384,4l-2.41782,4l-2.16392,4l-1.71047,4l-1.10343,4l-0.40806,4l0.30585,4l0.96881,4l1.51401,4l1.89218,4"/><path d="M142.35619,0l-1.50876,4l-1.47999,4l-1.33695,4l-1.14883,4l-0.96427,4l-0.81842,4l-0.7377,4l-0.73856,4l-0.86677,4l-1.03781,4l-1.18705,4l-1.22378,4l-1.09154,4l-0.76101,4l-0.24961,4l0.33663,4l0.83734,4l1.16191,4l1.27031,4l1.16074,4l0.86763,4l0.45536,4l0.06552,4l-0.27814,4l-0.49828,4l-0.60991,4l-0.59823,4l-0.46604,4l-0.24315,4l0.00696,4l0.23503,4l0.43913,4l0.61899,4l0.73704,4l0.73971,4l0.60638,4l0.3475,4l-0.0074,4l-0.42059,4l-0.85061,4l-1.25407,4l-1.58658,4l-1.8047,4l-1.87076,4l-1.76055,4l-1.48187,4l-1.07877,4l-0.59613,4l-0.06566,4l0.4815,4l1.01009,4l1.48176,4l1.8237,4l1.92592,4l1.67479,4l1.13853,4l0.41108,4l-0.38296,4l-1.11438,4l-1.66399,4l-1.93928,4l-1.89826,4l-1.53797,4l-0.90377,4l-0.09263,4l0.75589,4l1.53318,4l2.17446,4l2.61452,4l2.76221,4l2.57638,4l2.10355,4l1.44843,4l0.74439,4l0.12475,4l-0.27967,4l-0.45104,4l-0.41638,4l-0.23753,4l0.02422,4l0.29495,4l0.50467,4l0.55947,4l0.37626,4l-0.0368,4l-0.60279,4l-1.21198,4l-1.75224,4l-2.12961,4l-2.36751,4l-2.374,4l-2.17563,4l-1.75126,4l-1.14766,4l-0.44116,4l0.28082,4l0.9481,4l1.51178,4l1.93286,4"/><path d="M153.54094,0l-0.85027,4l-1.05975,4l-1.2223,4l-1.35817,4l-1.47263,4l-1.56602,4l-1.64071,4l-1.70342,4l-1.76134,4l-1.81078,4l-1.82499,4l-1.71653,4l-1.41783,4l-0.93175,4l-0.32285,4l0.3103,4l0.87451,4l1.29675,4l1.53237,4l1.56758,4l1.41982,4l1.13443,4l0.868,4l0.55252,4l0.3208,4l0.12005,4l-0.03311,4l-0.11233,4l-0.11854,4l-0.0585,4l0.02489,4l0.11007,4l0.20106,4l0.29226,4l0.34064,4l0.31051,4l0.19582,4l0.00674,4l-0.2389,4l-0.51917,4l-0.80858,4l-1.07753,4l-1.29242,4l-1.41856,4l-1.42687,4l-1.30602,4l-1.06821,4l-0.74175,4l-0.35184,4l0.08818,4l0.56599,4l1.03944,4l1.44123,4l1.69919,4l1.63927,4l1.37872,4l0.67169,4l-0.14565,4l-0.97103,4l-1.6599,4l-2.10083,4l-2.22102,4l-1.9982,4l-1.47024,4l-0.7396,4l0.07742,4l0.90721,4l1.67632,4l2.25495,4l2.52608,4l2.46277,4l2.1084,4l1.55332,4l0.91498,4l0.31897,4l-0.1217,4l-0.33136,4l-0.29615,4l-0.10444,4l0.13817,4l0.36992,4l0.55005,4l0.62134,4l0.48415,4l0.12405,4l-0.39392,4l-0.9679,4l-1.49074,4l-1.8713,4l-2.20465,4l-2.26803,4l-2.16856,4l-1.82962,4l-1.30309,4l-0.62813,4l0.06522,4l0.71576,4l1.27968,4l1.72341,4"/><path d="M165.71488,0l-0.38087,4l-0.85411,4l-1.30494,4l-1.71676,4l-2.06326,4l-2.31878,4l-2.46684,4l-2.50547,4l-2.44761,4l-2.31516,4l-2.12562,4l-1.87012,4l-1.49612,4l-0.98964,4l-0.39639,4l0.22599,4l0.80832,4l1.28515,4l1.61745,4l1.76663,4l1.74398,4l1.57255,4l1.37595,4l1.0935,4l0.83781,4l0.56994,4l0.31657,4l0.10684,4l-0.03559,4l-0.10423,4l-0.12322,4l-0.12863,4l-0.11983,4l-0.07266,4l0.0326,4l0.16538,4l0.28057,4l0.34934,4l0.35837,4l0.302,4l0.18224,4l0.0102,4l-0.19291,4l-0.39741,4l-0.57104,4l-0.68757,4l-0.72996,4l-0.70826,4l-0.62008,4l-0.43084,4l-0.14416,4l0.19275,4l0.5127,4l0.7448,4l0.78854,4l0.68529,4l0.24202,4l-0.28969,4l-1.07811,4l-1.76958,4l-2.249,4l-2.43727,4l-2.3103,4l-1.91157,4l-1.31269,4l-0.57442,4l0.24964,4l1.07309,4l1.74219,4l2.15114,4l2.27124,4l2.12592,4l1.77523,4l1.30396,4l0.81058,4l0.39463,4l0.14029,4l0.09391,4l0.23375,4l0.4444,4l0.62103,4l0.73565,4l0.76711,4l0.64632,4l0.32931,4l-0.17797,4l-0.74363,4l-1.30026,4l-1.74016,4l-2.14972,4l-2.28885,4l-2.25967,4l-1.96887,4l-1.45679,4l-0.80451,4l-0.11641,4l0.50918,4l1.01939,4l1.39378,4"/><path d="M177.96305,0l-0.13228,4l-0.82842,4l-1.49159,4l-2.08066,4l-2.55046,4l-2.86146,4l-2.98933,4l-2.93248,4l-2.71618,4l-2.39157,4l-2.02682,4l-1.67583,4l-1.3308,4l-0.91502,4l-0.41841,4l0.12032,4l0.65035,4l1.10934,4l1.44304,4l1.61879,4l1.63126,4l1.5022,4l1.30686,4l1.05694,4l0.80028,4l0.53621,4l0.29104,4l0.09146,4l-0.0419,4l-0.10353,4l-0.12509,4l-0.15787,4l-0.1935,4l-0.18899,4l-0.10195,4l0.09641,4l0.38803,4l0.71469,4l1.0248,4l1.2471,4l1.35362,4l1.33282,4l1.19079,4l0.9502,4l0.64533,4l0.3133,4l-0.02368,4l-0.35595,4l-0.61313,4l-0.73293,4l-0.71891,4l-0.61225,4l-0.48002,4l-0.36584,4l-0.3304,4l-0.40455,4l-0.61056,4l-0.95309,4l-1.42703,4l-1.93465,4l-2.37074,4l-2.58291,4l-2.56432,4l-2.31713,4l-1.8547,4l-1.21496,4l-0.44285,4l0.37503,4l1.1079,4l1.65624,4l1.98212,4l2.08439,4l1.98912,4l1.74396,4l1.4134,4l1.07281,4l0.79881,4l0.65451,4l0.66891,4l0.79848,4l0.91532,4l0.94995,4l0.87628,4l0.66755,4l0.28613,4l-0.25203,4l-0.86771,4l-1.4582,4l-1.92585,4l-2.28348,4l-2.4152,4l-2.33083,4l-1.98518,4l-1.42679,4l-0.74478,4l-0.05126,4l0.54737,4l0.9584,4l1.09933,4"/><path d="M189.24475,0l-0.04092,4l-0.88916,4l-1.66673,4l-2.32459,4l-2.80587,4l-3.07555,4l-3.11859,4l-2.9481,4l-2.60779,4l-2.16808,4l-1.7133,4l-1.31712,4l-1.00288,4l-0.68895,4l-0.29539,4l0.13991,4l0.55423,4l0.88665,4l1.09461,4l1.15987,4l1.08875,4l0.91012,4l0.67298,4l0.42359,4l0.18857,4l-0.0099,4l-0.15046,4l-0.21682,4l-0.20212,4l-0.13369,4l-0.07919,4l-0.07384,4l-0.09137,4l-0.08311,4l-0.00437,4l0.17666,4l0.47489,4l0.88584,4l1.3638,4l1.83342,4l2.20307,4l2.39895,4l2.4081,4l2.24217,4l1.9265,4l1.48584,4l0.93298,4l0.32307,4l-0.21571,4l-0.61085,4l-0.8574,4l-0.98498,4l-1.0391,4l-1.06186,4l-1.08465,4l-1.13254,4l-1.22884,4l-1.39672,4l-1.65533,4l-2.00789,4l-2.41334,4l-2.73321,4l-2.84973,4l-2.73717,4l-2.39655,4l-1.85168,4l-1.14634,4l-0.3562,4l0.41271,4l1.05172,4l1.54922,4l1.87169,4l2.01629,4l1.99536,4l1.83995,4l1.60095,4l1.34551,4l1.14567,4l1.05615,4l1.07797,4l1.09962,4l0.9825,4l0.70374,4l0.28759,4l-0.22157,4l-0.795,4l-1.38886,4l-1.92699,4l-2.32714,4l-2.53834,4l-2.53194,4l-2.28156,4l-1.8005,4l-1.14818,4l-0.41811,4l0.279,4l0.80363,4l1.00729,4l0.87828,4"/><path d="M198.71284,0l0.00125,4l-0.89759,4l-1.69378,4l-2.32398,4l-2.74423,4l-2.93126,4l-2.8858,4l-2.63562,4l-2.23604,4l-1.76528,4l-1.31206,4l-0.9526,4l-0.67663,4l-0.41158,4l-0.07722,4l0.26885,4l0.54754,4l0.69811,4l0.69839,4l0.56055,4l0.31537,4l0.00841,4l-0.31009,4l-0.59317,4l-0.79968,4l-0.90227,4l-0.88663,4l-0.75095,4l-0.51511,4l-0.27884,4l-0.10612,4l-0.01805,4l0.02423,4l0.06812,4l0.15518,4l0.31524,4l0.56571,4l0.91298,4l1.35244,4l1.86348,4l2.39476,4l2.84033,4l3.09929,4l3.14116,4l2.95657,4l2.54047,4l1.91597,4l1.17737,4l0.48416,4l-0.077,4l-0.48841,4l-0.76609,4l-0.93985,4l-1.04226,4l-1.09872,4l-1.13262,4l-1.17453,4l-1.2684,4l-1.46154,4l-1.78262,4l-2.21742,4l-2.66689,4l-2.95735,4l-3.01067,4l-2.81967,4l-2.41388,4l-1.83781,4l-1.15012,4l-0.43708,4l0.24019,4l0.84002,4l1.32726,4l1.67363,4l1.86311,4l1.89872,4l1.80731,4l1.63925,4l1.45997,4l1.33048,4l1.23125,4l1.07331,4l0.74579,4l0.26195,4l-0.32771,4l-0.96226,4l-1.57762,4l-2.11579,4l-2.53461,4l-2.78292,4l-2.80245,4l-2.56098,4l-2.08817,4l-1.43755,4l-0.68349,4l0.07961,4l0.72647,4l1.1244,4l1.11571,4l0.80893,4"/><path d="M205.9665,0l0.04397,4l-0.76372,4l-1.46552,4l-1.99541,4l-2.31248,4l-2.40566,4l-2.29122,4l-2.0112,4l-1.63047,4l-1.22984,4l-0.89257,4l-0.65309,4l-0.43719,4l-0.25128,4l0.00804,4l0.26394,4l0.43829,4l0.46716,4l0.31512,4l-0.00918,4l-0.44107,4l-0.90166,4l-1.32665,4l-1.65702,4l-1.84551,4l-1.86194,4l-1.69734,4l-1.36336,4l-0.92788,4l-0.52658,4l-0.23699,4l-0.05813,4l0.04646,4l0.1211,4l0.20494,4l0.32769,4l0.51104,4l0.77247,4l1.12805,4l1.58941,4l2.14754,4l2.74561,4l3.24867,4l3.52704,4l3.53124,4l3.25208,4l2.71062,4l1.99465,4l1.27941,4l0.67417,4l0.21183,4l-0.11424,4l-0.32729,4l-0.45624,4l-0.53219,4l-0.58503,4l-0.64737,4l-0.75829,4l-0.96107,4l-1.29169,4l-1.75561,4l-2.28976,4l-2.73305,4l-2.98393,4l-3.03869,4l-2.88846,4l-2.53337,4l-1.99828,4l-1.34579,4l-0.65659,4l0.01712,4l0.63014,4l1.13755,4l1.50334,4l1.71005,4l1.76575,4l1.7056,4l1.58502,4l1.43713,4l1.20149,4l0.88257,4l0.38676,4l-0.23386,4l-0.91476,4l-1.5896,4l-2.19687,4l-2.68036,4l-2.98309,4l-3.05018,4l-2.85971,4l-2.42383,4l-1.78248,4l-1.01194,4l-0.20781,4l0.53631,4l1.09995,4l1.33925,4l1.24322,4l0.88267,4"/><path d="M211.20199,0l0.10622,4l-0.49526,4l-0.98835,4l-1.3332,4l-1.50834,4l-1.5134,4l-1.37152,4l-1.13004,4l-0.85616,4l-0.62666,4l-0.51066,4l-0.40441,4l-0.37812,4l-0.28988,4l-0.13587,4l0.01761,4l0.10391,4l0.06537,4l-0.13669,4l-0.51171,4l-1.02951,4l-1.60005,4l-2.10674,4l-2.47721,4l-2.66118,4l-2.62766,4l-2.36893,4l-1.90298,4l-1.3226,4l-0.79423,4l-0.40111,4l-0.14949,4l-0.0081,4l0.0666,4l0.11692,4l0.17904,4l0.28453,4l0.46352,4l0.74608,4l1.15833,4l1.70908,4l2.36505,4l3.01842,4l3.49239,4l3.69425,4l3.60298,4l3.22765,4l2.62281,4l1.94975,4l1.35127,4l0.88208,4l0.54655,4l0.32648,4l0.19565,4l0.12507,4l0.08289,4l0.03213,4l-0.07095,4l-0.27311,4l-0.61293,4l-1.10028,4l-1.69393,4l-2.29377,4l-2.78233,4l-3.09783,4l-3.19079,4l-3.03577,4l-2.64063,4l-2.04757,4l-1.33346,4l-0.58699,4l0.11809,4l0.72301,4l1.18557,4l1.48464,4l1.62404,4l1.6325,4l1.55656,4l1.34889,4l1.06119,4l0.62062,4l0.03389,4l-0.63439,4l-1.31141,4l-1.92702,4l-2.42228,4l-2.75404,4l-2.89385,4l-2.81982,4l-2.52023,4l-2.0178,4l-1.36494,4l-0.63585,4l0.08478,4l0.71805,4l1.17835,4l1.36819,4l1.28042,4l0.96834,4"/><path d="M215.14363,0l0.21665,4l-0.11262,4l-0.34572,4l-0.46764,4l-0.47342,4l-0.37953,4l-0.22505,4l-0.06722,4l0.02731,4l-0.0039,4l-0.16213,4l-0.33091,4l-0.4999,4l-0.54958,4l-0.52044,4l-0.46277,4l-0.42899,4l-0.47006,4l-0.63161,4l-0.94597,4l-1.41546,4l-1.98667,4l-2.53752,4l-2.93915,4l-3.13323,4l-3.08834,4l-2.79417,4l-2.26537,4l-1.58665,4l-0.94503,4l-0.45474,4l-0.1411,4l0.01851,4l0.06758,4l0.05487,4l0.02712,4l0.02715,4l0.09491,4l0.27032,4l0.59067,4l1.07954,4l1.72606,4l2.45052,4l3.07505,4l3.45805,4l3.56212,4l3.3845,4l2.95118,4l2.35471,4l1.76118,4l1.27038,4l0.91672,4l0.70341,4l0.6084,4l0.59367,4l0.61455,4l0.62289,4l0.56822,4l0.40111,4l0.08257,4l-0.41227,4l-1.07079,4l-1.81386,4l-2.47111,4l-2.94877,4l-3.17827,4l-3.13363,4l-2.82167,4l-2.2813,4l-1.58095,4l-0.81148,4l-0.06578,4l0.58188,4l1.08038,4l1.40407,4l1.55452,4l1.55844,4l1.44395,4l1.18693,4l0.82219,4l0.31732,4l-0.27157,4l-0.87681,4l-1.4306,4l-1.87542,4l-2.17215,4l-2.30438,4l-2.27705,4l-2.10682,4l-1.80188,4l-1.37233,4l-0.86448,4l-0.33676,4l0.16041,4l0.60579,4l0.9731,4l1.15694,4l1.11936,4l0.9052,4"/><path d="M218.61304,0l0.49737,4l0.38785,4l0.37227,4l0.45564,4l0.60252,4l0.7632,4l0.88885,4l0.9208,4l0.80176,4l0.49423,4l0.06627,4l-0.3642,4l-0.6791,4l-0.87089,4l-0.96523,4l-0.99625,4l-1.00179,4l-1.0231,4l-1.10507,4l-1.29275,4l-1.61983,4l-2.08454,4l-2.61042,4l-3.03682,4l-3.256,4l-3.22514,4l-2.92702,4l-2.37685,4l-1.63698,4l-0.88674,4l-0.29035,4l0.09198,4l0.26562,4l0.27157,4l0.16762,4l0.01377,4l-0.13309,4l-0.21959,4l-0.19533,4l-0.01236,4l0.36632,4l0.94457,4l1.65792,4l2.33787,4l2.83252,4l3.09642,4l3.11515,4l2.89096,4l2.4492,4l1.89744,4l1.40836,4l1.0643,4l0.87238,4l0.80495,4l0.82021,4l0.87151,4l0.91037,4l0.88742,4l0.75565,4l0.47976,4l0.0026,4l-0.66378,4l-1.40268,4l-2.07928,4l-2.58746,4l-2.84464,4l-2.81132,4l-2.50568,4l-1.98846,4l-1.33203,4l-0.61624,4l0.07675,4l0.6719,4l1.11719,4l1.38908,4l1.49127,4l1.44963,4l1.28354,4l0.99942,4l0.59781,4l0.11674,4l-0.38732,4l-0.8543,4l-1.23056,4l-1.47799,4l-1.58075,4l-1.54826,4l-1.41226,4l-1.21583,4l-0.99213,4l-0.74179,4l-0.47088,4l-0.19496,4l0.08678,4l0.36635,4l0.61949,4l0.77077,4l0.77212,4l0.65008,4"/><path d="M222.10847,0l1.00269,4l1.0519,4l1.1385,4l1.27934,4l1.4658,4l1.6431,4l1.71453,4l1.61122,4l1.2985,4l0.78328,4l0.16913,4l-0.38882,4l-0.82632,4l-1.13237,4l-1.31932,4l-1.4097,4l-1.43206,4l-1.42179,4l-1.42291,4l-1.48683,4l-1.66342,4l-1.97958,4l-2.41177,4l-2.81665,4l-3.03504,4l-3.00943,4l-2.72603,4l-2.20113,4l-1.48039,4l-0.67527,4l0.01897,4l0.48852,4l0.71271,4l0.72171,4l0.56967,4l0.31984,4l0.03793,4l-0.21055,4l-0.36198,4l-0.3576,4l-0.15054,4l0.27069,4l0.84448,4l1.41113,4l1.85648,4l2.15545,4l2.2912,4l2.26319,4l2.1122,4l1.86649,4l1.54949,4l1.25789,4l1.00802,4l0.85411,4l0.77797,4l0.74949,4l0.73157,4l0.68304,4l0.56374,4l0.33476,4l-0.04786,4l-0.57897,4l-1.15374,4l-1.67956,4l-2.06401,4l-2.23477,4l-2.15301,4l-1.83536,4l-1.34322,4l-0.76446,4l-0.16509,4l0.39646,4l0.86829,4l1.20505,4l1.38343,4l1.4073,4l1.29898,4l1.07945,4l0.76403,4l0.38488,4l-0.01367,4l-0.3831,4l-0.67867,4l-0.86721,4l-0.93394,4l-0.88688,4l-0.75713,4l-0.60555,4l-0.44545,4l-0.3473,4l-0.27222,4l-0.18949,4l-0.09885,4l-0.00149,4l0.10131,4l0.20568,4l0.28805,4l0.30634,4l0.27903,4"/><path d="M226.29091,0l1.50174,4l1.65919,4l1.77924,4l1.8777,4l1.96217,4l2.01909,4l1.99654,4l1.80659,4l1.42235,4l0.8829,4l0.24801,4l-0.36778,4l-0.87717,4l-1.24658,4l-1.47195,4l-1.57167,4l-1.57668,4l-1.52543,4l-1.46348,4l-1.44252,4l-1.51385,4l-1.7111,4l-2.02643,4l-2.34458,4l-2.51901,4l-2.4815,4l-2.22137,4l-1.75834,4l-1.13684,4l-0.41728,4l0.29629,4l0.85777,4l1.19222,4l1.28671,4l1.17605,4l0.91681,4l0.58814,4l0.22556,4l-0.0606,4l-0.21788,4l-0.19594,4l0.01045,4l0.32402,4l0.61356,4l0.84281,4l1.0091,4l1.12275,4l1.22982,4l1.33689,4l1.41343,4l1.41787,4l1.31469,4l1.10157,4l0.85218,4l0.57176,4l0.35096,4l0.1792,4l0.03387,4l-0.11092,4l-0.27816,4l-0.50451,4l-0.79094,4l-1.09603,4l-1.3561,4l-1.50776,4l-1.5029,4l-1.31729,4l-1.00876,4l-0.57117,4l-0.11162,4l0.31637,4l0.68199,4l0.96689,4l1.15664,4l1.22994,4l1.18045,4l1.01924,4l0.76753,4l0.46072,4l0.14139,4l-0.15123,4l-0.38795,4l-0.54145,4l-0.59221,4l-0.53737,4l-0.39533,4l-0.20512,4l-0.01919,4l0.11175,4l0.15996,4l0.15559,4l0.13714,4l0.09869,4l0.04345,4l-0.01966,4l-0.07319,4l-0.07418,4l-0.00316,4l0.11344,4"/><path d="M231.82668,0l1.73845,4l1.93798,4l2.0353,4l2.0457,4l1.99257,4l1.89338,4l1.76502,4l1.5783,4l1.26353,4l0.81299,4l0.2628,4l-0.30246,4l-0.77203,4l-1.09986,4l-1.28891,4l-1.36328,4l-1.35466,4l-1.29842,4l-1.23419,4l-1.20577,4l-1.25547,4l-1.40768,4l-1.64008,4l-1.84859,4l-1.93216,4l-1.84091,4l-1.57123,4l-1.15935,4l-0.65927,4l-0.11162,4l0.45073,4l0.99644,4l1.37551,4l1.59383,4l1.71396,4l1.52041,4l1.2721,4l0.96178,4l0.66224,4l0.43898,4l0.32978,4l0.31407,4l0.29887,4l0.23583,4l0.14749,4l0.06914,4l0.07155,4l0.18257,4l0.37336,4l0.59046,4l0.77536,4l0.87469,4l0.84606,4l0.66464,4l0.33782,4l-0.06296,4l-0.43292,4l-0.72085,4l-0.92415,4l-1.03904,4l-1.09703,4l-1.13785,4l-1.15673,4l-1.12703,4l-1.02041,4l-0.81792,4l-0.51522,4l-0.232,4l0.12921,4l0.43771,4l0.66369,4l0.81374,4l0.8754,4l0.89818,4l0.87228,4l0.76942,4l0.58751,4l0.34669,4l0.06673,4l-0.22118,4l-0.47348,4l-0.64801,4l-0.71361,4l-0.65732,4l-0.48886,4l-0.24115,4l0.03405,4l0.27675,4l0.43703,4l0.50142,4l0.51635,4l0.50859,4l0.45456,4l0.35219,4l0.23275,4l0.1583,4l0.16459,4l0.25784,4l0.425,4"/><path d="M238.91206,0l1.62429,4l1.82164,4l1.8773,4l1.81193,4l1.66261,4l1.47474,4l1.28709,4l1.10623,4l0.87949,4l0.58238,4l0.26117,4l-0.06033,4l-0.358,4l-0.59399,4l-0.75145,4l-0.84141,4l-0.88535,4l-0.90828,4l-0.93793,4l-1.00329,4l-1.12739,4l-1.30934,4l-1.49258,4l-1.58423,4l-1.54569,4l-1.35476,4l-1.04166,4l-0.67005,4l-0.27648,4l0.12047,4l0.50711,4l0.8708,4l1.28408,4l1.52402,4l1.68555,4l1.77426,4l1.78378,4l1.6998,4l1.57019,4l1.43159,4l1.28243,4l1.06794,4l0.75925,4l0.37488,4l-0.03225,4l-0.37443,4l-0.56282,4l-0.58503,4l-0.4782,4l-0.29664,4l-0.09688,4l0.068,4l0.14957,4l0.10584,4l-0.0916,4l-0.43993,4l-0.87242,4l-1.25145,4l-1.4972,4l-1.58869,4l-1.53816,4l-1.39427,4l-1.18607,4l-0.8939,4l-0.54915,4l-0.16343,4l0.23954,4l0.50374,4l0.75993,4l0.87695,4l0.86439,4l0.75437,4l0.59536,4l0.43754,4l0.3094,4l0.18983,4l0.03577,4l-0.17789,4l-0.44776,4l-0.73769,4l-0.98249,4l-1.1196,4l-1.11749,4l-0.97432,4l-0.71435,4l-0.38403,4l-0.04337,4l0.24863,4l0.45609,4l0.5963,4l0.72172,4l0.81948,4l0.85162,4l0.83173,4l0.81915,4l0.85,4l0.93271,4l1.05891,4l1.21191,4"/><path d="M247.28788,0l1.36263,4l1.57541,4l1.61689,4l1.5068,4l1.28793,4l1.01818,4l0.75607,4l0.54034,4l0.39111,4l0.30248,4l0.26373,4l0.24483,4l0.20838,4l0.1232,4l-0.00081,4l-0.17204,4l-0.36618,4l-0.57489,4l-0.80522,4l-1.06143,4l-1.33398,4l-1.57818,4l-1.71299,4l-1.70137,4l-1.5319,4l-1.22316,4l-0.86224,4l-0.50873,4l-0.18077,4l0.11963,4l0.4144,4l0.66886,4l0.91253,4l1.13944,4l1.36345,4l1.60597,4l1.86123,4l2.11768,4l2.30452,4l2.36292,4l2.25013,4l1.95961,4l1.50682,4l0.92384,4l0.28264,4l-0.28784,4l-0.69508,4l-0.91838,4l-0.98628,4l-0.94244,4l-0.83303,4l-0.7034,4l-0.59928,4l-0.56764,4l-0.65223,4l-0.87803,4l-1.22106,4l-1.57336,4l-1.7913,4l-1.82709,4l-1.66168,4l-1.31678,4l-0.85359,4l-0.33026,4l0.20204,4l0.6976,4l1.11754,4l1.33853,4l1.42337,4l1.29777,4l1.00202,4l0.60037,4l0.17515,4l-0.19141,4l-0.44607,4l-0.62134,4l-0.79501,4l-0.9796,4l-1.16244,4l-1.32517,4l-1.44936,4l-1.49602,4l-1.44597,4l-1.2773,4l-1.00351,4l-0.6737,4l-0.34224,4l-0.04945,4l0.20486,4l0.46518,4l0.73367,4l0.96729,4l1.13589,4l1.27619,4l1.42367,4l1.58725,4l1.759,4l1.92374,4l2.05065,4"/></g></svg>